G04 #@! TF.GenerationSoftware,KiCad,Pcbnew,9.0.0*
G04 #@! TF.CreationDate,2025-04-04T15:11:58+02:00*
G04 #@! TF.ProjectId,KungFuFlash2,4b756e67-4675-4466-9c61-7368322e6b69,1*
G04 #@! TF.SameCoordinates,Original*
G04 #@! TF.FileFunction,Legend,Bot*
G04 #@! TF.FilePolarity,Positive*
%FSLAX46Y46*%
G04 Gerber Fmt 4.6, Leading zero omitted, Abs format (unit mm)*
G04 Created by KiCad (PCBNEW 9.0.0) date 2025-04-04 15:11:58*
%MOMM*%
%LPD*%
G01*
G04 APERTURE LIST*
%ADD10C,0.150000*%
%ADD11C,2.000000*%
%ADD12R,58.420000X8.300000*%
%ADD13R,1.524000X8.000000*%
%ADD14C,0.001000*%
%ADD15R,1.700000X1.700000*%
%ADD16O,1.700000X1.700000*%
G04 APERTURE END LIST*
D10*
X77514931Y-79648255D02*
X77514931Y-79838731D01*
X77514931Y-79838731D02*
X77562550Y-79933969D01*
X77562550Y-79933969D02*
X77657788Y-80029207D01*
X77657788Y-80029207D02*
X77848264Y-80076826D01*
X77848264Y-80076826D02*
X78181597Y-80076826D01*
X78181597Y-80076826D02*
X78372073Y-80029207D01*
X78372073Y-80029207D02*
X78467312Y-79933969D01*
X78467312Y-79933969D02*
X78514931Y-79838731D01*
X78514931Y-79838731D02*
X78514931Y-79648255D01*
X78514931Y-79648255D02*
X78467312Y-79553017D01*
X78467312Y-79553017D02*
X78372073Y-79457779D01*
X78372073Y-79457779D02*
X78181597Y-79410160D01*
X78181597Y-79410160D02*
X77848264Y-79410160D01*
X77848264Y-79410160D02*
X77657788Y-79457779D01*
X77657788Y-79457779D02*
X77562550Y-79553017D01*
X77562550Y-79553017D02*
X77514931Y-79648255D01*
X78514931Y-80505398D02*
X77848264Y-80505398D01*
X78038740Y-80505398D02*
X77943502Y-80553017D01*
X77943502Y-80553017D02*
X77895883Y-80600636D01*
X77895883Y-80600636D02*
X77848264Y-80695874D01*
X77848264Y-80695874D02*
X77848264Y-80791112D01*
X78514931Y-81124446D02*
X77848264Y-81124446D01*
X77514931Y-81124446D02*
X77562550Y-81076827D01*
X77562550Y-81076827D02*
X77610169Y-81124446D01*
X77610169Y-81124446D02*
X77562550Y-81172065D01*
X77562550Y-81172065D02*
X77514931Y-81124446D01*
X77514931Y-81124446D02*
X77610169Y-81124446D01*
X77848264Y-82029207D02*
X78657788Y-82029207D01*
X78657788Y-82029207D02*
X78753026Y-81981588D01*
X78753026Y-81981588D02*
X78800645Y-81933969D01*
X78800645Y-81933969D02*
X78848264Y-81838731D01*
X78848264Y-81838731D02*
X78848264Y-81695874D01*
X78848264Y-81695874D02*
X78800645Y-81600636D01*
X78467312Y-82029207D02*
X78514931Y-81933969D01*
X78514931Y-81933969D02*
X78514931Y-81743493D01*
X78514931Y-81743493D02*
X78467312Y-81648255D01*
X78467312Y-81648255D02*
X78419692Y-81600636D01*
X78419692Y-81600636D02*
X78324454Y-81553017D01*
X78324454Y-81553017D02*
X78038740Y-81553017D01*
X78038740Y-81553017D02*
X77943502Y-81600636D01*
X77943502Y-81600636D02*
X77895883Y-81648255D01*
X77895883Y-81648255D02*
X77848264Y-81743493D01*
X77848264Y-81743493D02*
X77848264Y-81933969D01*
X77848264Y-81933969D02*
X77895883Y-82029207D01*
X78514931Y-82505398D02*
X77848264Y-82505398D01*
X77514931Y-82505398D02*
X77562550Y-82457779D01*
X77562550Y-82457779D02*
X77610169Y-82505398D01*
X77610169Y-82505398D02*
X77562550Y-82553017D01*
X77562550Y-82553017D02*
X77514931Y-82505398D01*
X77514931Y-82505398D02*
X77610169Y-82505398D01*
X77848264Y-82981588D02*
X78514931Y-82981588D01*
X77943502Y-82981588D02*
X77895883Y-83029207D01*
X77895883Y-83029207D02*
X77848264Y-83124445D01*
X77848264Y-83124445D02*
X77848264Y-83267302D01*
X77848264Y-83267302D02*
X77895883Y-83362540D01*
X77895883Y-83362540D02*
X77991121Y-83410159D01*
X77991121Y-83410159D02*
X78514931Y-83410159D01*
X78514931Y-84314921D02*
X77991121Y-84314921D01*
X77991121Y-84314921D02*
X77895883Y-84267302D01*
X77895883Y-84267302D02*
X77848264Y-84172064D01*
X77848264Y-84172064D02*
X77848264Y-83981588D01*
X77848264Y-83981588D02*
X77895883Y-83886350D01*
X78467312Y-84314921D02*
X78514931Y-84219683D01*
X78514931Y-84219683D02*
X78514931Y-83981588D01*
X78514931Y-83981588D02*
X78467312Y-83886350D01*
X78467312Y-83886350D02*
X78372073Y-83838731D01*
X78372073Y-83838731D02*
X78276835Y-83838731D01*
X78276835Y-83838731D02*
X78181597Y-83886350D01*
X78181597Y-83886350D02*
X78133978Y-83981588D01*
X78133978Y-83981588D02*
X78133978Y-84219683D01*
X78133978Y-84219683D02*
X78086359Y-84314921D01*
X78514931Y-84933969D02*
X78467312Y-84838731D01*
X78467312Y-84838731D02*
X78372073Y-84791112D01*
X78372073Y-84791112D02*
X77514931Y-84791112D01*
X78514931Y-86076827D02*
X77514931Y-86076827D01*
X77895883Y-86076827D02*
X77848264Y-86172065D01*
X77848264Y-86172065D02*
X77848264Y-86362541D01*
X77848264Y-86362541D02*
X77895883Y-86457779D01*
X77895883Y-86457779D02*
X77943502Y-86505398D01*
X77943502Y-86505398D02*
X78038740Y-86553017D01*
X78038740Y-86553017D02*
X78324454Y-86553017D01*
X78324454Y-86553017D02*
X78419692Y-86505398D01*
X78419692Y-86505398D02*
X78467312Y-86457779D01*
X78467312Y-86457779D02*
X78514931Y-86362541D01*
X78514931Y-86362541D02*
X78514931Y-86172065D01*
X78514931Y-86172065D02*
X78467312Y-86076827D01*
X78514931Y-87124446D02*
X78467312Y-87029208D01*
X78467312Y-87029208D02*
X78419692Y-86981589D01*
X78419692Y-86981589D02*
X78324454Y-86933970D01*
X78324454Y-86933970D02*
X78038740Y-86933970D01*
X78038740Y-86933970D02*
X77943502Y-86981589D01*
X77943502Y-86981589D02*
X77895883Y-87029208D01*
X77895883Y-87029208D02*
X77848264Y-87124446D01*
X77848264Y-87124446D02*
X77848264Y-87267303D01*
X77848264Y-87267303D02*
X77895883Y-87362541D01*
X77895883Y-87362541D02*
X77943502Y-87410160D01*
X77943502Y-87410160D02*
X78038740Y-87457779D01*
X78038740Y-87457779D02*
X78324454Y-87457779D01*
X78324454Y-87457779D02*
X78419692Y-87410160D01*
X78419692Y-87410160D02*
X78467312Y-87362541D01*
X78467312Y-87362541D02*
X78514931Y-87267303D01*
X78514931Y-87267303D02*
X78514931Y-87124446D01*
X78514931Y-88314922D02*
X77991121Y-88314922D01*
X77991121Y-88314922D02*
X77895883Y-88267303D01*
X77895883Y-88267303D02*
X77848264Y-88172065D01*
X77848264Y-88172065D02*
X77848264Y-87981589D01*
X77848264Y-87981589D02*
X77895883Y-87886351D01*
X78467312Y-88314922D02*
X78514931Y-88219684D01*
X78514931Y-88219684D02*
X78514931Y-87981589D01*
X78514931Y-87981589D02*
X78467312Y-87886351D01*
X78467312Y-87886351D02*
X78372073Y-87838732D01*
X78372073Y-87838732D02*
X78276835Y-87838732D01*
X78276835Y-87838732D02*
X78181597Y-87886351D01*
X78181597Y-87886351D02*
X78133978Y-87981589D01*
X78133978Y-87981589D02*
X78133978Y-88219684D01*
X78133978Y-88219684D02*
X78086359Y-88314922D01*
X78514931Y-88791113D02*
X77848264Y-88791113D01*
X78038740Y-88791113D02*
X77943502Y-88838732D01*
X77943502Y-88838732D02*
X77895883Y-88886351D01*
X77895883Y-88886351D02*
X77848264Y-88981589D01*
X77848264Y-88981589D02*
X77848264Y-89076827D01*
X78514931Y-89838732D02*
X77514931Y-89838732D01*
X78467312Y-89838732D02*
X78514931Y-89743494D01*
X78514931Y-89743494D02*
X78514931Y-89553018D01*
X78514931Y-89553018D02*
X78467312Y-89457780D01*
X78467312Y-89457780D02*
X78419692Y-89410161D01*
X78419692Y-89410161D02*
X78324454Y-89362542D01*
X78324454Y-89362542D02*
X78038740Y-89362542D01*
X78038740Y-89362542D02*
X77943502Y-89410161D01*
X77943502Y-89410161D02*
X77895883Y-89457780D01*
X77895883Y-89457780D02*
X77848264Y-89553018D01*
X77848264Y-89553018D02*
X77848264Y-89743494D01*
X77848264Y-89743494D02*
X77895883Y-89838732D01*
X78514931Y-91505399D02*
X77514931Y-91505399D01*
X78467312Y-91505399D02*
X78514931Y-91410161D01*
X78514931Y-91410161D02*
X78514931Y-91219685D01*
X78514931Y-91219685D02*
X78467312Y-91124447D01*
X78467312Y-91124447D02*
X78419692Y-91076828D01*
X78419692Y-91076828D02*
X78324454Y-91029209D01*
X78324454Y-91029209D02*
X78038740Y-91029209D01*
X78038740Y-91029209D02*
X77943502Y-91076828D01*
X77943502Y-91076828D02*
X77895883Y-91124447D01*
X77895883Y-91124447D02*
X77848264Y-91219685D01*
X77848264Y-91219685D02*
X77848264Y-91410161D01*
X77848264Y-91410161D02*
X77895883Y-91505399D01*
X78467312Y-92362542D02*
X78514931Y-92267304D01*
X78514931Y-92267304D02*
X78514931Y-92076828D01*
X78514931Y-92076828D02*
X78467312Y-91981590D01*
X78467312Y-91981590D02*
X78372073Y-91933971D01*
X78372073Y-91933971D02*
X77991121Y-91933971D01*
X77991121Y-91933971D02*
X77895883Y-91981590D01*
X77895883Y-91981590D02*
X77848264Y-92076828D01*
X77848264Y-92076828D02*
X77848264Y-92267304D01*
X77848264Y-92267304D02*
X77895883Y-92362542D01*
X77895883Y-92362542D02*
X77991121Y-92410161D01*
X77991121Y-92410161D02*
X78086359Y-92410161D01*
X78086359Y-92410161D02*
X78181597Y-91933971D01*
X78467312Y-92791114D02*
X78514931Y-92886352D01*
X78514931Y-92886352D02*
X78514931Y-93076828D01*
X78514931Y-93076828D02*
X78467312Y-93172066D01*
X78467312Y-93172066D02*
X78372073Y-93219685D01*
X78372073Y-93219685D02*
X78324454Y-93219685D01*
X78324454Y-93219685D02*
X78229216Y-93172066D01*
X78229216Y-93172066D02*
X78181597Y-93076828D01*
X78181597Y-93076828D02*
X78181597Y-92933971D01*
X78181597Y-92933971D02*
X78133978Y-92838733D01*
X78133978Y-92838733D02*
X78038740Y-92791114D01*
X78038740Y-92791114D02*
X77991121Y-92791114D01*
X77991121Y-92791114D02*
X77895883Y-92838733D01*
X77895883Y-92838733D02*
X77848264Y-92933971D01*
X77848264Y-92933971D02*
X77848264Y-93076828D01*
X77848264Y-93076828D02*
X77895883Y-93172066D01*
X78514931Y-93648257D02*
X77848264Y-93648257D01*
X77514931Y-93648257D02*
X77562550Y-93600638D01*
X77562550Y-93600638D02*
X77610169Y-93648257D01*
X77610169Y-93648257D02*
X77562550Y-93695876D01*
X77562550Y-93695876D02*
X77514931Y-93648257D01*
X77514931Y-93648257D02*
X77610169Y-93648257D01*
X77848264Y-94553018D02*
X78657788Y-94553018D01*
X78657788Y-94553018D02*
X78753026Y-94505399D01*
X78753026Y-94505399D02*
X78800645Y-94457780D01*
X78800645Y-94457780D02*
X78848264Y-94362542D01*
X78848264Y-94362542D02*
X78848264Y-94219685D01*
X78848264Y-94219685D02*
X78800645Y-94124447D01*
X78467312Y-94553018D02*
X78514931Y-94457780D01*
X78514931Y-94457780D02*
X78514931Y-94267304D01*
X78514931Y-94267304D02*
X78467312Y-94172066D01*
X78467312Y-94172066D02*
X78419692Y-94124447D01*
X78419692Y-94124447D02*
X78324454Y-94076828D01*
X78324454Y-94076828D02*
X78038740Y-94076828D01*
X78038740Y-94076828D02*
X77943502Y-94124447D01*
X77943502Y-94124447D02*
X77895883Y-94172066D01*
X77895883Y-94172066D02*
X77848264Y-94267304D01*
X77848264Y-94267304D02*
X77848264Y-94457780D01*
X77848264Y-94457780D02*
X77895883Y-94553018D01*
X77848264Y-95029209D02*
X78514931Y-95029209D01*
X77943502Y-95029209D02*
X77895883Y-95076828D01*
X77895883Y-95076828D02*
X77848264Y-95172066D01*
X77848264Y-95172066D02*
X77848264Y-95314923D01*
X77848264Y-95314923D02*
X77895883Y-95410161D01*
X77895883Y-95410161D02*
X77991121Y-95457780D01*
X77991121Y-95457780D02*
X78514931Y-95457780D01*
X78419692Y-95933971D02*
X78467312Y-95981590D01*
X78467312Y-95981590D02*
X78514931Y-95933971D01*
X78514931Y-95933971D02*
X78467312Y-95886352D01*
X78467312Y-95886352D02*
X78419692Y-95933971D01*
X78419692Y-95933971D02*
X78514931Y-95933971D01*
X77895883Y-95933971D02*
X77943502Y-95981590D01*
X77943502Y-95981590D02*
X77991121Y-95933971D01*
X77991121Y-95933971D02*
X77943502Y-95886352D01*
X77943502Y-95886352D02*
X77895883Y-95933971D01*
X77895883Y-95933971D02*
X77991121Y-95933971D01*
X80124875Y-79457779D02*
X79124875Y-79457779D01*
X80124875Y-79886350D02*
X79601065Y-79886350D01*
X79601065Y-79886350D02*
X79505827Y-79838731D01*
X79505827Y-79838731D02*
X79458208Y-79743493D01*
X79458208Y-79743493D02*
X79458208Y-79600636D01*
X79458208Y-79600636D02*
X79505827Y-79505398D01*
X79505827Y-79505398D02*
X79553446Y-79457779D01*
X79458208Y-80219684D02*
X79458208Y-80600636D01*
X79124875Y-80362541D02*
X79982017Y-80362541D01*
X79982017Y-80362541D02*
X80077256Y-80410160D01*
X80077256Y-80410160D02*
X80124875Y-80505398D01*
X80124875Y-80505398D02*
X80124875Y-80600636D01*
X79458208Y-80791113D02*
X79458208Y-81172065D01*
X79124875Y-80933970D02*
X79982017Y-80933970D01*
X79982017Y-80933970D02*
X80077256Y-80981589D01*
X80077256Y-80981589D02*
X80124875Y-81076827D01*
X80124875Y-81076827D02*
X80124875Y-81172065D01*
X79458208Y-81505399D02*
X80458208Y-81505399D01*
X79505827Y-81505399D02*
X79458208Y-81600637D01*
X79458208Y-81600637D02*
X79458208Y-81791113D01*
X79458208Y-81791113D02*
X79505827Y-81886351D01*
X79505827Y-81886351D02*
X79553446Y-81933970D01*
X79553446Y-81933970D02*
X79648684Y-81981589D01*
X79648684Y-81981589D02*
X79934398Y-81981589D01*
X79934398Y-81981589D02*
X80029636Y-81933970D01*
X80029636Y-81933970D02*
X80077256Y-81886351D01*
X80077256Y-81886351D02*
X80124875Y-81791113D01*
X80124875Y-81791113D02*
X80124875Y-81600637D01*
X80124875Y-81600637D02*
X80077256Y-81505399D01*
X80077256Y-82362542D02*
X80124875Y-82457780D01*
X80124875Y-82457780D02*
X80124875Y-82648256D01*
X80124875Y-82648256D02*
X80077256Y-82743494D01*
X80077256Y-82743494D02*
X79982017Y-82791113D01*
X79982017Y-82791113D02*
X79934398Y-82791113D01*
X79934398Y-82791113D02*
X79839160Y-82743494D01*
X79839160Y-82743494D02*
X79791541Y-82648256D01*
X79791541Y-82648256D02*
X79791541Y-82505399D01*
X79791541Y-82505399D02*
X79743922Y-82410161D01*
X79743922Y-82410161D02*
X79648684Y-82362542D01*
X79648684Y-82362542D02*
X79601065Y-82362542D01*
X79601065Y-82362542D02*
X79505827Y-82410161D01*
X79505827Y-82410161D02*
X79458208Y-82505399D01*
X79458208Y-82505399D02*
X79458208Y-82648256D01*
X79458208Y-82648256D02*
X79505827Y-82743494D01*
X80029636Y-83219685D02*
X80077256Y-83267304D01*
X80077256Y-83267304D02*
X80124875Y-83219685D01*
X80124875Y-83219685D02*
X80077256Y-83172066D01*
X80077256Y-83172066D02*
X80029636Y-83219685D01*
X80029636Y-83219685D02*
X80124875Y-83219685D01*
X79505827Y-83219685D02*
X79553446Y-83267304D01*
X79553446Y-83267304D02*
X79601065Y-83219685D01*
X79601065Y-83219685D02*
X79553446Y-83172066D01*
X79553446Y-83172066D02*
X79505827Y-83219685D01*
X79505827Y-83219685D02*
X79601065Y-83219685D01*
X79077256Y-84410160D02*
X80362970Y-83553018D01*
X79077256Y-85457779D02*
X80362970Y-84600637D01*
X79458208Y-86219684D02*
X80267732Y-86219684D01*
X80267732Y-86219684D02*
X80362970Y-86172065D01*
X80362970Y-86172065D02*
X80410589Y-86124446D01*
X80410589Y-86124446D02*
X80458208Y-86029208D01*
X80458208Y-86029208D02*
X80458208Y-85886351D01*
X80458208Y-85886351D02*
X80410589Y-85791113D01*
X80077256Y-86219684D02*
X80124875Y-86124446D01*
X80124875Y-86124446D02*
X80124875Y-85933970D01*
X80124875Y-85933970D02*
X80077256Y-85838732D01*
X80077256Y-85838732D02*
X80029636Y-85791113D01*
X80029636Y-85791113D02*
X79934398Y-85743494D01*
X79934398Y-85743494D02*
X79648684Y-85743494D01*
X79648684Y-85743494D02*
X79553446Y-85791113D01*
X79553446Y-85791113D02*
X79505827Y-85838732D01*
X79505827Y-85838732D02*
X79458208Y-85933970D01*
X79458208Y-85933970D02*
X79458208Y-86124446D01*
X79458208Y-86124446D02*
X79505827Y-86219684D01*
X80124875Y-86695875D02*
X79458208Y-86695875D01*
X79124875Y-86695875D02*
X79172494Y-86648256D01*
X79172494Y-86648256D02*
X79220113Y-86695875D01*
X79220113Y-86695875D02*
X79172494Y-86743494D01*
X79172494Y-86743494D02*
X79124875Y-86695875D01*
X79124875Y-86695875D02*
X79220113Y-86695875D01*
X79458208Y-87029208D02*
X79458208Y-87410160D01*
X79124875Y-87172065D02*
X79982017Y-87172065D01*
X79982017Y-87172065D02*
X80077256Y-87219684D01*
X80077256Y-87219684D02*
X80124875Y-87314922D01*
X80124875Y-87314922D02*
X80124875Y-87410160D01*
X80124875Y-87743494D02*
X79124875Y-87743494D01*
X80124875Y-88172065D02*
X79601065Y-88172065D01*
X79601065Y-88172065D02*
X79505827Y-88124446D01*
X79505827Y-88124446D02*
X79458208Y-88029208D01*
X79458208Y-88029208D02*
X79458208Y-87886351D01*
X79458208Y-87886351D02*
X79505827Y-87791113D01*
X79505827Y-87791113D02*
X79553446Y-87743494D01*
X79458208Y-89076827D02*
X80124875Y-89076827D01*
X79458208Y-88648256D02*
X79982017Y-88648256D01*
X79982017Y-88648256D02*
X80077256Y-88695875D01*
X80077256Y-88695875D02*
X80124875Y-88791113D01*
X80124875Y-88791113D02*
X80124875Y-88933970D01*
X80124875Y-88933970D02*
X80077256Y-89029208D01*
X80077256Y-89029208D02*
X80029636Y-89076827D01*
X80124875Y-89553018D02*
X79124875Y-89553018D01*
X79505827Y-89553018D02*
X79458208Y-89648256D01*
X79458208Y-89648256D02*
X79458208Y-89838732D01*
X79458208Y-89838732D02*
X79505827Y-89933970D01*
X79505827Y-89933970D02*
X79553446Y-89981589D01*
X79553446Y-89981589D02*
X79648684Y-90029208D01*
X79648684Y-90029208D02*
X79934398Y-90029208D01*
X79934398Y-90029208D02*
X80029636Y-89981589D01*
X80029636Y-89981589D02*
X80077256Y-89933970D01*
X80077256Y-89933970D02*
X80124875Y-89838732D01*
X80124875Y-89838732D02*
X80124875Y-89648256D01*
X80124875Y-89648256D02*
X80077256Y-89553018D01*
X80029636Y-90457780D02*
X80077256Y-90505399D01*
X80077256Y-90505399D02*
X80124875Y-90457780D01*
X80124875Y-90457780D02*
X80077256Y-90410161D01*
X80077256Y-90410161D02*
X80029636Y-90457780D01*
X80029636Y-90457780D02*
X80124875Y-90457780D01*
X80077256Y-91362541D02*
X80124875Y-91267303D01*
X80124875Y-91267303D02*
X80124875Y-91076827D01*
X80124875Y-91076827D02*
X80077256Y-90981589D01*
X80077256Y-90981589D02*
X80029636Y-90933970D01*
X80029636Y-90933970D02*
X79934398Y-90886351D01*
X79934398Y-90886351D02*
X79648684Y-90886351D01*
X79648684Y-90886351D02*
X79553446Y-90933970D01*
X79553446Y-90933970D02*
X79505827Y-90981589D01*
X79505827Y-90981589D02*
X79458208Y-91076827D01*
X79458208Y-91076827D02*
X79458208Y-91267303D01*
X79458208Y-91267303D02*
X79505827Y-91362541D01*
X80124875Y-91933970D02*
X80077256Y-91838732D01*
X80077256Y-91838732D02*
X80029636Y-91791113D01*
X80029636Y-91791113D02*
X79934398Y-91743494D01*
X79934398Y-91743494D02*
X79648684Y-91743494D01*
X79648684Y-91743494D02*
X79553446Y-91791113D01*
X79553446Y-91791113D02*
X79505827Y-91838732D01*
X79505827Y-91838732D02*
X79458208Y-91933970D01*
X79458208Y-91933970D02*
X79458208Y-92076827D01*
X79458208Y-92076827D02*
X79505827Y-92172065D01*
X79505827Y-92172065D02*
X79553446Y-92219684D01*
X79553446Y-92219684D02*
X79648684Y-92267303D01*
X79648684Y-92267303D02*
X79934398Y-92267303D01*
X79934398Y-92267303D02*
X80029636Y-92219684D01*
X80029636Y-92219684D02*
X80077256Y-92172065D01*
X80077256Y-92172065D02*
X80124875Y-92076827D01*
X80124875Y-92076827D02*
X80124875Y-91933970D01*
X80124875Y-92695875D02*
X79458208Y-92695875D01*
X79553446Y-92695875D02*
X79505827Y-92743494D01*
X79505827Y-92743494D02*
X79458208Y-92838732D01*
X79458208Y-92838732D02*
X79458208Y-92981589D01*
X79458208Y-92981589D02*
X79505827Y-93076827D01*
X79505827Y-93076827D02*
X79601065Y-93124446D01*
X79601065Y-93124446D02*
X80124875Y-93124446D01*
X79601065Y-93124446D02*
X79505827Y-93172065D01*
X79505827Y-93172065D02*
X79458208Y-93267303D01*
X79458208Y-93267303D02*
X79458208Y-93410160D01*
X79458208Y-93410160D02*
X79505827Y-93505399D01*
X79505827Y-93505399D02*
X79601065Y-93553018D01*
X79601065Y-93553018D02*
X80124875Y-93553018D01*
X79077256Y-94743493D02*
X80362970Y-93886351D01*
X80124875Y-95076827D02*
X79124875Y-95076827D01*
X80124875Y-95648255D02*
X79553446Y-95219684D01*
X79124875Y-95648255D02*
X79696303Y-95076827D01*
X80124875Y-96076827D02*
X79458208Y-96076827D01*
X79124875Y-96076827D02*
X79172494Y-96029208D01*
X79172494Y-96029208D02*
X79220113Y-96076827D01*
X79220113Y-96076827D02*
X79172494Y-96124446D01*
X79172494Y-96124446D02*
X79124875Y-96076827D01*
X79124875Y-96076827D02*
X79220113Y-96076827D01*
X80124875Y-96553017D02*
X79458208Y-96553017D01*
X79553446Y-96553017D02*
X79505827Y-96600636D01*
X79505827Y-96600636D02*
X79458208Y-96695874D01*
X79458208Y-96695874D02*
X79458208Y-96838731D01*
X79458208Y-96838731D02*
X79505827Y-96933969D01*
X79505827Y-96933969D02*
X79601065Y-96981588D01*
X79601065Y-96981588D02*
X80124875Y-96981588D01*
X79601065Y-96981588D02*
X79505827Y-97029207D01*
X79505827Y-97029207D02*
X79458208Y-97124445D01*
X79458208Y-97124445D02*
X79458208Y-97267302D01*
X79458208Y-97267302D02*
X79505827Y-97362541D01*
X79505827Y-97362541D02*
X79601065Y-97410160D01*
X79601065Y-97410160D02*
X80124875Y-97410160D01*
X79124875Y-98172064D02*
X79839160Y-98172064D01*
X79839160Y-98172064D02*
X79982017Y-98124445D01*
X79982017Y-98124445D02*
X80077256Y-98029207D01*
X80077256Y-98029207D02*
X80124875Y-97886350D01*
X80124875Y-97886350D02*
X80124875Y-97791112D01*
X80124875Y-98791112D02*
X80077256Y-98695874D01*
X80077256Y-98695874D02*
X80029636Y-98648255D01*
X80029636Y-98648255D02*
X79934398Y-98600636D01*
X79934398Y-98600636D02*
X79648684Y-98600636D01*
X79648684Y-98600636D02*
X79553446Y-98648255D01*
X79553446Y-98648255D02*
X79505827Y-98695874D01*
X79505827Y-98695874D02*
X79458208Y-98791112D01*
X79458208Y-98791112D02*
X79458208Y-98933969D01*
X79458208Y-98933969D02*
X79505827Y-99029207D01*
X79505827Y-99029207D02*
X79553446Y-99076826D01*
X79553446Y-99076826D02*
X79648684Y-99124445D01*
X79648684Y-99124445D02*
X79934398Y-99124445D01*
X79934398Y-99124445D02*
X80029636Y-99076826D01*
X80029636Y-99076826D02*
X80077256Y-99029207D01*
X80077256Y-99029207D02*
X80124875Y-98933969D01*
X80124875Y-98933969D02*
X80124875Y-98791112D01*
X80124875Y-99553017D02*
X79458208Y-99553017D01*
X79648684Y-99553017D02*
X79553446Y-99600636D01*
X79553446Y-99600636D02*
X79505827Y-99648255D01*
X79505827Y-99648255D02*
X79458208Y-99743493D01*
X79458208Y-99743493D02*
X79458208Y-99838731D01*
X79458208Y-100600636D02*
X80267732Y-100600636D01*
X80267732Y-100600636D02*
X80362970Y-100553017D01*
X80362970Y-100553017D02*
X80410589Y-100505398D01*
X80410589Y-100505398D02*
X80458208Y-100410160D01*
X80458208Y-100410160D02*
X80458208Y-100267303D01*
X80458208Y-100267303D02*
X80410589Y-100172065D01*
X80077256Y-100600636D02*
X80124875Y-100505398D01*
X80124875Y-100505398D02*
X80124875Y-100314922D01*
X80124875Y-100314922D02*
X80077256Y-100219684D01*
X80077256Y-100219684D02*
X80029636Y-100172065D01*
X80029636Y-100172065D02*
X79934398Y-100124446D01*
X79934398Y-100124446D02*
X79648684Y-100124446D01*
X79648684Y-100124446D02*
X79553446Y-100172065D01*
X79553446Y-100172065D02*
X79505827Y-100219684D01*
X79505827Y-100219684D02*
X79458208Y-100314922D01*
X79458208Y-100314922D02*
X79458208Y-100505398D01*
X79458208Y-100505398D02*
X79505827Y-100600636D01*
X80077256Y-101457779D02*
X80124875Y-101362541D01*
X80124875Y-101362541D02*
X80124875Y-101172065D01*
X80124875Y-101172065D02*
X80077256Y-101076827D01*
X80077256Y-101076827D02*
X79982017Y-101029208D01*
X79982017Y-101029208D02*
X79601065Y-101029208D01*
X79601065Y-101029208D02*
X79505827Y-101076827D01*
X79505827Y-101076827D02*
X79458208Y-101172065D01*
X79458208Y-101172065D02*
X79458208Y-101362541D01*
X79458208Y-101362541D02*
X79505827Y-101457779D01*
X79505827Y-101457779D02*
X79601065Y-101505398D01*
X79601065Y-101505398D02*
X79696303Y-101505398D01*
X79696303Y-101505398D02*
X79791541Y-101029208D01*
X79458208Y-101933970D02*
X80124875Y-101933970D01*
X79553446Y-101933970D02*
X79505827Y-101981589D01*
X79505827Y-101981589D02*
X79458208Y-102076827D01*
X79458208Y-102076827D02*
X79458208Y-102219684D01*
X79458208Y-102219684D02*
X79505827Y-102314922D01*
X79505827Y-102314922D02*
X79601065Y-102362541D01*
X79601065Y-102362541D02*
X80124875Y-102362541D01*
X80077256Y-102791113D02*
X80124875Y-102886351D01*
X80124875Y-102886351D02*
X80124875Y-103076827D01*
X80124875Y-103076827D02*
X80077256Y-103172065D01*
X80077256Y-103172065D02*
X79982017Y-103219684D01*
X79982017Y-103219684D02*
X79934398Y-103219684D01*
X79934398Y-103219684D02*
X79839160Y-103172065D01*
X79839160Y-103172065D02*
X79791541Y-103076827D01*
X79791541Y-103076827D02*
X79791541Y-102933970D01*
X79791541Y-102933970D02*
X79743922Y-102838732D01*
X79743922Y-102838732D02*
X79648684Y-102791113D01*
X79648684Y-102791113D02*
X79601065Y-102791113D01*
X79601065Y-102791113D02*
X79505827Y-102838732D01*
X79505827Y-102838732D02*
X79458208Y-102933970D01*
X79458208Y-102933970D02*
X79458208Y-103076827D01*
X79458208Y-103076827D02*
X79505827Y-103172065D01*
X80077256Y-104029208D02*
X80124875Y-103933970D01*
X80124875Y-103933970D02*
X80124875Y-103743494D01*
X80124875Y-103743494D02*
X80077256Y-103648256D01*
X80077256Y-103648256D02*
X79982017Y-103600637D01*
X79982017Y-103600637D02*
X79601065Y-103600637D01*
X79601065Y-103600637D02*
X79505827Y-103648256D01*
X79505827Y-103648256D02*
X79458208Y-103743494D01*
X79458208Y-103743494D02*
X79458208Y-103933970D01*
X79458208Y-103933970D02*
X79505827Y-104029208D01*
X79505827Y-104029208D02*
X79601065Y-104076827D01*
X79601065Y-104076827D02*
X79696303Y-104076827D01*
X79696303Y-104076827D02*
X79791541Y-103600637D01*
X79458208Y-104505399D02*
X80124875Y-104505399D01*
X79553446Y-104505399D02*
X79505827Y-104553018D01*
X79505827Y-104553018D02*
X79458208Y-104648256D01*
X79458208Y-104648256D02*
X79458208Y-104791113D01*
X79458208Y-104791113D02*
X79505827Y-104886351D01*
X79505827Y-104886351D02*
X79601065Y-104933970D01*
X79601065Y-104933970D02*
X80124875Y-104933970D01*
X79077256Y-106124446D02*
X80362970Y-105267304D01*
X80124875Y-106457780D02*
X79124875Y-106457780D01*
X80124875Y-107029208D02*
X79553446Y-106600637D01*
X79124875Y-107029208D02*
X79696303Y-106457780D01*
X79458208Y-107886351D02*
X80124875Y-107886351D01*
X79458208Y-107457780D02*
X79982017Y-107457780D01*
X79982017Y-107457780D02*
X80077256Y-107505399D01*
X80077256Y-107505399D02*
X80124875Y-107600637D01*
X80124875Y-107600637D02*
X80124875Y-107743494D01*
X80124875Y-107743494D02*
X80077256Y-107838732D01*
X80077256Y-107838732D02*
X80029636Y-107886351D01*
X79458208Y-108362542D02*
X80124875Y-108362542D01*
X79553446Y-108362542D02*
X79505827Y-108410161D01*
X79505827Y-108410161D02*
X79458208Y-108505399D01*
X79458208Y-108505399D02*
X79458208Y-108648256D01*
X79458208Y-108648256D02*
X79505827Y-108743494D01*
X79505827Y-108743494D02*
X79601065Y-108791113D01*
X79601065Y-108791113D02*
X80124875Y-108791113D01*
X79458208Y-109695875D02*
X80267732Y-109695875D01*
X80267732Y-109695875D02*
X80362970Y-109648256D01*
X80362970Y-109648256D02*
X80410589Y-109600637D01*
X80410589Y-109600637D02*
X80458208Y-109505399D01*
X80458208Y-109505399D02*
X80458208Y-109362542D01*
X80458208Y-109362542D02*
X80410589Y-109267304D01*
X80077256Y-109695875D02*
X80124875Y-109600637D01*
X80124875Y-109600637D02*
X80124875Y-109410161D01*
X80124875Y-109410161D02*
X80077256Y-109314923D01*
X80077256Y-109314923D02*
X80029636Y-109267304D01*
X80029636Y-109267304D02*
X79934398Y-109219685D01*
X79934398Y-109219685D02*
X79648684Y-109219685D01*
X79648684Y-109219685D02*
X79553446Y-109267304D01*
X79553446Y-109267304D02*
X79505827Y-109314923D01*
X79505827Y-109314923D02*
X79458208Y-109410161D01*
X79458208Y-109410161D02*
X79458208Y-109600637D01*
X79458208Y-109600637D02*
X79505827Y-109695875D01*
X79601065Y-110505399D02*
X79601065Y-110172066D01*
X80124875Y-110172066D02*
X79124875Y-110172066D01*
X79124875Y-110172066D02*
X79124875Y-110648256D01*
X79458208Y-111457780D02*
X80124875Y-111457780D01*
X79458208Y-111029209D02*
X79982017Y-111029209D01*
X79982017Y-111029209D02*
X80077256Y-111076828D01*
X80077256Y-111076828D02*
X80124875Y-111172066D01*
X80124875Y-111172066D02*
X80124875Y-111314923D01*
X80124875Y-111314923D02*
X80077256Y-111410161D01*
X80077256Y-111410161D02*
X80029636Y-111457780D01*
X79601065Y-112267304D02*
X79601065Y-111933971D01*
X80124875Y-111933971D02*
X79124875Y-111933971D01*
X79124875Y-111933971D02*
X79124875Y-112410161D01*
X80124875Y-112933971D02*
X80077256Y-112838733D01*
X80077256Y-112838733D02*
X79982017Y-112791114D01*
X79982017Y-112791114D02*
X79124875Y-112791114D01*
X80124875Y-113743495D02*
X79601065Y-113743495D01*
X79601065Y-113743495D02*
X79505827Y-113695876D01*
X79505827Y-113695876D02*
X79458208Y-113600638D01*
X79458208Y-113600638D02*
X79458208Y-113410162D01*
X79458208Y-113410162D02*
X79505827Y-113314924D01*
X80077256Y-113743495D02*
X80124875Y-113648257D01*
X80124875Y-113648257D02*
X80124875Y-113410162D01*
X80124875Y-113410162D02*
X80077256Y-113314924D01*
X80077256Y-113314924D02*
X79982017Y-113267305D01*
X79982017Y-113267305D02*
X79886779Y-113267305D01*
X79886779Y-113267305D02*
X79791541Y-113314924D01*
X79791541Y-113314924D02*
X79743922Y-113410162D01*
X79743922Y-113410162D02*
X79743922Y-113648257D01*
X79743922Y-113648257D02*
X79696303Y-113743495D01*
X80077256Y-114172067D02*
X80124875Y-114267305D01*
X80124875Y-114267305D02*
X80124875Y-114457781D01*
X80124875Y-114457781D02*
X80077256Y-114553019D01*
X80077256Y-114553019D02*
X79982017Y-114600638D01*
X79982017Y-114600638D02*
X79934398Y-114600638D01*
X79934398Y-114600638D02*
X79839160Y-114553019D01*
X79839160Y-114553019D02*
X79791541Y-114457781D01*
X79791541Y-114457781D02*
X79791541Y-114314924D01*
X79791541Y-114314924D02*
X79743922Y-114219686D01*
X79743922Y-114219686D02*
X79648684Y-114172067D01*
X79648684Y-114172067D02*
X79601065Y-114172067D01*
X79601065Y-114172067D02*
X79505827Y-114219686D01*
X79505827Y-114219686D02*
X79458208Y-114314924D01*
X79458208Y-114314924D02*
X79458208Y-114457781D01*
X79458208Y-114457781D02*
X79505827Y-114553019D01*
X80124875Y-115029210D02*
X79124875Y-115029210D01*
X80124875Y-115457781D02*
X79601065Y-115457781D01*
X79601065Y-115457781D02*
X79505827Y-115410162D01*
X79505827Y-115410162D02*
X79458208Y-115314924D01*
X79458208Y-115314924D02*
X79458208Y-115172067D01*
X79458208Y-115172067D02*
X79505827Y-115076829D01*
X79505827Y-115076829D02*
X79553446Y-115029210D01*
X79220113Y-115886353D02*
X79172494Y-115933972D01*
X79172494Y-115933972D02*
X79124875Y-116029210D01*
X79124875Y-116029210D02*
X79124875Y-116267305D01*
X79124875Y-116267305D02*
X79172494Y-116362543D01*
X79172494Y-116362543D02*
X79220113Y-116410162D01*
X79220113Y-116410162D02*
X79315351Y-116457781D01*
X79315351Y-116457781D02*
X79410589Y-116457781D01*
X79410589Y-116457781D02*
X79553446Y-116410162D01*
X79553446Y-116410162D02*
X80124875Y-115838734D01*
X80124875Y-115838734D02*
X80124875Y-116457781D01*
X83059048Y-79410160D02*
X83059048Y-79886350D01*
X83344763Y-79314922D02*
X82344763Y-79648255D01*
X82344763Y-79648255D02*
X83344763Y-79981588D01*
X83344763Y-80743493D02*
X82344763Y-80743493D01*
X83297144Y-80743493D02*
X83344763Y-80648255D01*
X83344763Y-80648255D02*
X83344763Y-80457779D01*
X83344763Y-80457779D02*
X83297144Y-80362541D01*
X83297144Y-80362541D02*
X83249524Y-80314922D01*
X83249524Y-80314922D02*
X83154286Y-80267303D01*
X83154286Y-80267303D02*
X82868572Y-80267303D01*
X82868572Y-80267303D02*
X82773334Y-80314922D01*
X82773334Y-80314922D02*
X82725715Y-80362541D01*
X82725715Y-80362541D02*
X82678096Y-80457779D01*
X82678096Y-80457779D02*
X82678096Y-80648255D01*
X82678096Y-80648255D02*
X82725715Y-80743493D01*
X83344763Y-81648255D02*
X82820953Y-81648255D01*
X82820953Y-81648255D02*
X82725715Y-81600636D01*
X82725715Y-81600636D02*
X82678096Y-81505398D01*
X82678096Y-81505398D02*
X82678096Y-81314922D01*
X82678096Y-81314922D02*
X82725715Y-81219684D01*
X83297144Y-81648255D02*
X83344763Y-81553017D01*
X83344763Y-81553017D02*
X83344763Y-81314922D01*
X83344763Y-81314922D02*
X83297144Y-81219684D01*
X83297144Y-81219684D02*
X83201905Y-81172065D01*
X83201905Y-81172065D02*
X83106667Y-81172065D01*
X83106667Y-81172065D02*
X83011429Y-81219684D01*
X83011429Y-81219684D02*
X82963810Y-81314922D01*
X82963810Y-81314922D02*
X82963810Y-81553017D01*
X82963810Y-81553017D02*
X82916191Y-81648255D01*
X82678096Y-82124446D02*
X83678096Y-82124446D01*
X82725715Y-82124446D02*
X82678096Y-82219684D01*
X82678096Y-82219684D02*
X82678096Y-82410160D01*
X82678096Y-82410160D02*
X82725715Y-82505398D01*
X82725715Y-82505398D02*
X82773334Y-82553017D01*
X82773334Y-82553017D02*
X82868572Y-82600636D01*
X82868572Y-82600636D02*
X83154286Y-82600636D01*
X83154286Y-82600636D02*
X83249524Y-82553017D01*
X83249524Y-82553017D02*
X83297144Y-82505398D01*
X83297144Y-82505398D02*
X83344763Y-82410160D01*
X83344763Y-82410160D02*
X83344763Y-82219684D01*
X83344763Y-82219684D02*
X83297144Y-82124446D01*
X82678096Y-82886351D02*
X82678096Y-83267303D01*
X82344763Y-83029208D02*
X83201905Y-83029208D01*
X83201905Y-83029208D02*
X83297144Y-83076827D01*
X83297144Y-83076827D02*
X83344763Y-83172065D01*
X83344763Y-83172065D02*
X83344763Y-83267303D01*
X83344763Y-84029208D02*
X82820953Y-84029208D01*
X82820953Y-84029208D02*
X82725715Y-83981589D01*
X82725715Y-83981589D02*
X82678096Y-83886351D01*
X82678096Y-83886351D02*
X82678096Y-83695875D01*
X82678096Y-83695875D02*
X82725715Y-83600637D01*
X83297144Y-84029208D02*
X83344763Y-83933970D01*
X83344763Y-83933970D02*
X83344763Y-83695875D01*
X83344763Y-83695875D02*
X83297144Y-83600637D01*
X83297144Y-83600637D02*
X83201905Y-83553018D01*
X83201905Y-83553018D02*
X83106667Y-83553018D01*
X83106667Y-83553018D02*
X83011429Y-83600637D01*
X83011429Y-83600637D02*
X82963810Y-83695875D01*
X82963810Y-83695875D02*
X82963810Y-83933970D01*
X82963810Y-83933970D02*
X82916191Y-84029208D01*
X82678096Y-84362542D02*
X82678096Y-84743494D01*
X82344763Y-84505399D02*
X83201905Y-84505399D01*
X83201905Y-84505399D02*
X83297144Y-84553018D01*
X83297144Y-84553018D02*
X83344763Y-84648256D01*
X83344763Y-84648256D02*
X83344763Y-84743494D01*
X83344763Y-85076828D02*
X82678096Y-85076828D01*
X82344763Y-85076828D02*
X82392382Y-85029209D01*
X82392382Y-85029209D02*
X82440001Y-85076828D01*
X82440001Y-85076828D02*
X82392382Y-85124447D01*
X82392382Y-85124447D02*
X82344763Y-85076828D01*
X82344763Y-85076828D02*
X82440001Y-85076828D01*
X83344763Y-85695875D02*
X83297144Y-85600637D01*
X83297144Y-85600637D02*
X83249524Y-85553018D01*
X83249524Y-85553018D02*
X83154286Y-85505399D01*
X83154286Y-85505399D02*
X82868572Y-85505399D01*
X82868572Y-85505399D02*
X82773334Y-85553018D01*
X82773334Y-85553018D02*
X82725715Y-85600637D01*
X82725715Y-85600637D02*
X82678096Y-85695875D01*
X82678096Y-85695875D02*
X82678096Y-85838732D01*
X82678096Y-85838732D02*
X82725715Y-85933970D01*
X82725715Y-85933970D02*
X82773334Y-85981589D01*
X82773334Y-85981589D02*
X82868572Y-86029208D01*
X82868572Y-86029208D02*
X83154286Y-86029208D01*
X83154286Y-86029208D02*
X83249524Y-85981589D01*
X83249524Y-85981589D02*
X83297144Y-85933970D01*
X83297144Y-85933970D02*
X83344763Y-85838732D01*
X83344763Y-85838732D02*
X83344763Y-85695875D01*
X82678096Y-86457780D02*
X83344763Y-86457780D01*
X82773334Y-86457780D02*
X82725715Y-86505399D01*
X82725715Y-86505399D02*
X82678096Y-86600637D01*
X82678096Y-86600637D02*
X82678096Y-86743494D01*
X82678096Y-86743494D02*
X82725715Y-86838732D01*
X82725715Y-86838732D02*
X82820953Y-86886351D01*
X82820953Y-86886351D02*
X83344763Y-86886351D01*
X83297144Y-87314923D02*
X83344763Y-87410161D01*
X83344763Y-87410161D02*
X83344763Y-87600637D01*
X83344763Y-87600637D02*
X83297144Y-87695875D01*
X83297144Y-87695875D02*
X83201905Y-87743494D01*
X83201905Y-87743494D02*
X83154286Y-87743494D01*
X83154286Y-87743494D02*
X83059048Y-87695875D01*
X83059048Y-87695875D02*
X83011429Y-87600637D01*
X83011429Y-87600637D02*
X83011429Y-87457780D01*
X83011429Y-87457780D02*
X82963810Y-87362542D01*
X82963810Y-87362542D02*
X82868572Y-87314923D01*
X82868572Y-87314923D02*
X82820953Y-87314923D01*
X82820953Y-87314923D02*
X82725715Y-87362542D01*
X82725715Y-87362542D02*
X82678096Y-87457780D01*
X82678096Y-87457780D02*
X82678096Y-87600637D01*
X82678096Y-87600637D02*
X82725715Y-87695875D01*
X83249524Y-88172066D02*
X83297144Y-88219685D01*
X83297144Y-88219685D02*
X83344763Y-88172066D01*
X83344763Y-88172066D02*
X83297144Y-88124447D01*
X83297144Y-88124447D02*
X83249524Y-88172066D01*
X83249524Y-88172066D02*
X83344763Y-88172066D01*
X82725715Y-88172066D02*
X82773334Y-88219685D01*
X82773334Y-88219685D02*
X82820953Y-88172066D01*
X82820953Y-88172066D02*
X82773334Y-88124447D01*
X82773334Y-88124447D02*
X82725715Y-88172066D01*
X82725715Y-88172066D02*
X82820953Y-88172066D01*
X84954707Y-79457779D02*
X83954707Y-79457779D01*
X84954707Y-79886350D02*
X84430897Y-79886350D01*
X84430897Y-79886350D02*
X84335659Y-79838731D01*
X84335659Y-79838731D02*
X84288040Y-79743493D01*
X84288040Y-79743493D02*
X84288040Y-79600636D01*
X84288040Y-79600636D02*
X84335659Y-79505398D01*
X84335659Y-79505398D02*
X84383278Y-79457779D01*
X84288040Y-80219684D02*
X84288040Y-80600636D01*
X83954707Y-80362541D02*
X84811849Y-80362541D01*
X84811849Y-80362541D02*
X84907088Y-80410160D01*
X84907088Y-80410160D02*
X84954707Y-80505398D01*
X84954707Y-80505398D02*
X84954707Y-80600636D01*
X84288040Y-80791113D02*
X84288040Y-81172065D01*
X83954707Y-80933970D02*
X84811849Y-80933970D01*
X84811849Y-80933970D02*
X84907088Y-80981589D01*
X84907088Y-80981589D02*
X84954707Y-81076827D01*
X84954707Y-81076827D02*
X84954707Y-81172065D01*
X84288040Y-81505399D02*
X85288040Y-81505399D01*
X84335659Y-81505399D02*
X84288040Y-81600637D01*
X84288040Y-81600637D02*
X84288040Y-81791113D01*
X84288040Y-81791113D02*
X84335659Y-81886351D01*
X84335659Y-81886351D02*
X84383278Y-81933970D01*
X84383278Y-81933970D02*
X84478516Y-81981589D01*
X84478516Y-81981589D02*
X84764230Y-81981589D01*
X84764230Y-81981589D02*
X84859468Y-81933970D01*
X84859468Y-81933970D02*
X84907088Y-81886351D01*
X84907088Y-81886351D02*
X84954707Y-81791113D01*
X84954707Y-81791113D02*
X84954707Y-81600637D01*
X84954707Y-81600637D02*
X84907088Y-81505399D01*
X84907088Y-82362542D02*
X84954707Y-82457780D01*
X84954707Y-82457780D02*
X84954707Y-82648256D01*
X84954707Y-82648256D02*
X84907088Y-82743494D01*
X84907088Y-82743494D02*
X84811849Y-82791113D01*
X84811849Y-82791113D02*
X84764230Y-82791113D01*
X84764230Y-82791113D02*
X84668992Y-82743494D01*
X84668992Y-82743494D02*
X84621373Y-82648256D01*
X84621373Y-82648256D02*
X84621373Y-82505399D01*
X84621373Y-82505399D02*
X84573754Y-82410161D01*
X84573754Y-82410161D02*
X84478516Y-82362542D01*
X84478516Y-82362542D02*
X84430897Y-82362542D01*
X84430897Y-82362542D02*
X84335659Y-82410161D01*
X84335659Y-82410161D02*
X84288040Y-82505399D01*
X84288040Y-82505399D02*
X84288040Y-82648256D01*
X84288040Y-82648256D02*
X84335659Y-82743494D01*
X84859468Y-83219685D02*
X84907088Y-83267304D01*
X84907088Y-83267304D02*
X84954707Y-83219685D01*
X84954707Y-83219685D02*
X84907088Y-83172066D01*
X84907088Y-83172066D02*
X84859468Y-83219685D01*
X84859468Y-83219685D02*
X84954707Y-83219685D01*
X84335659Y-83219685D02*
X84383278Y-83267304D01*
X84383278Y-83267304D02*
X84430897Y-83219685D01*
X84430897Y-83219685D02*
X84383278Y-83172066D01*
X84383278Y-83172066D02*
X84335659Y-83219685D01*
X84335659Y-83219685D02*
X84430897Y-83219685D01*
X83907088Y-84410160D02*
X85192802Y-83553018D01*
X83907088Y-85457779D02*
X85192802Y-84600637D01*
X84288040Y-86219684D02*
X85097564Y-86219684D01*
X85097564Y-86219684D02*
X85192802Y-86172065D01*
X85192802Y-86172065D02*
X85240421Y-86124446D01*
X85240421Y-86124446D02*
X85288040Y-86029208D01*
X85288040Y-86029208D02*
X85288040Y-85886351D01*
X85288040Y-85886351D02*
X85240421Y-85791113D01*
X84907088Y-86219684D02*
X84954707Y-86124446D01*
X84954707Y-86124446D02*
X84954707Y-85933970D01*
X84954707Y-85933970D02*
X84907088Y-85838732D01*
X84907088Y-85838732D02*
X84859468Y-85791113D01*
X84859468Y-85791113D02*
X84764230Y-85743494D01*
X84764230Y-85743494D02*
X84478516Y-85743494D01*
X84478516Y-85743494D02*
X84383278Y-85791113D01*
X84383278Y-85791113D02*
X84335659Y-85838732D01*
X84335659Y-85838732D02*
X84288040Y-85933970D01*
X84288040Y-85933970D02*
X84288040Y-86124446D01*
X84288040Y-86124446D02*
X84335659Y-86219684D01*
X84954707Y-86695875D02*
X84288040Y-86695875D01*
X83954707Y-86695875D02*
X84002326Y-86648256D01*
X84002326Y-86648256D02*
X84049945Y-86695875D01*
X84049945Y-86695875D02*
X84002326Y-86743494D01*
X84002326Y-86743494D02*
X83954707Y-86695875D01*
X83954707Y-86695875D02*
X84049945Y-86695875D01*
X84288040Y-87029208D02*
X84288040Y-87410160D01*
X83954707Y-87172065D02*
X84811849Y-87172065D01*
X84811849Y-87172065D02*
X84907088Y-87219684D01*
X84907088Y-87219684D02*
X84954707Y-87314922D01*
X84954707Y-87314922D02*
X84954707Y-87410160D01*
X84954707Y-87743494D02*
X83954707Y-87743494D01*
X84954707Y-88172065D02*
X84430897Y-88172065D01*
X84430897Y-88172065D02*
X84335659Y-88124446D01*
X84335659Y-88124446D02*
X84288040Y-88029208D01*
X84288040Y-88029208D02*
X84288040Y-87886351D01*
X84288040Y-87886351D02*
X84335659Y-87791113D01*
X84335659Y-87791113D02*
X84383278Y-87743494D01*
X84288040Y-89076827D02*
X84954707Y-89076827D01*
X84288040Y-88648256D02*
X84811849Y-88648256D01*
X84811849Y-88648256D02*
X84907088Y-88695875D01*
X84907088Y-88695875D02*
X84954707Y-88791113D01*
X84954707Y-88791113D02*
X84954707Y-88933970D01*
X84954707Y-88933970D02*
X84907088Y-89029208D01*
X84907088Y-89029208D02*
X84859468Y-89076827D01*
X84954707Y-89553018D02*
X83954707Y-89553018D01*
X84335659Y-89553018D02*
X84288040Y-89648256D01*
X84288040Y-89648256D02*
X84288040Y-89838732D01*
X84288040Y-89838732D02*
X84335659Y-89933970D01*
X84335659Y-89933970D02*
X84383278Y-89981589D01*
X84383278Y-89981589D02*
X84478516Y-90029208D01*
X84478516Y-90029208D02*
X84764230Y-90029208D01*
X84764230Y-90029208D02*
X84859468Y-89981589D01*
X84859468Y-89981589D02*
X84907088Y-89933970D01*
X84907088Y-89933970D02*
X84954707Y-89838732D01*
X84954707Y-89838732D02*
X84954707Y-89648256D01*
X84954707Y-89648256D02*
X84907088Y-89553018D01*
X84859468Y-90457780D02*
X84907088Y-90505399D01*
X84907088Y-90505399D02*
X84954707Y-90457780D01*
X84954707Y-90457780D02*
X84907088Y-90410161D01*
X84907088Y-90410161D02*
X84859468Y-90457780D01*
X84859468Y-90457780D02*
X84954707Y-90457780D01*
X84907088Y-91362541D02*
X84954707Y-91267303D01*
X84954707Y-91267303D02*
X84954707Y-91076827D01*
X84954707Y-91076827D02*
X84907088Y-90981589D01*
X84907088Y-90981589D02*
X84859468Y-90933970D01*
X84859468Y-90933970D02*
X84764230Y-90886351D01*
X84764230Y-90886351D02*
X84478516Y-90886351D01*
X84478516Y-90886351D02*
X84383278Y-90933970D01*
X84383278Y-90933970D02*
X84335659Y-90981589D01*
X84335659Y-90981589D02*
X84288040Y-91076827D01*
X84288040Y-91076827D02*
X84288040Y-91267303D01*
X84288040Y-91267303D02*
X84335659Y-91362541D01*
X84954707Y-91933970D02*
X84907088Y-91838732D01*
X84907088Y-91838732D02*
X84859468Y-91791113D01*
X84859468Y-91791113D02*
X84764230Y-91743494D01*
X84764230Y-91743494D02*
X84478516Y-91743494D01*
X84478516Y-91743494D02*
X84383278Y-91791113D01*
X84383278Y-91791113D02*
X84335659Y-91838732D01*
X84335659Y-91838732D02*
X84288040Y-91933970D01*
X84288040Y-91933970D02*
X84288040Y-92076827D01*
X84288040Y-92076827D02*
X84335659Y-92172065D01*
X84335659Y-92172065D02*
X84383278Y-92219684D01*
X84383278Y-92219684D02*
X84478516Y-92267303D01*
X84478516Y-92267303D02*
X84764230Y-92267303D01*
X84764230Y-92267303D02*
X84859468Y-92219684D01*
X84859468Y-92219684D02*
X84907088Y-92172065D01*
X84907088Y-92172065D02*
X84954707Y-92076827D01*
X84954707Y-92076827D02*
X84954707Y-91933970D01*
X84954707Y-92695875D02*
X84288040Y-92695875D01*
X84383278Y-92695875D02*
X84335659Y-92743494D01*
X84335659Y-92743494D02*
X84288040Y-92838732D01*
X84288040Y-92838732D02*
X84288040Y-92981589D01*
X84288040Y-92981589D02*
X84335659Y-93076827D01*
X84335659Y-93076827D02*
X84430897Y-93124446D01*
X84430897Y-93124446D02*
X84954707Y-93124446D01*
X84430897Y-93124446D02*
X84335659Y-93172065D01*
X84335659Y-93172065D02*
X84288040Y-93267303D01*
X84288040Y-93267303D02*
X84288040Y-93410160D01*
X84288040Y-93410160D02*
X84335659Y-93505399D01*
X84335659Y-93505399D02*
X84430897Y-93553018D01*
X84430897Y-93553018D02*
X84954707Y-93553018D01*
X83907088Y-94743493D02*
X85192802Y-93886351D01*
X84954707Y-95076827D02*
X84288040Y-95076827D01*
X83954707Y-95076827D02*
X84002326Y-95029208D01*
X84002326Y-95029208D02*
X84049945Y-95076827D01*
X84049945Y-95076827D02*
X84002326Y-95124446D01*
X84002326Y-95124446D02*
X83954707Y-95076827D01*
X83954707Y-95076827D02*
X84049945Y-95076827D01*
X84288040Y-95410160D02*
X84288040Y-95791112D01*
X84954707Y-95553017D02*
X84097564Y-95553017D01*
X84097564Y-95553017D02*
X84002326Y-95600636D01*
X84002326Y-95600636D02*
X83954707Y-95695874D01*
X83954707Y-95695874D02*
X83954707Y-95791112D01*
X84954707Y-96124446D02*
X84288040Y-96124446D01*
X83954707Y-96124446D02*
X84002326Y-96076827D01*
X84002326Y-96076827D02*
X84049945Y-96124446D01*
X84049945Y-96124446D02*
X84002326Y-96172065D01*
X84002326Y-96172065D02*
X83954707Y-96124446D01*
X83954707Y-96124446D02*
X84049945Y-96124446D01*
X84954707Y-96743493D02*
X84907088Y-96648255D01*
X84907088Y-96648255D02*
X84811849Y-96600636D01*
X84811849Y-96600636D02*
X83954707Y-96600636D01*
X84954707Y-97267303D02*
X84907088Y-97172065D01*
X84907088Y-97172065D02*
X84859468Y-97124446D01*
X84859468Y-97124446D02*
X84764230Y-97076827D01*
X84764230Y-97076827D02*
X84478516Y-97076827D01*
X84478516Y-97076827D02*
X84383278Y-97124446D01*
X84383278Y-97124446D02*
X84335659Y-97172065D01*
X84335659Y-97172065D02*
X84288040Y-97267303D01*
X84288040Y-97267303D02*
X84288040Y-97410160D01*
X84288040Y-97410160D02*
X84335659Y-97505398D01*
X84335659Y-97505398D02*
X84383278Y-97553017D01*
X84383278Y-97553017D02*
X84478516Y-97600636D01*
X84478516Y-97600636D02*
X84764230Y-97600636D01*
X84764230Y-97600636D02*
X84859468Y-97553017D01*
X84859468Y-97553017D02*
X84907088Y-97505398D01*
X84907088Y-97505398D02*
X84954707Y-97410160D01*
X84954707Y-97410160D02*
X84954707Y-97267303D01*
X84288040Y-97886351D02*
X84288040Y-98267303D01*
X83954707Y-98029208D02*
X84811849Y-98029208D01*
X84811849Y-98029208D02*
X84907088Y-98076827D01*
X84907088Y-98076827D02*
X84954707Y-98172065D01*
X84954707Y-98172065D02*
X84954707Y-98267303D01*
X83907088Y-99314922D02*
X85192802Y-98457780D01*
X84954707Y-99648256D02*
X83954707Y-99648256D01*
X84573754Y-99743494D02*
X84954707Y-100029208D01*
X84288040Y-100029208D02*
X84668992Y-99648256D01*
X84288040Y-100886351D02*
X84954707Y-100886351D01*
X84288040Y-100457780D02*
X84811849Y-100457780D01*
X84811849Y-100457780D02*
X84907088Y-100505399D01*
X84907088Y-100505399D02*
X84954707Y-100600637D01*
X84954707Y-100600637D02*
X84954707Y-100743494D01*
X84954707Y-100743494D02*
X84907088Y-100838732D01*
X84907088Y-100838732D02*
X84859468Y-100886351D01*
X84288040Y-101362542D02*
X84954707Y-101362542D01*
X84383278Y-101362542D02*
X84335659Y-101410161D01*
X84335659Y-101410161D02*
X84288040Y-101505399D01*
X84288040Y-101505399D02*
X84288040Y-101648256D01*
X84288040Y-101648256D02*
X84335659Y-101743494D01*
X84335659Y-101743494D02*
X84430897Y-101791113D01*
X84430897Y-101791113D02*
X84954707Y-101791113D01*
X84288040Y-102695875D02*
X85097564Y-102695875D01*
X85097564Y-102695875D02*
X85192802Y-102648256D01*
X85192802Y-102648256D02*
X85240421Y-102600637D01*
X85240421Y-102600637D02*
X85288040Y-102505399D01*
X85288040Y-102505399D02*
X85288040Y-102362542D01*
X85288040Y-102362542D02*
X85240421Y-102267304D01*
X84907088Y-102695875D02*
X84954707Y-102600637D01*
X84954707Y-102600637D02*
X84954707Y-102410161D01*
X84954707Y-102410161D02*
X84907088Y-102314923D01*
X84907088Y-102314923D02*
X84859468Y-102267304D01*
X84859468Y-102267304D02*
X84764230Y-102219685D01*
X84764230Y-102219685D02*
X84478516Y-102219685D01*
X84478516Y-102219685D02*
X84383278Y-102267304D01*
X84383278Y-102267304D02*
X84335659Y-102314923D01*
X84335659Y-102314923D02*
X84288040Y-102410161D01*
X84288040Y-102410161D02*
X84288040Y-102600637D01*
X84288040Y-102600637D02*
X84335659Y-102695875D01*
X84288040Y-103029209D02*
X84288040Y-103410161D01*
X84954707Y-103172066D02*
X84097564Y-103172066D01*
X84097564Y-103172066D02*
X84002326Y-103219685D01*
X84002326Y-103219685D02*
X83954707Y-103314923D01*
X83954707Y-103314923D02*
X83954707Y-103410161D01*
X84288040Y-104172066D02*
X84954707Y-104172066D01*
X84288040Y-103743495D02*
X84811849Y-103743495D01*
X84811849Y-103743495D02*
X84907088Y-103791114D01*
X84907088Y-103791114D02*
X84954707Y-103886352D01*
X84954707Y-103886352D02*
X84954707Y-104029209D01*
X84954707Y-104029209D02*
X84907088Y-104124447D01*
X84907088Y-104124447D02*
X84859468Y-104172066D01*
X84573754Y-104648257D02*
X84573754Y-105410162D01*
X84288040Y-105743495D02*
X84288040Y-106124447D01*
X84954707Y-105886352D02*
X84097564Y-105886352D01*
X84097564Y-105886352D02*
X84002326Y-105933971D01*
X84002326Y-105933971D02*
X83954707Y-106029209D01*
X83954707Y-106029209D02*
X83954707Y-106124447D01*
X84954707Y-106600638D02*
X84907088Y-106505400D01*
X84907088Y-106505400D02*
X84811849Y-106457781D01*
X84811849Y-106457781D02*
X83954707Y-106457781D01*
X84954707Y-107410162D02*
X84430897Y-107410162D01*
X84430897Y-107410162D02*
X84335659Y-107362543D01*
X84335659Y-107362543D02*
X84288040Y-107267305D01*
X84288040Y-107267305D02*
X84288040Y-107076829D01*
X84288040Y-107076829D02*
X84335659Y-106981591D01*
X84907088Y-107410162D02*
X84954707Y-107314924D01*
X84954707Y-107314924D02*
X84954707Y-107076829D01*
X84954707Y-107076829D02*
X84907088Y-106981591D01*
X84907088Y-106981591D02*
X84811849Y-106933972D01*
X84811849Y-106933972D02*
X84716611Y-106933972D01*
X84716611Y-106933972D02*
X84621373Y-106981591D01*
X84621373Y-106981591D02*
X84573754Y-107076829D01*
X84573754Y-107076829D02*
X84573754Y-107314924D01*
X84573754Y-107314924D02*
X84526135Y-107410162D01*
X84907088Y-107838734D02*
X84954707Y-107933972D01*
X84954707Y-107933972D02*
X84954707Y-108124448D01*
X84954707Y-108124448D02*
X84907088Y-108219686D01*
X84907088Y-108219686D02*
X84811849Y-108267305D01*
X84811849Y-108267305D02*
X84764230Y-108267305D01*
X84764230Y-108267305D02*
X84668992Y-108219686D01*
X84668992Y-108219686D02*
X84621373Y-108124448D01*
X84621373Y-108124448D02*
X84621373Y-107981591D01*
X84621373Y-107981591D02*
X84573754Y-107886353D01*
X84573754Y-107886353D02*
X84478516Y-107838734D01*
X84478516Y-107838734D02*
X84430897Y-107838734D01*
X84430897Y-107838734D02*
X84335659Y-107886353D01*
X84335659Y-107886353D02*
X84288040Y-107981591D01*
X84288040Y-107981591D02*
X84288040Y-108124448D01*
X84288040Y-108124448D02*
X84335659Y-108219686D01*
X84954707Y-108695877D02*
X83954707Y-108695877D01*
X84954707Y-109124448D02*
X84430897Y-109124448D01*
X84430897Y-109124448D02*
X84335659Y-109076829D01*
X84335659Y-109076829D02*
X84288040Y-108981591D01*
X84288040Y-108981591D02*
X84288040Y-108838734D01*
X84288040Y-108838734D02*
X84335659Y-108743496D01*
X84335659Y-108743496D02*
X84383278Y-108695877D01*
X84573754Y-109600639D02*
X84573754Y-110362544D01*
X84049945Y-110791115D02*
X84002326Y-110838734D01*
X84002326Y-110838734D02*
X83954707Y-110933972D01*
X83954707Y-110933972D02*
X83954707Y-111172067D01*
X83954707Y-111172067D02*
X84002326Y-111267305D01*
X84002326Y-111267305D02*
X84049945Y-111314924D01*
X84049945Y-111314924D02*
X84145183Y-111362543D01*
X84145183Y-111362543D02*
X84240421Y-111362543D01*
X84240421Y-111362543D02*
X84383278Y-111314924D01*
X84383278Y-111314924D02*
X84954707Y-110743496D01*
X84954707Y-110743496D02*
X84954707Y-111362543D01*
%LPC*%
D11*
X112331500Y-70366500D03*
X118831500Y-70366500D03*
X112331500Y-74866500D03*
X118831500Y-74866500D03*
D12*
X104898000Y-126249501D03*
D13*
X78228000Y-126121227D03*
X80768000Y-126121227D03*
X83308000Y-126121227D03*
X85848000Y-126121227D03*
X88388000Y-126121227D03*
X90928000Y-126121227D03*
X93468000Y-126121227D03*
X96008000Y-126121227D03*
X98548000Y-126121227D03*
X101088000Y-126121227D03*
X103628000Y-126121227D03*
X106168000Y-126121227D03*
X108708000Y-126121227D03*
X111248000Y-126121227D03*
X113788000Y-126121227D03*
X116328000Y-126121227D03*
X118868000Y-126121227D03*
X121408000Y-126121227D03*
X123948000Y-126121227D03*
X126488000Y-126121227D03*
X129028000Y-126121227D03*
X131568000Y-126121227D03*
D11*
X79606000Y-70366500D03*
X86106000Y-70366500D03*
X79606000Y-74866500D03*
X86106000Y-74866500D03*
X123675000Y-70358000D03*
X130175000Y-70358000D03*
X123675000Y-74858000D03*
X130175000Y-74858000D03*
D14*
X133664000Y-87716000D03*
X133664000Y-83316000D03*
D15*
X121412000Y-86995000D03*
D16*
X121412000Y-84455000D03*
X118872000Y-86995000D03*
X118872000Y-84455000D03*
X116332000Y-86995000D03*
X116332000Y-84455000D03*
X113792000Y-86995000D03*
X113792000Y-84455000D03*
D15*
X129286000Y-95351600D03*
D16*
X129286000Y-97891600D03*
X129286000Y-100431600D03*
X129286000Y-102971600D03*
X129286000Y-105511600D03*
%LPD*%
M02*
