M48
; DRILL file {KiCad 9.0.0} date 2025-04-04T15:12:00+0200
; FORMAT={-:-/ absolute / metric / decimal}
; #@! TF.CreationDate,2025-04-04T15:12:00+02:00
; #@! TF.GenerationSoftware,Kicad,Pcbnew,9.0.0
; #@! TF.FileFunction,Plated,1,2,PTH
FMAT,2
METRIC
; #@! TA.AperFunction,Plated,PTH,ViaDrill
T1C0.400
; #@! TA.AperFunction,Plated,PTH,ViaDrill
T2C0.800
; #@! TA.AperFunction,Plated,PTH,ComponentDrill
T3C1.000
; #@! TA.AperFunction,Plated,PTH,ComponentDrill
T4C1.100
%
G90
G05
T1
X77.66Y-69.342
X77.724Y-110.998
X77.724Y-111.76
X77.724Y-112.522
X78.232Y-119.38
X78.232Y-120.269
X78.232Y-121.158
X82.323Y-112.232
X82.522Y-110.695
X82.768Y-111.508
X83.312Y-118.173
X85.09Y-118.516
X87.173Y-118.821
X87.503Y-111.633
X87.694Y-82.486
X87.947Y-78.994
X89.027Y-113.538
X89.154Y-69.85
X89.154Y-118.962
X90.881Y-113.132
X91.796Y-118.567
X91.821Y-108.331
X92.075Y-82.55
X92.71Y-98.933
X92.964Y-78.994
X93.345Y-109.474
X93.434Y-97.382
X93.435Y-105.918
X93.472Y-117.946
X93.726Y-99.859
X95.123Y-111.125
X95.377Y-82.867
X96.012Y-73.152
X96.114Y-116.434
X96.326Y-111.566
X97.028Y-84.201
X97.688Y-118.923
X97.7Y-99.54
X98.084Y-85.471
X98.642Y-95.25
X98.684Y-111.257
X99.056Y-104.644
X99.064Y-90.674
X99.307Y-103.37
X99.314Y-99.949
X99.619Y-112.559
X99.695Y-89.535
X99.986Y-109.982
X100.127Y-91.288
X100.135Y-92.769
X100.178Y-117.297
X100.279Y-84.43
X100.33Y-82.804
X100.457Y-111.76
X100.965Y-94.869
X102.261Y-106.172
X102.362Y-78.994
X102.362Y-83.058
X102.514Y-118.262
X102.607Y-100.495
X103.378Y-73.152
X103.632Y-83.566
X103.751Y-104.01
X103.841Y-93.218
X103.886Y-114.465
X104.26Y-118.188
X104.326Y-119.185
X104.902Y-83.566
X105.101Y-106.529
X105.283Y-108.204
X105.825Y-105.822
X105.918Y-112.065
X105.918Y-113.789
X106.172Y-119.665
X106.673Y-106.409
X106.856Y-96.434
X106.892Y-112.776
X106.934Y-78.994
X107.223Y-97.562
X107.335Y-102.526
X107.36Y-114.3
X107.551Y-105.932
X107.836Y-96.773
X107.892Y-98.995
X107.892Y-101.473
X107.95Y-119.253
X108.622Y-105.822
X108.839Y-88.138
X108.839Y-107.813
X109.505Y-117.277
X109.537Y-69.787
X110.388Y-121.056
X110.391Y-116.813
X110.545Y-107.36
X110.617Y-89.154
X110.998Y-100.711
X111.087Y-119.342
X111.379Y-116.363
X111.575Y-107.754
X111.841Y-99.251
X111.953Y-100.367
X111.963Y-118.072
X112.196Y-115.244
X112.23Y-102.811
X112.308Y-113.992
X112.357Y-98.394
X112.395Y-116.459
X112.624Y-119.126
X112.776Y-105.822
X112.903Y-97.409
X113.063Y-120.955
X113.362Y-104.062
X113.567Y-106.952
X113.848Y-103.068
X113.956Y-89.335
X114.173Y-104.775
X114.3Y-78.613
X114.465Y-97.574
X114.554Y-112.776
X115.57Y-118.618
X115.638Y-120.972
X116.078Y-91.034
X116.59Y-112.518
X117.348Y-92.583
X117.551Y-118.212
X117.666Y-112.712
X117.729Y-95.504
X117.805Y-90.526
X117.924Y-120.972
X118.11Y-100.025
X118.999Y-90.17
X119.066Y-102.041
X119.596Y-101.092
X119.786Y-118.364
X119.99Y-103.124
X120.142Y-82.638
X120.345Y-121.006
X120.396Y-97.692
X120.65Y-112.903
X121.031Y-80.938
X121.539Y-96.393
X121.666Y-78.703
X122.295Y-100.076
X122.313Y-118.466
X122.779Y-120.959
X123.19Y-112.522
X123.448Y-88.904
X123.698Y-77.978
X123.735Y-91.44
X124.003Y-119.075
X124.243Y-112.561
X124.587Y-101.6
X124.714Y-90.297
X125.222Y-92.837
X125.222Y-112.268
X125.273Y-120.65
X125.988Y-117.598
X126.242Y-112.264
X127.508Y-89.281
X127.711Y-120.752
X128.016Y-118.516
X128.353Y-92.285
X131.572Y-119.38
X131.572Y-120.142
X131.572Y-120.904
X132.207Y-69.469
T2
X85.09Y-106.426
X113.665Y-81.788
T3
X113.792Y-84.455
X113.792Y-86.995
X116.332Y-84.455
X116.332Y-86.995
X118.872Y-84.455
X118.872Y-86.995
X121.412Y-84.455
X121.412Y-86.995
X129.286Y-95.352
X129.286Y-97.892
X129.286Y-100.432
X129.286Y-102.972
X129.286Y-105.512
T4
X79.606Y-70.367
X79.606Y-74.867
X86.106Y-70.367
X86.106Y-74.867
X112.331Y-70.367
X112.331Y-74.867
X118.831Y-70.367
X118.831Y-74.867
X123.675Y-70.358
X123.675Y-74.858
X130.175Y-70.358
X130.175Y-74.858
M30
