M48
; DRILL file {KiCad 8.0.2} date 2025-03-01T12:18:07+0100
; FORMAT={-:-/ absolute / inch / decimal}
; #@! TF.CreationDate,2025-03-01T12:18:07+01:00
; #@! TF.GenerationSoftware,Kicad,Pcbnew,8.0.2
; #@! TF.FileFunction,Plated,1,2,PTH
FMAT,2
INCH
; #@! TA.AperFunction,Plated,PTH,ViaDrill
T1C0.0157
; #@! TA.AperFunction,Plated,PTH,ViaDrill
T2C0.0315
; #@! TA.AperFunction,Plated,PTH,ComponentDrill
T3C0.0394
; #@! TA.AperFunction,Plated,PTH,ComponentDrill
T4C0.0433
%
G90
G05
T1
X3.0575Y-2.73
X3.06Y-4.37
X3.06Y-4.4
X3.06Y-4.43
X3.08Y-4.7
X3.08Y-4.735
X3.08Y-4.77
X3.2411Y-4.4186
X3.2489Y-4.3581
X3.2586Y-4.3901
X3.28Y-4.6525
X3.35Y-4.666
X3.432Y-4.678
X3.445Y-4.395
X3.4525Y-3.2475
X3.4625Y-3.11
X3.505Y-4.47
X3.51Y-2.75
X3.51Y-4.6835
X3.578Y-4.454
X3.614Y-4.668
X3.615Y-4.265
X3.625Y-3.25
X3.65Y-3.895
X3.66Y-3.11
X3.675Y-4.31
X3.6785Y-3.834
X3.6785Y-4.17
X3.68Y-4.6436
X3.69Y-3.9315
X3.745Y-4.375
X3.755Y-3.2625
X3.78Y-2.88
X3.784Y-4.584
X3.7924Y-4.3924
X3.82Y-3.315
X3.846Y-4.682
X3.8465Y-3.9189
X3.8616Y-3.365
X3.8835Y-3.75
X3.8852Y-4.3802
X3.8998Y-4.1198
X3.9002Y-3.5698
X3.9097Y-4.0697
X3.91Y-3.935
X3.922Y-4.4315
X3.925Y-3.525
X3.9365Y-4.33
X3.942Y-3.594
X3.9423Y-3.6523
X3.944Y-4.618
X3.948Y-3.324
X3.95Y-3.26
X3.955Y-4.4
X3.975Y-3.735
X4.026Y-4.18
X4.03Y-3.11
X4.03Y-3.27
X4.036Y-4.656
X4.0396Y-3.9565
X4.07Y-2.88
X4.08Y-3.29
X4.0847Y-4.0949
X4.0882Y-3.67
X4.09Y-4.5065
X4.1047Y-4.6531
X4.1073Y-4.6923
X4.13Y-3.29
X4.1378Y-4.194
X4.145Y-4.26
X4.1663Y-4.1662
X4.17Y-4.412
X4.17Y-4.4799
X4.18Y-4.7112
X4.1997Y-4.1893
X4.2069Y-3.7966
X4.2084Y-4.44
X4.21Y-3.11
X4.2214Y-3.841
X4.2258Y-4.0365
X4.2268Y-4.5
X4.2343Y-4.1705
X4.2455Y-3.8099
X4.2477Y-3.8974
X4.2477Y-3.995
X4.25Y-4.695
X4.2765Y-4.1662
X4.285Y-3.47
X4.285Y-4.2446
X4.3112Y-4.6172
X4.3125Y-2.7475
X4.346Y-4.766
X4.3461Y-4.599
X4.3521Y-4.2268
X4.355Y-3.51
X4.37Y-3.965
X4.3735Y-4.6985
X4.385Y-4.5812
X4.3927Y-4.2423
X4.4032Y-3.9075
X4.4076Y-3.9515
X4.408Y-4.6485
X4.4172Y-4.5372
X4.4185Y-4.0477
X4.4216Y-4.4879
X4.4235Y-3.8738
X4.425Y-4.585
X4.434Y-4.69
X4.44Y-4.1662
X4.445Y-3.835
X4.4513Y-4.762
X4.4631Y-4.0969
X4.4711Y-4.2107
X4.4822Y-4.0578
X4.4865Y-3.5171
X4.495Y-4.125
X4.5Y-3.095
X4.5065Y-3.8415
X4.51Y-4.44
X4.55Y-4.67
X4.5527Y-4.7627
X4.57Y-3.584
X4.5902Y-4.4298
X4.62Y-3.645
X4.628Y-4.654
X4.6325Y-4.4375
X4.635Y-3.76
X4.638Y-3.564
X4.6427Y-4.7627
X4.65Y-3.938
X4.685Y-3.55
X4.6876Y-4.0173
X4.7085Y-3.98
X4.716Y-4.66
X4.724Y-4.06
X4.73Y-3.2534
X4.738Y-4.764
X4.74Y-3.8462
X4.75Y-4.445
X4.765Y-3.1866
X4.785Y-3.795
X4.79Y-3.0985
X4.8148Y-3.94
X4.8155Y-4.664
X4.8338Y-4.7622
X4.85Y-4.43
X4.8602Y-3.5002
X4.87Y-3.07
X4.8715Y-3.6
X4.882Y-4.688
X4.8914Y-4.4315
X4.905Y-4.0
X4.91Y-3.555
X4.93Y-3.655
X4.93Y-4.42
X4.932Y-4.75
X4.9602Y-4.6298
X4.9702Y-4.4198
X5.02Y-3.515
X5.028Y-4.754
X5.04Y-4.666
X5.0533Y-3.6333
X5.18Y-4.7
X5.18Y-4.73
X5.18Y-4.76
X5.205Y-2.735
T2
X3.35Y-4.19
X4.475Y-3.22
T3
X4.48Y-3.325
X4.48Y-3.425
X4.58Y-3.325
X4.58Y-3.425
X4.68Y-3.325
X4.68Y-3.425
X4.78Y-3.325
X4.78Y-3.425
X5.09Y-3.754
X5.09Y-3.854
X5.09Y-3.954
X5.09Y-4.054
X5.09Y-4.154
T4
X3.1341Y-2.7703
X3.1341Y-2.9475
X3.39Y-2.7703
X3.39Y-2.9475
X4.4225Y-2.7703
X4.4225Y-2.9475
X4.6784Y-2.7703
X4.6784Y-2.9475
X4.8691Y-2.77
X4.8691Y-2.9472
X5.125Y-2.77
X5.125Y-2.9472
M30
