G04 #@! TF.GenerationSoftware,KiCad,Pcbnew,8.0.2*
G04 #@! TF.CreationDate,2025-03-01T12:18:06+01:00*
G04 #@! TF.ProjectId,KungFuFlash2,4b756e67-4675-4466-9c61-7368322e6b69,1*
G04 #@! TF.SameCoordinates,Original*
G04 #@! TF.FileFunction,Legend,Bot*
G04 #@! TF.FilePolarity,Positive*
%FSLAX46Y46*%
G04 Gerber Fmt 4.6, Leading zero omitted, Abs format (unit mm)*
G04 Created by KiCad (PCBNEW 8.0.2) date 2025-03-01 12:18:06*
%MOMM*%
%LPD*%
G01*
G04 APERTURE LIST*
%ADD10C,0.150000*%
%ADD11C,0.001000*%
%ADD12C,2.000000*%
%ADD13R,1.524000X8.000000*%
%ADD14R,58.420000X8.300000*%
%ADD15O,1.700000X1.700000*%
%ADD16R,1.700000X1.700000*%
G04 APERTURE END LIST*
D10*
X77993037Y-79791112D02*
X78040656Y-79933969D01*
X78040656Y-79933969D02*
X78088275Y-79981588D01*
X78088275Y-79981588D02*
X78183513Y-80029207D01*
X78183513Y-80029207D02*
X78326370Y-80029207D01*
X78326370Y-80029207D02*
X78421608Y-79981588D01*
X78421608Y-79981588D02*
X78469228Y-79933969D01*
X78469228Y-79933969D02*
X78516847Y-79838731D01*
X78516847Y-79838731D02*
X78516847Y-79457779D01*
X78516847Y-79457779D02*
X77516847Y-79457779D01*
X77516847Y-79457779D02*
X77516847Y-79791112D01*
X77516847Y-79791112D02*
X77564466Y-79886350D01*
X77564466Y-79886350D02*
X77612085Y-79933969D01*
X77612085Y-79933969D02*
X77707323Y-79981588D01*
X77707323Y-79981588D02*
X77802561Y-79981588D01*
X77802561Y-79981588D02*
X77897799Y-79933969D01*
X77897799Y-79933969D02*
X77945418Y-79886350D01*
X77945418Y-79886350D02*
X77993037Y-79791112D01*
X77993037Y-79791112D02*
X77993037Y-79457779D01*
X78516847Y-80600636D02*
X78469228Y-80505398D01*
X78469228Y-80505398D02*
X78421608Y-80457779D01*
X78421608Y-80457779D02*
X78326370Y-80410160D01*
X78326370Y-80410160D02*
X78040656Y-80410160D01*
X78040656Y-80410160D02*
X77945418Y-80457779D01*
X77945418Y-80457779D02*
X77897799Y-80505398D01*
X77897799Y-80505398D02*
X77850180Y-80600636D01*
X77850180Y-80600636D02*
X77850180Y-80743493D01*
X77850180Y-80743493D02*
X77897799Y-80838731D01*
X77897799Y-80838731D02*
X77945418Y-80886350D01*
X77945418Y-80886350D02*
X78040656Y-80933969D01*
X78040656Y-80933969D02*
X78326370Y-80933969D01*
X78326370Y-80933969D02*
X78421608Y-80886350D01*
X78421608Y-80886350D02*
X78469228Y-80838731D01*
X78469228Y-80838731D02*
X78516847Y-80743493D01*
X78516847Y-80743493D02*
X78516847Y-80600636D01*
X78516847Y-81791112D02*
X77993037Y-81791112D01*
X77993037Y-81791112D02*
X77897799Y-81743493D01*
X77897799Y-81743493D02*
X77850180Y-81648255D01*
X77850180Y-81648255D02*
X77850180Y-81457779D01*
X77850180Y-81457779D02*
X77897799Y-81362541D01*
X78469228Y-81791112D02*
X78516847Y-81695874D01*
X78516847Y-81695874D02*
X78516847Y-81457779D01*
X78516847Y-81457779D02*
X78469228Y-81362541D01*
X78469228Y-81362541D02*
X78373989Y-81314922D01*
X78373989Y-81314922D02*
X78278751Y-81314922D01*
X78278751Y-81314922D02*
X78183513Y-81362541D01*
X78183513Y-81362541D02*
X78135894Y-81457779D01*
X78135894Y-81457779D02*
X78135894Y-81695874D01*
X78135894Y-81695874D02*
X78088275Y-81791112D01*
X78516847Y-82267303D02*
X77850180Y-82267303D01*
X78040656Y-82267303D02*
X77945418Y-82314922D01*
X77945418Y-82314922D02*
X77897799Y-82362541D01*
X77897799Y-82362541D02*
X77850180Y-82457779D01*
X77850180Y-82457779D02*
X77850180Y-82553017D01*
X78516847Y-83314922D02*
X77516847Y-83314922D01*
X78469228Y-83314922D02*
X78516847Y-83219684D01*
X78516847Y-83219684D02*
X78516847Y-83029208D01*
X78516847Y-83029208D02*
X78469228Y-82933970D01*
X78469228Y-82933970D02*
X78421608Y-82886351D01*
X78421608Y-82886351D02*
X78326370Y-82838732D01*
X78326370Y-82838732D02*
X78040656Y-82838732D01*
X78040656Y-82838732D02*
X77945418Y-82886351D01*
X77945418Y-82886351D02*
X77897799Y-82933970D01*
X77897799Y-82933970D02*
X77850180Y-83029208D01*
X77850180Y-83029208D02*
X77850180Y-83219684D01*
X77850180Y-83219684D02*
X77897799Y-83314922D01*
X78516847Y-84981589D02*
X77993037Y-84981589D01*
X77993037Y-84981589D02*
X77897799Y-84933970D01*
X77897799Y-84933970D02*
X77850180Y-84838732D01*
X77850180Y-84838732D02*
X77850180Y-84648256D01*
X77850180Y-84648256D02*
X77897799Y-84553018D01*
X78469228Y-84981589D02*
X78516847Y-84886351D01*
X78516847Y-84886351D02*
X78516847Y-84648256D01*
X78516847Y-84648256D02*
X78469228Y-84553018D01*
X78469228Y-84553018D02*
X78373989Y-84505399D01*
X78373989Y-84505399D02*
X78278751Y-84505399D01*
X78278751Y-84505399D02*
X78183513Y-84553018D01*
X78183513Y-84553018D02*
X78135894Y-84648256D01*
X78135894Y-84648256D02*
X78135894Y-84886351D01*
X78135894Y-84886351D02*
X78088275Y-84981589D01*
X78516847Y-85886351D02*
X77516847Y-85886351D01*
X78469228Y-85886351D02*
X78516847Y-85791113D01*
X78516847Y-85791113D02*
X78516847Y-85600637D01*
X78516847Y-85600637D02*
X78469228Y-85505399D01*
X78469228Y-85505399D02*
X78421608Y-85457780D01*
X78421608Y-85457780D02*
X78326370Y-85410161D01*
X78326370Y-85410161D02*
X78040656Y-85410161D01*
X78040656Y-85410161D02*
X77945418Y-85457780D01*
X77945418Y-85457780D02*
X77897799Y-85505399D01*
X77897799Y-85505399D02*
X77850180Y-85600637D01*
X77850180Y-85600637D02*
X77850180Y-85791113D01*
X77850180Y-85791113D02*
X77897799Y-85886351D01*
X78516847Y-86791113D02*
X77993037Y-86791113D01*
X77993037Y-86791113D02*
X77897799Y-86743494D01*
X77897799Y-86743494D02*
X77850180Y-86648256D01*
X77850180Y-86648256D02*
X77850180Y-86457780D01*
X77850180Y-86457780D02*
X77897799Y-86362542D01*
X78469228Y-86791113D02*
X78516847Y-86695875D01*
X78516847Y-86695875D02*
X78516847Y-86457780D01*
X78516847Y-86457780D02*
X78469228Y-86362542D01*
X78469228Y-86362542D02*
X78373989Y-86314923D01*
X78373989Y-86314923D02*
X78278751Y-86314923D01*
X78278751Y-86314923D02*
X78183513Y-86362542D01*
X78183513Y-86362542D02*
X78135894Y-86457780D01*
X78135894Y-86457780D02*
X78135894Y-86695875D01*
X78135894Y-86695875D02*
X78088275Y-86791113D01*
X77850180Y-87267304D02*
X78850180Y-87267304D01*
X77897799Y-87267304D02*
X77850180Y-87362542D01*
X77850180Y-87362542D02*
X77850180Y-87553018D01*
X77850180Y-87553018D02*
X77897799Y-87648256D01*
X77897799Y-87648256D02*
X77945418Y-87695875D01*
X77945418Y-87695875D02*
X78040656Y-87743494D01*
X78040656Y-87743494D02*
X78326370Y-87743494D01*
X78326370Y-87743494D02*
X78421608Y-87695875D01*
X78421608Y-87695875D02*
X78469228Y-87648256D01*
X78469228Y-87648256D02*
X78516847Y-87553018D01*
X78516847Y-87553018D02*
X78516847Y-87362542D01*
X78516847Y-87362542D02*
X78469228Y-87267304D01*
X77850180Y-88029209D02*
X77850180Y-88410161D01*
X77516847Y-88172066D02*
X78373989Y-88172066D01*
X78373989Y-88172066D02*
X78469228Y-88219685D01*
X78469228Y-88219685D02*
X78516847Y-88314923D01*
X78516847Y-88314923D02*
X78516847Y-88410161D01*
X78469228Y-89124447D02*
X78516847Y-89029209D01*
X78516847Y-89029209D02*
X78516847Y-88838733D01*
X78516847Y-88838733D02*
X78469228Y-88743495D01*
X78469228Y-88743495D02*
X78373989Y-88695876D01*
X78373989Y-88695876D02*
X77993037Y-88695876D01*
X77993037Y-88695876D02*
X77897799Y-88743495D01*
X77897799Y-88743495D02*
X77850180Y-88838733D01*
X77850180Y-88838733D02*
X77850180Y-89029209D01*
X77850180Y-89029209D02*
X77897799Y-89124447D01*
X77897799Y-89124447D02*
X77993037Y-89172066D01*
X77993037Y-89172066D02*
X78088275Y-89172066D01*
X78088275Y-89172066D02*
X78183513Y-88695876D01*
X78516847Y-90029209D02*
X77516847Y-90029209D01*
X78469228Y-90029209D02*
X78516847Y-89933971D01*
X78516847Y-89933971D02*
X78516847Y-89743495D01*
X78516847Y-89743495D02*
X78469228Y-89648257D01*
X78469228Y-89648257D02*
X78421608Y-89600638D01*
X78421608Y-89600638D02*
X78326370Y-89553019D01*
X78326370Y-89553019D02*
X78040656Y-89553019D01*
X78040656Y-89553019D02*
X77945418Y-89600638D01*
X77945418Y-89600638D02*
X77897799Y-89648257D01*
X77897799Y-89648257D02*
X77850180Y-89743495D01*
X77850180Y-89743495D02*
X77850180Y-89933971D01*
X77850180Y-89933971D02*
X77897799Y-90029209D01*
X77850180Y-91124448D02*
X77850180Y-91505400D01*
X78516847Y-91267305D02*
X77659704Y-91267305D01*
X77659704Y-91267305D02*
X77564466Y-91314924D01*
X77564466Y-91314924D02*
X77516847Y-91410162D01*
X77516847Y-91410162D02*
X77516847Y-91505400D01*
X78516847Y-91838734D02*
X77850180Y-91838734D01*
X78040656Y-91838734D02*
X77945418Y-91886353D01*
X77945418Y-91886353D02*
X77897799Y-91933972D01*
X77897799Y-91933972D02*
X77850180Y-92029210D01*
X77850180Y-92029210D02*
X77850180Y-92124448D01*
X78516847Y-92600639D02*
X78469228Y-92505401D01*
X78469228Y-92505401D02*
X78421608Y-92457782D01*
X78421608Y-92457782D02*
X78326370Y-92410163D01*
X78326370Y-92410163D02*
X78040656Y-92410163D01*
X78040656Y-92410163D02*
X77945418Y-92457782D01*
X77945418Y-92457782D02*
X77897799Y-92505401D01*
X77897799Y-92505401D02*
X77850180Y-92600639D01*
X77850180Y-92600639D02*
X77850180Y-92743496D01*
X77850180Y-92743496D02*
X77897799Y-92838734D01*
X77897799Y-92838734D02*
X77945418Y-92886353D01*
X77945418Y-92886353D02*
X78040656Y-92933972D01*
X78040656Y-92933972D02*
X78326370Y-92933972D01*
X78326370Y-92933972D02*
X78421608Y-92886353D01*
X78421608Y-92886353D02*
X78469228Y-92838734D01*
X78469228Y-92838734D02*
X78516847Y-92743496D01*
X78516847Y-92743496D02*
X78516847Y-92600639D01*
X78516847Y-93362544D02*
X77850180Y-93362544D01*
X77945418Y-93362544D02*
X77897799Y-93410163D01*
X77897799Y-93410163D02*
X77850180Y-93505401D01*
X77850180Y-93505401D02*
X77850180Y-93648258D01*
X77850180Y-93648258D02*
X77897799Y-93743496D01*
X77897799Y-93743496D02*
X77993037Y-93791115D01*
X77993037Y-93791115D02*
X78516847Y-93791115D01*
X77993037Y-93791115D02*
X77897799Y-93838734D01*
X77897799Y-93838734D02*
X77850180Y-93933972D01*
X77850180Y-93933972D02*
X77850180Y-94076829D01*
X77850180Y-94076829D02*
X77897799Y-94172068D01*
X77897799Y-94172068D02*
X77993037Y-94219687D01*
X77993037Y-94219687D02*
X78516847Y-94219687D01*
X78421608Y-94695877D02*
X78469228Y-94743496D01*
X78469228Y-94743496D02*
X78516847Y-94695877D01*
X78516847Y-94695877D02*
X78469228Y-94648258D01*
X78469228Y-94648258D02*
X78421608Y-94695877D01*
X78421608Y-94695877D02*
X78516847Y-94695877D01*
X77897799Y-94695877D02*
X77945418Y-94743496D01*
X77945418Y-94743496D02*
X77993037Y-94695877D01*
X77993037Y-94695877D02*
X77945418Y-94648258D01*
X77945418Y-94648258D02*
X77897799Y-94695877D01*
X77897799Y-94695877D02*
X77993037Y-94695877D01*
X80126791Y-79457779D02*
X79126791Y-79457779D01*
X80126791Y-79886350D02*
X79602981Y-79886350D01*
X79602981Y-79886350D02*
X79507743Y-79838731D01*
X79507743Y-79838731D02*
X79460124Y-79743493D01*
X79460124Y-79743493D02*
X79460124Y-79600636D01*
X79460124Y-79600636D02*
X79507743Y-79505398D01*
X79507743Y-79505398D02*
X79555362Y-79457779D01*
X79460124Y-80219684D02*
X79460124Y-80600636D01*
X79126791Y-80362541D02*
X79983933Y-80362541D01*
X79983933Y-80362541D02*
X80079172Y-80410160D01*
X80079172Y-80410160D02*
X80126791Y-80505398D01*
X80126791Y-80505398D02*
X80126791Y-80600636D01*
X79460124Y-80791113D02*
X79460124Y-81172065D01*
X79126791Y-80933970D02*
X79983933Y-80933970D01*
X79983933Y-80933970D02*
X80079172Y-80981589D01*
X80079172Y-80981589D02*
X80126791Y-81076827D01*
X80126791Y-81076827D02*
X80126791Y-81172065D01*
X79460124Y-81505399D02*
X80460124Y-81505399D01*
X79507743Y-81505399D02*
X79460124Y-81600637D01*
X79460124Y-81600637D02*
X79460124Y-81791113D01*
X79460124Y-81791113D02*
X79507743Y-81886351D01*
X79507743Y-81886351D02*
X79555362Y-81933970D01*
X79555362Y-81933970D02*
X79650600Y-81981589D01*
X79650600Y-81981589D02*
X79936314Y-81981589D01*
X79936314Y-81981589D02*
X80031552Y-81933970D01*
X80031552Y-81933970D02*
X80079172Y-81886351D01*
X80079172Y-81886351D02*
X80126791Y-81791113D01*
X80126791Y-81791113D02*
X80126791Y-81600637D01*
X80126791Y-81600637D02*
X80079172Y-81505399D01*
X80079172Y-82362542D02*
X80126791Y-82457780D01*
X80126791Y-82457780D02*
X80126791Y-82648256D01*
X80126791Y-82648256D02*
X80079172Y-82743494D01*
X80079172Y-82743494D02*
X79983933Y-82791113D01*
X79983933Y-82791113D02*
X79936314Y-82791113D01*
X79936314Y-82791113D02*
X79841076Y-82743494D01*
X79841076Y-82743494D02*
X79793457Y-82648256D01*
X79793457Y-82648256D02*
X79793457Y-82505399D01*
X79793457Y-82505399D02*
X79745838Y-82410161D01*
X79745838Y-82410161D02*
X79650600Y-82362542D01*
X79650600Y-82362542D02*
X79602981Y-82362542D01*
X79602981Y-82362542D02*
X79507743Y-82410161D01*
X79507743Y-82410161D02*
X79460124Y-82505399D01*
X79460124Y-82505399D02*
X79460124Y-82648256D01*
X79460124Y-82648256D02*
X79507743Y-82743494D01*
X80031552Y-83219685D02*
X80079172Y-83267304D01*
X80079172Y-83267304D02*
X80126791Y-83219685D01*
X80126791Y-83219685D02*
X80079172Y-83172066D01*
X80079172Y-83172066D02*
X80031552Y-83219685D01*
X80031552Y-83219685D02*
X80126791Y-83219685D01*
X79507743Y-83219685D02*
X79555362Y-83267304D01*
X79555362Y-83267304D02*
X79602981Y-83219685D01*
X79602981Y-83219685D02*
X79555362Y-83172066D01*
X79555362Y-83172066D02*
X79507743Y-83219685D01*
X79507743Y-83219685D02*
X79602981Y-83219685D01*
X79079172Y-84410160D02*
X80364886Y-83553018D01*
X79079172Y-85457779D02*
X80364886Y-84600637D01*
X79460124Y-86219684D02*
X80269648Y-86219684D01*
X80269648Y-86219684D02*
X80364886Y-86172065D01*
X80364886Y-86172065D02*
X80412505Y-86124446D01*
X80412505Y-86124446D02*
X80460124Y-86029208D01*
X80460124Y-86029208D02*
X80460124Y-85886351D01*
X80460124Y-85886351D02*
X80412505Y-85791113D01*
X80079172Y-86219684D02*
X80126791Y-86124446D01*
X80126791Y-86124446D02*
X80126791Y-85933970D01*
X80126791Y-85933970D02*
X80079172Y-85838732D01*
X80079172Y-85838732D02*
X80031552Y-85791113D01*
X80031552Y-85791113D02*
X79936314Y-85743494D01*
X79936314Y-85743494D02*
X79650600Y-85743494D01*
X79650600Y-85743494D02*
X79555362Y-85791113D01*
X79555362Y-85791113D02*
X79507743Y-85838732D01*
X79507743Y-85838732D02*
X79460124Y-85933970D01*
X79460124Y-85933970D02*
X79460124Y-86124446D01*
X79460124Y-86124446D02*
X79507743Y-86219684D01*
X80126791Y-86695875D02*
X79460124Y-86695875D01*
X79126791Y-86695875D02*
X79174410Y-86648256D01*
X79174410Y-86648256D02*
X79222029Y-86695875D01*
X79222029Y-86695875D02*
X79174410Y-86743494D01*
X79174410Y-86743494D02*
X79126791Y-86695875D01*
X79126791Y-86695875D02*
X79222029Y-86695875D01*
X79460124Y-87029208D02*
X79460124Y-87410160D01*
X79126791Y-87172065D02*
X79983933Y-87172065D01*
X79983933Y-87172065D02*
X80079172Y-87219684D01*
X80079172Y-87219684D02*
X80126791Y-87314922D01*
X80126791Y-87314922D02*
X80126791Y-87410160D01*
X80126791Y-87743494D02*
X79126791Y-87743494D01*
X80126791Y-88172065D02*
X79602981Y-88172065D01*
X79602981Y-88172065D02*
X79507743Y-88124446D01*
X79507743Y-88124446D02*
X79460124Y-88029208D01*
X79460124Y-88029208D02*
X79460124Y-87886351D01*
X79460124Y-87886351D02*
X79507743Y-87791113D01*
X79507743Y-87791113D02*
X79555362Y-87743494D01*
X79460124Y-89076827D02*
X80126791Y-89076827D01*
X79460124Y-88648256D02*
X79983933Y-88648256D01*
X79983933Y-88648256D02*
X80079172Y-88695875D01*
X80079172Y-88695875D02*
X80126791Y-88791113D01*
X80126791Y-88791113D02*
X80126791Y-88933970D01*
X80126791Y-88933970D02*
X80079172Y-89029208D01*
X80079172Y-89029208D02*
X80031552Y-89076827D01*
X80126791Y-89553018D02*
X79126791Y-89553018D01*
X79507743Y-89553018D02*
X79460124Y-89648256D01*
X79460124Y-89648256D02*
X79460124Y-89838732D01*
X79460124Y-89838732D02*
X79507743Y-89933970D01*
X79507743Y-89933970D02*
X79555362Y-89981589D01*
X79555362Y-89981589D02*
X79650600Y-90029208D01*
X79650600Y-90029208D02*
X79936314Y-90029208D01*
X79936314Y-90029208D02*
X80031552Y-89981589D01*
X80031552Y-89981589D02*
X80079172Y-89933970D01*
X80079172Y-89933970D02*
X80126791Y-89838732D01*
X80126791Y-89838732D02*
X80126791Y-89648256D01*
X80126791Y-89648256D02*
X80079172Y-89553018D01*
X80031552Y-90457780D02*
X80079172Y-90505399D01*
X80079172Y-90505399D02*
X80126791Y-90457780D01*
X80126791Y-90457780D02*
X80079172Y-90410161D01*
X80079172Y-90410161D02*
X80031552Y-90457780D01*
X80031552Y-90457780D02*
X80126791Y-90457780D01*
X80079172Y-91362541D02*
X80126791Y-91267303D01*
X80126791Y-91267303D02*
X80126791Y-91076827D01*
X80126791Y-91076827D02*
X80079172Y-90981589D01*
X80079172Y-90981589D02*
X80031552Y-90933970D01*
X80031552Y-90933970D02*
X79936314Y-90886351D01*
X79936314Y-90886351D02*
X79650600Y-90886351D01*
X79650600Y-90886351D02*
X79555362Y-90933970D01*
X79555362Y-90933970D02*
X79507743Y-90981589D01*
X79507743Y-90981589D02*
X79460124Y-91076827D01*
X79460124Y-91076827D02*
X79460124Y-91267303D01*
X79460124Y-91267303D02*
X79507743Y-91362541D01*
X80126791Y-91933970D02*
X80079172Y-91838732D01*
X80079172Y-91838732D02*
X80031552Y-91791113D01*
X80031552Y-91791113D02*
X79936314Y-91743494D01*
X79936314Y-91743494D02*
X79650600Y-91743494D01*
X79650600Y-91743494D02*
X79555362Y-91791113D01*
X79555362Y-91791113D02*
X79507743Y-91838732D01*
X79507743Y-91838732D02*
X79460124Y-91933970D01*
X79460124Y-91933970D02*
X79460124Y-92076827D01*
X79460124Y-92076827D02*
X79507743Y-92172065D01*
X79507743Y-92172065D02*
X79555362Y-92219684D01*
X79555362Y-92219684D02*
X79650600Y-92267303D01*
X79650600Y-92267303D02*
X79936314Y-92267303D01*
X79936314Y-92267303D02*
X80031552Y-92219684D01*
X80031552Y-92219684D02*
X80079172Y-92172065D01*
X80079172Y-92172065D02*
X80126791Y-92076827D01*
X80126791Y-92076827D02*
X80126791Y-91933970D01*
X80126791Y-92695875D02*
X79460124Y-92695875D01*
X79555362Y-92695875D02*
X79507743Y-92743494D01*
X79507743Y-92743494D02*
X79460124Y-92838732D01*
X79460124Y-92838732D02*
X79460124Y-92981589D01*
X79460124Y-92981589D02*
X79507743Y-93076827D01*
X79507743Y-93076827D02*
X79602981Y-93124446D01*
X79602981Y-93124446D02*
X80126791Y-93124446D01*
X79602981Y-93124446D02*
X79507743Y-93172065D01*
X79507743Y-93172065D02*
X79460124Y-93267303D01*
X79460124Y-93267303D02*
X79460124Y-93410160D01*
X79460124Y-93410160D02*
X79507743Y-93505399D01*
X79507743Y-93505399D02*
X79602981Y-93553018D01*
X79602981Y-93553018D02*
X80126791Y-93553018D01*
X79079172Y-94743493D02*
X80364886Y-93886351D01*
X80126791Y-95076827D02*
X79126791Y-95076827D01*
X80126791Y-95648255D02*
X79555362Y-95219684D01*
X79126791Y-95648255D02*
X79698219Y-95076827D01*
X80126791Y-96076827D02*
X79460124Y-96076827D01*
X79126791Y-96076827D02*
X79174410Y-96029208D01*
X79174410Y-96029208D02*
X79222029Y-96076827D01*
X79222029Y-96076827D02*
X79174410Y-96124446D01*
X79174410Y-96124446D02*
X79126791Y-96076827D01*
X79126791Y-96076827D02*
X79222029Y-96076827D01*
X80126791Y-96553017D02*
X79460124Y-96553017D01*
X79555362Y-96553017D02*
X79507743Y-96600636D01*
X79507743Y-96600636D02*
X79460124Y-96695874D01*
X79460124Y-96695874D02*
X79460124Y-96838731D01*
X79460124Y-96838731D02*
X79507743Y-96933969D01*
X79507743Y-96933969D02*
X79602981Y-96981588D01*
X79602981Y-96981588D02*
X80126791Y-96981588D01*
X79602981Y-96981588D02*
X79507743Y-97029207D01*
X79507743Y-97029207D02*
X79460124Y-97124445D01*
X79460124Y-97124445D02*
X79460124Y-97267302D01*
X79460124Y-97267302D02*
X79507743Y-97362541D01*
X79507743Y-97362541D02*
X79602981Y-97410160D01*
X79602981Y-97410160D02*
X80126791Y-97410160D01*
X79126791Y-98172064D02*
X79841076Y-98172064D01*
X79841076Y-98172064D02*
X79983933Y-98124445D01*
X79983933Y-98124445D02*
X80079172Y-98029207D01*
X80079172Y-98029207D02*
X80126791Y-97886350D01*
X80126791Y-97886350D02*
X80126791Y-97791112D01*
X80126791Y-98791112D02*
X80079172Y-98695874D01*
X80079172Y-98695874D02*
X80031552Y-98648255D01*
X80031552Y-98648255D02*
X79936314Y-98600636D01*
X79936314Y-98600636D02*
X79650600Y-98600636D01*
X79650600Y-98600636D02*
X79555362Y-98648255D01*
X79555362Y-98648255D02*
X79507743Y-98695874D01*
X79507743Y-98695874D02*
X79460124Y-98791112D01*
X79460124Y-98791112D02*
X79460124Y-98933969D01*
X79460124Y-98933969D02*
X79507743Y-99029207D01*
X79507743Y-99029207D02*
X79555362Y-99076826D01*
X79555362Y-99076826D02*
X79650600Y-99124445D01*
X79650600Y-99124445D02*
X79936314Y-99124445D01*
X79936314Y-99124445D02*
X80031552Y-99076826D01*
X80031552Y-99076826D02*
X80079172Y-99029207D01*
X80079172Y-99029207D02*
X80126791Y-98933969D01*
X80126791Y-98933969D02*
X80126791Y-98791112D01*
X80126791Y-99553017D02*
X79460124Y-99553017D01*
X79650600Y-99553017D02*
X79555362Y-99600636D01*
X79555362Y-99600636D02*
X79507743Y-99648255D01*
X79507743Y-99648255D02*
X79460124Y-99743493D01*
X79460124Y-99743493D02*
X79460124Y-99838731D01*
X79460124Y-100600636D02*
X80269648Y-100600636D01*
X80269648Y-100600636D02*
X80364886Y-100553017D01*
X80364886Y-100553017D02*
X80412505Y-100505398D01*
X80412505Y-100505398D02*
X80460124Y-100410160D01*
X80460124Y-100410160D02*
X80460124Y-100267303D01*
X80460124Y-100267303D02*
X80412505Y-100172065D01*
X80079172Y-100600636D02*
X80126791Y-100505398D01*
X80126791Y-100505398D02*
X80126791Y-100314922D01*
X80126791Y-100314922D02*
X80079172Y-100219684D01*
X80079172Y-100219684D02*
X80031552Y-100172065D01*
X80031552Y-100172065D02*
X79936314Y-100124446D01*
X79936314Y-100124446D02*
X79650600Y-100124446D01*
X79650600Y-100124446D02*
X79555362Y-100172065D01*
X79555362Y-100172065D02*
X79507743Y-100219684D01*
X79507743Y-100219684D02*
X79460124Y-100314922D01*
X79460124Y-100314922D02*
X79460124Y-100505398D01*
X79460124Y-100505398D02*
X79507743Y-100600636D01*
X80079172Y-101457779D02*
X80126791Y-101362541D01*
X80126791Y-101362541D02*
X80126791Y-101172065D01*
X80126791Y-101172065D02*
X80079172Y-101076827D01*
X80079172Y-101076827D02*
X79983933Y-101029208D01*
X79983933Y-101029208D02*
X79602981Y-101029208D01*
X79602981Y-101029208D02*
X79507743Y-101076827D01*
X79507743Y-101076827D02*
X79460124Y-101172065D01*
X79460124Y-101172065D02*
X79460124Y-101362541D01*
X79460124Y-101362541D02*
X79507743Y-101457779D01*
X79507743Y-101457779D02*
X79602981Y-101505398D01*
X79602981Y-101505398D02*
X79698219Y-101505398D01*
X79698219Y-101505398D02*
X79793457Y-101029208D01*
X79460124Y-101933970D02*
X80126791Y-101933970D01*
X79555362Y-101933970D02*
X79507743Y-101981589D01*
X79507743Y-101981589D02*
X79460124Y-102076827D01*
X79460124Y-102076827D02*
X79460124Y-102219684D01*
X79460124Y-102219684D02*
X79507743Y-102314922D01*
X79507743Y-102314922D02*
X79602981Y-102362541D01*
X79602981Y-102362541D02*
X80126791Y-102362541D01*
X80079172Y-102791113D02*
X80126791Y-102886351D01*
X80126791Y-102886351D02*
X80126791Y-103076827D01*
X80126791Y-103076827D02*
X80079172Y-103172065D01*
X80079172Y-103172065D02*
X79983933Y-103219684D01*
X79983933Y-103219684D02*
X79936314Y-103219684D01*
X79936314Y-103219684D02*
X79841076Y-103172065D01*
X79841076Y-103172065D02*
X79793457Y-103076827D01*
X79793457Y-103076827D02*
X79793457Y-102933970D01*
X79793457Y-102933970D02*
X79745838Y-102838732D01*
X79745838Y-102838732D02*
X79650600Y-102791113D01*
X79650600Y-102791113D02*
X79602981Y-102791113D01*
X79602981Y-102791113D02*
X79507743Y-102838732D01*
X79507743Y-102838732D02*
X79460124Y-102933970D01*
X79460124Y-102933970D02*
X79460124Y-103076827D01*
X79460124Y-103076827D02*
X79507743Y-103172065D01*
X80079172Y-104029208D02*
X80126791Y-103933970D01*
X80126791Y-103933970D02*
X80126791Y-103743494D01*
X80126791Y-103743494D02*
X80079172Y-103648256D01*
X80079172Y-103648256D02*
X79983933Y-103600637D01*
X79983933Y-103600637D02*
X79602981Y-103600637D01*
X79602981Y-103600637D02*
X79507743Y-103648256D01*
X79507743Y-103648256D02*
X79460124Y-103743494D01*
X79460124Y-103743494D02*
X79460124Y-103933970D01*
X79460124Y-103933970D02*
X79507743Y-104029208D01*
X79507743Y-104029208D02*
X79602981Y-104076827D01*
X79602981Y-104076827D02*
X79698219Y-104076827D01*
X79698219Y-104076827D02*
X79793457Y-103600637D01*
X79460124Y-104505399D02*
X80126791Y-104505399D01*
X79555362Y-104505399D02*
X79507743Y-104553018D01*
X79507743Y-104553018D02*
X79460124Y-104648256D01*
X79460124Y-104648256D02*
X79460124Y-104791113D01*
X79460124Y-104791113D02*
X79507743Y-104886351D01*
X79507743Y-104886351D02*
X79602981Y-104933970D01*
X79602981Y-104933970D02*
X80126791Y-104933970D01*
X79079172Y-106124446D02*
X80364886Y-105267304D01*
X80126791Y-106457780D02*
X79126791Y-106457780D01*
X80126791Y-107029208D02*
X79555362Y-106600637D01*
X79126791Y-107029208D02*
X79698219Y-106457780D01*
X79460124Y-107886351D02*
X80126791Y-107886351D01*
X79460124Y-107457780D02*
X79983933Y-107457780D01*
X79983933Y-107457780D02*
X80079172Y-107505399D01*
X80079172Y-107505399D02*
X80126791Y-107600637D01*
X80126791Y-107600637D02*
X80126791Y-107743494D01*
X80126791Y-107743494D02*
X80079172Y-107838732D01*
X80079172Y-107838732D02*
X80031552Y-107886351D01*
X79460124Y-108362542D02*
X80126791Y-108362542D01*
X79555362Y-108362542D02*
X79507743Y-108410161D01*
X79507743Y-108410161D02*
X79460124Y-108505399D01*
X79460124Y-108505399D02*
X79460124Y-108648256D01*
X79460124Y-108648256D02*
X79507743Y-108743494D01*
X79507743Y-108743494D02*
X79602981Y-108791113D01*
X79602981Y-108791113D02*
X80126791Y-108791113D01*
X79460124Y-109695875D02*
X80269648Y-109695875D01*
X80269648Y-109695875D02*
X80364886Y-109648256D01*
X80364886Y-109648256D02*
X80412505Y-109600637D01*
X80412505Y-109600637D02*
X80460124Y-109505399D01*
X80460124Y-109505399D02*
X80460124Y-109362542D01*
X80460124Y-109362542D02*
X80412505Y-109267304D01*
X80079172Y-109695875D02*
X80126791Y-109600637D01*
X80126791Y-109600637D02*
X80126791Y-109410161D01*
X80126791Y-109410161D02*
X80079172Y-109314923D01*
X80079172Y-109314923D02*
X80031552Y-109267304D01*
X80031552Y-109267304D02*
X79936314Y-109219685D01*
X79936314Y-109219685D02*
X79650600Y-109219685D01*
X79650600Y-109219685D02*
X79555362Y-109267304D01*
X79555362Y-109267304D02*
X79507743Y-109314923D01*
X79507743Y-109314923D02*
X79460124Y-109410161D01*
X79460124Y-109410161D02*
X79460124Y-109600637D01*
X79460124Y-109600637D02*
X79507743Y-109695875D01*
X79602981Y-110505399D02*
X79602981Y-110172066D01*
X80126791Y-110172066D02*
X79126791Y-110172066D01*
X79126791Y-110172066D02*
X79126791Y-110648256D01*
X79460124Y-111457780D02*
X80126791Y-111457780D01*
X79460124Y-111029209D02*
X79983933Y-111029209D01*
X79983933Y-111029209D02*
X80079172Y-111076828D01*
X80079172Y-111076828D02*
X80126791Y-111172066D01*
X80126791Y-111172066D02*
X80126791Y-111314923D01*
X80126791Y-111314923D02*
X80079172Y-111410161D01*
X80079172Y-111410161D02*
X80031552Y-111457780D01*
X79602981Y-112267304D02*
X79602981Y-111933971D01*
X80126791Y-111933971D02*
X79126791Y-111933971D01*
X79126791Y-111933971D02*
X79126791Y-112410161D01*
X80126791Y-112933971D02*
X80079172Y-112838733D01*
X80079172Y-112838733D02*
X79983933Y-112791114D01*
X79983933Y-112791114D02*
X79126791Y-112791114D01*
X80126791Y-113743495D02*
X79602981Y-113743495D01*
X79602981Y-113743495D02*
X79507743Y-113695876D01*
X79507743Y-113695876D02*
X79460124Y-113600638D01*
X79460124Y-113600638D02*
X79460124Y-113410162D01*
X79460124Y-113410162D02*
X79507743Y-113314924D01*
X80079172Y-113743495D02*
X80126791Y-113648257D01*
X80126791Y-113648257D02*
X80126791Y-113410162D01*
X80126791Y-113410162D02*
X80079172Y-113314924D01*
X80079172Y-113314924D02*
X79983933Y-113267305D01*
X79983933Y-113267305D02*
X79888695Y-113267305D01*
X79888695Y-113267305D02*
X79793457Y-113314924D01*
X79793457Y-113314924D02*
X79745838Y-113410162D01*
X79745838Y-113410162D02*
X79745838Y-113648257D01*
X79745838Y-113648257D02*
X79698219Y-113743495D01*
X80079172Y-114172067D02*
X80126791Y-114267305D01*
X80126791Y-114267305D02*
X80126791Y-114457781D01*
X80126791Y-114457781D02*
X80079172Y-114553019D01*
X80079172Y-114553019D02*
X79983933Y-114600638D01*
X79983933Y-114600638D02*
X79936314Y-114600638D01*
X79936314Y-114600638D02*
X79841076Y-114553019D01*
X79841076Y-114553019D02*
X79793457Y-114457781D01*
X79793457Y-114457781D02*
X79793457Y-114314924D01*
X79793457Y-114314924D02*
X79745838Y-114219686D01*
X79745838Y-114219686D02*
X79650600Y-114172067D01*
X79650600Y-114172067D02*
X79602981Y-114172067D01*
X79602981Y-114172067D02*
X79507743Y-114219686D01*
X79507743Y-114219686D02*
X79460124Y-114314924D01*
X79460124Y-114314924D02*
X79460124Y-114457781D01*
X79460124Y-114457781D02*
X79507743Y-114553019D01*
X80126791Y-115029210D02*
X79126791Y-115029210D01*
X80126791Y-115457781D02*
X79602981Y-115457781D01*
X79602981Y-115457781D02*
X79507743Y-115410162D01*
X79507743Y-115410162D02*
X79460124Y-115314924D01*
X79460124Y-115314924D02*
X79460124Y-115172067D01*
X79460124Y-115172067D02*
X79507743Y-115076829D01*
X79507743Y-115076829D02*
X79555362Y-115029210D01*
X79222029Y-115886353D02*
X79174410Y-115933972D01*
X79174410Y-115933972D02*
X79126791Y-116029210D01*
X79126791Y-116029210D02*
X79126791Y-116267305D01*
X79126791Y-116267305D02*
X79174410Y-116362543D01*
X79174410Y-116362543D02*
X79222029Y-116410162D01*
X79222029Y-116410162D02*
X79317267Y-116457781D01*
X79317267Y-116457781D02*
X79412505Y-116457781D01*
X79412505Y-116457781D02*
X79555362Y-116410162D01*
X79555362Y-116410162D02*
X80126791Y-115838734D01*
X80126791Y-115838734D02*
X80126791Y-116457781D01*
%LPC*%
D11*
X133664000Y-87716000D03*
X133664000Y-83316000D03*
D12*
X118831500Y-74866500D03*
X112331500Y-74866500D03*
X118831500Y-70366500D03*
X112331500Y-70366500D03*
D13*
X131568000Y-126121227D03*
X129028000Y-126121227D03*
X126488000Y-126121227D03*
X123948000Y-126121227D03*
X121408000Y-126121227D03*
X118868000Y-126121227D03*
X116328000Y-126121227D03*
X113788000Y-126121227D03*
X111248000Y-126121227D03*
X108708000Y-126121227D03*
X106168000Y-126121227D03*
X103628000Y-126121227D03*
X101088000Y-126121227D03*
X98548000Y-126121227D03*
X96008000Y-126121227D03*
X93468000Y-126121227D03*
X90928000Y-126121227D03*
X88388000Y-126121227D03*
X85848000Y-126121227D03*
X83308000Y-126121227D03*
X80768000Y-126121227D03*
X78228000Y-126121227D03*
D14*
X104898000Y-126249501D03*
D12*
X86106000Y-74866500D03*
X79606000Y-74866500D03*
X86106000Y-70366500D03*
X79606000Y-70366500D03*
X130175000Y-74858000D03*
X123675000Y-74858000D03*
X130175000Y-70358000D03*
X123675000Y-70358000D03*
D15*
X113792000Y-84455000D03*
X113792000Y-86995000D03*
X116332000Y-84455000D03*
X116332000Y-86995000D03*
X118872000Y-84455000D03*
X118872000Y-86995000D03*
X121412000Y-84455000D03*
D16*
X121412000Y-86995000D03*
D15*
X129286000Y-105511600D03*
X129286000Y-102971600D03*
X129286000Y-100431600D03*
X129286000Y-97891600D03*
D16*
X129286000Y-95351600D03*
%LPD*%
M02*
