G04 #@! TF.GenerationSoftware,KiCad,Pcbnew,8.0.2*
G04 #@! TF.CreationDate,2025-03-01T12:18:06+01:00*
G04 #@! TF.ProjectId,KungFuFlash2,4b756e67-4675-4466-9c61-7368322e6b69,1*
G04 #@! TF.SameCoordinates,Original*
G04 #@! TF.FileFunction,Profile,NP*
%FSLAX46Y46*%
G04 Gerber Fmt 4.6, Leading zero omitted, Abs format (unit mm)*
G04 Created by KiCad (PCBNEW 8.0.2) date 2025-03-01 12:18:06*
%MOMM*%
%LPD*%
G01*
G04 APERTURE LIST*
G04 #@! TA.AperFunction,Profile*
%ADD10C,0.150000*%
G04 #@! TD*
G04 APERTURE END LIST*
D10*
X138303000Y-90440000D02*
G75*
G02*
X137303000Y-91440000I-1000000J0D01*
G01*
X137303000Y-79629000D02*
G75*
G02*
X138303000Y-80629000I0J-1000000D01*
G01*
X134413500Y-79629000D02*
G75*
G02*
X133413500Y-78629000I0J1000000D01*
G01*
X133474895Y-92437890D02*
G75*
G02*
X134474893Y-91439993I1000005J-2110D01*
G01*
X137303000Y-91440000D02*
X134474893Y-91440000D01*
X138303000Y-80629000D02*
X138303000Y-90440000D01*
X134413500Y-79629000D02*
X137303000Y-79629000D01*
X133921500Y-122047000D02*
X133921500Y-129222500D01*
X133413500Y-68199000D02*
X133413500Y-78629000D01*
X133474895Y-92437890D02*
X133413500Y-121539000D01*
X107398770Y-87884000D02*
G75*
G02*
X102405230Y-87884000I-2496770J0D01*
G01*
X102405230Y-87884000D02*
G75*
G02*
X107398770Y-87884000I2496770J0D01*
G01*
X133921500Y-129222500D02*
G75*
G02*
X132969000Y-130175000I-952500J0D01*
G01*
X75882500Y-129222500D02*
X75882500Y-122047000D01*
X76390500Y-121539000D02*
X76390500Y-68199000D01*
X76835000Y-130175000D02*
G75*
G02*
X75882500Y-129222500I0J952500D01*
G01*
X75882500Y-122047000D02*
X76390500Y-121539000D01*
X132969000Y-130175000D02*
X76835000Y-130175000D01*
X76390500Y-68199000D02*
X133413500Y-68199000D01*
X133921500Y-122047000D02*
X133413500Y-121539000D01*
M02*
