G04 #@! TF.GenerationSoftware,KiCad,Pcbnew,9.0.0*
G04 #@! TF.CreationDate,2025-04-04T15:11:58+02:00*
G04 #@! TF.ProjectId,KungFuFlash2,4b756e67-4675-4466-9c61-7368322e6b69,1*
G04 #@! TF.SameCoordinates,Original*
G04 #@! TF.FileFunction,Copper,L2,Bot*
G04 #@! TF.FilePolarity,Positive*
%FSLAX46Y46*%
G04 Gerber Fmt 4.6, Leading zero omitted, Abs format (unit mm)*
G04 Created by KiCad (PCBNEW 9.0.0) date 2025-04-04 15:11:58*
%MOMM*%
%LPD*%
G01*
G04 APERTURE LIST*
G04 #@! TA.AperFunction,ComponentPad*
%ADD10C,2.000000*%
G04 #@! TD*
G04 #@! TA.AperFunction,SMDPad,CuDef*
%ADD11R,1.524000X8.000000*%
G04 #@! TD*
G04 #@! TA.AperFunction,ComponentPad*
%ADD12R,1.700000X1.700000*%
G04 #@! TD*
G04 #@! TA.AperFunction,ComponentPad*
%ADD13O,1.700000X1.700000*%
G04 #@! TD*
G04 #@! TA.AperFunction,ViaPad*
%ADD14C,0.800000*%
G04 #@! TD*
G04 #@! TA.AperFunction,ViaPad*
%ADD15C,1.600000*%
G04 #@! TD*
G04 #@! TA.AperFunction,Conductor*
%ADD16C,0.250000*%
G04 #@! TD*
G04 #@! TA.AperFunction,Conductor*
%ADD17C,0.500000*%
G04 #@! TD*
G04 APERTURE END LIST*
D10*
X112331500Y-70366500D03*
X118831500Y-70366500D03*
X112331500Y-74866500D03*
X118831500Y-74866500D03*
D11*
X78228000Y-126121227D03*
X80768000Y-126121227D03*
X83308000Y-126121227D03*
X85848000Y-126121227D03*
X88388000Y-126121227D03*
X90928000Y-126121227D03*
X93468000Y-126121227D03*
X96008000Y-126121227D03*
X98548000Y-126121227D03*
X101088000Y-126121227D03*
X103628000Y-126121227D03*
X106168000Y-126121227D03*
X108708000Y-126121227D03*
X111248000Y-126121227D03*
X113788000Y-126121227D03*
X116328000Y-126121227D03*
X118868000Y-126121227D03*
X121408000Y-126121227D03*
X123948000Y-126121227D03*
X126488000Y-126121227D03*
X129028000Y-126121227D03*
X131568000Y-126121227D03*
D10*
X79606000Y-70366500D03*
X86106000Y-70366500D03*
X79606000Y-74866500D03*
X86106000Y-74866500D03*
X123675000Y-70358000D03*
X130175000Y-70358000D03*
X123675000Y-74858000D03*
X130175000Y-74858000D03*
D12*
X121412000Y-86995000D03*
D13*
X121412000Y-84455000D03*
X118872000Y-86995000D03*
X118872000Y-84455000D03*
X116332000Y-86995000D03*
X116332000Y-84455000D03*
X113792000Y-86995000D03*
X113792000Y-84455000D03*
D12*
X129286000Y-95351600D03*
D13*
X129286000Y-97891600D03*
X129286000Y-100431600D03*
X129286000Y-102971600D03*
X129286000Y-105511600D03*
D14*
X108839000Y-88138000D03*
X123448299Y-88904299D03*
X82768249Y-111508203D03*
X103378000Y-73152000D03*
X105918000Y-113789434D03*
X116078000Y-91033600D03*
X96113600Y-116433600D03*
X117923800Y-120971800D03*
X112623600Y-119126000D03*
X118110000Y-100025200D03*
X105918000Y-112064800D03*
X117551200Y-118211600D03*
X77724000Y-112522000D03*
X89154000Y-69850000D03*
X123698000Y-77978000D03*
X87947500Y-78993998D03*
X117805200Y-90525600D03*
X91821000Y-108331000D03*
X99986000Y-109982000D03*
X100126800Y-91287600D03*
X92075000Y-82550000D03*
X119989600Y-103124000D03*
X122313100Y-118465600D03*
X132207000Y-69469000D03*
X102362000Y-83058000D03*
X127711200Y-120751600D03*
X77660500Y-69342000D03*
X125988299Y-117597701D03*
X131572000Y-119380000D03*
X100279200Y-84429600D03*
X82521680Y-110695272D03*
X123735500Y-91440000D03*
X78232000Y-121158000D03*
X115570000Y-118618000D03*
X100177600Y-117297200D03*
X91795600Y-118567200D03*
X97700000Y-99540304D03*
X109537500Y-69786500D03*
X113063500Y-120954800D03*
X93434500Y-97382500D03*
X120345200Y-121005600D03*
X115637800Y-120971800D03*
X100965000Y-94869000D03*
X87693500Y-82486500D03*
X114300000Y-78613000D03*
X77724000Y-111760000D03*
X87172800Y-118821200D03*
X92964000Y-78994000D03*
X77724000Y-110998000D03*
X112776000Y-105822500D03*
X82323450Y-112231950D03*
X93726000Y-99859000D03*
X96012000Y-73152000D03*
X97688400Y-118922800D03*
X119786400Y-118364000D03*
X128016000Y-118516400D03*
X87503000Y-111633000D03*
X120396000Y-97692500D03*
X131572000Y-120142000D03*
X78232000Y-119380000D03*
X99314000Y-99949000D03*
X85090000Y-118516400D03*
X110388400Y-121056400D03*
X106934000Y-78994000D03*
X114465375Y-97574375D03*
X124587000Y-101600000D03*
X78232000Y-120269000D03*
X98642000Y-95250000D03*
X131572000Y-120904000D03*
X95123000Y-111125000D03*
X110617000Y-89154000D03*
X93435000Y-105918000D03*
X124002800Y-119075200D03*
X125272800Y-120650000D03*
X102362000Y-78994000D03*
X122779301Y-120959099D03*
X90881200Y-113131600D03*
X99055701Y-104643701D03*
X99695000Y-89535000D03*
X92710000Y-98933000D03*
X95377000Y-82867500D03*
X100330000Y-82804000D03*
X124714000Y-90297000D03*
X102261500Y-106172000D03*
X103750898Y-104009712D03*
X97028000Y-84201000D03*
X107835702Y-96772608D03*
X98084000Y-85471000D03*
X106856202Y-96433604D03*
X99064299Y-90673701D03*
X102606815Y-100494500D03*
X89154000Y-118961500D03*
X105283000Y-108204000D03*
X93472000Y-117946253D03*
X106892500Y-112776000D03*
X113848409Y-103067591D03*
X99618800Y-112559500D03*
X100457000Y-111760000D03*
X113362146Y-104061853D03*
X107360000Y-114300000D03*
X103886000Y-114464500D03*
X111963200Y-118072500D03*
X112395000Y-116459000D03*
X112308500Y-113992403D03*
X112196202Y-115244202D03*
X111379000Y-116363500D03*
X110390613Y-116813500D03*
X109505182Y-117277199D03*
X107950000Y-119253000D03*
X112230500Y-102810799D03*
X83312000Y-118173500D03*
X98683997Y-111256997D03*
X114173000Y-104775000D03*
X106672883Y-106408889D03*
X107551065Y-105931604D03*
X108622500Y-105822500D03*
X107335500Y-102526500D03*
X107892500Y-101473000D03*
X104259715Y-118187911D03*
X105100741Y-106528716D03*
X105825241Y-105822500D03*
X104326200Y-119185200D03*
X106172000Y-119665500D03*
X124242616Y-112560923D03*
X111952851Y-100367500D03*
X123190000Y-112522000D03*
X110998000Y-100711000D03*
X125222000Y-112268000D03*
X111841500Y-99250500D03*
X126242299Y-112263701D03*
X112357036Y-98394213D03*
X113567194Y-106952495D03*
X120650000Y-112903000D03*
X117665853Y-112712146D03*
X111575195Y-107753805D03*
X108839000Y-107813399D03*
X114554000Y-112776000D03*
X110544502Y-107359508D03*
X116590299Y-112517701D03*
X89027000Y-113538000D03*
X96325899Y-111565899D03*
X107222512Y-97561914D03*
X117729000Y-95504000D03*
X125222000Y-92837000D03*
X121031000Y-80938500D03*
X120142000Y-82637500D03*
D15*
X113665000Y-81788000D03*
X85090000Y-106426000D03*
D14*
X121666000Y-78702500D03*
X112903000Y-97409000D03*
X118999000Y-90170000D03*
X99307170Y-103370140D03*
X103841500Y-93218000D03*
X100135200Y-92769200D03*
X103632000Y-83566000D03*
X119065792Y-102040501D03*
X119596500Y-101092000D03*
X104902000Y-83566000D03*
X121539000Y-96393000D03*
X117348000Y-92583000D03*
X128352575Y-92284575D03*
X127508000Y-89281000D03*
X113956500Y-89334851D03*
X122295500Y-100076000D03*
X111086900Y-119341899D03*
X102514400Y-118262400D03*
X93345000Y-109474000D03*
X107892500Y-98994585D03*
D16*
X92964000Y-78994000D02*
X92964000Y-76200000D01*
X99314000Y-99949000D02*
X100584000Y-101219000D01*
X119761000Y-103378000D02*
X119253000Y-103378000D01*
X112623600Y-119126000D02*
X111991395Y-119126000D01*
X93435000Y-100150000D02*
X93435000Y-105918000D01*
X123735500Y-91440000D02*
X123698000Y-91402500D01*
X117652800Y-90373200D02*
X117805200Y-90525600D01*
X91821000Y-108331000D02*
X91163500Y-108331000D01*
X121412000Y-88544400D02*
X121158000Y-88798400D01*
X97688400Y-118922800D02*
X99314000Y-117297200D01*
X118110000Y-100025200D02*
X117957600Y-100025200D01*
X95250000Y-111125000D02*
X96393000Y-109982000D01*
X109321600Y-111607600D02*
X109321600Y-112268000D01*
X114300000Y-78613000D02*
X113919000Y-78994000D01*
X78232000Y-120230003D02*
X78232000Y-121158000D01*
D17*
X131568000Y-126121227D02*
X131568000Y-120908000D01*
D16*
X122377200Y-118465600D02*
X122313100Y-118465600D01*
X114465375Y-98590375D02*
X114465375Y-97574375D01*
X107137200Y-110845600D02*
X108559600Y-110845600D01*
X97700000Y-99540304D02*
X94044696Y-99540304D01*
X125272800Y-120650000D02*
X124866400Y-120650000D01*
X101650800Y-83058000D02*
X100279200Y-84429600D01*
X115570000Y-120904000D02*
X115570000Y-118618000D01*
X87947502Y-78994000D02*
X87947500Y-78993998D01*
X118262400Y-88798400D02*
X117652800Y-89408000D01*
X113919000Y-78994000D02*
X106934000Y-78994000D01*
X103251000Y-101219000D02*
X104013000Y-100457000D01*
X117957600Y-100025200D02*
X115506775Y-97574375D01*
X121158000Y-88798400D02*
X118262400Y-88798400D01*
X103378000Y-77978000D02*
X103378000Y-73152000D01*
X109855000Y-89154000D02*
X110617000Y-89154000D01*
X120396000Y-97692500D02*
X120396000Y-102743000D01*
X85090000Y-118516400D02*
X85445600Y-118516400D01*
X77724000Y-112522000D02*
X82033400Y-112522000D01*
X93434500Y-97382500D02*
X93726000Y-97674000D01*
X78228000Y-121162000D02*
X78232000Y-121158000D01*
X98642000Y-95250000D02*
X99060000Y-95668000D01*
X125933200Y-117652800D02*
X125988299Y-117597701D01*
X124866400Y-120650000D02*
X123723400Y-119507000D01*
X77724000Y-110998000D02*
X77724000Y-111760000D01*
X129794000Y-77978000D02*
X123698000Y-77978000D01*
X82323450Y-111953002D02*
X82323450Y-112231950D01*
X93726000Y-97674000D02*
X93726000Y-99859000D01*
X111991395Y-119126000D02*
X110822995Y-117957600D01*
X131572000Y-119380000D02*
X130708400Y-118516400D01*
X122682000Y-118465600D02*
X122377200Y-118465600D01*
X108559600Y-110845600D02*
X109321600Y-111607600D01*
X117652800Y-89408000D02*
X117652800Y-90373200D01*
X94044696Y-99540304D02*
X93726000Y-99859000D01*
X123723400Y-119507000D02*
X122682000Y-118465600D01*
X92011500Y-82486500D02*
X92075000Y-82550000D01*
X125730000Y-100457000D02*
X129349500Y-100457000D01*
X104013000Y-97917000D02*
X100965000Y-94869000D01*
X117923800Y-120971800D02*
X117923800Y-118584200D01*
X119253000Y-103378000D02*
X114465375Y-98590375D01*
X105918000Y-112064800D02*
X107137200Y-110845600D01*
X77724000Y-111760000D02*
X82516452Y-111760000D01*
X100584000Y-101219000D02*
X103251000Y-101219000D01*
X82033400Y-112522000D02*
X82323450Y-112231950D01*
X96393000Y-109982000D02*
X99986000Y-109982000D01*
X124587000Y-101600000D02*
X125730000Y-100457000D01*
X120345200Y-121005600D02*
X120345200Y-118922800D01*
X102362000Y-83058000D02*
X101650800Y-83058000D01*
X130175000Y-100457000D02*
X129032000Y-100457000D01*
X131572000Y-101854000D02*
X130175000Y-100457000D01*
X121412000Y-86995000D02*
X121412000Y-88544400D01*
X113063500Y-120954800D02*
X113063500Y-119565900D01*
X91899653Y-118671253D02*
X91795600Y-118567200D01*
X82516452Y-111760000D02*
X82768249Y-111508203D01*
X108088600Y-113501000D02*
X109321600Y-112268000D01*
X92964000Y-76200000D02*
X96012000Y-73152000D01*
X120396000Y-102743000D02*
X120002300Y-103136700D01*
X82218952Y-110998000D02*
X82521680Y-110695272D01*
X131572000Y-119380000D02*
X131572000Y-101854000D01*
X131568000Y-120908000D02*
X131572000Y-120904000D01*
X77724000Y-110998000D02*
X82218952Y-110998000D01*
X105918000Y-113789434D02*
X106206434Y-113501000D01*
D17*
X78228000Y-126121227D02*
X78228000Y-121162000D01*
D16*
X96113600Y-116433600D02*
X93875947Y-118671253D01*
X123723400Y-119507000D02*
X124002800Y-119227600D01*
X99060000Y-95668000D02*
X99060000Y-99695000D01*
X120002300Y-103136700D02*
X119989600Y-103124000D01*
X82768249Y-111508203D02*
X82323450Y-111953002D01*
X125933200Y-117805200D02*
X125933200Y-117652800D01*
X123698000Y-91402500D02*
X123698000Y-89154000D01*
X91163500Y-108331000D02*
X87861500Y-111633000D01*
X131572000Y-120904000D02*
X131572000Y-120142000D01*
X130708400Y-118516400D02*
X128016000Y-118516400D01*
X87861500Y-111633000D02*
X87503000Y-111633000D01*
X131572000Y-119380000D02*
X131572000Y-120142000D01*
X78232000Y-120230003D02*
X78232000Y-119380000D01*
X113063500Y-119565900D02*
X112623600Y-119126000D01*
X99060000Y-99695000D02*
X99314000Y-99949000D01*
X90830400Y-113131600D02*
X90881200Y-113131600D01*
X120345200Y-118922800D02*
X119786400Y-118364000D01*
X106206434Y-113501000D02*
X108088600Y-113501000D01*
X115506775Y-97574375D02*
X114465375Y-97574375D01*
X102362000Y-78994000D02*
X103378000Y-77978000D01*
X85445600Y-118516400D02*
X90830400Y-113131600D01*
X120002300Y-103136700D02*
X119761000Y-103378000D01*
X102362000Y-78994000D02*
X92964000Y-78994000D01*
X126644400Y-118516400D02*
X125933200Y-117805200D01*
X115637800Y-120971800D02*
X115570000Y-120904000D01*
X99314000Y-117297200D02*
X100177600Y-117297200D01*
X128016000Y-118516400D02*
X126644400Y-118516400D01*
X95123000Y-111125000D02*
X95250000Y-111125000D01*
X104013000Y-100457000D02*
X104013000Y-97917000D01*
X87693500Y-82486500D02*
X92011500Y-82486500D01*
X123698000Y-89154000D02*
X123448299Y-88904299D01*
X124002800Y-119227600D02*
X124002800Y-119075200D01*
X93435000Y-100150000D02*
X93726000Y-99859000D01*
X92964000Y-78994000D02*
X87947502Y-78994000D01*
X117923800Y-118584200D02*
X117551200Y-118211600D01*
X108839000Y-88138000D02*
X109855000Y-89154000D01*
X93875947Y-118671253D02*
X91899653Y-118671253D01*
X99695000Y-89535000D02*
X98806000Y-89535000D01*
X97917000Y-95550305D02*
X98425000Y-96058305D01*
X98425000Y-104013000D02*
X99055701Y-104643701D01*
X98806000Y-89535000D02*
X97917000Y-90424000D01*
X98425000Y-96058305D02*
X98425000Y-104013000D01*
X97917000Y-90424000D02*
X97917000Y-95550305D01*
X124714000Y-90297000D02*
X124460000Y-90551000D01*
X127254000Y-97917000D02*
X129032000Y-97917000D01*
X103750898Y-104009712D02*
X103635288Y-104009712D01*
X114173000Y-83058000D02*
X118872000Y-83058000D01*
X113792000Y-84455000D02*
X113792000Y-83439000D01*
X118872000Y-84455000D02*
X118872000Y-83058000D01*
X100266500Y-82867500D02*
X95377000Y-82867500D01*
X118872000Y-83058000D02*
X118872000Y-78282800D01*
X100330000Y-82804000D02*
X100266500Y-82867500D01*
X121031000Y-72566000D02*
X118831500Y-70366500D01*
X95377000Y-94234000D02*
X95377000Y-82867500D01*
X121031000Y-76123800D02*
X121031000Y-72566000D01*
X92710000Y-98933000D02*
X92710000Y-96901000D01*
X92710000Y-96901000D02*
X95377000Y-94234000D01*
X118872000Y-78282800D02*
X121031000Y-76123800D01*
X103635288Y-104009712D02*
X102261500Y-105383500D01*
X102261500Y-105383500D02*
X102261500Y-106172000D01*
X124460000Y-90551000D02*
X124460000Y-95123000D01*
X124460000Y-95123000D02*
X127254000Y-97917000D01*
X113792000Y-83439000D02*
X114173000Y-83058000D01*
X101219000Y-88898604D02*
X107835702Y-95515306D01*
X101219000Y-87299800D02*
X101219000Y-88898604D01*
X97028000Y-84201000D02*
X98120200Y-84201000D01*
X98120200Y-84201000D02*
X101219000Y-87299800D01*
X107835702Y-95515306D02*
X107835702Y-96772608D01*
X100769000Y-89085000D02*
X106856202Y-95172202D01*
X98171000Y-85471000D02*
X100769000Y-88069000D01*
X98084000Y-85471000D02*
X98171000Y-85471000D01*
X106856202Y-95172202D02*
X106856202Y-96433604D01*
X100769000Y-88069000D02*
X100769000Y-89085000D01*
X99064299Y-90673701D02*
X99064299Y-92968299D01*
X99064299Y-92968299D02*
X99949000Y-93853000D01*
X99949000Y-95631000D02*
X102606815Y-98288815D01*
X99949000Y-93853000D02*
X99949000Y-95631000D01*
X102606815Y-98288815D02*
X102606815Y-100494500D01*
X105283000Y-108204000D02*
X105156000Y-108331000D01*
X94323500Y-113792000D02*
X89154000Y-118961500D01*
X105156000Y-108331000D02*
X105156000Y-108840396D01*
X105156000Y-108840396D02*
X100204396Y-113792000D01*
X100204396Y-113792000D02*
X94323500Y-113792000D01*
X97176253Y-114242000D02*
X93472000Y-117946253D01*
X106841700Y-112826800D02*
X102209600Y-112826800D01*
X106892500Y-112776000D02*
X106841700Y-112826800D01*
X102209600Y-112826800D02*
X100794400Y-114242000D01*
X100794400Y-114242000D02*
X97176253Y-114242000D01*
X102986000Y-108088000D02*
X102986000Y-105799208D01*
X104587208Y-104198000D02*
X111868604Y-104198000D01*
X111868604Y-104198000D02*
X112999013Y-103067591D01*
X99618800Y-112559500D02*
X99618800Y-111455200D01*
X99618800Y-111455200D02*
X102986000Y-108088000D01*
X112999013Y-103067591D02*
X113848409Y-103067591D01*
X102986000Y-105799208D02*
X104587208Y-104198000D01*
X113362146Y-104061853D02*
X112775999Y-104648000D01*
X112775999Y-104648000D02*
X104773604Y-104648000D01*
X103436000Y-108908000D02*
X100584000Y-111760000D01*
X103436000Y-105985604D02*
X103436000Y-108908000D01*
X100584000Y-111760000D02*
X100457000Y-111760000D01*
X104773604Y-104648000D02*
X103436000Y-105985604D01*
X103935434Y-114513934D02*
X107146066Y-114513934D01*
X103886000Y-114464500D02*
X103935434Y-114513934D01*
X107146066Y-114513934D02*
X107360000Y-114300000D01*
X112268000Y-117767700D02*
X112268000Y-116586000D01*
X112268000Y-116586000D02*
X112395000Y-116459000D01*
X111963200Y-118072500D02*
X112268000Y-117767700D01*
X94112652Y-119474552D02*
X91599448Y-119474552D01*
X98398204Y-115189000D02*
X94112652Y-119474552D01*
X90928000Y-120146000D02*
X90928000Y-126121227D01*
X112308500Y-113992403D02*
X111111903Y-115189000D01*
X91599448Y-119474552D02*
X90928000Y-120146000D01*
X111111903Y-115189000D02*
X98398204Y-115189000D01*
X112196202Y-115244202D02*
X111801404Y-115639000D01*
X111801404Y-115639000D02*
X98584600Y-115639000D01*
X98584600Y-115639000D02*
X93468000Y-120755600D01*
X93468000Y-120755600D02*
X93468000Y-126121227D01*
X111104500Y-116089000D02*
X98770996Y-116089000D01*
X111379000Y-116363500D02*
X111104500Y-116089000D01*
X98770996Y-116089000D02*
X96008000Y-118851996D01*
X96008000Y-118851996D02*
X96008000Y-126121227D01*
X98548000Y-120332500D02*
X98548000Y-126121227D01*
X110390613Y-116813500D02*
X110116113Y-116539000D01*
X102341500Y-116539000D02*
X98548000Y-120332500D01*
X110116113Y-116539000D02*
X102341500Y-116539000D01*
X109216983Y-116989000D02*
X102594000Y-116989000D01*
X109505182Y-117277199D02*
X109216983Y-116989000D01*
X101088000Y-118495000D02*
X101088000Y-126121227D01*
X102594000Y-116989000D02*
X101088000Y-118495000D01*
X107950000Y-119253000D02*
X107638000Y-118941000D01*
X107638000Y-118941000D02*
X105595000Y-118941000D01*
X103628000Y-120908000D02*
X103628000Y-126121227D01*
X105595000Y-118941000D02*
X103628000Y-120908000D01*
X80768000Y-119638000D02*
X80768000Y-126121227D01*
X112230500Y-102810799D02*
X111790299Y-103251000D01*
X90170000Y-110236000D02*
X80768000Y-119638000D01*
X102360604Y-103251000D02*
X95375604Y-110236000D01*
X111790299Y-103251000D02*
X102360604Y-103251000D01*
X95375604Y-110236000D02*
X90170000Y-110236000D01*
X83312000Y-118173500D02*
X83312000Y-126117227D01*
X91019800Y-113856600D02*
X85848000Y-119028400D01*
X92379800Y-112649000D02*
X91606200Y-113422600D01*
X97291994Y-112649000D02*
X92379800Y-112649000D01*
X98683997Y-111256997D02*
X97291994Y-112649000D01*
X91606200Y-113431905D02*
X91181505Y-113856600D01*
X91181505Y-113856600D02*
X91019800Y-113856600D01*
X91606200Y-113422600D02*
X91606200Y-113431905D01*
X85848000Y-119028400D02*
X85848000Y-126121227D01*
X103886000Y-109474000D02*
X100076000Y-113284000D01*
X114173000Y-104775000D02*
X113850000Y-105098000D01*
X93408500Y-113284000D02*
X88388000Y-118304500D01*
X100076000Y-113284000D02*
X93408500Y-113284000D01*
X113850000Y-105098000D02*
X104960000Y-105098000D01*
X103886000Y-106172000D02*
X103886000Y-109474000D01*
X104960000Y-105098000D02*
X103886000Y-106172000D01*
X88388000Y-118304500D02*
X88388000Y-126121227D01*
X113848893Y-111688497D02*
X114603606Y-111688497D01*
X107352893Y-107088899D02*
X109249295Y-107088899D01*
X106672883Y-106408889D02*
X107352893Y-107088899D01*
X118868000Y-115952891D02*
X118868000Y-126121227D01*
X109249295Y-107088899D02*
X113848893Y-111688497D01*
X114603606Y-111688497D02*
X118868000Y-115952891D01*
X115185193Y-110338497D02*
X116316802Y-110338497D01*
X116316802Y-110338497D02*
X121107200Y-115128895D01*
X111399696Y-106553000D02*
X115185193Y-110338497D01*
X107551065Y-105931604D02*
X108172461Y-106553000D01*
X121107200Y-115128895D02*
X121107200Y-125820427D01*
X108172461Y-106553000D02*
X111399696Y-106553000D01*
X122012795Y-119190600D02*
X122035400Y-119190600D01*
X108622500Y-105822500D02*
X111305591Y-105822500D01*
X123948000Y-121103200D02*
X123948000Y-126121227D01*
X121557200Y-118735005D02*
X122012795Y-119190600D01*
X121557200Y-114942499D02*
X121557200Y-118735005D01*
X111305591Y-105822500D02*
X115371589Y-109888497D01*
X116503198Y-109888497D02*
X121557200Y-114942499D01*
X122035400Y-119190600D02*
X123948000Y-121103200D01*
X115371589Y-109888497D02*
X116503198Y-109888497D01*
X113797416Y-101992000D02*
X122015000Y-110209584D01*
X107335500Y-102526500D02*
X110833500Y-102526500D01*
X122015000Y-115461800D02*
X126488000Y-119934800D01*
X122015000Y-110209584D02*
X122015000Y-115461800D01*
X110833500Y-102526500D02*
X111368000Y-101992000D01*
X111368000Y-101992000D02*
X113797416Y-101992000D01*
X126488000Y-119934800D02*
X126488000Y-126121227D01*
X128320800Y-119837200D02*
X129028000Y-120544400D01*
X107961500Y-101542000D02*
X113983812Y-101542000D01*
X122465000Y-110023188D02*
X122465000Y-115099707D01*
X107892500Y-101473000D02*
X107961500Y-101542000D01*
X127202493Y-119837200D02*
X128320800Y-119837200D01*
X129028000Y-120544400D02*
X129028000Y-126121227D01*
X122465000Y-115099707D02*
X127202493Y-119837200D01*
X113983812Y-101542000D02*
X122465000Y-110023188D01*
X108516000Y-118041000D02*
X111252000Y-120777000D01*
X104259715Y-118187911D02*
X104406626Y-118041000D01*
X111252000Y-120777000D02*
X111252000Y-126117227D01*
X104406626Y-118041000D02*
X108516000Y-118041000D01*
X105100741Y-106528716D02*
X108010424Y-109438399D01*
X108930399Y-109438399D02*
X113788000Y-114296000D01*
X108010424Y-109438399D02*
X108930399Y-109438399D01*
X113788000Y-114296000D02*
X113788000Y-126121227D01*
X105825241Y-105822500D02*
X105825241Y-106586552D01*
X109217209Y-108988399D02*
X116433600Y-116204790D01*
X116433600Y-116204790D02*
X116433600Y-126015627D01*
X105825241Y-106586552D02*
X108227088Y-108988399D01*
X108227088Y-108988399D02*
X109217209Y-108988399D01*
X108213305Y-118491000D02*
X108708000Y-118985695D01*
X104326200Y-119185200D02*
X105020400Y-118491000D01*
X105020400Y-118491000D02*
X108213305Y-118491000D01*
X108708000Y-118985695D02*
X108708000Y-126121227D01*
X106172000Y-119665500D02*
X106168000Y-119669500D01*
X106168000Y-119669500D02*
X106168000Y-126121227D01*
X124242616Y-110528012D02*
X124242616Y-112560923D01*
X112042351Y-100457000D02*
X114171604Y-100457000D01*
X114171604Y-100457000D02*
X124242616Y-110528012D01*
X111952851Y-100367500D02*
X112042351Y-100457000D01*
X111379000Y-101092000D02*
X114170208Y-101092000D01*
X110998000Y-100711000D02*
X111379000Y-101092000D01*
X123190000Y-110111792D02*
X123190000Y-112522000D01*
X114170208Y-101092000D02*
X123190000Y-110111792D01*
X125222000Y-110871000D02*
X125222000Y-112268000D01*
X111841500Y-99250500D02*
X112159000Y-99568000D01*
X112159000Y-99568000D02*
X113919000Y-99568000D01*
X113919000Y-99568000D02*
X125222000Y-110871000D01*
X113539396Y-98552000D02*
X126242299Y-111254903D01*
X112357036Y-98394213D02*
X112514823Y-98552000D01*
X112514823Y-98552000D02*
X113539396Y-98552000D01*
X126242299Y-111254903D02*
X126242299Y-112263701D01*
X116042497Y-109438497D02*
X116689594Y-109438497D01*
X120154097Y-112903000D02*
X120650000Y-112903000D01*
X113567194Y-106952495D02*
X113567194Y-106963194D01*
X113567194Y-106963194D02*
X116042497Y-109438497D01*
X116689594Y-109438497D02*
X120154097Y-112903000D01*
X115886400Y-110788497D02*
X117665853Y-112567950D01*
X117665853Y-112567950D02*
X117665853Y-112712146D01*
X111575195Y-107753805D02*
X111699404Y-107753805D01*
X111699404Y-107753805D02*
X114734096Y-110788497D01*
X114734096Y-110788497D02*
X115886400Y-110788497D01*
X108839000Y-107813399D02*
X109210399Y-107813399D01*
X114173000Y-112776000D02*
X114554000Y-112776000D01*
X109210399Y-107813399D02*
X114173000Y-112776000D01*
X110544502Y-107747710D02*
X114035289Y-111238497D01*
X110544502Y-107359508D02*
X110544502Y-107747710D01*
X115302497Y-111238497D02*
X116581701Y-112517701D01*
X114035289Y-111238497D02*
X115302497Y-111238497D01*
X116581701Y-112517701D02*
X116590299Y-112517701D01*
X90678000Y-111887000D02*
X96004798Y-111887000D01*
X96004798Y-111887000D02*
X96325899Y-111565899D01*
X89027000Y-113538000D02*
X90678000Y-111887000D01*
X111469000Y-96684000D02*
X112866000Y-96684000D01*
X110490000Y-97663000D02*
X111469000Y-96684000D01*
X127762000Y-95377000D02*
X129349500Y-95377000D01*
X107323598Y-97663000D02*
X110490000Y-97663000D01*
X114046000Y-95504000D02*
X117729000Y-95504000D01*
X125222000Y-92837000D02*
X127762000Y-95377000D01*
X112866000Y-96684000D02*
X114046000Y-95504000D01*
X107222512Y-97561914D02*
X107323598Y-97663000D01*
X120142000Y-82296000D02*
X121031000Y-81407000D01*
X120142000Y-82637500D02*
X120142000Y-82296000D01*
X121031000Y-81407000D02*
X121031000Y-80938500D01*
D17*
X113665000Y-81788000D02*
X109093000Y-81788000D01*
X87058500Y-80327500D02*
X85090000Y-82296000D01*
X109093000Y-81788000D02*
X107632500Y-80327500D01*
X107632500Y-80327500D02*
X87058500Y-80327500D01*
X85090000Y-82296000D02*
X85090000Y-106426000D01*
D16*
X107470730Y-98269270D02*
X103389000Y-102351000D01*
X121666000Y-78702500D02*
X121666000Y-78562200D01*
X100968672Y-103370140D02*
X99307170Y-103370140D01*
X121158000Y-90170000D02*
X118999000Y-90170000D01*
X123444000Y-81787998D02*
X123444000Y-87884000D01*
X112903000Y-97409000D02*
X111760000Y-97409000D01*
X110899730Y-98269270D02*
X107470730Y-98269270D01*
X123444000Y-87884000D02*
X121158000Y-90170000D01*
X122732800Y-77495400D02*
X122732800Y-76657200D01*
X101987812Y-102351000D02*
X100968672Y-103370140D01*
X121666000Y-78702500D02*
X121666000Y-80009998D01*
X123675000Y-74858000D02*
X130175000Y-74858000D01*
X111760000Y-97409000D02*
X110899730Y-98269270D01*
X103389000Y-102351000D02*
X101987812Y-102351000D01*
X121666000Y-80009998D02*
X123444000Y-81787998D01*
X121666000Y-78562200D02*
X122732800Y-77495400D01*
X122732800Y-76657200D02*
X123698000Y-75692000D01*
X100135200Y-92769200D02*
X101786200Y-92769200D01*
X102235000Y-93218000D02*
X103841500Y-93218000D01*
X101786200Y-92769200D02*
X102235000Y-93218000D01*
X104394000Y-84328000D02*
X103632000Y-83566000D01*
X118020000Y-94779000D02*
X116999000Y-93758000D01*
X119065792Y-102040501D02*
X118872000Y-101846709D01*
X116999000Y-93758000D02*
X116621601Y-93758000D01*
X107191601Y-84328000D02*
X104394000Y-84328000D01*
X116621601Y-93758000D02*
X107191601Y-84328000D01*
X118872000Y-95621695D02*
X118029305Y-94779000D01*
X118872000Y-101846709D02*
X118872000Y-95621695D01*
X118029305Y-94779000D02*
X118020000Y-94779000D01*
X119596500Y-101092000D02*
X119596500Y-95709799D01*
X107065997Y-83566000D02*
X104902000Y-83566000D01*
X116807997Y-93308000D02*
X107065997Y-83566000D01*
X117194701Y-93308000D02*
X116807997Y-93308000D01*
X119596500Y-95709799D02*
X117194701Y-93308000D01*
X121571000Y-101759000D02*
X122936000Y-103124000D01*
X121571000Y-96425000D02*
X121571000Y-101759000D01*
X122936000Y-103124000D02*
X128905000Y-103124000D01*
X121539000Y-96393000D02*
X121571000Y-96425000D01*
X120650000Y-96634903D02*
X121121000Y-97105903D01*
X121121000Y-102325000D02*
X124333000Y-105537000D01*
X124333000Y-105537000D02*
X129349500Y-105537000D01*
X117348000Y-92583000D02*
X117856000Y-92583000D01*
X121121000Y-97105903D02*
X121121000Y-102325000D01*
X120650000Y-95377000D02*
X120650000Y-96634903D01*
X117856000Y-92583000D02*
X120650000Y-95377000D01*
X128352575Y-92284575D02*
X127508000Y-91440000D01*
X127508000Y-91440000D02*
X127508000Y-89281000D01*
X118831500Y-74866500D02*
X112331500Y-74866500D01*
X115062000Y-86233000D02*
X115570000Y-85725000D01*
X115570000Y-85725000D02*
X120142000Y-85725000D01*
X113956500Y-89180500D02*
X115062000Y-88075000D01*
X113956500Y-89334851D02*
X113956500Y-89180500D01*
X115062000Y-88075000D02*
X115062000Y-86233000D01*
X120142000Y-85725000D02*
X121412000Y-84455000D01*
X122301000Y-100070500D02*
X122301000Y-96129695D01*
X122295500Y-100076000D02*
X122301000Y-100070500D01*
X122301000Y-96129695D02*
X116332000Y-90160695D01*
X116332000Y-90160695D02*
X116332000Y-86995000D01*
X110453295Y-119341899D02*
X111086900Y-119341899D01*
X104560020Y-117462911D02*
X104572109Y-117475000D01*
X103313889Y-117462911D02*
X104560020Y-117462911D01*
X102514400Y-118262400D02*
X103313889Y-117462911D01*
X104572109Y-117475000D02*
X108586396Y-117475000D01*
X108586396Y-117475000D02*
X110453295Y-119341899D01*
X104086139Y-102801000D02*
X102174208Y-102801000D01*
X95501208Y-109474000D02*
X93345000Y-109474000D01*
X102174208Y-102801000D02*
X95501208Y-109474000D01*
X107892500Y-98994639D02*
X104086139Y-102801000D01*
X107892500Y-98994585D02*
X107892500Y-98994639D01*
G04 #@! TA.AperFunction,Conductor*
G36*
X133004931Y-68294502D02*
G01*
X133025905Y-68311405D01*
X133301095Y-68586595D01*
X133335121Y-68648907D01*
X133338000Y-68675690D01*
X133338000Y-78604469D01*
X133338000Y-78629000D01*
X133338000Y-78723094D01*
X133350147Y-78791981D01*
X133370680Y-78908429D01*
X133435039Y-79085254D01*
X133435045Y-79085266D01*
X133529134Y-79248235D01*
X133529141Y-79248244D01*
X133650101Y-79392398D01*
X133794255Y-79513358D01*
X133794264Y-79513365D01*
X133863781Y-79553500D01*
X133957238Y-79607457D01*
X133957241Y-79607458D01*
X133957245Y-79607460D01*
X134134070Y-79671819D01*
X134134072Y-79671819D01*
X134134077Y-79671821D01*
X134319406Y-79704500D01*
X134398482Y-79704500D01*
X137278469Y-79704500D01*
X137297494Y-79704500D01*
X137308475Y-79704979D01*
X137452558Y-79717584D01*
X137474184Y-79721397D01*
X137608555Y-79757402D01*
X137629183Y-79764910D01*
X137755266Y-79823704D01*
X137774275Y-79834679D01*
X137888234Y-79914474D01*
X137905052Y-79928587D01*
X138003412Y-80026947D01*
X138017526Y-80043767D01*
X138097318Y-80157721D01*
X138108297Y-80176737D01*
X138167087Y-80302811D01*
X138174599Y-80323450D01*
X138210601Y-80457813D01*
X138214414Y-80479442D01*
X138227020Y-80623523D01*
X138227500Y-80634505D01*
X138227500Y-90434494D01*
X138227020Y-90445476D01*
X138214414Y-90589557D01*
X138210601Y-90611186D01*
X138174599Y-90745549D01*
X138167087Y-90766188D01*
X138108297Y-90892262D01*
X138097315Y-90911283D01*
X138017530Y-91025228D01*
X138003412Y-91042052D01*
X137905052Y-91140412D01*
X137888228Y-91154530D01*
X137774283Y-91234315D01*
X137755262Y-91245297D01*
X137629188Y-91304087D01*
X137608549Y-91311599D01*
X137474186Y-91347601D01*
X137452557Y-91351414D01*
X137308476Y-91364020D01*
X137297494Y-91364500D01*
X134527093Y-91364500D01*
X134527078Y-91364495D01*
X134527078Y-91364499D01*
X134380929Y-91364482D01*
X134380927Y-91364482D01*
X134195834Y-91397075D01*
X134019196Y-91461275D01*
X133856384Y-91555122D01*
X133856378Y-91555126D01*
X133712303Y-91675791D01*
X133712300Y-91675794D01*
X133591330Y-91819619D01*
X133497131Y-91982247D01*
X133440995Y-92135700D01*
X133432565Y-92158743D01*
X133423820Y-92207800D01*
X133399582Y-92343767D01*
X133399395Y-92437713D01*
X133399395Y-92437731D01*
X133399373Y-92448015D01*
X133338056Y-121511720D01*
X133338031Y-121523906D01*
X133338000Y-121523982D01*
X133338000Y-121538687D01*
X133338000Y-121538689D01*
X133337968Y-121553863D01*
X133337997Y-121554012D01*
X133343568Y-121567461D01*
X133343618Y-121567717D01*
X133343666Y-121567698D01*
X133349404Y-121581633D01*
X133349492Y-121581764D01*
X133349493Y-121581765D01*
X133349494Y-121581767D01*
X133360005Y-121592278D01*
X133370598Y-121602916D01*
X133370599Y-121602916D01*
X133378988Y-121611341D01*
X133379438Y-121611711D01*
X133472632Y-121704905D01*
X133506658Y-121767217D01*
X133501593Y-121838032D01*
X133459046Y-121894868D01*
X133392526Y-121919679D01*
X133383537Y-121920000D01*
X130337629Y-121920000D01*
X130269508Y-121899998D01*
X130236761Y-121869509D01*
X130153261Y-121757965D01*
X130036207Y-121670339D01*
X130036202Y-121670337D01*
X129899204Y-121619238D01*
X129899196Y-121619236D01*
X129838649Y-121612727D01*
X129838638Y-121612727D01*
X129787500Y-121612727D01*
X129719379Y-121592725D01*
X129672886Y-121539069D01*
X129661500Y-121486727D01*
X129661500Y-120482007D01*
X129661499Y-120482003D01*
X129660489Y-120476925D01*
X129637155Y-120359615D01*
X129589400Y-120244325D01*
X129520071Y-120140567D01*
X129431833Y-120052329D01*
X128724633Y-119345129D01*
X128620875Y-119275800D01*
X128505585Y-119228045D01*
X128431886Y-119213385D01*
X128383196Y-119203700D01*
X128383194Y-119203700D01*
X127517087Y-119203700D01*
X127448966Y-119183698D01*
X127427992Y-119166795D01*
X123135405Y-114874208D01*
X123101379Y-114811896D01*
X123098500Y-114785113D01*
X123098500Y-113556500D01*
X123118502Y-113488379D01*
X123172158Y-113441886D01*
X123224500Y-113430500D01*
X123279478Y-113430500D01*
X123279479Y-113430500D01*
X123455000Y-113395587D01*
X123620336Y-113327102D01*
X123620341Y-113327098D01*
X123620347Y-113327096D01*
X123625799Y-113324183D01*
X123626866Y-113326180D01*
X123684919Y-113307996D01*
X123753388Y-113326772D01*
X123757174Y-113329204D01*
X123812280Y-113366025D01*
X123977616Y-113434510D01*
X124153137Y-113469423D01*
X124153138Y-113469423D01*
X124332094Y-113469423D01*
X124332095Y-113469423D01*
X124507616Y-113434510D01*
X124672952Y-113366025D01*
X124821751Y-113266601D01*
X124900843Y-113187508D01*
X124963151Y-113153486D01*
X125014513Y-113153027D01*
X125132521Y-113176500D01*
X125132522Y-113176500D01*
X125311478Y-113176500D01*
X125311479Y-113176500D01*
X125487000Y-113141587D01*
X125652336Y-113073102D01*
X125665362Y-113064397D01*
X125733115Y-113043182D01*
X125801582Y-113061964D01*
X125805367Y-113064396D01*
X125811960Y-113068801D01*
X125811963Y-113068803D01*
X125977299Y-113137288D01*
X126152820Y-113172201D01*
X126152821Y-113172201D01*
X126331777Y-113172201D01*
X126331778Y-113172201D01*
X126507299Y-113137288D01*
X126672635Y-113068803D01*
X126821434Y-112969379D01*
X126947977Y-112842836D01*
X127047401Y-112694037D01*
X127115886Y-112528701D01*
X127150799Y-112353180D01*
X127150799Y-112174222D01*
X127115886Y-111998701D01*
X127047401Y-111833365D01*
X126947977Y-111684566D01*
X126912704Y-111649293D01*
X126878678Y-111586981D01*
X126875799Y-111560198D01*
X126875799Y-111192510D01*
X126875798Y-111192506D01*
X126870827Y-111167515D01*
X126851454Y-111070118D01*
X126824274Y-111004499D01*
X126803700Y-110954828D01*
X126734371Y-110851070D01*
X119047395Y-103164095D01*
X119013370Y-103101784D01*
X119018435Y-103030969D01*
X119060982Y-102974133D01*
X119127502Y-102949322D01*
X119136491Y-102949001D01*
X119155270Y-102949001D01*
X119155271Y-102949001D01*
X119330792Y-102914088D01*
X119496128Y-102845603D01*
X119644927Y-102746179D01*
X119771470Y-102619636D01*
X119870894Y-102470837D01*
X119939379Y-102305501D01*
X119974292Y-102129980D01*
X119974292Y-101999559D01*
X119994294Y-101931438D01*
X120030290Y-101894794D01*
X120175635Y-101797678D01*
X120272405Y-101700908D01*
X120334717Y-101666882D01*
X120405532Y-101671947D01*
X120462368Y-101714494D01*
X120487179Y-101781014D01*
X120487500Y-101790003D01*
X120487500Y-102262606D01*
X120487500Y-102387394D01*
X120511845Y-102509785D01*
X120559600Y-102625075D01*
X120628929Y-102728833D01*
X123840929Y-105940833D01*
X123929167Y-106029071D01*
X124032925Y-106098400D01*
X124148215Y-106146155D01*
X124270606Y-106170500D01*
X128021320Y-106170500D01*
X128089441Y-106190502D01*
X128123256Y-106222439D01*
X128124105Y-106223608D01*
X128124106Y-106223609D01*
X128249794Y-106396604D01*
X128249796Y-106396606D01*
X128249798Y-106396609D01*
X128400990Y-106547801D01*
X128400993Y-106547803D01*
X128400996Y-106547806D01*
X128573991Y-106673494D01*
X128764517Y-106770572D01*
X128967878Y-106836647D01*
X128967879Y-106836647D01*
X128967884Y-106836649D01*
X129179084Y-106870100D01*
X129179087Y-106870100D01*
X129392913Y-106870100D01*
X129392916Y-106870100D01*
X129604116Y-106836649D01*
X129807483Y-106770572D01*
X129998009Y-106673494D01*
X130171004Y-106547806D01*
X130322206Y-106396604D01*
X130447894Y-106223609D01*
X130544972Y-106033083D01*
X130611049Y-105829716D01*
X130644500Y-105618516D01*
X130644500Y-105404684D01*
X130611049Y-105193484D01*
X130544972Y-104990117D01*
X130447894Y-104799591D01*
X130322206Y-104626596D01*
X130322203Y-104626593D01*
X130322201Y-104626590D01*
X130171009Y-104475398D01*
X130171006Y-104475396D01*
X130171004Y-104475394D01*
X129998009Y-104349706D01*
X129998007Y-104349705D01*
X129996920Y-104349039D01*
X129996591Y-104348675D01*
X129994004Y-104346796D01*
X129994398Y-104346252D01*
X129949283Y-104296396D01*
X129937670Y-104226356D01*
X129965766Y-104161155D01*
X129994130Y-104136578D01*
X129994004Y-104136404D01*
X129996030Y-104134931D01*
X129996920Y-104134161D01*
X129997997Y-104133499D01*
X129998009Y-104133494D01*
X130171004Y-104007806D01*
X130322206Y-103856604D01*
X130447894Y-103683609D01*
X130544972Y-103493083D01*
X130611049Y-103289716D01*
X130644500Y-103078516D01*
X130644500Y-102864684D01*
X130611049Y-102653484D01*
X130544972Y-102450117D01*
X130447894Y-102259591D01*
X130322206Y-102086596D01*
X130322203Y-102086593D01*
X130322201Y-102086590D01*
X130171009Y-101935398D01*
X130171006Y-101935396D01*
X130171004Y-101935394D01*
X130101806Y-101885118D01*
X129998006Y-101809703D01*
X129996427Y-101808736D01*
X129995952Y-101808211D01*
X129994004Y-101806796D01*
X129994301Y-101806386D01*
X129948797Y-101756088D01*
X129937191Y-101686046D01*
X129965296Y-101620849D01*
X129993844Y-101596116D01*
X129993742Y-101595976D01*
X129995382Y-101594784D01*
X129996448Y-101593861D01*
X129997754Y-101593060D01*
X130170679Y-101467422D01*
X130321822Y-101316279D01*
X130447463Y-101143350D01*
X130544506Y-100952892D01*
X130544509Y-100952886D01*
X130610559Y-100749604D01*
X130620698Y-100685600D01*
X129716703Y-100685600D01*
X129751925Y-100624593D01*
X129786000Y-100497426D01*
X129786000Y-100365774D01*
X129751925Y-100238607D01*
X129716703Y-100177600D01*
X130620697Y-100177600D01*
X130610559Y-100113595D01*
X130544509Y-99910313D01*
X130544506Y-99910307D01*
X130447463Y-99719849D01*
X130321822Y-99546920D01*
X130170679Y-99395777D01*
X129997749Y-99270135D01*
X129996433Y-99269329D01*
X129996037Y-99268891D01*
X129993742Y-99267224D01*
X129994092Y-99266741D01*
X129948800Y-99216684D01*
X129937190Y-99146643D01*
X129965291Y-99081444D01*
X129994076Y-99056503D01*
X129994004Y-99056404D01*
X129995158Y-99055565D01*
X129996441Y-99054454D01*
X129997992Y-99053502D01*
X129998009Y-99053494D01*
X130171004Y-98927806D01*
X130322206Y-98776604D01*
X130447894Y-98603609D01*
X130544972Y-98413083D01*
X130611049Y-98209716D01*
X130644500Y-97998516D01*
X130644500Y-97784684D01*
X130611049Y-97573484D01*
X130544972Y-97370117D01*
X130447894Y-97179591D01*
X130322206Y-97006596D01*
X130322203Y-97006593D01*
X130322201Y-97006590D01*
X130219229Y-96903618D01*
X130185203Y-96841306D01*
X130190268Y-96770491D01*
X130232815Y-96713655D01*
X130264284Y-96696471D01*
X130382204Y-96652489D01*
X130499261Y-96564861D01*
X130549936Y-96497167D01*
X130586887Y-96447807D01*
X130586887Y-96447806D01*
X130586889Y-96447804D01*
X130630960Y-96329645D01*
X130637988Y-96310804D01*
X130637990Y-96310796D01*
X130644499Y-96250249D01*
X130644500Y-96250232D01*
X130644500Y-94452967D01*
X130644499Y-94452950D01*
X130637990Y-94392403D01*
X130637988Y-94392395D01*
X130586889Y-94255397D01*
X130586887Y-94255392D01*
X130499261Y-94138338D01*
X130382207Y-94050712D01*
X130382202Y-94050710D01*
X130245204Y-93999611D01*
X130245196Y-93999609D01*
X130184649Y-93993100D01*
X130184638Y-93993100D01*
X128387362Y-93993100D01*
X128387350Y-93993100D01*
X128326803Y-93999609D01*
X128326795Y-93999611D01*
X128189797Y-94050710D01*
X128189792Y-94050712D01*
X128072738Y-94138338D01*
X127985112Y-94255392D01*
X127985111Y-94255395D01*
X127931702Y-94398587D01*
X127889155Y-94455422D01*
X127822634Y-94480232D01*
X127753260Y-94465140D01*
X127724552Y-94443648D01*
X126167405Y-92886501D01*
X126133379Y-92824189D01*
X126130500Y-92797406D01*
X126130500Y-92747522D01*
X126130499Y-92747518D01*
X126095587Y-92572000D01*
X126027102Y-92406664D01*
X125927678Y-92257865D01*
X125801135Y-92131322D01*
X125652336Y-92031898D01*
X125532469Y-91982247D01*
X125487003Y-91963414D01*
X125487001Y-91963413D01*
X125487000Y-91963413D01*
X125398645Y-91945838D01*
X125311481Y-91928500D01*
X125311479Y-91928500D01*
X125219500Y-91928500D01*
X125151379Y-91908498D01*
X125104886Y-91854842D01*
X125093500Y-91802500D01*
X125093500Y-91203417D01*
X125113502Y-91135296D01*
X125149495Y-91098654D01*
X125293135Y-91002678D01*
X125419678Y-90876135D01*
X125519102Y-90727336D01*
X125587587Y-90562000D01*
X125622500Y-90386479D01*
X125622500Y-90207521D01*
X125587587Y-90032000D01*
X125519102Y-89866664D01*
X125419678Y-89717865D01*
X125293135Y-89591322D01*
X125144336Y-89491898D01*
X124981214Y-89424330D01*
X124979003Y-89423414D01*
X124979001Y-89423413D01*
X124979000Y-89423413D01*
X124890645Y-89405838D01*
X124803481Y-89388500D01*
X124803479Y-89388500D01*
X124624521Y-89388500D01*
X124624518Y-89388500D01*
X124493771Y-89414507D01*
X124449000Y-89423413D01*
X124448999Y-89423413D01*
X124448996Y-89423414D01*
X124283662Y-89491899D01*
X124134869Y-89591319D01*
X124134862Y-89591324D01*
X124008324Y-89717862D01*
X124008319Y-89717869D01*
X123908899Y-89866662D01*
X123840414Y-90031996D01*
X123840413Y-90031999D01*
X123840413Y-90032000D01*
X123837609Y-90046099D01*
X123805500Y-90207518D01*
X123805500Y-90386481D01*
X123810740Y-90412822D01*
X123820277Y-90460771D01*
X123824079Y-90479881D01*
X123826500Y-90504463D01*
X123826500Y-95185396D01*
X123832435Y-95215231D01*
X123850845Y-95307785D01*
X123898600Y-95423075D01*
X123967929Y-95526833D01*
X123967931Y-95526835D01*
X126850161Y-98409067D01*
X126850167Y-98409072D01*
X126953925Y-98478401D01*
X127035447Y-98512168D01*
X127069215Y-98526155D01*
X127191606Y-98550500D01*
X127191607Y-98550500D01*
X127316394Y-98550500D01*
X128021320Y-98550500D01*
X128089441Y-98570502D01*
X128123256Y-98602439D01*
X128124105Y-98603608D01*
X128124106Y-98603609D01*
X128249794Y-98776604D01*
X128249796Y-98776606D01*
X128249798Y-98776609D01*
X128400990Y-98927801D01*
X128400993Y-98927803D01*
X128400996Y-98927806D01*
X128573991Y-99053494D01*
X128574001Y-99053499D01*
X128575567Y-99054459D01*
X128576042Y-99054984D01*
X128577996Y-99056404D01*
X128577697Y-99056814D01*
X128623200Y-99107105D01*
X128634808Y-99177146D01*
X128606707Y-99242345D01*
X128578157Y-99267085D01*
X128578258Y-99267224D01*
X128576644Y-99268396D01*
X128575574Y-99269324D01*
X128574255Y-99270132D01*
X128401320Y-99395777D01*
X128250177Y-99546920D01*
X128124536Y-99719849D01*
X128027493Y-99910307D01*
X128027490Y-99910313D01*
X127961440Y-100113595D01*
X127951302Y-100177600D01*
X128855297Y-100177600D01*
X128820075Y-100238607D01*
X128786000Y-100365774D01*
X128786000Y-100497426D01*
X128820075Y-100624593D01*
X128855297Y-100685600D01*
X127951302Y-100685600D01*
X127961440Y-100749604D01*
X128027490Y-100952886D01*
X128027493Y-100952892D01*
X128124536Y-101143350D01*
X128250177Y-101316279D01*
X128401320Y-101467422D01*
X128574244Y-101593060D01*
X128575560Y-101593866D01*
X128575955Y-101594303D01*
X128578258Y-101595976D01*
X128577906Y-101596459D01*
X128623196Y-101646510D01*
X128634809Y-101716550D01*
X128606712Y-101781750D01*
X128577925Y-101806698D01*
X128577996Y-101806796D01*
X128576862Y-101807619D01*
X128575580Y-101808731D01*
X128573998Y-101809700D01*
X128400993Y-101935396D01*
X128400990Y-101935398D01*
X128249798Y-102086590D01*
X128249796Y-102086593D01*
X128124108Y-102259587D01*
X128124106Y-102259591D01*
X128047985Y-102408988D01*
X128041506Y-102421703D01*
X127992758Y-102473318D01*
X127929239Y-102490500D01*
X123250595Y-102490500D01*
X123182474Y-102470498D01*
X123161500Y-102453595D01*
X122241405Y-101533500D01*
X122207379Y-101471188D01*
X122204500Y-101444405D01*
X122204500Y-101110500D01*
X122224502Y-101042379D01*
X122278158Y-100995886D01*
X122330500Y-100984500D01*
X122384978Y-100984500D01*
X122384979Y-100984500D01*
X122560500Y-100949587D01*
X122725836Y-100881102D01*
X122874635Y-100781678D01*
X123001178Y-100655135D01*
X123100602Y-100506336D01*
X123169087Y-100341000D01*
X123204000Y-100165479D01*
X123204000Y-99986521D01*
X123169087Y-99811000D01*
X123100602Y-99645664D01*
X123001178Y-99496865D01*
X122971405Y-99467092D01*
X122937379Y-99404780D01*
X122934500Y-99377997D01*
X122934500Y-96067302D01*
X122934499Y-96067298D01*
X122928042Y-96034835D01*
X122910155Y-95944910D01*
X122907459Y-95938401D01*
X122872694Y-95854469D01*
X122862402Y-95829622D01*
X122862401Y-95829620D01*
X122841421Y-95798222D01*
X122793072Y-95725862D01*
X117002405Y-89935195D01*
X116968379Y-89872883D01*
X116965500Y-89846100D01*
X116965500Y-88274108D01*
X116985502Y-88205987D01*
X117034297Y-88161842D01*
X117044009Y-88156894D01*
X117217004Y-88031206D01*
X117368206Y-87880004D01*
X117493894Y-87707009D01*
X117493899Y-87706997D01*
X117494561Y-87705920D01*
X117494924Y-87705591D01*
X117496804Y-87703004D01*
X117497347Y-87703398D01*
X117547204Y-87658283D01*
X117617244Y-87646670D01*
X117682445Y-87674766D01*
X117707021Y-87703130D01*
X117707196Y-87703004D01*
X117708668Y-87705030D01*
X117709439Y-87705920D01*
X117710105Y-87707007D01*
X117710106Y-87707009D01*
X117835794Y-87880004D01*
X117835796Y-87880006D01*
X117835798Y-87880009D01*
X117986990Y-88031201D01*
X117986993Y-88031203D01*
X117986996Y-88031206D01*
X118159991Y-88156894D01*
X118350517Y-88253972D01*
X118553878Y-88320047D01*
X118553879Y-88320047D01*
X118553884Y-88320049D01*
X118765084Y-88353500D01*
X118765087Y-88353500D01*
X118978913Y-88353500D01*
X118978916Y-88353500D01*
X119190116Y-88320049D01*
X119393483Y-88253972D01*
X119584009Y-88156894D01*
X119757004Y-88031206D01*
X119860371Y-87927838D01*
X119922681Y-87893815D01*
X119993497Y-87898879D01*
X120050333Y-87941426D01*
X120067521Y-87972903D01*
X120111555Y-88090965D01*
X120199095Y-88207904D01*
X120316034Y-88295444D01*
X120452906Y-88346494D01*
X120513402Y-88352999D01*
X120513415Y-88353000D01*
X121158000Y-88353000D01*
X121158000Y-87425702D01*
X121219007Y-87460925D01*
X121346174Y-87495000D01*
X121477826Y-87495000D01*
X121604993Y-87460925D01*
X121666000Y-87425702D01*
X121666000Y-88353000D01*
X121774906Y-88353000D01*
X121843027Y-88373002D01*
X121889520Y-88426658D01*
X121899624Y-88496932D01*
X121870130Y-88561512D01*
X121864001Y-88568095D01*
X120932501Y-89499595D01*
X120870189Y-89533621D01*
X120843406Y-89536500D01*
X119702503Y-89536500D01*
X119634382Y-89516498D01*
X119613408Y-89499595D01*
X119578137Y-89464324D01*
X119578135Y-89464322D01*
X119429336Y-89364898D01*
X119312429Y-89316473D01*
X119264003Y-89296414D01*
X119264001Y-89296413D01*
X119264000Y-89296413D01*
X119175645Y-89278838D01*
X119088481Y-89261500D01*
X119088479Y-89261500D01*
X118909521Y-89261500D01*
X118909518Y-89261500D01*
X118790779Y-89285119D01*
X118734000Y-89296413D01*
X118733999Y-89296413D01*
X118733996Y-89296414D01*
X118568662Y-89364899D01*
X118419869Y-89464319D01*
X118419862Y-89464324D01*
X118293324Y-89590862D01*
X118293319Y-89590869D01*
X118193899Y-89739662D01*
X118125414Y-89904996D01*
X118090500Y-90080518D01*
X118090500Y-90259481D01*
X118102870Y-90321667D01*
X118125413Y-90435000D01*
X118193898Y-90600336D01*
X118293322Y-90749135D01*
X118419865Y-90875678D01*
X118568664Y-90975102D01*
X118734000Y-91043587D01*
X118909521Y-91078500D01*
X118909522Y-91078500D01*
X119088478Y-91078500D01*
X119088479Y-91078500D01*
X119264000Y-91043587D01*
X119429336Y-90975102D01*
X119578135Y-90875678D01*
X119613408Y-90840405D01*
X119675720Y-90806379D01*
X119702503Y-90803500D01*
X121220393Y-90803500D01*
X121220394Y-90803500D01*
X121342785Y-90779155D01*
X121458075Y-90731400D01*
X121561833Y-90662071D01*
X123032386Y-89191518D01*
X126599500Y-89191518D01*
X126599500Y-89370481D01*
X126610212Y-89424332D01*
X126632523Y-89536500D01*
X126634414Y-89546003D01*
X126653185Y-89591319D01*
X126702898Y-89711336D01*
X126802322Y-89860135D01*
X126802324Y-89860137D01*
X126837595Y-89895408D01*
X126871621Y-89957720D01*
X126874500Y-89984503D01*
X126874500Y-91377606D01*
X126874500Y-91502394D01*
X126898845Y-91624785D01*
X126946600Y-91740075D01*
X127015929Y-91843833D01*
X127015931Y-91843835D01*
X127407170Y-92235074D01*
X127441196Y-92297386D01*
X127444075Y-92324169D01*
X127444075Y-92374054D01*
X127478594Y-92547595D01*
X127478989Y-92549578D01*
X127499048Y-92598004D01*
X127547473Y-92714911D01*
X127646897Y-92863710D01*
X127773440Y-92990253D01*
X127922239Y-93089677D01*
X128087575Y-93158162D01*
X128263096Y-93193075D01*
X128263097Y-93193075D01*
X128442053Y-93193075D01*
X128442054Y-93193075D01*
X128617575Y-93158162D01*
X128782911Y-93089677D01*
X128931710Y-92990253D01*
X129058253Y-92863710D01*
X129157677Y-92714911D01*
X129226162Y-92549575D01*
X129261075Y-92374054D01*
X129261075Y-92195096D01*
X129226162Y-92019575D01*
X129157677Y-91854239D01*
X129058253Y-91705440D01*
X128931710Y-91578897D01*
X128782911Y-91479473D01*
X128635607Y-91418457D01*
X128617578Y-91410989D01*
X128617576Y-91410988D01*
X128617575Y-91410988D01*
X128529220Y-91393413D01*
X128442056Y-91376075D01*
X128442054Y-91376075D01*
X128392169Y-91376075D01*
X128362253Y-91367291D01*
X128331784Y-91360663D01*
X128326688Y-91356848D01*
X128324048Y-91356073D01*
X128303074Y-91339170D01*
X128178405Y-91214501D01*
X128144379Y-91152189D01*
X128141500Y-91125406D01*
X128141500Y-89984503D01*
X128161502Y-89916382D01*
X128178405Y-89895408D01*
X128191093Y-89882720D01*
X128213678Y-89860135D01*
X128313102Y-89711336D01*
X128381587Y-89546000D01*
X128416500Y-89370479D01*
X128416500Y-89191521D01*
X128381587Y-89016000D01*
X128313102Y-88850664D01*
X128213678Y-88701865D01*
X128087135Y-88575322D01*
X127938336Y-88475898D01*
X127794938Y-88416500D01*
X127773003Y-88407414D01*
X127773001Y-88407413D01*
X127773000Y-88407413D01*
X127683337Y-88389578D01*
X127597481Y-88372500D01*
X127597479Y-88372500D01*
X127418521Y-88372500D01*
X127418518Y-88372500D01*
X127287771Y-88398507D01*
X127243000Y-88407413D01*
X127242999Y-88407413D01*
X127242996Y-88407414D01*
X127077662Y-88475899D01*
X126928869Y-88575319D01*
X126928862Y-88575324D01*
X126802324Y-88701862D01*
X126802319Y-88701869D01*
X126769994Y-88750248D01*
X126702898Y-88850664D01*
X126694920Y-88869925D01*
X126634414Y-89015996D01*
X126599500Y-89191518D01*
X123032386Y-89191518D01*
X123936071Y-88287833D01*
X124005400Y-88184075D01*
X124053155Y-88068785D01*
X124077500Y-87946394D01*
X124077500Y-87821606D01*
X124077500Y-87647004D01*
X132963500Y-87647004D01*
X132963500Y-87784995D01*
X132990420Y-87920328D01*
X132990421Y-87920331D01*
X132999159Y-87941426D01*
X133043225Y-88047811D01*
X133057241Y-88068787D01*
X133119885Y-88162541D01*
X133119890Y-88162547D01*
X133217452Y-88260109D01*
X133217458Y-88260114D01*
X133332189Y-88336775D01*
X133459672Y-88389580D01*
X133595007Y-88416500D01*
X133595008Y-88416500D01*
X133732992Y-88416500D01*
X133732993Y-88416500D01*
X133868328Y-88389580D01*
X133995811Y-88336775D01*
X134110542Y-88260114D01*
X134208114Y-88162542D01*
X134284775Y-88047811D01*
X134337580Y-87920328D01*
X134364500Y-87784993D01*
X134364500Y-87647007D01*
X134337580Y-87511672D01*
X134284775Y-87384189D01*
X134208114Y-87269458D01*
X134208109Y-87269452D01*
X134110547Y-87171890D01*
X134110541Y-87171885D01*
X134072471Y-87146447D01*
X133995811Y-87095225D01*
X133912764Y-87060826D01*
X133868331Y-87042421D01*
X133868328Y-87042420D01*
X133732995Y-87015500D01*
X133732993Y-87015500D01*
X133595007Y-87015500D01*
X133595004Y-87015500D01*
X133459671Y-87042420D01*
X133459668Y-87042421D01*
X133332189Y-87095225D01*
X133217458Y-87171885D01*
X133217452Y-87171890D01*
X133119890Y-87269452D01*
X133119885Y-87269458D01*
X133043225Y-87384189D01*
X132990421Y-87511668D01*
X132990420Y-87511671D01*
X132963500Y-87647004D01*
X124077500Y-87647004D01*
X124077500Y-83247004D01*
X132963500Y-83247004D01*
X132963500Y-83384995D01*
X132981706Y-83476521D01*
X132990420Y-83520328D01*
X133043225Y-83647811D01*
X133063121Y-83677587D01*
X133119885Y-83762541D01*
X133119890Y-83762547D01*
X133217452Y-83860109D01*
X133217458Y-83860114D01*
X133332189Y-83936775D01*
X133459672Y-83989580D01*
X133595007Y-84016500D01*
X133595008Y-84016500D01*
X133732992Y-84016500D01*
X133732993Y-84016500D01*
X133868328Y-83989580D01*
X133995811Y-83936775D01*
X134110542Y-83860114D01*
X134208114Y-83762542D01*
X134284775Y-83647811D01*
X134337580Y-83520328D01*
X134364500Y-83384993D01*
X134364500Y-83247007D01*
X134337580Y-83111672D01*
X134284775Y-82984189D01*
X134208114Y-82869458D01*
X134208109Y-82869452D01*
X134110547Y-82771890D01*
X134110541Y-82771885D01*
X134043331Y-82726977D01*
X133995811Y-82695225D01*
X133915421Y-82661926D01*
X133868331Y-82642421D01*
X133868328Y-82642420D01*
X133732995Y-82615500D01*
X133732993Y-82615500D01*
X133595007Y-82615500D01*
X133595004Y-82615500D01*
X133459671Y-82642420D01*
X133459668Y-82642421D01*
X133332189Y-82695225D01*
X133217458Y-82771885D01*
X133217452Y-82771890D01*
X133119890Y-82869452D01*
X133119885Y-82869458D01*
X133043225Y-82984189D01*
X132990421Y-83111668D01*
X132990420Y-83111671D01*
X132963500Y-83247004D01*
X124077500Y-83247004D01*
X124077500Y-81725604D01*
X124053155Y-81603213D01*
X124025936Y-81537500D01*
X124005401Y-81487923D01*
X123936072Y-81384165D01*
X122336405Y-79784498D01*
X122302379Y-79722186D01*
X122299500Y-79695403D01*
X122299500Y-79406003D01*
X122319502Y-79337882D01*
X122336405Y-79316908D01*
X122371678Y-79281635D01*
X122471102Y-79132836D01*
X122539587Y-78967500D01*
X122574500Y-78791979D01*
X122574500Y-78613021D01*
X122574500Y-78606831D01*
X122576130Y-78606831D01*
X122587880Y-78544850D01*
X122610950Y-78513152D01*
X123224871Y-77899233D01*
X123294200Y-77795475D01*
X123341955Y-77680185D01*
X123366300Y-77557794D01*
X123366300Y-77433006D01*
X123366300Y-76971794D01*
X123386302Y-76903673D01*
X123403200Y-76882703D01*
X123914107Y-76371795D01*
X123976418Y-76337772D01*
X123983493Y-76336443D01*
X123997922Y-76334157D01*
X124028241Y-76329356D01*
X124254063Y-76255982D01*
X124465627Y-76148185D01*
X124657722Y-76008620D01*
X124825620Y-75840722D01*
X124965185Y-75648627D01*
X125010191Y-75560296D01*
X125058939Y-75508682D01*
X125122458Y-75491500D01*
X128727542Y-75491500D01*
X128795663Y-75511502D01*
X128839808Y-75560296D01*
X128880743Y-75640636D01*
X128884817Y-75648630D01*
X128890993Y-75657130D01*
X129024380Y-75840722D01*
X129024382Y-75840724D01*
X129024384Y-75840727D01*
X129192272Y-76008615D01*
X129192275Y-76008617D01*
X129192278Y-76008620D01*
X129384373Y-76148185D01*
X129595937Y-76255982D01*
X129821759Y-76329356D01*
X130056278Y-76366500D01*
X130056281Y-76366500D01*
X130293719Y-76366500D01*
X130293722Y-76366500D01*
X130528241Y-76329356D01*
X130754063Y-76255982D01*
X130965627Y-76148185D01*
X131157722Y-76008620D01*
X131325620Y-75840722D01*
X131465185Y-75648627D01*
X131572982Y-75437063D01*
X131646356Y-75211241D01*
X131683500Y-74976722D01*
X131683500Y-74739278D01*
X131646356Y-74504759D01*
X131572982Y-74278937D01*
X131465185Y-74067373D01*
X131325620Y-73875278D01*
X131325617Y-73875275D01*
X131325615Y-73875272D01*
X131157727Y-73707384D01*
X131157724Y-73707382D01*
X131157722Y-73707380D01*
X130965627Y-73567815D01*
X130754063Y-73460018D01*
X130754060Y-73460017D01*
X130754058Y-73460016D01*
X130528246Y-73386645D01*
X130528242Y-73386644D01*
X130528241Y-73386644D01*
X130293722Y-73349500D01*
X130056278Y-73349500D01*
X129821759Y-73386644D01*
X129821753Y-73386645D01*
X129595941Y-73460016D01*
X129595935Y-73460019D01*
X129384369Y-73567817D01*
X129192275Y-73707382D01*
X129192272Y-73707384D01*
X129024384Y-73875272D01*
X129024382Y-73875275D01*
X128884817Y-74067369D01*
X128839809Y-74155703D01*
X128791061Y-74207318D01*
X128727542Y-74224500D01*
X125122458Y-74224500D01*
X125054337Y-74204498D01*
X125010191Y-74155703D01*
X125007064Y-74149566D01*
X124965185Y-74067373D01*
X124825620Y-73875278D01*
X124825617Y-73875275D01*
X124825615Y-73875272D01*
X124657727Y-73707384D01*
X124657724Y-73707382D01*
X124657722Y-73707380D01*
X124465627Y-73567815D01*
X124254063Y-73460018D01*
X124254060Y-73460017D01*
X124254058Y-73460016D01*
X124028246Y-73386645D01*
X124028242Y-73386644D01*
X124028241Y-73386644D01*
X123793722Y-73349500D01*
X123556278Y-73349500D01*
X123321759Y-73386644D01*
X123321753Y-73386645D01*
X123095941Y-73460016D01*
X123095935Y-73460019D01*
X122884369Y-73567817D01*
X122692275Y-73707382D01*
X122692272Y-73707384D01*
X122524384Y-73875272D01*
X122524382Y-73875275D01*
X122384817Y-74067369D01*
X122277019Y-74278935D01*
X122277016Y-74278941D01*
X122203645Y-74504753D01*
X122203644Y-74504758D01*
X122203644Y-74504759D01*
X122166500Y-74739278D01*
X122166500Y-74976722D01*
X122203644Y-75211241D01*
X122203645Y-75211246D01*
X122206407Y-75219746D01*
X122277018Y-75437063D01*
X122384815Y-75648627D01*
X122384817Y-75648630D01*
X122390993Y-75657130D01*
X122515408Y-75828374D01*
X122527043Y-75860984D01*
X122539151Y-75893444D01*
X122538951Y-75894358D01*
X122539266Y-75895239D01*
X122531430Y-75928936D01*
X122524060Y-75962818D01*
X122523322Y-75963802D01*
X122523186Y-75964391D01*
X122502568Y-75991528D01*
X122328967Y-76165129D01*
X122328966Y-76165129D01*
X122328965Y-76165130D01*
X122240731Y-76253364D01*
X122240726Y-76253371D01*
X122171401Y-76357123D01*
X122123646Y-76472412D01*
X122099300Y-76594803D01*
X122099300Y-77180804D01*
X122079298Y-77248925D01*
X122062395Y-77269900D01*
X121555830Y-77776464D01*
X121493518Y-77810489D01*
X121491318Y-77810947D01*
X121441827Y-77820791D01*
X121401000Y-77828913D01*
X121400998Y-77828913D01*
X121400997Y-77828914D01*
X121235662Y-77897399D01*
X121086869Y-77996819D01*
X121086862Y-77996824D01*
X120960324Y-78123362D01*
X120960319Y-78123369D01*
X120860899Y-78272162D01*
X120792414Y-78437496D01*
X120757500Y-78613018D01*
X120757500Y-78613021D01*
X120757500Y-78791979D01*
X120792413Y-78967500D01*
X120860898Y-79132836D01*
X120960322Y-79281635D01*
X120960324Y-79281637D01*
X120995595Y-79316908D01*
X121029621Y-79379220D01*
X121032500Y-79406003D01*
X121032500Y-79908497D01*
X121012498Y-79976618D01*
X120958842Y-80023111D01*
X120931082Y-80032076D01*
X120819304Y-80054310D01*
X120766000Y-80064913D01*
X120765999Y-80064913D01*
X120765996Y-80064914D01*
X120600662Y-80133399D01*
X120451869Y-80232819D01*
X120451862Y-80232824D01*
X120325324Y-80359362D01*
X120325319Y-80359369D01*
X120225899Y-80508162D01*
X120157414Y-80673496D01*
X120122500Y-80849018D01*
X120122500Y-81027981D01*
X120157413Y-81203500D01*
X120157416Y-81203509D01*
X120178261Y-81253834D01*
X120185850Y-81324424D01*
X120154070Y-81387910D01*
X120150948Y-81391146D01*
X119738169Y-81803927D01*
X119738166Y-81803930D01*
X119720593Y-81821502D01*
X119658280Y-81855525D01*
X119587464Y-81850458D01*
X119530630Y-81807910D01*
X119505821Y-81741389D01*
X119505500Y-81732404D01*
X119505500Y-78597394D01*
X119525502Y-78529273D01*
X119542405Y-78508299D01*
X120492912Y-77557792D01*
X121523071Y-76527633D01*
X121592400Y-76423875D01*
X121640155Y-76308585D01*
X121664500Y-76186194D01*
X121664500Y-76061406D01*
X121664500Y-72503606D01*
X121640155Y-72381215D01*
X121626168Y-72347447D01*
X121592401Y-72265925D01*
X121523072Y-72162167D01*
X120302957Y-70942053D01*
X120268934Y-70879743D01*
X120272221Y-70814023D01*
X120272364Y-70813583D01*
X120302856Y-70719741D01*
X120340000Y-70485222D01*
X120340000Y-70247778D01*
X120338661Y-70239321D01*
X122167000Y-70239321D01*
X122167000Y-70476678D01*
X122204133Y-70711129D01*
X122277480Y-70936867D01*
X122385246Y-71148368D01*
X122444230Y-71229556D01*
X122444232Y-71229556D01*
X123150016Y-70523771D01*
X123162482Y-70570292D01*
X123234890Y-70695708D01*
X123337292Y-70798110D01*
X123462708Y-70870518D01*
X123509226Y-70882982D01*
X122803442Y-71588766D01*
X122884636Y-71647756D01*
X122884637Y-71647757D01*
X123096132Y-71755519D01*
X123321870Y-71828866D01*
X123556321Y-71866000D01*
X123793679Y-71866000D01*
X124028129Y-71828866D01*
X124253867Y-71755519D01*
X124465367Y-71647754D01*
X124546556Y-71588767D01*
X124546556Y-71588765D01*
X123840773Y-70882982D01*
X123887292Y-70870518D01*
X124012708Y-70798110D01*
X124115110Y-70695708D01*
X124187518Y-70570292D01*
X124199982Y-70523773D01*
X124905765Y-71229556D01*
X124905767Y-71229556D01*
X124964754Y-71148367D01*
X125072519Y-70936867D01*
X125145866Y-70711129D01*
X125183000Y-70476678D01*
X125183000Y-70239321D01*
X128667000Y-70239321D01*
X128667000Y-70476678D01*
X128704133Y-70711129D01*
X128777480Y-70936867D01*
X128885246Y-71148368D01*
X128944230Y-71229556D01*
X128944232Y-71229556D01*
X129650016Y-70523771D01*
X129662482Y-70570292D01*
X129734890Y-70695708D01*
X129837292Y-70798110D01*
X129962708Y-70870518D01*
X130009226Y-70882982D01*
X129303442Y-71588766D01*
X129384636Y-71647756D01*
X129384637Y-71647757D01*
X129596132Y-71755519D01*
X129821870Y-71828866D01*
X130056321Y-71866000D01*
X130293679Y-71866000D01*
X130528129Y-71828866D01*
X130753867Y-71755519D01*
X130965367Y-71647754D01*
X131046556Y-71588767D01*
X131046556Y-71588765D01*
X130340773Y-70882982D01*
X130387292Y-70870518D01*
X130512708Y-70798110D01*
X130615110Y-70695708D01*
X130687518Y-70570292D01*
X130699982Y-70523773D01*
X131405765Y-71229556D01*
X131405767Y-71229556D01*
X131464754Y-71148367D01*
X131572519Y-70936867D01*
X131645866Y-70711129D01*
X131683000Y-70476678D01*
X131683000Y-70239321D01*
X131645866Y-70004870D01*
X131572519Y-69779132D01*
X131464757Y-69567637D01*
X131464756Y-69567636D01*
X131405766Y-69486442D01*
X130699982Y-70192226D01*
X130687518Y-70145708D01*
X130615110Y-70020292D01*
X130512708Y-69917890D01*
X130387292Y-69845482D01*
X130340771Y-69833016D01*
X131046556Y-69127232D01*
X131046556Y-69127230D01*
X130965368Y-69068246D01*
X130753867Y-68960480D01*
X130528129Y-68887133D01*
X130293679Y-68850000D01*
X130056321Y-68850000D01*
X129821870Y-68887133D01*
X129596132Y-68960480D01*
X129384634Y-69068243D01*
X129303442Y-69127231D01*
X130009227Y-69833017D01*
X129962708Y-69845482D01*
X129837292Y-69917890D01*
X129734890Y-70020292D01*
X129662482Y-70145708D01*
X129650017Y-70192227D01*
X128944231Y-69486442D01*
X128885243Y-69567634D01*
X128777480Y-69779132D01*
X128704133Y-70004870D01*
X128667000Y-70239321D01*
X125183000Y-70239321D01*
X125145866Y-70004870D01*
X125072519Y-69779132D01*
X124964757Y-69567637D01*
X124964756Y-69567636D01*
X124905766Y-69486442D01*
X124199982Y-70192226D01*
X124187518Y-70145708D01*
X124115110Y-70020292D01*
X124012708Y-69917890D01*
X123887292Y-69845482D01*
X123840771Y-69833016D01*
X124546556Y-69127232D01*
X124546556Y-69127230D01*
X124465368Y-69068246D01*
X124253867Y-68960480D01*
X124028129Y-68887133D01*
X123793679Y-68850000D01*
X123556321Y-68850000D01*
X123321870Y-68887133D01*
X123096132Y-68960480D01*
X122884634Y-69068243D01*
X122803442Y-69127231D01*
X123509227Y-69833017D01*
X123462708Y-69845482D01*
X123337292Y-69917890D01*
X123234890Y-70020292D01*
X123162482Y-70145708D01*
X123150017Y-70192227D01*
X122444231Y-69486442D01*
X122385243Y-69567634D01*
X122277480Y-69779132D01*
X122204133Y-70004870D01*
X122167000Y-70239321D01*
X120338661Y-70239321D01*
X120302856Y-70013259D01*
X120229482Y-69787437D01*
X120121685Y-69575873D01*
X119982120Y-69383778D01*
X119982117Y-69383775D01*
X119982115Y-69383772D01*
X119814227Y-69215884D01*
X119814224Y-69215882D01*
X119814222Y-69215880D01*
X119622127Y-69076315D01*
X119410563Y-68968518D01*
X119410560Y-68968517D01*
X119410558Y-68968516D01*
X119184746Y-68895145D01*
X119184742Y-68895144D01*
X119184741Y-68895144D01*
X118950222Y-68858000D01*
X118712778Y-68858000D01*
X118478259Y-68895144D01*
X118478253Y-68895145D01*
X118252441Y-68968516D01*
X118252435Y-68968519D01*
X118040869Y-69076317D01*
X117848775Y-69215882D01*
X117848772Y-69215884D01*
X117680884Y-69383772D01*
X117680882Y-69383775D01*
X117541317Y-69575869D01*
X117433519Y-69787435D01*
X117433516Y-69787441D01*
X117360145Y-70013253D01*
X117360144Y-70013258D01*
X117360144Y-70013259D01*
X117323000Y-70247778D01*
X117323000Y-70485222D01*
X117356338Y-70695708D01*
X117360145Y-70719746D01*
X117433516Y-70945558D01*
X117433518Y-70945563D01*
X117541315Y-71157127D01*
X117680880Y-71349222D01*
X117680882Y-71349224D01*
X117680884Y-71349227D01*
X117848772Y-71517115D01*
X117848775Y-71517117D01*
X117848778Y-71517120D01*
X118040873Y-71656685D01*
X118252437Y-71764482D01*
X118478259Y-71837856D01*
X118712778Y-71875000D01*
X118712781Y-71875000D01*
X118950219Y-71875000D01*
X118950222Y-71875000D01*
X119184741Y-71837856D01*
X119279024Y-71807220D01*
X119349991Y-71805193D01*
X119407055Y-71837959D01*
X120360595Y-72791499D01*
X120394621Y-72853811D01*
X120397500Y-72880594D01*
X120397500Y-74092363D01*
X120377498Y-74160484D01*
X120323842Y-74206977D01*
X120253568Y-74217081D01*
X120188988Y-74187587D01*
X120159233Y-74149566D01*
X120121685Y-74075873D01*
X119982120Y-73883778D01*
X119982117Y-73883775D01*
X119982115Y-73883772D01*
X119814227Y-73715884D01*
X119814224Y-73715882D01*
X119814222Y-73715880D01*
X119622127Y-73576315D01*
X119410563Y-73468518D01*
X119410560Y-73468517D01*
X119410558Y-73468516D01*
X119184746Y-73395145D01*
X119184742Y-73395144D01*
X119184741Y-73395144D01*
X118950222Y-73358000D01*
X118712778Y-73358000D01*
X118478259Y-73395144D01*
X118478253Y-73395145D01*
X118252441Y-73468516D01*
X118252435Y-73468519D01*
X118040869Y-73576317D01*
X117848775Y-73715882D01*
X117848772Y-73715884D01*
X117680884Y-73883772D01*
X117680882Y-73883775D01*
X117541317Y-74075869D01*
X117496309Y-74164203D01*
X117447561Y-74215818D01*
X117384042Y-74233000D01*
X113778958Y-74233000D01*
X113710837Y-74212998D01*
X113666691Y-74164203D01*
X113659233Y-74149566D01*
X113621685Y-74075873D01*
X113482120Y-73883778D01*
X113482117Y-73883775D01*
X113482115Y-73883772D01*
X113314227Y-73715884D01*
X113314224Y-73715882D01*
X113314222Y-73715880D01*
X113122127Y-73576315D01*
X112910563Y-73468518D01*
X112910560Y-73468517D01*
X112910558Y-73468516D01*
X112684746Y-73395145D01*
X112684742Y-73395144D01*
X112684741Y-73395144D01*
X112450222Y-73358000D01*
X112212778Y-73358000D01*
X111978259Y-73395144D01*
X111978253Y-73395145D01*
X111752441Y-73468516D01*
X111752435Y-73468519D01*
X111540869Y-73576317D01*
X111348775Y-73715882D01*
X111348772Y-73715884D01*
X111180884Y-73883772D01*
X111180882Y-73883775D01*
X111041317Y-74075869D01*
X110933519Y-74287435D01*
X110933516Y-74287441D01*
X110860145Y-74513253D01*
X110860144Y-74513258D01*
X110860144Y-74513259D01*
X110823000Y-74747778D01*
X110823000Y-74985222D01*
X110858798Y-75211241D01*
X110860145Y-75219746D01*
X110933516Y-75445558D01*
X110933518Y-75445563D01*
X111041315Y-75657127D01*
X111180880Y-75849222D01*
X111180882Y-75849224D01*
X111180884Y-75849227D01*
X111348772Y-76017115D01*
X111348775Y-76017117D01*
X111348778Y-76017120D01*
X111540873Y-76156685D01*
X111752437Y-76264482D01*
X111978259Y-76337856D01*
X112212778Y-76375000D01*
X112212781Y-76375000D01*
X112450219Y-76375000D01*
X112450222Y-76375000D01*
X112684741Y-76337856D01*
X112910563Y-76264482D01*
X113122127Y-76156685D01*
X113314222Y-76017120D01*
X113482120Y-75849222D01*
X113621685Y-75657127D01*
X113666691Y-75568796D01*
X113715439Y-75517182D01*
X113778958Y-75500000D01*
X117384042Y-75500000D01*
X117452163Y-75520002D01*
X117496308Y-75568796D01*
X117541315Y-75657127D01*
X117680880Y-75849222D01*
X117680882Y-75849224D01*
X117680884Y-75849227D01*
X117848772Y-76017115D01*
X117848775Y-76017117D01*
X117848778Y-76017120D01*
X118040873Y-76156685D01*
X118252437Y-76264482D01*
X118478259Y-76337856D01*
X118712778Y-76375000D01*
X118712781Y-76375000D01*
X118950219Y-76375000D01*
X118950222Y-76375000D01*
X119184741Y-76337856D01*
X119410563Y-76264482D01*
X119622127Y-76156685D01*
X119814222Y-76017120D01*
X119982120Y-75849222D01*
X120121685Y-75657127D01*
X120159233Y-75583433D01*
X120207981Y-75531818D01*
X120276896Y-75514752D01*
X120344097Y-75537652D01*
X120388250Y-75593250D01*
X120397500Y-75640636D01*
X120397500Y-75809206D01*
X120377498Y-75877327D01*
X120360595Y-75898301D01*
X118379931Y-77878964D01*
X118379926Y-77878971D01*
X118310601Y-77982723D01*
X118262846Y-78098012D01*
X118238500Y-78220403D01*
X118238500Y-82298500D01*
X118218498Y-82366621D01*
X118164842Y-82413114D01*
X118112500Y-82424500D01*
X115007451Y-82424500D01*
X114939330Y-82404498D01*
X114892837Y-82350842D01*
X114882733Y-82280568D01*
X114887618Y-82259564D01*
X114919377Y-82161819D01*
X114941280Y-82094408D01*
X114973500Y-81890981D01*
X114973500Y-81685019D01*
X114941280Y-81481592D01*
X114877634Y-81285710D01*
X114784129Y-81102197D01*
X114663068Y-80935570D01*
X114663065Y-80935567D01*
X114663063Y-80935564D01*
X114517435Y-80789936D01*
X114517432Y-80789934D01*
X114517430Y-80789932D01*
X114391999Y-80698802D01*
X114350806Y-80668873D01*
X114350805Y-80668872D01*
X114350803Y-80668871D01*
X114167290Y-80575366D01*
X114167287Y-80575365D01*
X114167285Y-80575364D01*
X113971412Y-80511721D01*
X113971410Y-80511720D01*
X113971408Y-80511720D01*
X113767981Y-80479500D01*
X113562019Y-80479500D01*
X113358592Y-80511720D01*
X113358590Y-80511720D01*
X113358587Y-80511721D01*
X113162714Y-80575364D01*
X113162708Y-80575367D01*
X112979193Y-80668873D01*
X112812567Y-80789934D01*
X112812564Y-80789936D01*
X112666936Y-80935564D01*
X112666934Y-80935567D01*
X112636424Y-80977561D01*
X112580202Y-81020915D01*
X112534488Y-81029500D01*
X109459371Y-81029500D01*
X109391250Y-81009498D01*
X109370276Y-80992595D01*
X108116019Y-79738338D01*
X108116015Y-79738334D01*
X107991784Y-79655326D01*
X107853747Y-79598149D01*
X107742834Y-79576087D01*
X107707206Y-79569000D01*
X86983794Y-79569000D01*
X86983793Y-79569000D01*
X86965980Y-79572543D01*
X86948166Y-79576087D01*
X86837252Y-79598149D01*
X86837246Y-79598151D01*
X86780076Y-79621831D01*
X86780076Y-79621832D01*
X86710763Y-79650543D01*
X86699216Y-79655326D01*
X86642824Y-79693006D01*
X86574985Y-79738334D01*
X86574979Y-79738339D01*
X84500838Y-81812480D01*
X84500833Y-81812486D01*
X84417826Y-81936715D01*
X84360649Y-82074753D01*
X84360647Y-82074760D01*
X84356521Y-82095499D01*
X84356522Y-82095500D01*
X84331500Y-82221291D01*
X84331500Y-105295487D01*
X84311498Y-105363608D01*
X84279562Y-105397422D01*
X84237570Y-105427931D01*
X84237564Y-105427936D01*
X84091936Y-105573564D01*
X84091934Y-105573567D01*
X83970873Y-105740193D01*
X83877367Y-105923708D01*
X83877364Y-105923714D01*
X83813721Y-106119587D01*
X83813720Y-106119590D01*
X83813720Y-106119592D01*
X83781500Y-106323019D01*
X83781500Y-106528981D01*
X83813720Y-106732408D01*
X83813721Y-106732412D01*
X83860921Y-106877680D01*
X83877366Y-106928290D01*
X83970871Y-107111803D01*
X84091932Y-107278430D01*
X84091934Y-107278432D01*
X84091936Y-107278435D01*
X84237564Y-107424063D01*
X84237567Y-107424065D01*
X84237570Y-107424068D01*
X84404197Y-107545129D01*
X84587710Y-107638634D01*
X84783592Y-107702280D01*
X84987019Y-107734500D01*
X84987022Y-107734500D01*
X85192978Y-107734500D01*
X85192981Y-107734500D01*
X85396408Y-107702280D01*
X85592290Y-107638634D01*
X85775803Y-107545129D01*
X85942430Y-107424068D01*
X86088068Y-107278430D01*
X86209129Y-107111803D01*
X86302634Y-106928290D01*
X86366280Y-106732408D01*
X86398500Y-106528981D01*
X86398500Y-106323019D01*
X86366280Y-106119592D01*
X86302634Y-105923710D01*
X86209129Y-105740197D01*
X86088068Y-105573570D01*
X86088065Y-105573567D01*
X86088063Y-105573564D01*
X85942435Y-105427936D01*
X85942429Y-105427931D01*
X85900438Y-105397422D01*
X85857085Y-105341199D01*
X85848500Y-105295487D01*
X85848500Y-82662371D01*
X85868502Y-82594250D01*
X85885405Y-82573276D01*
X87335776Y-81122905D01*
X87398088Y-81088879D01*
X87424871Y-81086000D01*
X107266129Y-81086000D01*
X107334250Y-81106002D01*
X107355224Y-81122905D01*
X108609485Y-82377166D01*
X108733716Y-82460174D01*
X108871753Y-82517351D01*
X108944891Y-82531899D01*
X109018294Y-82546500D01*
X109018295Y-82546500D01*
X109167705Y-82546500D01*
X112534488Y-82546500D01*
X112602609Y-82566502D01*
X112636423Y-82598438D01*
X112666932Y-82640430D01*
X112666934Y-82640432D01*
X112666936Y-82640435D01*
X112812564Y-82786063D01*
X112812567Y-82786065D01*
X112812570Y-82786068D01*
X112979197Y-82907129D01*
X113162290Y-83000420D01*
X113165329Y-83003290D01*
X113169381Y-83004325D01*
X113190920Y-83027460D01*
X113213904Y-83049168D01*
X113214909Y-83053226D01*
X113217759Y-83056288D01*
X113223372Y-83087401D01*
X113230970Y-83118082D01*
X113229833Y-83123216D01*
X113230364Y-83126156D01*
X113221494Y-83160905D01*
X113207728Y-83194138D01*
X113163179Y-83249419D01*
X113148525Y-83258185D01*
X113079988Y-83293107D01*
X112906993Y-83418796D01*
X112906990Y-83418798D01*
X112755798Y-83569990D01*
X112755796Y-83569993D01*
X112630108Y-83742987D01*
X112533029Y-83933515D01*
X112533026Y-83933521D01*
X112466952Y-84136878D01*
X112466951Y-84136883D01*
X112466951Y-84136884D01*
X112433500Y-84348084D01*
X112433500Y-84561916D01*
X112448849Y-84658824D01*
X112466952Y-84773121D01*
X112533026Y-84976478D01*
X112533028Y-84976483D01*
X112630106Y-85167009D01*
X112755794Y-85340004D01*
X112755796Y-85340006D01*
X112755798Y-85340009D01*
X112906990Y-85491201D01*
X112906993Y-85491203D01*
X112906996Y-85491206D01*
X113079991Y-85616894D01*
X113079996Y-85616896D01*
X113081088Y-85617566D01*
X113081418Y-85617931D01*
X113083996Y-85619804D01*
X113083602Y-85620345D01*
X113128721Y-85670213D01*
X113140328Y-85740255D01*
X113112226Y-85805453D01*
X113083870Y-85830023D01*
X113083996Y-85830196D01*
X113081982Y-85831658D01*
X113081088Y-85832434D01*
X113079987Y-85833108D01*
X112906993Y-85958796D01*
X112906990Y-85958798D01*
X112755798Y-86109990D01*
X112755796Y-86109993D01*
X112630108Y-86282987D01*
X112533029Y-86473515D01*
X112533026Y-86473521D01*
X112466952Y-86676878D01*
X112466951Y-86676883D01*
X112466951Y-86676884D01*
X112433500Y-86888084D01*
X112433500Y-87101916D01*
X112466951Y-87313116D01*
X112466952Y-87313121D01*
X112533026Y-87516478D01*
X112533028Y-87516483D01*
X112630106Y-87707009D01*
X112755794Y-87880004D01*
X112755796Y-87880006D01*
X112755798Y-87880009D01*
X112906990Y-88031201D01*
X112906993Y-88031203D01*
X112906996Y-88031206D01*
X113079991Y-88156894D01*
X113270517Y-88253972D01*
X113460047Y-88315553D01*
X113473155Y-88319812D01*
X113531761Y-88359885D01*
X113559398Y-88425282D01*
X113547291Y-88495238D01*
X113504221Y-88544410D01*
X113377369Y-88629170D01*
X113377361Y-88629176D01*
X113290313Y-88716223D01*
X113228001Y-88750248D01*
X113157185Y-88745182D01*
X113112124Y-88716222D01*
X107469832Y-83073931D01*
X107469830Y-83073929D01*
X107366072Y-83004600D01*
X107250782Y-82956845D01*
X107177083Y-82942185D01*
X107128393Y-82932500D01*
X107128391Y-82932500D01*
X105605503Y-82932500D01*
X105537382Y-82912498D01*
X105516408Y-82895595D01*
X105481137Y-82860324D01*
X105481135Y-82860322D01*
X105332336Y-82760898D01*
X105173789Y-82695225D01*
X105167003Y-82692414D01*
X105167001Y-82692413D01*
X105167000Y-82692413D01*
X105078645Y-82674838D01*
X104991481Y-82657500D01*
X104991479Y-82657500D01*
X104812521Y-82657500D01*
X104812518Y-82657500D01*
X104681771Y-82683507D01*
X104637000Y-82692413D01*
X104636999Y-82692413D01*
X104636996Y-82692414D01*
X104471663Y-82760898D01*
X104337001Y-82850876D01*
X104269248Y-82872090D01*
X104200781Y-82853306D01*
X104196999Y-82850876D01*
X104062336Y-82760898D01*
X103897003Y-82692414D01*
X103897001Y-82692413D01*
X103897000Y-82692413D01*
X103808645Y-82674838D01*
X103721481Y-82657500D01*
X103721479Y-82657500D01*
X103542521Y-82657500D01*
X103542518Y-82657500D01*
X103411771Y-82683507D01*
X103367000Y-82692413D01*
X103366999Y-82692413D01*
X103366996Y-82692414D01*
X103201662Y-82760899D01*
X103052869Y-82860319D01*
X103052862Y-82860324D01*
X102926324Y-82986862D01*
X102926319Y-82986869D01*
X102826899Y-83135662D01*
X102758414Y-83300996D01*
X102723500Y-83476518D01*
X102723500Y-83655481D01*
X102730665Y-83691500D01*
X102753688Y-83807247D01*
X102758414Y-83831003D01*
X102778473Y-83879429D01*
X102826898Y-83996336D01*
X102926322Y-84145135D01*
X103052865Y-84271678D01*
X103201664Y-84371102D01*
X103367000Y-84439587D01*
X103542521Y-84474500D01*
X103592405Y-84474500D01*
X103660526Y-84494502D01*
X103681500Y-84511405D01*
X103990167Y-84820072D01*
X104093925Y-84889401D01*
X104169420Y-84920671D01*
X104169421Y-84920672D01*
X104169422Y-84920672D01*
X104209215Y-84937155D01*
X104331606Y-84961500D01*
X106877007Y-84961500D01*
X106945128Y-84981502D01*
X106966102Y-84998405D01*
X116217768Y-94250071D01*
X116321526Y-94319400D01*
X116436816Y-94367155D01*
X116559207Y-94391500D01*
X116683995Y-94391500D01*
X116684406Y-94391500D01*
X116752527Y-94411502D01*
X116773501Y-94428405D01*
X117000501Y-94655405D01*
X117034527Y-94717717D01*
X117029462Y-94788532D01*
X116986915Y-94845368D01*
X116920395Y-94870179D01*
X116911406Y-94870500D01*
X113983603Y-94870500D01*
X113910568Y-94885028D01*
X113861215Y-94894845D01*
X113861213Y-94894845D01*
X113861212Y-94894846D01*
X113745923Y-94942601D01*
X113642171Y-95011926D01*
X113642164Y-95011931D01*
X112640501Y-96013595D01*
X112578189Y-96047621D01*
X112551406Y-96050500D01*
X111406603Y-96050500D01*
X111333568Y-96065028D01*
X111284215Y-96074845D01*
X111284213Y-96074845D01*
X111284212Y-96074846D01*
X111168923Y-96122601D01*
X111065171Y-96191926D01*
X111065164Y-96191931D01*
X110264501Y-96992595D01*
X110202189Y-97026621D01*
X110175406Y-97029500D01*
X108864433Y-97029500D01*
X108796312Y-97009498D01*
X108749819Y-96955842D01*
X108739715Y-96885568D01*
X108740854Y-96878917D01*
X108744202Y-96862087D01*
X108744202Y-96683129D01*
X108709289Y-96507608D01*
X108640804Y-96342272D01*
X108541380Y-96193473D01*
X108506107Y-96158200D01*
X108472081Y-96095888D01*
X108469202Y-96069105D01*
X108469202Y-95452913D01*
X108469201Y-95452909D01*
X108468881Y-95451298D01*
X108444857Y-95330521D01*
X108412445Y-95252271D01*
X108397103Y-95215231D01*
X108327774Y-95111473D01*
X103600280Y-90383979D01*
X103566254Y-90321667D01*
X103571319Y-90250852D01*
X103613866Y-90194016D01*
X103680386Y-90169205D01*
X103744044Y-90181362D01*
X103798358Y-90207518D01*
X103916084Y-90264212D01*
X103916100Y-90264217D01*
X103916101Y-90264218D01*
X104188775Y-90359631D01*
X104188778Y-90359631D01*
X104188782Y-90359633D01*
X104470450Y-90423922D01*
X104674025Y-90446859D01*
X104757542Y-90456270D01*
X104757544Y-90456270D01*
X105046458Y-90456270D01*
X105121948Y-90447764D01*
X105333550Y-90423922D01*
X105615218Y-90359633D01*
X105671035Y-90340102D01*
X105781464Y-90301461D01*
X105887916Y-90264212D01*
X106148216Y-90138858D01*
X106392844Y-89985148D01*
X106618724Y-89805015D01*
X106823015Y-89600724D01*
X107003148Y-89374844D01*
X107156858Y-89130216D01*
X107282212Y-88869916D01*
X107366450Y-88629176D01*
X107377631Y-88597224D01*
X107377631Y-88597223D01*
X107377633Y-88597218D01*
X107441922Y-88315550D01*
X107473960Y-88031205D01*
X107474270Y-88028457D01*
X107474270Y-87739542D01*
X107463843Y-87647004D01*
X107441922Y-87452450D01*
X107377633Y-87170782D01*
X107358119Y-87115015D01*
X107282218Y-86898101D01*
X107282217Y-86898100D01*
X107282212Y-86898084D01*
X107156858Y-86637784D01*
X107003148Y-86393156D01*
X106862725Y-86217071D01*
X106823012Y-86167272D01*
X106618727Y-85962987D01*
X106392844Y-85782852D01*
X106148220Y-85629144D01*
X106148211Y-85629139D01*
X105887925Y-85503792D01*
X105887920Y-85503790D01*
X105887916Y-85503788D01*
X105887910Y-85503785D01*
X105887898Y-85503781D01*
X105615224Y-85408368D01*
X105333553Y-85344078D01*
X105046458Y-85311730D01*
X105046456Y-85311730D01*
X104757544Y-85311730D01*
X104757542Y-85311730D01*
X104470446Y-85344078D01*
X104188775Y-85408368D01*
X103916101Y-85503781D01*
X103916074Y-85503792D01*
X103655788Y-85629139D01*
X103655779Y-85629144D01*
X103411155Y-85782852D01*
X103185272Y-85962987D01*
X102980987Y-86167272D01*
X102800852Y-86393155D01*
X102647144Y-86637779D01*
X102647139Y-86637788D01*
X102521792Y-86898074D01*
X102521781Y-86898101D01*
X102426368Y-87170775D01*
X102362078Y-87452446D01*
X102329730Y-87739542D01*
X102329730Y-88028457D01*
X102362078Y-88315553D01*
X102387438Y-88426658D01*
X102426367Y-88597218D01*
X102426369Y-88597224D01*
X102426368Y-88597224D01*
X102521781Y-88869898D01*
X102521792Y-88869926D01*
X102604637Y-89041955D01*
X102616172Y-89112008D01*
X102588003Y-89177177D01*
X102529072Y-89216771D01*
X102458090Y-89218219D01*
X102402020Y-89185719D01*
X101889405Y-88673104D01*
X101855379Y-88610792D01*
X101852500Y-88584009D01*
X101852500Y-87237407D01*
X101852499Y-87237403D01*
X101828155Y-87115015D01*
X101780400Y-86999725D01*
X101711071Y-86895967D01*
X101622833Y-86807729D01*
X98531199Y-83716095D01*
X98497173Y-83653783D01*
X98502238Y-83582968D01*
X98544785Y-83526132D01*
X98611305Y-83501321D01*
X98620294Y-83501000D01*
X99699656Y-83501000D01*
X99767777Y-83521002D01*
X99769654Y-83522232D01*
X99899664Y-83609102D01*
X100065000Y-83677587D01*
X100240521Y-83712500D01*
X100240522Y-83712500D01*
X100419478Y-83712500D01*
X100419479Y-83712500D01*
X100595000Y-83677587D01*
X100760336Y-83609102D01*
X100909135Y-83509678D01*
X101035678Y-83383135D01*
X101135102Y-83234336D01*
X101203587Y-83069000D01*
X101238500Y-82893479D01*
X101238500Y-82714521D01*
X101203587Y-82539000D01*
X101135102Y-82373664D01*
X101035678Y-82224865D01*
X100909135Y-82098322D01*
X100760336Y-81998898D01*
X100610217Y-81936716D01*
X100595003Y-81930414D01*
X100595001Y-81930413D01*
X100595000Y-81930413D01*
X100506645Y-81912838D01*
X100419481Y-81895500D01*
X100419479Y-81895500D01*
X100240521Y-81895500D01*
X100240518Y-81895500D01*
X100109771Y-81921507D01*
X100065000Y-81930413D01*
X100064999Y-81930413D01*
X100064996Y-81930414D01*
X99995985Y-81959000D01*
X99911697Y-81993914D01*
X99899662Y-81998899D01*
X99750869Y-82098319D01*
X99750867Y-82098320D01*
X99652091Y-82197096D01*
X99589779Y-82231121D01*
X99562996Y-82234000D01*
X96080503Y-82234000D01*
X96012382Y-82213998D01*
X95991408Y-82197095D01*
X95956137Y-82161824D01*
X95956135Y-82161822D01*
X95807336Y-82062398D01*
X95689280Y-82013497D01*
X95642003Y-81993914D01*
X95642001Y-81993913D01*
X95642000Y-81993913D01*
X95553645Y-81976338D01*
X95466481Y-81959000D01*
X95466479Y-81959000D01*
X95287521Y-81959000D01*
X95287518Y-81959000D01*
X95156771Y-81985007D01*
X95112000Y-81993913D01*
X95111999Y-81993913D01*
X95111996Y-81993914D01*
X94946662Y-82062399D01*
X94797869Y-82161819D01*
X94797862Y-82161824D01*
X94671324Y-82288362D01*
X94671319Y-82288369D01*
X94571899Y-82437162D01*
X94503414Y-82602496D01*
X94503413Y-82602499D01*
X94503413Y-82602500D01*
X94495472Y-82642421D01*
X94468500Y-82778018D01*
X94468500Y-82956981D01*
X94482519Y-83027460D01*
X94502906Y-83129952D01*
X94503414Y-83132503D01*
X94506074Y-83138925D01*
X94571898Y-83297836D01*
X94671322Y-83446635D01*
X94671324Y-83446637D01*
X94706595Y-83481908D01*
X94740621Y-83544220D01*
X94743500Y-83571003D01*
X94743500Y-93919405D01*
X94723498Y-93987526D01*
X94706595Y-94008500D01*
X92306167Y-96408929D01*
X92217931Y-96497164D01*
X92217926Y-96497171D01*
X92148601Y-96600923D01*
X92108139Y-96698607D01*
X92100845Y-96716215D01*
X92096310Y-96739014D01*
X92076500Y-96838603D01*
X92076500Y-98229497D01*
X92056498Y-98297618D01*
X92039595Y-98318592D01*
X92004324Y-98353862D01*
X92004319Y-98353869D01*
X91904899Y-98502662D01*
X91836414Y-98667996D01*
X91801500Y-98843518D01*
X91801500Y-99022481D01*
X91813750Y-99084064D01*
X91836413Y-99198000D01*
X91904898Y-99363336D01*
X92004322Y-99512135D01*
X92130865Y-99638678D01*
X92279664Y-99738102D01*
X92445000Y-99806587D01*
X92620521Y-99841500D01*
X92620522Y-99841500D01*
X92799478Y-99841500D01*
X92799479Y-99841500D01*
X92975000Y-99806587D01*
X93140336Y-99738102D01*
X93289135Y-99638678D01*
X93415678Y-99512135D01*
X93515102Y-99363336D01*
X93583587Y-99198000D01*
X93618500Y-99022479D01*
X93618500Y-98843521D01*
X93583587Y-98668000D01*
X93515102Y-98502664D01*
X93415678Y-98353865D01*
X93380405Y-98318592D01*
X93346379Y-98256280D01*
X93343500Y-98229497D01*
X93343500Y-97215594D01*
X93363502Y-97147473D01*
X93380405Y-97126499D01*
X95869067Y-94637838D01*
X95869067Y-94637837D01*
X95869072Y-94637833D01*
X95938401Y-94534075D01*
X95986155Y-94418784D01*
X95993501Y-94381856D01*
X96010500Y-94296394D01*
X96010500Y-84728826D01*
X96030502Y-84660705D01*
X96084158Y-84614212D01*
X96154432Y-84604108D01*
X96219012Y-84633602D01*
X96241265Y-84658824D01*
X96288038Y-84728826D01*
X96322322Y-84780135D01*
X96448865Y-84906678D01*
X96597664Y-85006102D01*
X96763000Y-85074587D01*
X96938521Y-85109500D01*
X96938522Y-85109500D01*
X97076077Y-85109500D01*
X97144198Y-85129502D01*
X97190691Y-85183158D01*
X97200795Y-85253432D01*
X97199656Y-85260082D01*
X97175500Y-85381518D01*
X97175500Y-85560481D01*
X97186855Y-85617566D01*
X97206031Y-85713972D01*
X97210414Y-85736003D01*
X97217380Y-85752820D01*
X97278898Y-85901336D01*
X97378322Y-86050135D01*
X97504865Y-86176678D01*
X97653664Y-86276102D01*
X97819000Y-86344587D01*
X97994521Y-86379500D01*
X97994522Y-86379500D01*
X98131406Y-86379500D01*
X98199527Y-86399502D01*
X98220501Y-86416405D01*
X100098595Y-88294499D01*
X100113539Y-88321867D01*
X100130396Y-88348096D01*
X100131301Y-88354394D01*
X100132621Y-88356811D01*
X100135500Y-88383594D01*
X100135500Y-88545534D01*
X100115498Y-88613655D01*
X100061842Y-88660148D01*
X99991568Y-88670252D01*
X99961289Y-88661946D01*
X99960006Y-88661414D01*
X99784481Y-88626500D01*
X99784479Y-88626500D01*
X99605521Y-88626500D01*
X99605518Y-88626500D01*
X99474771Y-88652507D01*
X99430000Y-88661413D01*
X99429999Y-88661413D01*
X99429996Y-88661414D01*
X99264662Y-88729899D01*
X99115869Y-88829319D01*
X99115862Y-88829324D01*
X99080592Y-88864595D01*
X99018280Y-88898621D01*
X98991497Y-88901500D01*
X98743603Y-88901500D01*
X98670568Y-88916028D01*
X98621215Y-88925845D01*
X98621213Y-88925845D01*
X98621212Y-88925846D01*
X98505923Y-88973601D01*
X98402171Y-89042926D01*
X98402164Y-89042931D01*
X97424931Y-90020164D01*
X97424926Y-90020171D01*
X97355601Y-90123923D01*
X97314525Y-90223089D01*
X97307845Y-90239215D01*
X97303814Y-90259479D01*
X97283500Y-90361603D01*
X97283500Y-95612701D01*
X97291809Y-95654472D01*
X97307845Y-95735090D01*
X97355600Y-95850380D01*
X97424929Y-95954138D01*
X97424931Y-95954140D01*
X97754595Y-96283804D01*
X97788621Y-96346116D01*
X97791500Y-96372899D01*
X97791500Y-103950606D01*
X97791500Y-104075394D01*
X97815845Y-104197785D01*
X97863600Y-104313075D01*
X97932929Y-104416833D01*
X97932931Y-104416835D01*
X98110296Y-104594200D01*
X98144322Y-104656512D01*
X98147201Y-104683295D01*
X98147201Y-104733180D01*
X98182114Y-104908701D01*
X98250599Y-105074037D01*
X98350023Y-105222836D01*
X98476566Y-105349379D01*
X98500785Y-105365562D01*
X98546313Y-105420036D01*
X98555163Y-105490479D01*
X98524524Y-105554524D01*
X98519880Y-105559422D01*
X95275709Y-108803595D01*
X95213397Y-108837620D01*
X95186614Y-108840500D01*
X94048503Y-108840500D01*
X93980382Y-108820498D01*
X93959408Y-108803595D01*
X93924137Y-108768324D01*
X93924135Y-108768322D01*
X93775336Y-108668898D01*
X93658429Y-108620473D01*
X93610003Y-108600414D01*
X93610001Y-108600413D01*
X93610000Y-108600413D01*
X93521645Y-108582838D01*
X93434481Y-108565500D01*
X93434479Y-108565500D01*
X93255521Y-108565500D01*
X93255518Y-108565500D01*
X93139152Y-108588647D01*
X93080000Y-108600413D01*
X93079999Y-108600413D01*
X93079996Y-108600414D01*
X92914662Y-108668899D01*
X92765869Y-108768319D01*
X92765862Y-108768324D01*
X92639324Y-108894862D01*
X92639319Y-108894869D01*
X92539899Y-109043662D01*
X92471414Y-109208996D01*
X92436500Y-109384518D01*
X92436500Y-109476500D01*
X92416498Y-109544621D01*
X92362842Y-109591114D01*
X92310500Y-109602500D01*
X90107603Y-109602500D01*
X90034568Y-109617028D01*
X89985215Y-109626845D01*
X89985213Y-109626845D01*
X89985212Y-109626846D01*
X89869923Y-109674601D01*
X89766171Y-109743926D01*
X89766164Y-109743931D01*
X80275931Y-119234164D01*
X80275926Y-119234171D01*
X80206601Y-119337923D01*
X80158846Y-119453212D01*
X80134500Y-119575603D01*
X80134500Y-121486727D01*
X80114498Y-121554848D01*
X80060842Y-121601341D01*
X80008500Y-121612727D01*
X79957350Y-121612727D01*
X79896803Y-121619236D01*
X79896795Y-121619238D01*
X79759797Y-121670337D01*
X79759792Y-121670339D01*
X79642738Y-121757965D01*
X79559239Y-121869509D01*
X79502404Y-121912056D01*
X79458371Y-121920000D01*
X76420464Y-121920000D01*
X76352343Y-121899998D01*
X76305850Y-121846342D01*
X76295746Y-121776068D01*
X76325240Y-121711488D01*
X76331369Y-121704905D01*
X76372129Y-121664145D01*
X76454506Y-121581768D01*
X76466000Y-121554019D01*
X76466000Y-121523982D01*
X76466000Y-74747778D01*
X78097500Y-74747778D01*
X78097500Y-74985222D01*
X78133298Y-75211241D01*
X78134645Y-75219746D01*
X78208016Y-75445558D01*
X78208018Y-75445563D01*
X78315815Y-75657127D01*
X78455380Y-75849222D01*
X78455382Y-75849224D01*
X78455384Y-75849227D01*
X78623272Y-76017115D01*
X78623275Y-76017117D01*
X78623278Y-76017120D01*
X78815373Y-76156685D01*
X79026937Y-76264482D01*
X79252759Y-76337856D01*
X79487278Y-76375000D01*
X79487281Y-76375000D01*
X79724719Y-76375000D01*
X79724722Y-76375000D01*
X79959241Y-76337856D01*
X80185063Y-76264482D01*
X80396627Y-76156685D01*
X80588722Y-76017120D01*
X80756620Y-75849222D01*
X80896185Y-75657127D01*
X81003982Y-75445563D01*
X81077356Y-75219741D01*
X81114500Y-74985222D01*
X81114500Y-74747778D01*
X84597500Y-74747778D01*
X84597500Y-74985222D01*
X84633298Y-75211241D01*
X84634645Y-75219746D01*
X84708016Y-75445558D01*
X84708018Y-75445563D01*
X84815815Y-75657127D01*
X84955380Y-75849222D01*
X84955382Y-75849224D01*
X84955384Y-75849227D01*
X85123272Y-76017115D01*
X85123275Y-76017117D01*
X85123278Y-76017120D01*
X85315373Y-76156685D01*
X85526937Y-76264482D01*
X85752759Y-76337856D01*
X85987278Y-76375000D01*
X85987281Y-76375000D01*
X86224719Y-76375000D01*
X86224722Y-76375000D01*
X86459241Y-76337856D01*
X86685063Y-76264482D01*
X86896627Y-76156685D01*
X87088722Y-76017120D01*
X87256620Y-75849222D01*
X87396185Y-75657127D01*
X87503982Y-75445563D01*
X87577356Y-75219741D01*
X87614500Y-74985222D01*
X87614500Y-74747778D01*
X87577356Y-74513259D01*
X87503982Y-74287437D01*
X87396185Y-74075873D01*
X87256620Y-73883778D01*
X87256617Y-73883775D01*
X87256615Y-73883772D01*
X87088727Y-73715884D01*
X87088724Y-73715882D01*
X87088722Y-73715880D01*
X86896627Y-73576315D01*
X86685063Y-73468518D01*
X86685060Y-73468517D01*
X86685058Y-73468516D01*
X86459246Y-73395145D01*
X86459242Y-73395144D01*
X86459241Y-73395144D01*
X86224722Y-73358000D01*
X85987278Y-73358000D01*
X85752759Y-73395144D01*
X85752753Y-73395145D01*
X85526941Y-73468516D01*
X85526935Y-73468519D01*
X85315369Y-73576317D01*
X85123275Y-73715882D01*
X85123272Y-73715884D01*
X84955384Y-73883772D01*
X84955382Y-73883775D01*
X84815817Y-74075869D01*
X84708019Y-74287435D01*
X84708016Y-74287441D01*
X84634645Y-74513253D01*
X84634644Y-74513258D01*
X84634644Y-74513259D01*
X84597500Y-74747778D01*
X81114500Y-74747778D01*
X81077356Y-74513259D01*
X81003982Y-74287437D01*
X80896185Y-74075873D01*
X80756620Y-73883778D01*
X80756617Y-73883775D01*
X80756615Y-73883772D01*
X80588727Y-73715884D01*
X80588724Y-73715882D01*
X80588722Y-73715880D01*
X80396627Y-73576315D01*
X80185063Y-73468518D01*
X80185060Y-73468517D01*
X80185058Y-73468516D01*
X79959246Y-73395145D01*
X79959242Y-73395144D01*
X79959241Y-73395144D01*
X79724722Y-73358000D01*
X79487278Y-73358000D01*
X79252759Y-73395144D01*
X79252753Y-73395145D01*
X79026941Y-73468516D01*
X79026935Y-73468519D01*
X78815369Y-73576317D01*
X78623275Y-73715882D01*
X78623272Y-73715884D01*
X78455384Y-73883772D01*
X78455382Y-73883775D01*
X78315817Y-74075869D01*
X78208019Y-74287435D01*
X78208016Y-74287441D01*
X78134645Y-74513253D01*
X78134644Y-74513258D01*
X78134644Y-74513259D01*
X78097500Y-74747778D01*
X76466000Y-74747778D01*
X76466000Y-70247778D01*
X78097500Y-70247778D01*
X78097500Y-70485222D01*
X78130838Y-70695708D01*
X78134645Y-70719746D01*
X78208016Y-70945558D01*
X78208018Y-70945563D01*
X78315815Y-71157127D01*
X78455380Y-71349222D01*
X78455382Y-71349224D01*
X78455384Y-71349227D01*
X78623272Y-71517115D01*
X78623275Y-71517117D01*
X78623278Y-71517120D01*
X78815373Y-71656685D01*
X79026937Y-71764482D01*
X79252759Y-71837856D01*
X79487278Y-71875000D01*
X79487281Y-71875000D01*
X79724719Y-71875000D01*
X79724722Y-71875000D01*
X79959241Y-71837856D01*
X80185063Y-71764482D01*
X80396627Y-71656685D01*
X80588722Y-71517120D01*
X80756620Y-71349222D01*
X80896185Y-71157127D01*
X81003982Y-70945563D01*
X81077356Y-70719741D01*
X81114500Y-70485222D01*
X81114500Y-70247778D01*
X84597500Y-70247778D01*
X84597500Y-70485222D01*
X84630838Y-70695708D01*
X84634645Y-70719746D01*
X84708016Y-70945558D01*
X84708018Y-70945563D01*
X84815815Y-71157127D01*
X84955380Y-71349222D01*
X84955382Y-71349224D01*
X84955384Y-71349227D01*
X85123272Y-71517115D01*
X85123275Y-71517117D01*
X85123278Y-71517120D01*
X85315373Y-71656685D01*
X85526937Y-71764482D01*
X85752759Y-71837856D01*
X85987278Y-71875000D01*
X85987281Y-71875000D01*
X86224719Y-71875000D01*
X86224722Y-71875000D01*
X86459241Y-71837856D01*
X86685063Y-71764482D01*
X86896627Y-71656685D01*
X87088722Y-71517120D01*
X87256620Y-71349222D01*
X87396185Y-71157127D01*
X87503982Y-70945563D01*
X87577356Y-70719741D01*
X87614500Y-70485222D01*
X87614500Y-70247778D01*
X87587069Y-70074582D01*
X95383500Y-70074582D01*
X95383500Y-70222418D01*
X95412342Y-70367413D01*
X95468916Y-70503995D01*
X95551049Y-70626916D01*
X95655584Y-70731451D01*
X95778505Y-70813584D01*
X95915087Y-70870158D01*
X96060082Y-70899000D01*
X96060087Y-70899000D01*
X96207913Y-70899000D01*
X96207918Y-70899000D01*
X96352913Y-70870158D01*
X96489495Y-70813584D01*
X96612416Y-70731451D01*
X96716951Y-70626916D01*
X96799084Y-70503995D01*
X96855658Y-70367413D01*
X96884500Y-70222418D01*
X96884500Y-70074582D01*
X103363500Y-70074582D01*
X103363500Y-70222418D01*
X103392342Y-70367413D01*
X103448916Y-70503995D01*
X103531049Y-70626916D01*
X103635584Y-70731451D01*
X103758505Y-70813584D01*
X103895087Y-70870158D01*
X104040082Y-70899000D01*
X104040087Y-70899000D01*
X104187913Y-70899000D01*
X104187918Y-70899000D01*
X104332913Y-70870158D01*
X104469495Y-70813584D01*
X104592416Y-70731451D01*
X104696951Y-70626916D01*
X104779084Y-70503995D01*
X104835658Y-70367413D01*
X104859455Y-70247778D01*
X110823000Y-70247778D01*
X110823000Y-70485222D01*
X110856338Y-70695708D01*
X110860145Y-70719746D01*
X110933516Y-70945558D01*
X110933518Y-70945563D01*
X111041315Y-71157127D01*
X111180880Y-71349222D01*
X111180882Y-71349224D01*
X111180884Y-71349227D01*
X111348772Y-71517115D01*
X111348775Y-71517117D01*
X111348778Y-71517120D01*
X111540873Y-71656685D01*
X111752437Y-71764482D01*
X111978259Y-71837856D01*
X112212778Y-71875000D01*
X112212781Y-71875000D01*
X112450219Y-71875000D01*
X112450222Y-71875000D01*
X112684741Y-71837856D01*
X112910563Y-71764482D01*
X113122127Y-71656685D01*
X113314222Y-71517120D01*
X113482120Y-71349222D01*
X113621685Y-71157127D01*
X113729482Y-70945563D01*
X113802856Y-70719741D01*
X113840000Y-70485222D01*
X113840000Y-70247778D01*
X113802856Y-70013259D01*
X113729482Y-69787437D01*
X113621685Y-69575873D01*
X113482120Y-69383778D01*
X113482117Y-69383775D01*
X113482115Y-69383772D01*
X113314227Y-69215884D01*
X113314224Y-69215882D01*
X113314222Y-69215880D01*
X113122127Y-69076315D01*
X112910563Y-68968518D01*
X112910560Y-68968517D01*
X112910558Y-68968516D01*
X112684746Y-68895145D01*
X112684742Y-68895144D01*
X112684741Y-68895144D01*
X112450222Y-68858000D01*
X112212778Y-68858000D01*
X111978259Y-68895144D01*
X111978253Y-68895145D01*
X111752441Y-68968516D01*
X111752435Y-68968519D01*
X111540869Y-69076317D01*
X111348775Y-69215882D01*
X111348772Y-69215884D01*
X111180884Y-69383772D01*
X111180882Y-69383775D01*
X111041317Y-69575869D01*
X110933519Y-69787435D01*
X110933516Y-69787441D01*
X110860145Y-70013253D01*
X110860144Y-70013258D01*
X110860144Y-70013259D01*
X110823000Y-70247778D01*
X104859455Y-70247778D01*
X104864500Y-70222418D01*
X104864500Y-70074582D01*
X104835658Y-69929587D01*
X104779084Y-69793005D01*
X104696951Y-69670084D01*
X104592416Y-69565549D01*
X104469495Y-69483416D01*
X104332916Y-69426843D01*
X104332913Y-69426842D01*
X104187918Y-69398000D01*
X104040082Y-69398000D01*
X103967584Y-69412421D01*
X103895086Y-69426842D01*
X103895083Y-69426843D01*
X103758504Y-69483416D01*
X103635588Y-69565546D01*
X103635581Y-69565551D01*
X103531051Y-69670081D01*
X103531046Y-69670088D01*
X103448916Y-69793004D01*
X103392343Y-69929583D01*
X103392342Y-69929586D01*
X103392342Y-69929587D01*
X103363500Y-70074582D01*
X96884500Y-70074582D01*
X96855658Y-69929587D01*
X96799084Y-69793005D01*
X96716951Y-69670084D01*
X96612416Y-69565549D01*
X96489495Y-69483416D01*
X96352916Y-69426843D01*
X96352913Y-69426842D01*
X96207918Y-69398000D01*
X96060082Y-69398000D01*
X95987584Y-69412421D01*
X95915086Y-69426842D01*
X95915083Y-69426843D01*
X95778504Y-69483416D01*
X95655588Y-69565546D01*
X95655581Y-69565551D01*
X95551051Y-69670081D01*
X95551046Y-69670088D01*
X95468916Y-69793004D01*
X95412343Y-69929583D01*
X95412342Y-69929586D01*
X95412342Y-69929587D01*
X95383500Y-70074582D01*
X87587069Y-70074582D01*
X87577356Y-70013259D01*
X87503982Y-69787437D01*
X87396185Y-69575873D01*
X87256620Y-69383778D01*
X87256617Y-69383775D01*
X87256615Y-69383772D01*
X87088727Y-69215884D01*
X87088724Y-69215882D01*
X87088722Y-69215880D01*
X86896627Y-69076315D01*
X86685063Y-68968518D01*
X86685060Y-68968517D01*
X86685058Y-68968516D01*
X86459246Y-68895145D01*
X86459242Y-68895144D01*
X86459241Y-68895144D01*
X86224722Y-68858000D01*
X85987278Y-68858000D01*
X85752759Y-68895144D01*
X85752753Y-68895145D01*
X85526941Y-68968516D01*
X85526935Y-68968519D01*
X85315369Y-69076317D01*
X85123275Y-69215882D01*
X85123272Y-69215884D01*
X84955384Y-69383772D01*
X84955382Y-69383775D01*
X84815817Y-69575869D01*
X84708019Y-69787435D01*
X84708016Y-69787441D01*
X84634645Y-70013253D01*
X84634644Y-70013258D01*
X84634644Y-70013259D01*
X84597500Y-70247778D01*
X81114500Y-70247778D01*
X81077356Y-70013259D01*
X81003982Y-69787437D01*
X80896185Y-69575873D01*
X80756620Y-69383778D01*
X80756617Y-69383775D01*
X80756615Y-69383772D01*
X80588727Y-69215884D01*
X80588724Y-69215882D01*
X80588722Y-69215880D01*
X80396627Y-69076315D01*
X80185063Y-68968518D01*
X80185060Y-68968517D01*
X80185058Y-68968516D01*
X79959246Y-68895145D01*
X79959242Y-68895144D01*
X79959241Y-68895144D01*
X79724722Y-68858000D01*
X79487278Y-68858000D01*
X79252759Y-68895144D01*
X79252753Y-68895145D01*
X79026941Y-68968516D01*
X79026935Y-68968519D01*
X78815369Y-69076317D01*
X78623275Y-69215882D01*
X78623272Y-69215884D01*
X78455384Y-69383772D01*
X78455382Y-69383775D01*
X78315817Y-69575869D01*
X78208019Y-69787435D01*
X78208016Y-69787441D01*
X78134645Y-70013253D01*
X78134644Y-70013258D01*
X78134644Y-70013259D01*
X78097500Y-70247778D01*
X76466000Y-70247778D01*
X76466000Y-68675690D01*
X76486002Y-68607569D01*
X76502905Y-68586595D01*
X76778095Y-68311405D01*
X76840407Y-68277379D01*
X76867190Y-68274500D01*
X132936810Y-68274500D01*
X133004931Y-68294502D01*
G37*
G04 #@! TD.AperFunction*
G04 #@! TA.AperFunction,Conductor*
G36*
X88022881Y-113368560D02*
G01*
X88036533Y-113369537D01*
X88054547Y-113383022D01*
X88075012Y-113392369D01*
X88082410Y-113403881D01*
X88093368Y-113412084D01*
X88101231Y-113433167D01*
X88113396Y-113452095D01*
X88116598Y-113474365D01*
X88118179Y-113478604D01*
X88118500Y-113487593D01*
X88118500Y-113627481D01*
X88131148Y-113691065D01*
X88152024Y-113796019D01*
X88153414Y-113803003D01*
X88170201Y-113843529D01*
X88221898Y-113968336D01*
X88321322Y-114117135D01*
X88447865Y-114243678D01*
X88596664Y-114343102D01*
X88762000Y-114411587D01*
X88937521Y-114446500D01*
X88937522Y-114446500D01*
X89116478Y-114446500D01*
X89116479Y-114446500D01*
X89230282Y-114423863D01*
X89300994Y-114430191D01*
X89357061Y-114473745D01*
X89380681Y-114540697D01*
X89364355Y-114609791D01*
X89343957Y-114636537D01*
X85444167Y-118536329D01*
X85355931Y-118624564D01*
X85355926Y-118624571D01*
X85306510Y-118698528D01*
X85286600Y-118728325D01*
X85276530Y-118752635D01*
X85239707Y-118841535D01*
X85238845Y-118843615D01*
X85234512Y-118865398D01*
X85214500Y-118966003D01*
X85214500Y-121486727D01*
X85194498Y-121554848D01*
X85140842Y-121601341D01*
X85088500Y-121612727D01*
X85037350Y-121612727D01*
X84976803Y-121619236D01*
X84976795Y-121619238D01*
X84839797Y-121670337D01*
X84839792Y-121670339D01*
X84722738Y-121757965D01*
X84678868Y-121816570D01*
X84622032Y-121859117D01*
X84551216Y-121864181D01*
X84488904Y-121830156D01*
X84477132Y-121816570D01*
X84433261Y-121757965D01*
X84316207Y-121670339D01*
X84316202Y-121670337D01*
X84179204Y-121619238D01*
X84179196Y-121619236D01*
X84118649Y-121612727D01*
X84118638Y-121612727D01*
X84071500Y-121612727D01*
X84003379Y-121592725D01*
X83956886Y-121539069D01*
X83945500Y-121486727D01*
X83945500Y-118877003D01*
X83965502Y-118808882D01*
X83982405Y-118787908D01*
X83992138Y-118778175D01*
X84017678Y-118752635D01*
X84117102Y-118603836D01*
X84185587Y-118438500D01*
X84220500Y-118262979D01*
X84220500Y-118084021D01*
X84185587Y-117908500D01*
X84117102Y-117743164D01*
X84017678Y-117594365D01*
X83951702Y-117528389D01*
X83917677Y-117466076D01*
X83922743Y-117395261D01*
X83951701Y-117350201D01*
X87903405Y-113398498D01*
X87923151Y-113387715D01*
X87940158Y-113372979D01*
X87953705Y-113371031D01*
X87965717Y-113364472D01*
X87988160Y-113366077D01*
X88010432Y-113362875D01*
X88022881Y-113368560D01*
G37*
G04 #@! TD.AperFunction*
G04 #@! TA.AperFunction,Conductor*
G36*
X87672532Y-118203938D02*
G01*
X87729368Y-118246485D01*
X87754179Y-118313005D01*
X87754500Y-118321994D01*
X87754500Y-121486727D01*
X87734498Y-121554848D01*
X87680842Y-121601341D01*
X87628500Y-121612727D01*
X87577350Y-121612727D01*
X87516803Y-121619236D01*
X87516795Y-121619238D01*
X87379797Y-121670337D01*
X87379792Y-121670339D01*
X87262738Y-121757965D01*
X87218868Y-121816570D01*
X87162032Y-121859117D01*
X87091216Y-121864181D01*
X87028904Y-121830156D01*
X87017132Y-121816570D01*
X86973261Y-121757965D01*
X86856207Y-121670339D01*
X86856202Y-121670337D01*
X86719204Y-121619238D01*
X86719196Y-121619236D01*
X86658649Y-121612727D01*
X86658638Y-121612727D01*
X86607500Y-121612727D01*
X86539379Y-121592725D01*
X86492886Y-121539069D01*
X86481500Y-121486727D01*
X86481500Y-119342994D01*
X86501502Y-119274873D01*
X86518405Y-119253899D01*
X87539405Y-118232899D01*
X87601717Y-118198873D01*
X87672532Y-118203938D01*
G37*
G04 #@! TD.AperFunction*
G04 #@! TA.AperFunction,Conductor*
G36*
X95860780Y-114445502D02*
G01*
X95907273Y-114499158D01*
X95917377Y-114569432D01*
X95887883Y-114634012D01*
X95881754Y-114640595D01*
X93521501Y-117000848D01*
X93459189Y-117034874D01*
X93432406Y-117037753D01*
X93382518Y-117037753D01*
X93251771Y-117063760D01*
X93207000Y-117072666D01*
X93206999Y-117072666D01*
X93206996Y-117072667D01*
X93041662Y-117141152D01*
X92892869Y-117240572D01*
X92892862Y-117240577D01*
X92766324Y-117367115D01*
X92766319Y-117367122D01*
X92666899Y-117515915D01*
X92598414Y-117681249D01*
X92598413Y-117681252D01*
X92598413Y-117681253D01*
X92597253Y-117687085D01*
X92563500Y-117856771D01*
X92563500Y-118035734D01*
X92578507Y-118111178D01*
X92598413Y-118211253D01*
X92666898Y-118376589D01*
X92766322Y-118525388D01*
X92766324Y-118525390D01*
X92866891Y-118625957D01*
X92900917Y-118688269D01*
X92895852Y-118759084D01*
X92853305Y-118815920D01*
X92786785Y-118840731D01*
X92777796Y-118841052D01*
X91537051Y-118841052D01*
X91466862Y-118855014D01*
X91414663Y-118865397D01*
X91414661Y-118865397D01*
X91414660Y-118865398D01*
X91299371Y-118913153D01*
X91195619Y-118982478D01*
X91195612Y-118982483D01*
X90435931Y-119742164D01*
X90435926Y-119742171D01*
X90373842Y-119835087D01*
X90366600Y-119845925D01*
X90350633Y-119884472D01*
X90318846Y-119961212D01*
X90294500Y-120083603D01*
X90294500Y-121486727D01*
X90274498Y-121554848D01*
X90220842Y-121601341D01*
X90168500Y-121612727D01*
X90117350Y-121612727D01*
X90056803Y-121619236D01*
X90056795Y-121619238D01*
X89919797Y-121670337D01*
X89919792Y-121670339D01*
X89802738Y-121757965D01*
X89758868Y-121816570D01*
X89702032Y-121859117D01*
X89631216Y-121864181D01*
X89568904Y-121830156D01*
X89557132Y-121816570D01*
X89513261Y-121757965D01*
X89396207Y-121670339D01*
X89396202Y-121670337D01*
X89259204Y-121619238D01*
X89259196Y-121619236D01*
X89198649Y-121612727D01*
X89198638Y-121612727D01*
X89147500Y-121612727D01*
X89079379Y-121592725D01*
X89032886Y-121539069D01*
X89021500Y-121486727D01*
X89021500Y-119996000D01*
X89041502Y-119927879D01*
X89095158Y-119881386D01*
X89147500Y-119870000D01*
X89243478Y-119870000D01*
X89243479Y-119870000D01*
X89419000Y-119835087D01*
X89584336Y-119766602D01*
X89733135Y-119667178D01*
X89859678Y-119540635D01*
X89959102Y-119391836D01*
X90027587Y-119226500D01*
X90062500Y-119050979D01*
X90062500Y-119001094D01*
X90082502Y-118932973D01*
X90099405Y-118911999D01*
X94548999Y-114462405D01*
X94611311Y-114428379D01*
X94638094Y-114425500D01*
X95792659Y-114425500D01*
X95860780Y-114445502D01*
G37*
G04 #@! TD.AperFunction*
G04 #@! TA.AperFunction,Conductor*
G36*
X101026027Y-116742502D02*
G01*
X101072520Y-116796158D01*
X101082624Y-116866432D01*
X101053130Y-116931012D01*
X101047001Y-116937595D01*
X98055931Y-119928664D01*
X98055926Y-119928671D01*
X97989642Y-120027873D01*
X97986600Y-120032425D01*
X97975965Y-120058100D01*
X97947597Y-120126587D01*
X97938845Y-120147715D01*
X97929368Y-120195360D01*
X97914500Y-120270103D01*
X97914500Y-121486727D01*
X97894498Y-121554848D01*
X97840842Y-121601341D01*
X97788500Y-121612727D01*
X97737350Y-121612727D01*
X97676803Y-121619236D01*
X97676795Y-121619238D01*
X97539797Y-121670337D01*
X97539792Y-121670339D01*
X97422738Y-121757965D01*
X97378868Y-121816570D01*
X97322032Y-121859117D01*
X97251216Y-121864181D01*
X97188904Y-121830156D01*
X97177132Y-121816570D01*
X97133261Y-121757965D01*
X97016207Y-121670339D01*
X97016202Y-121670337D01*
X96879204Y-121619238D01*
X96879196Y-121619236D01*
X96818649Y-121612727D01*
X96818638Y-121612727D01*
X96767500Y-121612727D01*
X96699379Y-121592725D01*
X96652886Y-121539069D01*
X96641500Y-121486727D01*
X96641500Y-119166590D01*
X96661502Y-119098469D01*
X96678405Y-119077495D01*
X98996495Y-116759405D01*
X99058807Y-116725379D01*
X99085590Y-116722500D01*
X100957906Y-116722500D01*
X101026027Y-116742502D01*
G37*
G04 #@! TD.AperFunction*
G04 #@! TA.AperFunction,Conductor*
G36*
X109550012Y-119971370D02*
G01*
X109556595Y-119977499D01*
X110581595Y-121002499D01*
X110615621Y-121064811D01*
X110618500Y-121091594D01*
X110618500Y-121486727D01*
X110598498Y-121554848D01*
X110544842Y-121601341D01*
X110492500Y-121612727D01*
X110437350Y-121612727D01*
X110376803Y-121619236D01*
X110376795Y-121619238D01*
X110239797Y-121670337D01*
X110239792Y-121670339D01*
X110122738Y-121757965D01*
X110078868Y-121816570D01*
X110022032Y-121859117D01*
X109951216Y-121864181D01*
X109888904Y-121830156D01*
X109877132Y-121816570D01*
X109833261Y-121757965D01*
X109716207Y-121670339D01*
X109716202Y-121670337D01*
X109579204Y-121619238D01*
X109579196Y-121619236D01*
X109518649Y-121612727D01*
X109518638Y-121612727D01*
X109467500Y-121612727D01*
X109399379Y-121592725D01*
X109352886Y-121539069D01*
X109341500Y-121486727D01*
X109341500Y-120066594D01*
X109361502Y-119998473D01*
X109415158Y-119951980D01*
X109485432Y-119941876D01*
X109550012Y-119971370D01*
G37*
G04 #@! TD.AperFunction*
G04 #@! TA.AperFunction,Conductor*
G36*
X113094731Y-117172702D02*
G01*
X113142168Y-117225525D01*
X113154500Y-117279891D01*
X113154500Y-121486727D01*
X113134498Y-121554848D01*
X113080842Y-121601341D01*
X113028500Y-121612727D01*
X112977350Y-121612727D01*
X112916803Y-121619236D01*
X112916795Y-121619238D01*
X112779797Y-121670337D01*
X112779792Y-121670339D01*
X112662738Y-121757965D01*
X112618868Y-121816570D01*
X112562032Y-121859117D01*
X112491216Y-121864181D01*
X112428904Y-121830156D01*
X112417132Y-121816570D01*
X112373261Y-121757965D01*
X112256207Y-121670339D01*
X112256202Y-121670337D01*
X112119204Y-121619238D01*
X112119196Y-121619236D01*
X112058649Y-121612727D01*
X112058638Y-121612727D01*
X112011500Y-121612727D01*
X111943379Y-121592725D01*
X111896886Y-121539069D01*
X111885500Y-121486727D01*
X111885500Y-120714607D01*
X111885499Y-120714603D01*
X111861155Y-120592215D01*
X111813400Y-120476925D01*
X111744071Y-120373167D01*
X111655833Y-120284929D01*
X111626200Y-120255296D01*
X111592174Y-120192984D01*
X111597239Y-120122169D01*
X111639786Y-120065333D01*
X111645277Y-120061446D01*
X111666035Y-120047577D01*
X111792578Y-119921034D01*
X111892002Y-119772235D01*
X111960487Y-119606899D01*
X111995400Y-119431378D01*
X111995400Y-119252420D01*
X111970227Y-119125867D01*
X111976555Y-119055156D01*
X112020109Y-118999089D01*
X112069224Y-118977709D01*
X112228200Y-118946087D01*
X112393536Y-118877602D01*
X112542335Y-118778178D01*
X112668878Y-118651635D01*
X112768302Y-118502836D01*
X112836787Y-118337500D01*
X112871700Y-118161979D01*
X112871700Y-117989158D01*
X112876230Y-117958612D01*
X112875947Y-117958556D01*
X112877096Y-117952777D01*
X112877125Y-117952585D01*
X112877153Y-117952491D01*
X112877153Y-117952488D01*
X112877155Y-117952485D01*
X112901500Y-117830094D01*
X112901500Y-117705307D01*
X112901500Y-117280559D01*
X112903774Y-117272812D01*
X112902484Y-117264841D01*
X112913633Y-117239234D01*
X112921502Y-117212438D01*
X112928326Y-117205491D01*
X112930828Y-117199747D01*
X112957507Y-117175787D01*
X112958512Y-117175116D01*
X113026267Y-117153911D01*
X113094731Y-117172702D01*
G37*
G04 #@! TD.AperFunction*
G04 #@! TA.AperFunction,Conductor*
G36*
X114630012Y-115297560D02*
G01*
X114636595Y-115303689D01*
X115763195Y-116430289D01*
X115797221Y-116492601D01*
X115800100Y-116519384D01*
X115800100Y-121486727D01*
X115780098Y-121554848D01*
X115726442Y-121601341D01*
X115674100Y-121612727D01*
X115517350Y-121612727D01*
X115456803Y-121619236D01*
X115456795Y-121619238D01*
X115319797Y-121670337D01*
X115319792Y-121670339D01*
X115202738Y-121757965D01*
X115158868Y-121816570D01*
X115102032Y-121859117D01*
X115031216Y-121864181D01*
X114968904Y-121830156D01*
X114957132Y-121816570D01*
X114913261Y-121757965D01*
X114796207Y-121670339D01*
X114796202Y-121670337D01*
X114659204Y-121619238D01*
X114659196Y-121619236D01*
X114598649Y-121612727D01*
X114598638Y-121612727D01*
X114547500Y-121612727D01*
X114479379Y-121592725D01*
X114432886Y-121539069D01*
X114421500Y-121486727D01*
X114421500Y-115392784D01*
X114441502Y-115324663D01*
X114495158Y-115278170D01*
X114565432Y-115268066D01*
X114630012Y-115297560D01*
G37*
G04 #@! TD.AperFunction*
G04 #@! TA.AperFunction,Conductor*
G36*
X115361041Y-113357938D02*
G01*
X115406104Y-113386899D01*
X118197595Y-116178390D01*
X118231621Y-116240702D01*
X118234500Y-116267485D01*
X118234500Y-121486727D01*
X118214498Y-121554848D01*
X118160842Y-121601341D01*
X118108500Y-121612727D01*
X118057350Y-121612727D01*
X117996803Y-121619236D01*
X117996795Y-121619238D01*
X117859797Y-121670337D01*
X117859792Y-121670339D01*
X117742738Y-121757965D01*
X117698868Y-121816570D01*
X117642032Y-121859117D01*
X117571216Y-121864181D01*
X117508904Y-121830156D01*
X117497132Y-121816570D01*
X117453261Y-121757965D01*
X117336207Y-121670339D01*
X117336202Y-121670337D01*
X117199204Y-121619238D01*
X117199197Y-121619237D01*
X117179629Y-121617133D01*
X117114037Y-121589963D01*
X117073547Y-121531644D01*
X117067100Y-121491855D01*
X117067100Y-116142397D01*
X117067099Y-116142393D01*
X117042755Y-116020005D01*
X116995000Y-115904715D01*
X116925671Y-115800957D01*
X116837433Y-115712719D01*
X114920733Y-113796019D01*
X114886707Y-113733707D01*
X114891772Y-113662892D01*
X114934319Y-113606056D01*
X114961611Y-113590515D01*
X114984336Y-113581102D01*
X115133135Y-113481678D01*
X115227914Y-113386899D01*
X115290226Y-113352873D01*
X115361041Y-113357938D01*
G37*
G04 #@! TD.AperFunction*
G04 #@! TA.AperFunction,Conductor*
G36*
X118416637Y-113350339D02*
G01*
X118461701Y-113379300D01*
X120436795Y-115354394D01*
X120470821Y-115416706D01*
X120473700Y-115443489D01*
X120473700Y-121555289D01*
X120453698Y-121623410D01*
X120406686Y-121664145D01*
X120407708Y-121666017D01*
X120399799Y-121670335D01*
X120282738Y-121757965D01*
X120238868Y-121816570D01*
X120182032Y-121859117D01*
X120111216Y-121864181D01*
X120048904Y-121830156D01*
X120037132Y-121816570D01*
X119993261Y-121757965D01*
X119876207Y-121670339D01*
X119876202Y-121670337D01*
X119739204Y-121619238D01*
X119739196Y-121619236D01*
X119678649Y-121612727D01*
X119678638Y-121612727D01*
X119627500Y-121612727D01*
X119559379Y-121592725D01*
X119512886Y-121539069D01*
X119501500Y-121486727D01*
X119501500Y-115890498D01*
X119501499Y-115890494D01*
X119499385Y-115879865D01*
X119477155Y-115768106D01*
X119429400Y-115652816D01*
X119360071Y-115549058D01*
X119271833Y-115460820D01*
X117646754Y-113835741D01*
X117612728Y-113773429D01*
X117617793Y-113702614D01*
X117660340Y-113645778D01*
X117726860Y-113620967D01*
X117735849Y-113620646D01*
X117755331Y-113620646D01*
X117755332Y-113620646D01*
X117930853Y-113585733D01*
X118096189Y-113517248D01*
X118244988Y-113417824D01*
X118283512Y-113379299D01*
X118345821Y-113345275D01*
X118416637Y-113350339D01*
G37*
G04 #@! TD.AperFunction*
G04 #@! TA.AperFunction,Conductor*
G36*
X121949212Y-120000770D02*
G01*
X121955795Y-120006899D01*
X123277595Y-121328699D01*
X123292539Y-121356067D01*
X123309396Y-121382296D01*
X123310301Y-121388594D01*
X123311621Y-121391011D01*
X123314500Y-121417794D01*
X123314500Y-121486727D01*
X123294498Y-121554848D01*
X123240842Y-121601341D01*
X123188500Y-121612727D01*
X123137350Y-121612727D01*
X123076803Y-121619236D01*
X123076795Y-121619238D01*
X122939797Y-121670337D01*
X122939792Y-121670339D01*
X122822738Y-121757965D01*
X122778868Y-121816570D01*
X122722032Y-121859117D01*
X122651216Y-121864181D01*
X122588904Y-121830156D01*
X122577132Y-121816570D01*
X122533261Y-121757965D01*
X122416207Y-121670339D01*
X122416202Y-121670337D01*
X122279204Y-121619238D01*
X122279196Y-121619236D01*
X122218649Y-121612727D01*
X122218638Y-121612727D01*
X121866700Y-121612727D01*
X121798579Y-121592725D01*
X121752086Y-121539069D01*
X121740700Y-121486727D01*
X121740700Y-120095994D01*
X121760702Y-120027873D01*
X121814358Y-119981380D01*
X121884632Y-119971276D01*
X121949212Y-120000770D01*
G37*
G04 #@! TD.AperFunction*
G04 #@! TA.AperFunction,Conductor*
G36*
X122399212Y-116742370D02*
G01*
X122405795Y-116748499D01*
X125817595Y-120160299D01*
X125851621Y-120222611D01*
X125854500Y-120249394D01*
X125854500Y-121486727D01*
X125834498Y-121554848D01*
X125780842Y-121601341D01*
X125728500Y-121612727D01*
X125677350Y-121612727D01*
X125616803Y-121619236D01*
X125616795Y-121619238D01*
X125479797Y-121670337D01*
X125479792Y-121670339D01*
X125362738Y-121757965D01*
X125318868Y-121816570D01*
X125262032Y-121859117D01*
X125191216Y-121864181D01*
X125128904Y-121830156D01*
X125117132Y-121816570D01*
X125073261Y-121757965D01*
X124956207Y-121670339D01*
X124956202Y-121670337D01*
X124819204Y-121619238D01*
X124819196Y-121619236D01*
X124758649Y-121612727D01*
X124758638Y-121612727D01*
X124707500Y-121612727D01*
X124639379Y-121592725D01*
X124592886Y-121539069D01*
X124581500Y-121486727D01*
X124581500Y-121040807D01*
X124581499Y-121040803D01*
X124573880Y-121002499D01*
X124557155Y-120918415D01*
X124509400Y-120803125D01*
X124440071Y-120699367D01*
X124351833Y-120611129D01*
X123407879Y-119667175D01*
X122439238Y-118698533D01*
X122439234Y-118698530D01*
X122439233Y-118698529D01*
X122381426Y-118659903D01*
X122362333Y-118644233D01*
X122227605Y-118509505D01*
X122193579Y-118447193D01*
X122190700Y-118420410D01*
X122190700Y-116837594D01*
X122210702Y-116769473D01*
X122264358Y-116722980D01*
X122334632Y-116712876D01*
X122399212Y-116742370D01*
G37*
G04 #@! TD.AperFunction*
G04 #@! TA.AperFunction,Conductor*
G36*
X128074327Y-120490702D02*
G01*
X128095301Y-120507605D01*
X128357595Y-120769899D01*
X128391621Y-120832211D01*
X128394500Y-120858994D01*
X128394500Y-121486727D01*
X128374498Y-121554848D01*
X128320842Y-121601341D01*
X128268500Y-121612727D01*
X128217350Y-121612727D01*
X128156803Y-121619236D01*
X128156795Y-121619238D01*
X128019797Y-121670337D01*
X128019792Y-121670339D01*
X127902738Y-121757965D01*
X127858868Y-121816570D01*
X127802032Y-121859117D01*
X127731216Y-121864181D01*
X127668904Y-121830156D01*
X127657132Y-121816570D01*
X127613261Y-121757965D01*
X127496207Y-121670339D01*
X127496202Y-121670337D01*
X127359204Y-121619238D01*
X127359196Y-121619236D01*
X127298649Y-121612727D01*
X127298638Y-121612727D01*
X127247500Y-121612727D01*
X127179379Y-121592725D01*
X127132886Y-121539069D01*
X127121500Y-121486727D01*
X127121500Y-120596700D01*
X127141502Y-120528579D01*
X127195158Y-120482086D01*
X127247500Y-120470700D01*
X127264887Y-120470700D01*
X128006206Y-120470700D01*
X128074327Y-120490702D01*
G37*
G04 #@! TD.AperFunction*
G04 #@! TA.AperFunction,Conductor*
G36*
X111091468Y-117526434D02*
G01*
X111138911Y-117579251D01*
X111150268Y-117649334D01*
X111141659Y-117681849D01*
X111089614Y-117807494D01*
X111054700Y-117983018D01*
X111054700Y-118161984D01*
X111079872Y-118288529D01*
X111073544Y-118359243D01*
X111029990Y-118415310D01*
X110980875Y-118436689D01*
X110821894Y-118468313D01*
X110654818Y-118537519D01*
X110584228Y-118545108D01*
X110520741Y-118513329D01*
X110517505Y-118510205D01*
X110126342Y-118119042D01*
X110124623Y-118115894D01*
X110121572Y-118114003D01*
X110107732Y-118084961D01*
X110092316Y-118056730D01*
X110092572Y-118053149D01*
X110091029Y-118049912D01*
X110095085Y-118018008D01*
X110097381Y-117985915D01*
X110099664Y-117981993D01*
X110099984Y-117979483D01*
X110107783Y-117968050D01*
X110118878Y-117949000D01*
X110122424Y-117944769D01*
X110210860Y-117856334D01*
X110267012Y-117772295D01*
X110271407Y-117767053D01*
X110295482Y-117751019D01*
X110317677Y-117732471D01*
X110325908Y-117730757D01*
X110330499Y-117727700D01*
X110341450Y-117727521D01*
X110367966Y-117722000D01*
X110480091Y-117722000D01*
X110480092Y-117722000D01*
X110655613Y-117687087D01*
X110820949Y-117618602D01*
X110955249Y-117528865D01*
X111023001Y-117507651D01*
X111091468Y-117526434D01*
G37*
G04 #@! TD.AperFunction*
G04 #@! TA.AperFunction,Conductor*
G36*
X97579730Y-114895502D02*
G01*
X97626223Y-114949158D01*
X97636327Y-115019432D01*
X97606833Y-115084012D01*
X97600704Y-115090595D01*
X94595595Y-118095703D01*
X94575848Y-118106485D01*
X94558842Y-118121222D01*
X94545294Y-118123169D01*
X94533283Y-118129729D01*
X94510839Y-118128123D01*
X94488568Y-118131326D01*
X94476118Y-118125640D01*
X94462467Y-118124664D01*
X94444452Y-118111178D01*
X94423988Y-118101832D01*
X94416589Y-118090319D01*
X94405632Y-118082117D01*
X94397768Y-118061033D01*
X94385604Y-118042106D01*
X94382401Y-118019835D01*
X94380821Y-118015597D01*
X94380500Y-118006608D01*
X94380500Y-117985847D01*
X94400502Y-117917726D01*
X94417405Y-117896752D01*
X97401752Y-114912405D01*
X97464064Y-114878379D01*
X97490847Y-114875500D01*
X97511609Y-114875500D01*
X97579730Y-114895502D01*
G37*
G04 #@! TD.AperFunction*
G04 #@! TA.AperFunction,Conductor*
G36*
X106271142Y-108597082D02*
G01*
X106285685Y-108609564D01*
X107518353Y-109842232D01*
X107606591Y-109930470D01*
X107710349Y-109999799D01*
X107825639Y-110047554D01*
X107948030Y-110071899D01*
X108615805Y-110071899D01*
X108683926Y-110091901D01*
X108704900Y-110108804D01*
X111716997Y-113120901D01*
X111751023Y-113183213D01*
X111745958Y-113254028D01*
X111716998Y-113299091D01*
X111602820Y-113413270D01*
X111602819Y-113413272D01*
X111507118Y-113556500D01*
X111503398Y-113562067D01*
X111490039Y-113594319D01*
X111434914Y-113727399D01*
X111400000Y-113902921D01*
X111400000Y-113952807D01*
X111379998Y-114020928D01*
X111363096Y-114041902D01*
X110886404Y-114518595D01*
X110824091Y-114552620D01*
X110797308Y-114555500D01*
X108389008Y-114555500D01*
X108320887Y-114535498D01*
X108274394Y-114481842D01*
X108264290Y-114411568D01*
X108265429Y-114404918D01*
X108268500Y-114389479D01*
X108268500Y-114210521D01*
X108233587Y-114035000D01*
X108165102Y-113869664D01*
X108065678Y-113720865D01*
X107939135Y-113594322D01*
X107790336Y-113494898D01*
X107708532Y-113461013D01*
X107653253Y-113416465D01*
X107630832Y-113349101D01*
X107648391Y-113280310D01*
X107651977Y-113274618D01*
X107697602Y-113206336D01*
X107766087Y-113041000D01*
X107801000Y-112865479D01*
X107801000Y-112686521D01*
X107766087Y-112511000D01*
X107697602Y-112345664D01*
X107598178Y-112196865D01*
X107471635Y-112070322D01*
X107322836Y-111970898D01*
X107205929Y-111922473D01*
X107157503Y-111902414D01*
X107157501Y-111902413D01*
X107157500Y-111902413D01*
X107069145Y-111884838D01*
X106981981Y-111867500D01*
X106981979Y-111867500D01*
X106803021Y-111867500D01*
X106803018Y-111867500D01*
X106672271Y-111893507D01*
X106627500Y-111902413D01*
X106627499Y-111902413D01*
X106627496Y-111902414D01*
X106462162Y-111970899D01*
X106313369Y-112070319D01*
X106313362Y-112070324D01*
X106227292Y-112156395D01*
X106164980Y-112190421D01*
X106138197Y-112193300D01*
X103003190Y-112193300D01*
X102935069Y-112173298D01*
X102888576Y-112119642D01*
X102878472Y-112049368D01*
X102907966Y-111984788D01*
X102914095Y-111978205D01*
X104199988Y-110692313D01*
X105648072Y-109244229D01*
X105717401Y-109140471D01*
X105761227Y-109034664D01*
X105765155Y-109025181D01*
X105767894Y-109011406D01*
X105769850Y-109005110D01*
X105785991Y-108980828D01*
X105799503Y-108954991D01*
X105807744Y-108948103D01*
X105809153Y-108945985D01*
X105811520Y-108944947D01*
X105820182Y-108937709D01*
X105862135Y-108909678D01*
X105988678Y-108783135D01*
X106088102Y-108634336D01*
X106088102Y-108634335D01*
X106091541Y-108629189D01*
X106093859Y-108630738D01*
X106135162Y-108588647D01*
X106204391Y-108572901D01*
X106271142Y-108597082D01*
G37*
G04 #@! TD.AperFunction*
G04 #@! TA.AperFunction,Conductor*
G36*
X91376326Y-112540502D02*
G01*
X91422819Y-112594158D01*
X91432923Y-112664432D01*
X91403429Y-112729012D01*
X91397300Y-112735595D01*
X91114135Y-113018759D01*
X91114123Y-113018774D01*
X91102280Y-113036497D01*
X91086614Y-113055585D01*
X90936616Y-113205583D01*
X90874304Y-113239609D01*
X90872106Y-113240066D01*
X90835020Y-113247443D01*
X90835010Y-113247446D01*
X90809158Y-113258154D01*
X90809159Y-113258155D01*
X90732299Y-113289991D01*
X90719723Y-113295200D01*
X90615967Y-113364527D01*
X90125537Y-113854957D01*
X90098721Y-113869599D01*
X90073205Y-113886378D01*
X90067891Y-113886433D01*
X90063225Y-113888982D01*
X90032745Y-113886802D01*
X90002213Y-113887122D01*
X89997713Y-113884296D01*
X89992409Y-113883917D01*
X89967952Y-113865608D01*
X89942087Y-113849367D01*
X89939827Y-113844554D01*
X89935574Y-113841370D01*
X89924901Y-113812755D01*
X89911919Y-113785099D01*
X89912064Y-113778339D01*
X89910763Y-113774850D01*
X89911543Y-113749237D01*
X89912072Y-113745256D01*
X89935500Y-113627479D01*
X89935500Y-113569242D01*
X89936601Y-113560970D01*
X89947758Y-113535845D01*
X89955502Y-113509473D01*
X89964341Y-113498504D01*
X89965416Y-113496084D01*
X89967278Y-113494859D01*
X89972400Y-113488503D01*
X90903502Y-112557402D01*
X90965812Y-112523379D01*
X90992595Y-112520500D01*
X91308205Y-112520500D01*
X91376326Y-112540502D01*
G37*
G04 #@! TD.AperFunction*
G04 #@! TA.AperFunction,Conductor*
G36*
X106311270Y-113480302D02*
G01*
X106313151Y-113481535D01*
X106313364Y-113481677D01*
X106313365Y-113481678D01*
X106462164Y-113581102D01*
X106543965Y-113614985D01*
X106599246Y-113659533D01*
X106621667Y-113726897D01*
X106604109Y-113795688D01*
X106600516Y-113801390D01*
X106592923Y-113812755D01*
X106585121Y-113824431D01*
X106574398Y-113833393D01*
X106567426Y-113845508D01*
X106547694Y-113855713D01*
X106530649Y-113869961D01*
X106513073Y-113873620D01*
X106504365Y-113878125D01*
X106495465Y-113877287D01*
X106480354Y-113880434D01*
X104638937Y-113880434D01*
X104570816Y-113860432D01*
X104549842Y-113843529D01*
X104465137Y-113758824D01*
X104465131Y-113758819D01*
X104389158Y-113708056D01*
X104363728Y-113691064D01*
X104318202Y-113636589D01*
X104309353Y-113566145D01*
X104339994Y-113502101D01*
X104400396Y-113464790D01*
X104433731Y-113460300D01*
X106243149Y-113460300D01*
X106311270Y-113480302D01*
G37*
G04 #@! TD.AperFunction*
G04 #@! TA.AperFunction,Conductor*
G36*
X95492908Y-110873786D02*
G01*
X95510879Y-110875394D01*
X95525244Y-110886552D01*
X95542162Y-110893231D01*
X95552698Y-110907877D01*
X95566948Y-110918946D01*
X95573000Y-110936099D01*
X95583622Y-110950865D01*
X95584567Y-110968884D01*
X95590570Y-110985898D01*
X95586388Y-111003598D01*
X95587341Y-111021764D01*
X95574279Y-111054848D01*
X95574246Y-111054992D01*
X95574183Y-111055093D01*
X95574172Y-111055122D01*
X95571976Y-111058967D01*
X95520797Y-111135563D01*
X95501118Y-111183069D01*
X95497176Y-111189975D01*
X95477099Y-111209303D01*
X95459615Y-111231000D01*
X95451892Y-111233570D01*
X95446029Y-111239215D01*
X95403907Y-111249540D01*
X95392251Y-111253420D01*
X95390208Y-111252898D01*
X95387755Y-111253500D01*
X90615603Y-111253500D01*
X90493217Y-111277844D01*
X90493215Y-111277845D01*
X90476753Y-111284664D01*
X90377924Y-111325599D01*
X90274167Y-111394927D01*
X90073500Y-111595595D01*
X89076499Y-112592596D01*
X89049133Y-112607539D01*
X89022904Y-112624396D01*
X89016602Y-112625302D01*
X89014189Y-112626620D01*
X88987406Y-112629500D01*
X88976593Y-112629500D01*
X88908472Y-112609498D01*
X88861979Y-112555842D01*
X88851875Y-112485568D01*
X88881369Y-112420988D01*
X88887498Y-112414405D01*
X89617334Y-111684570D01*
X90395499Y-110906405D01*
X90457811Y-110872379D01*
X90484594Y-110869500D01*
X95437997Y-110869500D01*
X95437998Y-110869500D01*
X95440164Y-110869069D01*
X95441322Y-110869172D01*
X95444162Y-110868893D01*
X95444215Y-110869431D01*
X95458280Y-110870689D01*
X95476125Y-110867161D01*
X95492908Y-110873786D01*
G37*
G04 #@! TD.AperFunction*
G04 #@! TA.AperFunction,Conductor*
G36*
X115181495Y-104290831D02*
G01*
X115230801Y-104321289D01*
X121344595Y-110435083D01*
X121378621Y-110497395D01*
X121381500Y-110524178D01*
X121381500Y-112063399D01*
X121361498Y-112131520D01*
X121307842Y-112178013D01*
X121237568Y-112188117D01*
X121185499Y-112168165D01*
X121080336Y-112097898D01*
X120915003Y-112029414D01*
X120915001Y-112029413D01*
X120915000Y-112029413D01*
X120826645Y-112011838D01*
X120739481Y-111994500D01*
X120739479Y-111994500D01*
X120560521Y-111994500D01*
X120560518Y-111994500D01*
X120384999Y-112029413D01*
X120384990Y-112029416D01*
X120315287Y-112058288D01*
X120244698Y-112065877D01*
X120181211Y-112034097D01*
X120177975Y-112030974D01*
X117093429Y-108946428D01*
X117093427Y-108946426D01*
X116989669Y-108877097D01*
X116874379Y-108829342D01*
X116800680Y-108814682D01*
X116751990Y-108804997D01*
X116751988Y-108804997D01*
X116357091Y-108804997D01*
X116288970Y-108784995D01*
X116267996Y-108768092D01*
X114512599Y-107012695D01*
X114478573Y-106950383D01*
X114475694Y-106923600D01*
X114475694Y-106863017D01*
X114475693Y-106863013D01*
X114470449Y-106836649D01*
X114440781Y-106687495D01*
X114372296Y-106522159D01*
X114272872Y-106373360D01*
X114146329Y-106246817D01*
X113997530Y-106147393D01*
X113879247Y-106098398D01*
X113832197Y-106078909D01*
X113832195Y-106078908D01*
X113832194Y-106078908D01*
X113743839Y-106061333D01*
X113656675Y-106043995D01*
X113656673Y-106043995D01*
X113477715Y-106043995D01*
X113477712Y-106043995D01*
X113346965Y-106070002D01*
X113302194Y-106078908D01*
X113302193Y-106078908D01*
X113302190Y-106078909D01*
X113136856Y-106147394D01*
X112988063Y-106246814D01*
X112988061Y-106246815D01*
X112896030Y-106338846D01*
X112833718Y-106372871D01*
X112762902Y-106367805D01*
X112717840Y-106338845D01*
X112325590Y-105946595D01*
X112291564Y-105884283D01*
X112296629Y-105813468D01*
X112339176Y-105756632D01*
X112405696Y-105731821D01*
X112414685Y-105731500D01*
X113912393Y-105731500D01*
X113912394Y-105731500D01*
X114034785Y-105707155D01*
X114034795Y-105707151D01*
X114068737Y-105693092D01*
X114116956Y-105683500D01*
X114262478Y-105683500D01*
X114262479Y-105683500D01*
X114438000Y-105648587D01*
X114603336Y-105580102D01*
X114752135Y-105480678D01*
X114878678Y-105354135D01*
X114978102Y-105205336D01*
X115046587Y-105040000D01*
X115081500Y-104864479D01*
X115081500Y-104685521D01*
X115046587Y-104510000D01*
X115046584Y-104509992D01*
X115025298Y-104458603D01*
X115017708Y-104388014D01*
X115049486Y-104324526D01*
X115110544Y-104288298D01*
X115181495Y-104290831D01*
G37*
G04 #@! TD.AperFunction*
G04 #@! TA.AperFunction,Conductor*
G36*
X101580486Y-105031188D02*
G01*
X101637322Y-105073735D01*
X101662133Y-105140255D01*
X101653647Y-105192630D01*
X101654144Y-105192781D01*
X101653025Y-105196467D01*
X101652866Y-105197455D01*
X101652346Y-105198708D01*
X101628000Y-105321103D01*
X101628000Y-105468497D01*
X101607998Y-105536618D01*
X101591095Y-105557592D01*
X101555824Y-105592862D01*
X101555819Y-105592869D01*
X101456399Y-105741662D01*
X101387914Y-105906996D01*
X101387913Y-105906999D01*
X101387913Y-105907000D01*
X101381183Y-105940833D01*
X101353000Y-106082518D01*
X101353000Y-106261481D01*
X101368389Y-106338845D01*
X101387913Y-106437000D01*
X101456398Y-106602336D01*
X101555822Y-106751135D01*
X101682365Y-106877678D01*
X101831164Y-106977102D01*
X101996500Y-107045587D01*
X102172021Y-107080500D01*
X102172022Y-107080500D01*
X102226500Y-107080500D01*
X102294621Y-107100502D01*
X102341114Y-107154158D01*
X102352500Y-107206500D01*
X102352500Y-107773405D01*
X102332498Y-107841526D01*
X102315595Y-107862500D01*
X99534049Y-110644045D01*
X99471737Y-110678071D01*
X99400921Y-110673006D01*
X99355859Y-110644046D01*
X99334217Y-110622404D01*
X99263132Y-110551319D01*
X99114333Y-110451895D01*
X98997426Y-110403470D01*
X98949000Y-110383411D01*
X98948998Y-110383410D01*
X98948997Y-110383410D01*
X98860642Y-110365835D01*
X98773478Y-110348497D01*
X98773476Y-110348497D01*
X98594518Y-110348497D01*
X98594515Y-110348497D01*
X98463768Y-110374504D01*
X98418997Y-110383410D01*
X98418996Y-110383410D01*
X98418993Y-110383411D01*
X98253659Y-110451896D01*
X98104866Y-110551316D01*
X98104859Y-110551321D01*
X97978321Y-110677859D01*
X97978316Y-110677866D01*
X97898447Y-110797400D01*
X97878895Y-110826661D01*
X97868786Y-110851067D01*
X97810411Y-110991993D01*
X97810410Y-110991996D01*
X97810410Y-110991997D01*
X97807923Y-111004499D01*
X97775497Y-111167515D01*
X97775497Y-111217402D01*
X97755495Y-111285523D01*
X97738592Y-111306497D01*
X97449494Y-111595595D01*
X97387182Y-111629621D01*
X97316367Y-111624556D01*
X97259531Y-111582009D01*
X97234720Y-111515489D01*
X97234399Y-111506500D01*
X97234399Y-111476421D01*
X97234398Y-111476417D01*
X97218189Y-111394928D01*
X97199486Y-111300899D01*
X97131001Y-111135563D01*
X97031577Y-110986764D01*
X96905034Y-110860221D01*
X96756235Y-110760797D01*
X96639328Y-110712372D01*
X96590902Y-110692313D01*
X96590900Y-110692312D01*
X96590899Y-110692312D01*
X96502544Y-110674737D01*
X96415380Y-110657399D01*
X96415378Y-110657399D01*
X96236420Y-110657399D01*
X96236414Y-110657399D01*
X96161570Y-110672287D01*
X96090856Y-110665959D01*
X96034789Y-110622404D01*
X96011170Y-110555452D01*
X96027497Y-110486358D01*
X96047890Y-110459617D01*
X101447360Y-105060148D01*
X101509671Y-105026123D01*
X101580486Y-105031188D01*
G37*
G04 #@! TD.AperFunction*
G04 #@! TA.AperFunction,Conductor*
G36*
X101539727Y-93422702D02*
G01*
X101560701Y-93439605D01*
X101831167Y-93710071D01*
X101934925Y-93779400D01*
X102050215Y-93827155D01*
X102172606Y-93851500D01*
X102297394Y-93851500D01*
X103137997Y-93851500D01*
X103206118Y-93871502D01*
X103227092Y-93888405D01*
X103262365Y-93923678D01*
X103411164Y-94023102D01*
X103576500Y-94091587D01*
X103752021Y-94126500D01*
X103752022Y-94126500D01*
X103930978Y-94126500D01*
X103930979Y-94126500D01*
X104106500Y-94091587D01*
X104271836Y-94023102D01*
X104420635Y-93923678D01*
X104477109Y-93867204D01*
X104539421Y-93833178D01*
X104610236Y-93838243D01*
X104655299Y-93867204D01*
X106185797Y-95397701D01*
X106200739Y-95425065D01*
X106217598Y-95451298D01*
X106218504Y-95457599D01*
X106219822Y-95460013D01*
X106222702Y-95486796D01*
X106222702Y-95730101D01*
X106202700Y-95798222D01*
X106185797Y-95819196D01*
X106150526Y-95854466D01*
X106150521Y-95854473D01*
X106056016Y-95995911D01*
X106051100Y-96003268D01*
X106046822Y-96013595D01*
X105982616Y-96168600D01*
X105982615Y-96168603D01*
X105982615Y-96168604D01*
X105974446Y-96209675D01*
X105947702Y-96344122D01*
X105947702Y-96344125D01*
X105947702Y-96523083D01*
X105979536Y-96683126D01*
X105982616Y-96698607D01*
X106002675Y-96747033D01*
X106051100Y-96863940D01*
X106150524Y-97012739D01*
X106248592Y-97110807D01*
X106277067Y-97139282D01*
X106298874Y-97153853D01*
X106344402Y-97208330D01*
X106353250Y-97278773D01*
X106349450Y-97295183D01*
X106348926Y-97296909D01*
X106314012Y-97472432D01*
X106314012Y-97651395D01*
X106331350Y-97738559D01*
X106348925Y-97826914D01*
X106417410Y-97992250D01*
X106516834Y-98141049D01*
X106516836Y-98141051D01*
X106520845Y-98145060D01*
X106554871Y-98207372D01*
X106549806Y-98278187D01*
X106520845Y-98323250D01*
X103163501Y-101680595D01*
X103101189Y-101714621D01*
X103074406Y-101717500D01*
X101925412Y-101717500D01*
X101803029Y-101741844D01*
X101803021Y-101741846D01*
X101769259Y-101755830D01*
X101769259Y-101755831D01*
X101708463Y-101781014D01*
X101687737Y-101789599D01*
X101583979Y-101858927D01*
X100743173Y-102699735D01*
X100680860Y-102733760D01*
X100654077Y-102736640D01*
X100010673Y-102736640D01*
X99942552Y-102716638D01*
X99921578Y-102699735D01*
X99886307Y-102664464D01*
X99886305Y-102664462D01*
X99737506Y-102565038D01*
X99620599Y-102516613D01*
X99572173Y-102496554D01*
X99572171Y-102496553D01*
X99572170Y-102496553D01*
X99455359Y-102473318D01*
X99396651Y-102461640D01*
X99396649Y-102461640D01*
X99217691Y-102461640D01*
X99217690Y-102461640D01*
X99217681Y-102461641D01*
X99209079Y-102463352D01*
X99138366Y-102457023D01*
X99082299Y-102413468D01*
X99058681Y-102346515D01*
X99058500Y-102339773D01*
X99058500Y-95995912D01*
X99058499Y-95995908D01*
X99050191Y-95954140D01*
X99034155Y-95873520D01*
X98986400Y-95758230D01*
X98917071Y-95654472D01*
X98828833Y-95566234D01*
X98587405Y-95324806D01*
X98553379Y-95262494D01*
X98550500Y-95235711D01*
X98550500Y-93654594D01*
X98570502Y-93586473D01*
X98624158Y-93539980D01*
X98694432Y-93529876D01*
X98759012Y-93559370D01*
X98765595Y-93565499D01*
X99278595Y-94078499D01*
X99312621Y-94140811D01*
X99315500Y-94167594D01*
X99315500Y-95568606D01*
X99315500Y-95693394D01*
X99339845Y-95815785D01*
X99387600Y-95931075D01*
X99456929Y-96034833D01*
X99456931Y-96034835D01*
X101936410Y-98514314D01*
X101970436Y-98576626D01*
X101973315Y-98603409D01*
X101973315Y-99790997D01*
X101953313Y-99859118D01*
X101936410Y-99880092D01*
X101901139Y-99915362D01*
X101901134Y-99915369D01*
X101801714Y-100064162D01*
X101733229Y-100229496D01*
X101698315Y-100405018D01*
X101698315Y-100583981D01*
X101733229Y-100759503D01*
X101742415Y-100781680D01*
X101801713Y-100924836D01*
X101901137Y-101073635D01*
X102027680Y-101200178D01*
X102176479Y-101299602D01*
X102341815Y-101368087D01*
X102517336Y-101403000D01*
X102517337Y-101403000D01*
X102696293Y-101403000D01*
X102696294Y-101403000D01*
X102871815Y-101368087D01*
X103037151Y-101299602D01*
X103185950Y-101200178D01*
X103312493Y-101073635D01*
X103411917Y-100924836D01*
X103480402Y-100759500D01*
X103515315Y-100583979D01*
X103515315Y-100405021D01*
X103480402Y-100229500D01*
X103411917Y-100064164D01*
X103312493Y-99915365D01*
X103277220Y-99880092D01*
X103243194Y-99817780D01*
X103240315Y-99790997D01*
X103240315Y-98226422D01*
X103240314Y-98226418D01*
X103236992Y-98209716D01*
X103215970Y-98104030D01*
X103168215Y-97988740D01*
X103098886Y-97884982D01*
X103010648Y-97796744D01*
X100619405Y-95405501D01*
X100585379Y-95343189D01*
X100582500Y-95316406D01*
X100582500Y-93790607D01*
X100582499Y-93790603D01*
X100580271Y-93779400D01*
X100558956Y-93672243D01*
X100560426Y-93655817D01*
X100556785Y-93639730D01*
X100563525Y-93621184D01*
X100565284Y-93601532D01*
X100575653Y-93587814D01*
X100581037Y-93573004D01*
X100601994Y-93552971D01*
X100606182Y-93547433D01*
X100609277Y-93545075D01*
X100714335Y-93474878D01*
X100755608Y-93433604D01*
X100762350Y-93428469D01*
X100787905Y-93418692D01*
X100811920Y-93405579D01*
X100826193Y-93404044D01*
X100828660Y-93403101D01*
X100830805Y-93403548D01*
X100838703Y-93402700D01*
X101471606Y-93402700D01*
X101539727Y-93422702D01*
G37*
G04 #@! TD.AperFunction*
G04 #@! TA.AperFunction,Conductor*
G36*
X117055412Y-96146283D02*
G01*
X117085882Y-96152912D01*
X117090977Y-96156726D01*
X117093618Y-96157502D01*
X117114591Y-96174404D01*
X117149865Y-96209678D01*
X117298664Y-96309102D01*
X117464000Y-96377587D01*
X117639521Y-96412500D01*
X117639522Y-96412500D01*
X117818478Y-96412500D01*
X117818479Y-96412500D01*
X117994000Y-96377587D01*
X118005883Y-96372665D01*
X118064281Y-96348476D01*
X118134871Y-96340886D01*
X118198358Y-96372665D01*
X118234586Y-96433722D01*
X118238500Y-96464884D01*
X118238500Y-101638671D01*
X118228909Y-101686889D01*
X118192207Y-101775495D01*
X118192205Y-101775500D01*
X118157292Y-101951019D01*
X118157292Y-101969802D01*
X118137290Y-102037923D01*
X118083634Y-102084416D01*
X118013360Y-102094520D01*
X117948780Y-102065026D01*
X117942197Y-102058897D01*
X113943231Y-98059931D01*
X113943229Y-98059929D01*
X113839471Y-97990600D01*
X113790268Y-97970219D01*
X113734988Y-97925672D01*
X113712567Y-97858308D01*
X113722078Y-97805594D01*
X113776587Y-97674000D01*
X113811500Y-97498479D01*
X113811500Y-97319521D01*
X113776587Y-97144000D01*
X113708102Y-96978664D01*
X113669074Y-96920255D01*
X113647860Y-96852503D01*
X113666643Y-96784036D01*
X113684745Y-96761158D01*
X114271500Y-96174404D01*
X114333812Y-96140379D01*
X114360595Y-96137500D01*
X117025497Y-96137500D01*
X117055412Y-96146283D01*
G37*
G04 #@! TD.AperFunction*
G04 #@! TA.AperFunction,Conductor*
G36*
X120360383Y-97292226D02*
G01*
X120373932Y-97290279D01*
X120394398Y-97299626D01*
X120416385Y-97304409D01*
X120434398Y-97317894D01*
X120438512Y-97319773D01*
X120445095Y-97325902D01*
X120450595Y-97331402D01*
X120484621Y-97393714D01*
X120487500Y-97420497D01*
X120487500Y-100393997D01*
X120467498Y-100462118D01*
X120413842Y-100508611D01*
X120343568Y-100518715D01*
X120278988Y-100489221D01*
X120272405Y-100483092D01*
X120266905Y-100477592D01*
X120232879Y-100415280D01*
X120230000Y-100388497D01*
X120230000Y-97414997D01*
X120236338Y-97393409D01*
X120237944Y-97370965D01*
X120246145Y-97360008D01*
X120250002Y-97346876D01*
X120267007Y-97332140D01*
X120280491Y-97314129D01*
X120293313Y-97309346D01*
X120303658Y-97300383D01*
X120325930Y-97297180D01*
X120347011Y-97289318D01*
X120360383Y-97292226D01*
G37*
G04 #@! TD.AperFunction*
G04 #@! TA.AperFunction,Conductor*
G36*
X100682837Y-89900276D02*
G01*
X100707640Y-89919544D01*
X101936303Y-91148208D01*
X103157500Y-92369405D01*
X103191526Y-92431717D01*
X103186461Y-92502533D01*
X103143914Y-92559368D01*
X103077394Y-92584179D01*
X103068405Y-92584500D01*
X102549594Y-92584500D01*
X102481473Y-92564498D01*
X102460499Y-92547595D01*
X102190035Y-92277131D01*
X102190033Y-92277129D01*
X102086275Y-92207800D01*
X101970985Y-92160045D01*
X101897286Y-92145385D01*
X101848596Y-92135700D01*
X101848594Y-92135700D01*
X100838703Y-92135700D01*
X100770582Y-92115698D01*
X100749608Y-92098795D01*
X100714337Y-92063524D01*
X100714335Y-92063522D01*
X100565536Y-91964098D01*
X100431307Y-91908498D01*
X100400203Y-91895614D01*
X100400201Y-91895613D01*
X100400200Y-91895613D01*
X100274717Y-91870653D01*
X100224681Y-91860700D01*
X100224679Y-91860700D01*
X100045721Y-91860700D01*
X100045718Y-91860700D01*
X99870189Y-91895615D01*
X99864266Y-91897412D01*
X99863762Y-91895751D01*
X99801404Y-91902444D01*
X99737923Y-91870653D01*
X99701707Y-91809588D01*
X99697799Y-91778450D01*
X99697799Y-91377204D01*
X99717801Y-91309083D01*
X99734704Y-91288109D01*
X99769977Y-91252836D01*
X99869401Y-91104037D01*
X99937886Y-90938701D01*
X99972799Y-90763180D01*
X99972799Y-90584222D01*
X99959721Y-90518476D01*
X99966049Y-90447764D01*
X100009602Y-90391696D01*
X100035076Y-90377488D01*
X100125336Y-90340102D01*
X100274135Y-90240678D01*
X100400678Y-90114135D01*
X100500102Y-89965336D01*
X100502136Y-89960424D01*
X100546683Y-89905143D01*
X100614045Y-89882720D01*
X100682837Y-89900276D01*
G37*
G04 #@! TD.AperFunction*
G04 #@! TA.AperFunction,Conductor*
G36*
X115616533Y-88520538D02*
G01*
X115673368Y-88563085D01*
X115698179Y-88629605D01*
X115698500Y-88638594D01*
X115698500Y-90223091D01*
X115701999Y-90240680D01*
X115722845Y-90345480D01*
X115770600Y-90460770D01*
X115839929Y-90564528D01*
X115839931Y-90564530D01*
X116890408Y-91615007D01*
X116924434Y-91677319D01*
X116919369Y-91748134D01*
X116876822Y-91804970D01*
X116871315Y-91808867D01*
X116768869Y-91877319D01*
X116768862Y-91877324D01*
X116642324Y-92003862D01*
X116642319Y-92003869D01*
X116630465Y-92021610D01*
X116575988Y-92067138D01*
X116505545Y-92075986D01*
X116441501Y-92045344D01*
X116436605Y-92040703D01*
X114575128Y-90179226D01*
X114541102Y-90116914D01*
X114546167Y-90046099D01*
X114575128Y-90001036D01*
X114618444Y-89957720D01*
X114662178Y-89913986D01*
X114761602Y-89765187D01*
X114830087Y-89599851D01*
X114865000Y-89424330D01*
X114865000Y-89245372D01*
X114864999Y-89245371D01*
X114864393Y-89239208D01*
X114865981Y-89239051D01*
X114871612Y-89176101D01*
X114899767Y-89133135D01*
X115483406Y-88549496D01*
X115545717Y-88515473D01*
X115616533Y-88520538D01*
G37*
G04 #@! TD.AperFunction*
M02*
