G04 #@! TF.GenerationSoftware,KiCad,Pcbnew,8.0.2*
G04 #@! TF.CreationDate,2025-03-01T12:18:06+01:00*
G04 #@! TF.ProjectId,KungFuFlash2,4b756e67-4675-4466-9c61-7368322e6b69,1*
G04 #@! TF.SameCoordinates,Original*
G04 #@! TF.FileFunction,Copper,L2,Bot*
G04 #@! TF.FilePolarity,Positive*
%FSLAX46Y46*%
G04 Gerber Fmt 4.6, Leading zero omitted, Abs format (unit mm)*
G04 Created by KiCad (PCBNEW 8.0.2) date 2025-03-01 12:18:06*
%MOMM*%
%LPD*%
G01*
G04 APERTURE LIST*
G04 #@! TA.AperFunction,ComponentPad*
%ADD10C,2.000000*%
G04 #@! TD*
G04 #@! TA.AperFunction,SMDPad,CuDef*
%ADD11R,1.524000X8.000000*%
G04 #@! TD*
G04 #@! TA.AperFunction,ComponentPad*
%ADD12O,1.700000X1.700000*%
G04 #@! TD*
G04 #@! TA.AperFunction,ComponentPad*
%ADD13R,1.700000X1.700000*%
G04 #@! TD*
G04 #@! TA.AperFunction,ViaPad*
%ADD14C,0.800000*%
G04 #@! TD*
G04 #@! TA.AperFunction,ViaPad*
%ADD15C,1.600000*%
G04 #@! TD*
G04 #@! TA.AperFunction,Conductor*
%ADD16C,0.250000*%
G04 #@! TD*
G04 #@! TA.AperFunction,Conductor*
%ADD17C,0.500000*%
G04 #@! TD*
G04 APERTURE END LIST*
D10*
X118831500Y-74866500D03*
X112331500Y-74866500D03*
X118831500Y-70366500D03*
X112331500Y-70366500D03*
D11*
X131568000Y-126121227D03*
X129028000Y-126121227D03*
X126488000Y-126121227D03*
X123948000Y-126121227D03*
X121408000Y-126121227D03*
X118868000Y-126121227D03*
X116328000Y-126121227D03*
X113788000Y-126121227D03*
X111248000Y-126121227D03*
X108708000Y-126121227D03*
X106168000Y-126121227D03*
X103628000Y-126121227D03*
X101088000Y-126121227D03*
X98548000Y-126121227D03*
X96008000Y-126121227D03*
X93468000Y-126121227D03*
X90928000Y-126121227D03*
X88388000Y-126121227D03*
X85848000Y-126121227D03*
X83308000Y-126121227D03*
X80768000Y-126121227D03*
X78228000Y-126121227D03*
D10*
X86106000Y-74866500D03*
X79606000Y-74866500D03*
X86106000Y-70366500D03*
X79606000Y-70366500D03*
X130175000Y-74858000D03*
X123675000Y-74858000D03*
X130175000Y-70358000D03*
X123675000Y-70358000D03*
D12*
X113792000Y-84455000D03*
X113792000Y-86995000D03*
X116332000Y-84455000D03*
X116332000Y-86995000D03*
X118872000Y-84455000D03*
X118872000Y-86995000D03*
X121412000Y-84455000D03*
D13*
X121412000Y-86995000D03*
D12*
X129286000Y-105511600D03*
X129286000Y-102971600D03*
X129286000Y-100431600D03*
X129286000Y-97891600D03*
D13*
X129286000Y-95351600D03*
D14*
X128352575Y-92284575D03*
X97700000Y-99540304D03*
X108839000Y-88138000D03*
X123448299Y-88904299D03*
X82768249Y-111508203D03*
X103378000Y-73152000D03*
X105918000Y-113789434D03*
X116078000Y-91033600D03*
X96113600Y-116433600D03*
X117923800Y-120971800D03*
X112623600Y-119126000D03*
X118110000Y-100025200D03*
X105918000Y-112064800D03*
X117551200Y-118211600D03*
X77724000Y-112522000D03*
X89154000Y-69850000D03*
X123698000Y-77978000D03*
X87947500Y-78993998D03*
X117805200Y-90525600D03*
X91821000Y-108331000D03*
X99986000Y-109982000D03*
X100126800Y-91287600D03*
X92075000Y-82550000D03*
X119989600Y-103124000D03*
X122313100Y-118465600D03*
X132207000Y-69469000D03*
X102362000Y-83058000D03*
X127711200Y-120751600D03*
X77660500Y-69342000D03*
X125988299Y-117597701D03*
X131572000Y-119380000D03*
X100279200Y-84429600D03*
X82521680Y-110695272D03*
X123735500Y-91440000D03*
X78232000Y-121158000D03*
X115570000Y-118618000D03*
X100177600Y-117297200D03*
X91795600Y-118567200D03*
X109537500Y-69786500D03*
X113063500Y-120954800D03*
X93434500Y-97382500D03*
X120345200Y-121005600D03*
X115637800Y-120971800D03*
X100965000Y-94869000D03*
X87693500Y-82486500D03*
X114300000Y-78613000D03*
X77724000Y-111760000D03*
X87172800Y-118821200D03*
X92964000Y-78994000D03*
X77724000Y-110998000D03*
X112776000Y-105822500D03*
X82323450Y-112231950D03*
X93726000Y-99859000D03*
X96012000Y-73152000D03*
X97688400Y-118922800D03*
X119786400Y-118364000D03*
X128016000Y-118516400D03*
X87503000Y-111633000D03*
X120396000Y-97692500D03*
X131572000Y-120142000D03*
X78232000Y-119380000D03*
X99314000Y-99949000D03*
X85090000Y-118516400D03*
X110388400Y-121056400D03*
X106934000Y-78994000D03*
X114465375Y-97574375D03*
X124587000Y-101600000D03*
X78232000Y-120269000D03*
X98642000Y-95250000D03*
X131572000Y-120904000D03*
X95123000Y-111125000D03*
X110617000Y-89154000D03*
X93435000Y-105918000D03*
X124002800Y-119075200D03*
X125272800Y-120650000D03*
X102362000Y-78994000D03*
X122779301Y-120959099D03*
X90881200Y-113131600D03*
X99055701Y-104643701D03*
X99695000Y-89535000D03*
X92710000Y-98933000D03*
X95377000Y-82867500D03*
X100330000Y-82804000D03*
X124714000Y-90297000D03*
X102261500Y-106172000D03*
X103750898Y-104009712D03*
X97028000Y-84201000D03*
X107835702Y-96772608D03*
X98084000Y-85471000D03*
X106856202Y-96433604D03*
X99064299Y-90673701D03*
X102606815Y-100494500D03*
X89154000Y-118961500D03*
X105283000Y-108204000D03*
X93472000Y-117946253D03*
X106892500Y-112776000D03*
X113848409Y-103067591D03*
X99618800Y-112559500D03*
X100457000Y-111760000D03*
X113362146Y-104061853D03*
X107360000Y-114300000D03*
X103886000Y-114464500D03*
X111963200Y-118072500D03*
X112395000Y-116459000D03*
X112308500Y-113992403D03*
X112196202Y-115244202D03*
X111379000Y-116363500D03*
X110390613Y-116813500D03*
X109505182Y-117277199D03*
X107950000Y-119253000D03*
X112230500Y-102810799D03*
X83312000Y-118173500D03*
X98683997Y-111256997D03*
X114173000Y-104775000D03*
X106672883Y-106408889D03*
X107551065Y-105931604D03*
X108622500Y-105822500D03*
X107335500Y-102526500D03*
X107892500Y-101473000D03*
X104259715Y-118187911D03*
X105100741Y-106528716D03*
X105825241Y-105822500D03*
X104326200Y-119185200D03*
X106172000Y-119665500D03*
X124242616Y-112560923D03*
X111952851Y-100367500D03*
X123190000Y-112522000D03*
X110998000Y-100711000D03*
X125222000Y-112268000D03*
X111841500Y-99250500D03*
X126242299Y-112263701D03*
X112357036Y-98394213D03*
X113567194Y-106952495D03*
X120650000Y-112903000D03*
X117665853Y-112712146D03*
X111575195Y-107753805D03*
X108839000Y-107813399D03*
X114554000Y-112776000D03*
X110544502Y-107359508D03*
X116590299Y-112517701D03*
X89027000Y-113538000D03*
X96325899Y-111565899D03*
X107222512Y-97561914D03*
X117729000Y-95504000D03*
X125222000Y-92837000D03*
X121031000Y-80938500D03*
X120142000Y-82637500D03*
D15*
X113665000Y-81788000D03*
X85090000Y-106426000D03*
D14*
X121666000Y-78702500D03*
X112903000Y-97409000D03*
X118999000Y-90170000D03*
X99307170Y-103370140D03*
X103841500Y-93218000D03*
X100135200Y-92769200D03*
X103632000Y-83566000D03*
X119065792Y-102040501D03*
X119596500Y-101092000D03*
X104902000Y-83566000D03*
X121539000Y-96393000D03*
X117348000Y-92583000D03*
X127508000Y-89281000D03*
X113956500Y-89334851D03*
X122295500Y-100076000D03*
X111086900Y-119341899D03*
X102514400Y-118262400D03*
X93345000Y-109474000D03*
X107892500Y-98994585D03*
D16*
X128352575Y-92284575D02*
X127508000Y-91440000D01*
X127508000Y-91440000D02*
X127508000Y-89281000D01*
X94044696Y-99540304D02*
X93726000Y-99859000D01*
X97700000Y-99540304D02*
X94044696Y-99540304D01*
X98425000Y-104013000D02*
X99055701Y-104643701D01*
X97917000Y-95550305D02*
X98425000Y-96058305D01*
X97917000Y-90424000D02*
X97917000Y-95550305D01*
X98425000Y-96058305D02*
X98425000Y-104013000D01*
X98806000Y-89535000D02*
X97917000Y-90424000D01*
X99695000Y-89535000D02*
X98806000Y-89535000D01*
X92964000Y-78994000D02*
X92964000Y-76200000D01*
X99314000Y-99949000D02*
X100584000Y-101219000D01*
X119761000Y-103378000D02*
X119253000Y-103378000D01*
X112623600Y-119126000D02*
X111991395Y-119126000D01*
X93435000Y-100150000D02*
X93435000Y-105918000D01*
X123735500Y-91440000D02*
X123698000Y-91402500D01*
X117652800Y-90373200D02*
X117805200Y-90525600D01*
X91821000Y-108331000D02*
X91163500Y-108331000D01*
X121412000Y-88544400D02*
X121158000Y-88798400D01*
X97688400Y-118922800D02*
X99314000Y-117297200D01*
X118110000Y-100025200D02*
X117957600Y-100025200D01*
X95250000Y-111125000D02*
X96393000Y-109982000D01*
X109321600Y-111607600D02*
X109321600Y-112268000D01*
X114300000Y-78613000D02*
X113919000Y-78994000D01*
X78232000Y-120230003D02*
X78232000Y-121158000D01*
D17*
X131568000Y-126121227D02*
X131568000Y-120908000D01*
D16*
X122377200Y-118465600D02*
X122313100Y-118465600D01*
X114465375Y-98590375D02*
X114465375Y-97574375D01*
X107137200Y-110845600D02*
X108559600Y-110845600D01*
X125272800Y-120650000D02*
X124866400Y-120650000D01*
X101650800Y-83058000D02*
X100279200Y-84429600D01*
X115570000Y-120904000D02*
X115570000Y-118618000D01*
X87947502Y-78994000D02*
X87947500Y-78993998D01*
X118262400Y-88798400D02*
X117652800Y-89408000D01*
X113919000Y-78994000D02*
X106934000Y-78994000D01*
X103251000Y-101219000D02*
X104013000Y-100457000D01*
X117957600Y-100025200D02*
X115506775Y-97574375D01*
X121158000Y-88798400D02*
X118262400Y-88798400D01*
X103378000Y-77978000D02*
X103378000Y-73152000D01*
X109855000Y-89154000D02*
X110617000Y-89154000D01*
X120396000Y-97692500D02*
X120396000Y-102743000D01*
X85090000Y-118516400D02*
X85445600Y-118516400D01*
X77724000Y-112522000D02*
X82033400Y-112522000D01*
X93434500Y-97382500D02*
X93726000Y-97674000D01*
X78228000Y-121162000D02*
X78232000Y-121158000D01*
X98642000Y-95250000D02*
X99060000Y-95668000D01*
X125933200Y-117652800D02*
X125988299Y-117597701D01*
X124866400Y-120650000D02*
X123723400Y-119507000D01*
X77724000Y-110998000D02*
X77724000Y-111760000D01*
X129794000Y-77978000D02*
X123698000Y-77978000D01*
X82323450Y-111953002D02*
X82323450Y-112231950D01*
X93726000Y-97674000D02*
X93726000Y-99859000D01*
X111991395Y-119126000D02*
X110822995Y-117957600D01*
X131572000Y-119380000D02*
X130708400Y-118516400D01*
X122682000Y-118465600D02*
X122377200Y-118465600D01*
X108559600Y-110845600D02*
X109321600Y-111607600D01*
X117652800Y-89408000D02*
X117652800Y-90373200D01*
X123723400Y-119507000D02*
X122682000Y-118465600D01*
X92011500Y-82486500D02*
X92075000Y-82550000D01*
X125730000Y-100457000D02*
X129349500Y-100457000D01*
X104013000Y-97917000D02*
X100965000Y-94869000D01*
X117923800Y-120971800D02*
X117923800Y-118584200D01*
X119253000Y-103378000D02*
X114465375Y-98590375D01*
X105918000Y-112064800D02*
X107137200Y-110845600D01*
X77724000Y-111760000D02*
X82516452Y-111760000D01*
X100584000Y-101219000D02*
X103251000Y-101219000D01*
X82033400Y-112522000D02*
X82323450Y-112231950D01*
X96393000Y-109982000D02*
X99986000Y-109982000D01*
X124587000Y-101600000D02*
X125730000Y-100457000D01*
X120345200Y-121005600D02*
X120345200Y-118922800D01*
X102362000Y-83058000D02*
X101650800Y-83058000D01*
X130175000Y-100457000D02*
X129032000Y-100457000D01*
X131572000Y-101854000D02*
X130175000Y-100457000D01*
X121412000Y-86995000D02*
X121412000Y-88544400D01*
X113063500Y-120954800D02*
X113063500Y-119565900D01*
X91899653Y-118671253D02*
X91795600Y-118567200D01*
X82516452Y-111760000D02*
X82768249Y-111508203D01*
X108088600Y-113501000D02*
X109321600Y-112268000D01*
X92964000Y-76200000D02*
X96012000Y-73152000D01*
X120396000Y-102743000D02*
X120002300Y-103136700D01*
X82218952Y-110998000D02*
X82521680Y-110695272D01*
X131572000Y-119380000D02*
X131572000Y-101854000D01*
X131568000Y-120908000D02*
X131572000Y-120904000D01*
X77724000Y-110998000D02*
X82218952Y-110998000D01*
X105918000Y-113789434D02*
X106206434Y-113501000D01*
D17*
X78228000Y-126121227D02*
X78228000Y-121162000D01*
D16*
X96113600Y-116433600D02*
X93875947Y-118671253D01*
X123723400Y-119507000D02*
X124002800Y-119227600D01*
X99060000Y-95668000D02*
X99060000Y-99695000D01*
X120002300Y-103136700D02*
X119989600Y-103124000D01*
X82768249Y-111508203D02*
X82323450Y-111953002D01*
X125933200Y-117805200D02*
X125933200Y-117652800D01*
X123698000Y-91402500D02*
X123698000Y-89154000D01*
X91163500Y-108331000D02*
X87861500Y-111633000D01*
X131572000Y-120904000D02*
X131572000Y-120142000D01*
X130708400Y-118516400D02*
X128016000Y-118516400D01*
X87861500Y-111633000D02*
X87503000Y-111633000D01*
X131572000Y-119380000D02*
X131572000Y-120142000D01*
X78232000Y-120230003D02*
X78232000Y-119380000D01*
X113063500Y-119565900D02*
X112623600Y-119126000D01*
X99060000Y-99695000D02*
X99314000Y-99949000D01*
X90830400Y-113131600D02*
X90881200Y-113131600D01*
X120345200Y-118922800D02*
X119786400Y-118364000D01*
X106206434Y-113501000D02*
X108088600Y-113501000D01*
X115506775Y-97574375D02*
X114465375Y-97574375D01*
X102362000Y-78994000D02*
X103378000Y-77978000D01*
X85445600Y-118516400D02*
X90830400Y-113131600D01*
X120002300Y-103136700D02*
X119761000Y-103378000D01*
X102362000Y-78994000D02*
X92964000Y-78994000D01*
X126644400Y-118516400D02*
X125933200Y-117805200D01*
X115637800Y-120971800D02*
X115570000Y-120904000D01*
X99314000Y-117297200D02*
X100177600Y-117297200D01*
X128016000Y-118516400D02*
X126644400Y-118516400D01*
X95123000Y-111125000D02*
X95250000Y-111125000D01*
X104013000Y-100457000D02*
X104013000Y-97917000D01*
X87693500Y-82486500D02*
X92011500Y-82486500D01*
X123698000Y-89154000D02*
X123448299Y-88904299D01*
X124002800Y-119227600D02*
X124002800Y-119075200D01*
X93435000Y-100150000D02*
X93726000Y-99859000D01*
X92964000Y-78994000D02*
X87947502Y-78994000D01*
X117923800Y-118584200D02*
X117551200Y-118211600D01*
X108839000Y-88138000D02*
X109855000Y-89154000D01*
X93875947Y-118671253D02*
X91899653Y-118671253D01*
X124714000Y-90297000D02*
X124460000Y-90551000D01*
X127254000Y-97917000D02*
X129032000Y-97917000D01*
X103750898Y-104009712D02*
X103635288Y-104009712D01*
X114173000Y-83058000D02*
X118872000Y-83058000D01*
X113792000Y-84455000D02*
X113792000Y-83439000D01*
X118872000Y-84455000D02*
X118872000Y-83058000D01*
X100266500Y-82867500D02*
X95377000Y-82867500D01*
X118872000Y-83058000D02*
X118872000Y-78282800D01*
X100330000Y-82804000D02*
X100266500Y-82867500D01*
X121031000Y-72566000D02*
X118831500Y-70366500D01*
X95377000Y-94234000D02*
X95377000Y-82867500D01*
X121031000Y-76123800D02*
X121031000Y-72566000D01*
X92710000Y-98933000D02*
X92710000Y-96901000D01*
X92710000Y-96901000D02*
X95377000Y-94234000D01*
X118872000Y-78282800D02*
X121031000Y-76123800D01*
X103635288Y-104009712D02*
X102261500Y-105383500D01*
X102261500Y-105383500D02*
X102261500Y-106172000D01*
X124460000Y-90551000D02*
X124460000Y-95123000D01*
X124460000Y-95123000D02*
X127254000Y-97917000D01*
X113792000Y-83439000D02*
X114173000Y-83058000D01*
X101219000Y-88898604D02*
X107835702Y-95515306D01*
X101219000Y-87299800D02*
X101219000Y-88898604D01*
X97028000Y-84201000D02*
X98120200Y-84201000D01*
X98120200Y-84201000D02*
X101219000Y-87299800D01*
X107835702Y-95515306D02*
X107835702Y-96772608D01*
X100769000Y-89085000D02*
X106856202Y-95172202D01*
X98171000Y-85471000D02*
X100769000Y-88069000D01*
X98084000Y-85471000D02*
X98171000Y-85471000D01*
X106856202Y-95172202D02*
X106856202Y-96433604D01*
X100769000Y-88069000D02*
X100769000Y-89085000D01*
X99064299Y-90673701D02*
X99064299Y-92968299D01*
X99064299Y-92968299D02*
X99949000Y-93853000D01*
X99949000Y-95631000D02*
X102606815Y-98288815D01*
X99949000Y-93853000D02*
X99949000Y-95631000D01*
X102606815Y-98288815D02*
X102606815Y-100494500D01*
X105283000Y-108204000D02*
X105156000Y-108331000D01*
X94323500Y-113792000D02*
X89154000Y-118961500D01*
X105156000Y-108331000D02*
X105156000Y-108840396D01*
X105156000Y-108840396D02*
X100204396Y-113792000D01*
X100204396Y-113792000D02*
X94323500Y-113792000D01*
X97176253Y-114242000D02*
X93472000Y-117946253D01*
X106841700Y-112826800D02*
X102209600Y-112826800D01*
X106892500Y-112776000D02*
X106841700Y-112826800D01*
X102209600Y-112826800D02*
X100794400Y-114242000D01*
X100794400Y-114242000D02*
X97176253Y-114242000D01*
X102986000Y-108088000D02*
X102986000Y-105799208D01*
X104587208Y-104198000D02*
X111868604Y-104198000D01*
X111868604Y-104198000D02*
X112999013Y-103067591D01*
X99618800Y-112559500D02*
X99618800Y-111455200D01*
X99618800Y-111455200D02*
X102986000Y-108088000D01*
X112999013Y-103067591D02*
X113848409Y-103067591D01*
X102986000Y-105799208D02*
X104587208Y-104198000D01*
X113362146Y-104061853D02*
X112775999Y-104648000D01*
X112775999Y-104648000D02*
X104773604Y-104648000D01*
X103436000Y-108908000D02*
X100584000Y-111760000D01*
X103436000Y-105985604D02*
X103436000Y-108908000D01*
X100584000Y-111760000D02*
X100457000Y-111760000D01*
X104773604Y-104648000D02*
X103436000Y-105985604D01*
X103935434Y-114513934D02*
X107146066Y-114513934D01*
X103886000Y-114464500D02*
X103935434Y-114513934D01*
X107146066Y-114513934D02*
X107360000Y-114300000D01*
X112268000Y-117767700D02*
X112268000Y-116586000D01*
X112268000Y-116586000D02*
X112395000Y-116459000D01*
X111963200Y-118072500D02*
X112268000Y-117767700D01*
X94112652Y-119474552D02*
X91599448Y-119474552D01*
X98398204Y-115189000D02*
X94112652Y-119474552D01*
X90928000Y-120146000D02*
X90928000Y-126121227D01*
X112308500Y-113992403D02*
X111111903Y-115189000D01*
X91599448Y-119474552D02*
X90928000Y-120146000D01*
X111111903Y-115189000D02*
X98398204Y-115189000D01*
X112196202Y-115244202D02*
X111801404Y-115639000D01*
X111801404Y-115639000D02*
X98584600Y-115639000D01*
X98584600Y-115639000D02*
X93468000Y-120755600D01*
X93468000Y-120755600D02*
X93468000Y-126121227D01*
X111104500Y-116089000D02*
X98770996Y-116089000D01*
X111379000Y-116363500D02*
X111104500Y-116089000D01*
X98770996Y-116089000D02*
X96008000Y-118851996D01*
X96008000Y-118851996D02*
X96008000Y-126121227D01*
X98548000Y-120332500D02*
X98548000Y-126121227D01*
X110390613Y-116813500D02*
X110116113Y-116539000D01*
X102341500Y-116539000D02*
X98548000Y-120332500D01*
X110116113Y-116539000D02*
X102341500Y-116539000D01*
X109216983Y-116989000D02*
X102594000Y-116989000D01*
X109505182Y-117277199D02*
X109216983Y-116989000D01*
X101088000Y-118495000D02*
X101088000Y-126121227D01*
X102594000Y-116989000D02*
X101088000Y-118495000D01*
X107950000Y-119253000D02*
X107638000Y-118941000D01*
X107638000Y-118941000D02*
X105595000Y-118941000D01*
X103628000Y-120908000D02*
X103628000Y-126121227D01*
X105595000Y-118941000D02*
X103628000Y-120908000D01*
X80768000Y-119638000D02*
X80768000Y-126121227D01*
X112230500Y-102810799D02*
X111790299Y-103251000D01*
X90170000Y-110236000D02*
X80768000Y-119638000D01*
X102360604Y-103251000D02*
X95375604Y-110236000D01*
X111790299Y-103251000D02*
X102360604Y-103251000D01*
X95375604Y-110236000D02*
X90170000Y-110236000D01*
X83312000Y-118173500D02*
X83312000Y-126117227D01*
X91019800Y-113856600D02*
X85848000Y-119028400D01*
X92379800Y-112649000D02*
X91606200Y-113422600D01*
X97291994Y-112649000D02*
X92379800Y-112649000D01*
X98683997Y-111256997D02*
X97291994Y-112649000D01*
X91606200Y-113431905D02*
X91181505Y-113856600D01*
X91181505Y-113856600D02*
X91019800Y-113856600D01*
X91606200Y-113422600D02*
X91606200Y-113431905D01*
X85848000Y-119028400D02*
X85848000Y-126121227D01*
X103886000Y-109474000D02*
X100076000Y-113284000D01*
X114173000Y-104775000D02*
X113850000Y-105098000D01*
X93408500Y-113284000D02*
X88388000Y-118304500D01*
X100076000Y-113284000D02*
X93408500Y-113284000D01*
X113850000Y-105098000D02*
X104960000Y-105098000D01*
X103886000Y-106172000D02*
X103886000Y-109474000D01*
X104960000Y-105098000D02*
X103886000Y-106172000D01*
X88388000Y-118304500D02*
X88388000Y-126121227D01*
X113848893Y-111688497D02*
X114603606Y-111688497D01*
X107352893Y-107088899D02*
X109249295Y-107088899D01*
X106672883Y-106408889D02*
X107352893Y-107088899D01*
X118868000Y-115952891D02*
X118868000Y-126121227D01*
X109249295Y-107088899D02*
X113848893Y-111688497D01*
X114603606Y-111688497D02*
X118868000Y-115952891D01*
X115185193Y-110338497D02*
X116316802Y-110338497D01*
X116316802Y-110338497D02*
X121107200Y-115128895D01*
X111399696Y-106553000D02*
X115185193Y-110338497D01*
X107551065Y-105931604D02*
X108172461Y-106553000D01*
X121107200Y-115128895D02*
X121107200Y-125820427D01*
X108172461Y-106553000D02*
X111399696Y-106553000D01*
X122012795Y-119190600D02*
X122035400Y-119190600D01*
X108622500Y-105822500D02*
X111305591Y-105822500D01*
X123948000Y-121103200D02*
X123948000Y-126121227D01*
X121557200Y-118735005D02*
X122012795Y-119190600D01*
X121557200Y-114942499D02*
X121557200Y-118735005D01*
X111305591Y-105822500D02*
X115371589Y-109888497D01*
X116503198Y-109888497D02*
X121557200Y-114942499D01*
X122035400Y-119190600D02*
X123948000Y-121103200D01*
X115371589Y-109888497D02*
X116503198Y-109888497D01*
X113797416Y-101992000D02*
X122015000Y-110209584D01*
X107335500Y-102526500D02*
X110833500Y-102526500D01*
X122015000Y-115461800D02*
X126488000Y-119934800D01*
X122015000Y-110209584D02*
X122015000Y-115461800D01*
X110833500Y-102526500D02*
X111368000Y-101992000D01*
X111368000Y-101992000D02*
X113797416Y-101992000D01*
X126488000Y-119934800D02*
X126488000Y-126121227D01*
X128320800Y-119837200D02*
X129028000Y-120544400D01*
X107961500Y-101542000D02*
X113983812Y-101542000D01*
X122465000Y-110023188D02*
X122465000Y-115099707D01*
X107892500Y-101473000D02*
X107961500Y-101542000D01*
X127202493Y-119837200D02*
X128320800Y-119837200D01*
X129028000Y-120544400D02*
X129028000Y-126121227D01*
X122465000Y-115099707D02*
X127202493Y-119837200D01*
X113983812Y-101542000D02*
X122465000Y-110023188D01*
X108516000Y-118041000D02*
X111252000Y-120777000D01*
X104259715Y-118187911D02*
X104406626Y-118041000D01*
X111252000Y-120777000D02*
X111252000Y-126117227D01*
X104406626Y-118041000D02*
X108516000Y-118041000D01*
X105100741Y-106528716D02*
X108010424Y-109438399D01*
X108930399Y-109438399D02*
X113788000Y-114296000D01*
X108010424Y-109438399D02*
X108930399Y-109438399D01*
X113788000Y-114296000D02*
X113788000Y-126121227D01*
X105825241Y-105822500D02*
X105825241Y-106586552D01*
X109217209Y-108988399D02*
X116433600Y-116204790D01*
X116433600Y-116204790D02*
X116433600Y-126015627D01*
X105825241Y-106586552D02*
X108227088Y-108988399D01*
X108227088Y-108988399D02*
X109217209Y-108988399D01*
X108213305Y-118491000D02*
X108708000Y-118985695D01*
X104326200Y-119185200D02*
X105020400Y-118491000D01*
X105020400Y-118491000D02*
X108213305Y-118491000D01*
X108708000Y-118985695D02*
X108708000Y-126121227D01*
X106172000Y-119665500D02*
X106168000Y-119669500D01*
X106168000Y-119669500D02*
X106168000Y-126121227D01*
X124242616Y-110528012D02*
X124242616Y-112560923D01*
X112042351Y-100457000D02*
X114171604Y-100457000D01*
X114171604Y-100457000D02*
X124242616Y-110528012D01*
X111952851Y-100367500D02*
X112042351Y-100457000D01*
X111379000Y-101092000D02*
X114170208Y-101092000D01*
X110998000Y-100711000D02*
X111379000Y-101092000D01*
X123190000Y-110111792D02*
X123190000Y-112522000D01*
X114170208Y-101092000D02*
X123190000Y-110111792D01*
X125222000Y-110871000D02*
X125222000Y-112268000D01*
X111841500Y-99250500D02*
X112159000Y-99568000D01*
X112159000Y-99568000D02*
X113919000Y-99568000D01*
X113919000Y-99568000D02*
X125222000Y-110871000D01*
X113539396Y-98552000D02*
X126242299Y-111254903D01*
X112357036Y-98394213D02*
X112514823Y-98552000D01*
X112514823Y-98552000D02*
X113539396Y-98552000D01*
X126242299Y-111254903D02*
X126242299Y-112263701D01*
X116042497Y-109438497D02*
X116689594Y-109438497D01*
X120154097Y-112903000D02*
X120650000Y-112903000D01*
X113567194Y-106952495D02*
X113567194Y-106963194D01*
X113567194Y-106963194D02*
X116042497Y-109438497D01*
X116689594Y-109438497D02*
X120154097Y-112903000D01*
X115886400Y-110788497D02*
X117665853Y-112567950D01*
X117665853Y-112567950D02*
X117665853Y-112712146D01*
X111575195Y-107753805D02*
X111699404Y-107753805D01*
X111699404Y-107753805D02*
X114734096Y-110788497D01*
X114734096Y-110788497D02*
X115886400Y-110788497D01*
X108839000Y-107813399D02*
X109210399Y-107813399D01*
X114173000Y-112776000D02*
X114554000Y-112776000D01*
X109210399Y-107813399D02*
X114173000Y-112776000D01*
X110544502Y-107747710D02*
X114035289Y-111238497D01*
X110544502Y-107359508D02*
X110544502Y-107747710D01*
X115302497Y-111238497D02*
X116581701Y-112517701D01*
X114035289Y-111238497D02*
X115302497Y-111238497D01*
X116581701Y-112517701D02*
X116590299Y-112517701D01*
X90678000Y-111887000D02*
X96004798Y-111887000D01*
X96004798Y-111887000D02*
X96325899Y-111565899D01*
X89027000Y-113538000D02*
X90678000Y-111887000D01*
X111469000Y-96684000D02*
X112866000Y-96684000D01*
X110490000Y-97663000D02*
X111469000Y-96684000D01*
X127762000Y-95377000D02*
X129349500Y-95377000D01*
X107323598Y-97663000D02*
X110490000Y-97663000D01*
X114046000Y-95504000D02*
X117729000Y-95504000D01*
X125222000Y-92837000D02*
X127762000Y-95377000D01*
X112866000Y-96684000D02*
X114046000Y-95504000D01*
X107222512Y-97561914D02*
X107323598Y-97663000D01*
X120142000Y-82296000D02*
X121031000Y-81407000D01*
X120142000Y-82637500D02*
X120142000Y-82296000D01*
X121031000Y-81407000D02*
X121031000Y-80938500D01*
D17*
X113665000Y-81788000D02*
X109093000Y-81788000D01*
X87058500Y-80327500D02*
X85090000Y-82296000D01*
X109093000Y-81788000D02*
X107632500Y-80327500D01*
X107632500Y-80327500D02*
X87058500Y-80327500D01*
X85090000Y-82296000D02*
X85090000Y-106426000D01*
D16*
X107470730Y-98269270D02*
X103389000Y-102351000D01*
X121666000Y-78702500D02*
X121666000Y-78562200D01*
X100968672Y-103370140D02*
X99307170Y-103370140D01*
X121158000Y-90170000D02*
X118999000Y-90170000D01*
X123444000Y-81787998D02*
X123444000Y-87884000D01*
X112903000Y-97409000D02*
X111760000Y-97409000D01*
X110899730Y-98269270D02*
X107470730Y-98269270D01*
X123444000Y-87884000D02*
X121158000Y-90170000D01*
X122732800Y-77495400D02*
X122732800Y-76657200D01*
X101987812Y-102351000D02*
X100968672Y-103370140D01*
X121666000Y-78702500D02*
X121666000Y-80009998D01*
X123675000Y-74858000D02*
X130175000Y-74858000D01*
X111760000Y-97409000D02*
X110899730Y-98269270D01*
X103389000Y-102351000D02*
X101987812Y-102351000D01*
X121666000Y-80009998D02*
X123444000Y-81787998D01*
X121666000Y-78562200D02*
X122732800Y-77495400D01*
X122732800Y-76657200D02*
X123698000Y-75692000D01*
X100135200Y-92769200D02*
X101786200Y-92769200D01*
X102235000Y-93218000D02*
X103841500Y-93218000D01*
X101786200Y-92769200D02*
X102235000Y-93218000D01*
X104394000Y-84328000D02*
X103632000Y-83566000D01*
X118020000Y-94779000D02*
X116999000Y-93758000D01*
X119065792Y-102040501D02*
X118872000Y-101846709D01*
X116999000Y-93758000D02*
X116621601Y-93758000D01*
X107191601Y-84328000D02*
X104394000Y-84328000D01*
X116621601Y-93758000D02*
X107191601Y-84328000D01*
X118872000Y-95621695D02*
X118029305Y-94779000D01*
X118872000Y-101846709D02*
X118872000Y-95621695D01*
X118029305Y-94779000D02*
X118020000Y-94779000D01*
X119596500Y-101092000D02*
X119596500Y-95709799D01*
X107065997Y-83566000D02*
X104902000Y-83566000D01*
X116807997Y-93308000D02*
X107065997Y-83566000D01*
X117194701Y-93308000D02*
X116807997Y-93308000D01*
X119596500Y-95709799D02*
X117194701Y-93308000D01*
X121571000Y-101759000D02*
X122936000Y-103124000D01*
X121571000Y-96425000D02*
X121571000Y-101759000D01*
X122936000Y-103124000D02*
X128905000Y-103124000D01*
X121539000Y-96393000D02*
X121571000Y-96425000D01*
X120650000Y-96634903D02*
X121121000Y-97105903D01*
X121121000Y-102325000D02*
X124333000Y-105537000D01*
X124333000Y-105537000D02*
X129349500Y-105537000D01*
X117348000Y-92583000D02*
X117856000Y-92583000D01*
X121121000Y-97105903D02*
X121121000Y-102325000D01*
X120650000Y-95377000D02*
X120650000Y-96634903D01*
X117856000Y-92583000D02*
X120650000Y-95377000D01*
X118831500Y-74866500D02*
X112331500Y-74866500D01*
X115062000Y-86233000D02*
X115570000Y-85725000D01*
X115570000Y-85725000D02*
X120142000Y-85725000D01*
X113956500Y-89180500D02*
X115062000Y-88075000D01*
X113956500Y-89334851D02*
X113956500Y-89180500D01*
X115062000Y-88075000D02*
X115062000Y-86233000D01*
X120142000Y-85725000D02*
X121412000Y-84455000D01*
X122301000Y-100070500D02*
X122301000Y-96129695D01*
X122295500Y-100076000D02*
X122301000Y-100070500D01*
X122301000Y-96129695D02*
X116332000Y-90160695D01*
X116332000Y-90160695D02*
X116332000Y-86995000D01*
X110453295Y-119341899D02*
X111086900Y-119341899D01*
X104560020Y-117462911D02*
X104572109Y-117475000D01*
X103313889Y-117462911D02*
X104560020Y-117462911D01*
X102514400Y-118262400D02*
X103313889Y-117462911D01*
X104572109Y-117475000D02*
X108586396Y-117475000D01*
X108586396Y-117475000D02*
X110453295Y-119341899D01*
X104086139Y-102801000D02*
X102174208Y-102801000D01*
X95501208Y-109474000D02*
X93345000Y-109474000D01*
X102174208Y-102801000D02*
X95501208Y-109474000D01*
X107892500Y-98994639D02*
X104086139Y-102801000D01*
X107892500Y-98994585D02*
X107892500Y-98994639D01*
G04 #@! TA.AperFunction,Conductor*
G36*
X133004931Y-68294502D02*
G01*
X133025905Y-68311405D01*
X133301095Y-68586595D01*
X133335121Y-68648907D01*
X133338000Y-68675690D01*
X133338000Y-78604469D01*
X133338000Y-78629000D01*
X133338000Y-78723094D01*
X133349716Y-78789538D01*
X133370680Y-78908429D01*
X133435039Y-79085254D01*
X133435045Y-79085266D01*
X133529134Y-79248235D01*
X133529141Y-79248244D01*
X133650101Y-79392398D01*
X133794255Y-79513358D01*
X133794264Y-79513365D01*
X133913732Y-79582339D01*
X133957238Y-79607457D01*
X133957241Y-79607458D01*
X133957245Y-79607460D01*
X134134070Y-79671819D01*
X134134072Y-79671819D01*
X134134077Y-79671821D01*
X134319406Y-79704500D01*
X134398482Y-79704500D01*
X137278469Y-79704500D01*
X137297494Y-79704500D01*
X137308475Y-79704979D01*
X137452558Y-79717584D01*
X137474184Y-79721397D01*
X137608555Y-79757402D01*
X137629183Y-79764910D01*
X137755266Y-79823704D01*
X137774275Y-79834679D01*
X137888234Y-79914474D01*
X137905052Y-79928587D01*
X138003412Y-80026947D01*
X138017526Y-80043767D01*
X138097318Y-80157721D01*
X138108297Y-80176737D01*
X138167087Y-80302811D01*
X138174599Y-80323450D01*
X138210601Y-80457813D01*
X138214414Y-80479442D01*
X138227020Y-80623523D01*
X138227500Y-80634505D01*
X138227500Y-90434494D01*
X138227020Y-90445476D01*
X138214414Y-90589557D01*
X138210601Y-90611186D01*
X138174599Y-90745549D01*
X138167087Y-90766188D01*
X138108297Y-90892262D01*
X138097315Y-90911283D01*
X138017530Y-91025228D01*
X138003412Y-91042052D01*
X137905052Y-91140412D01*
X137888228Y-91154530D01*
X137774283Y-91234315D01*
X137755262Y-91245297D01*
X137629188Y-91304087D01*
X137608549Y-91311599D01*
X137474186Y-91347601D01*
X137452557Y-91351414D01*
X137308476Y-91364020D01*
X137297494Y-91364500D01*
X134527093Y-91364500D01*
X134527078Y-91364495D01*
X134527078Y-91364499D01*
X134380929Y-91364482D01*
X134380927Y-91364482D01*
X134195834Y-91397075D01*
X134019196Y-91461275D01*
X133856384Y-91555122D01*
X133856378Y-91555126D01*
X133712303Y-91675791D01*
X133712300Y-91675794D01*
X133591330Y-91819619D01*
X133497131Y-91982247D01*
X133456246Y-92094010D01*
X133432565Y-92158743D01*
X133412973Y-92268648D01*
X133399582Y-92343767D01*
X133399395Y-92437713D01*
X133399395Y-92437731D01*
X133399373Y-92448015D01*
X133338056Y-121511720D01*
X133338000Y-121512298D01*
X133338000Y-121538689D01*
X133337968Y-121553863D01*
X133337997Y-121554012D01*
X133343568Y-121567461D01*
X133343618Y-121567717D01*
X133343666Y-121567698D01*
X133349406Y-121581637D01*
X133349449Y-121581701D01*
X133349490Y-121581763D01*
X133349493Y-121581766D01*
X133349494Y-121581767D01*
X133360005Y-121592278D01*
X133370598Y-121602916D01*
X133370599Y-121602916D01*
X133378988Y-121611341D01*
X133379438Y-121611711D01*
X133472632Y-121704905D01*
X133506658Y-121767217D01*
X133501593Y-121838032D01*
X133459046Y-121894868D01*
X133392526Y-121919679D01*
X133383537Y-121920000D01*
X132877006Y-121920000D01*
X132808885Y-121899998D01*
X132776138Y-121869509D01*
X132692904Y-121758322D01*
X132575965Y-121670782D01*
X132439093Y-121619732D01*
X132378597Y-121613227D01*
X131822000Y-121613227D01*
X131822000Y-121920000D01*
X131314000Y-121920000D01*
X131314000Y-121613227D01*
X130757402Y-121613227D01*
X130696906Y-121619732D01*
X130560035Y-121670782D01*
X130560034Y-121670782D01*
X130443094Y-121758323D01*
X130399178Y-121816988D01*
X130342342Y-121859534D01*
X130271526Y-121864598D01*
X130209214Y-121830572D01*
X130197444Y-121816988D01*
X130153261Y-121757966D01*
X130153260Y-121757965D01*
X130036207Y-121670339D01*
X130036202Y-121670337D01*
X129899204Y-121619238D01*
X129899196Y-121619236D01*
X129838649Y-121612727D01*
X129838638Y-121612727D01*
X129787500Y-121612727D01*
X129719379Y-121592725D01*
X129672886Y-121539069D01*
X129661500Y-121486727D01*
X129661500Y-120482007D01*
X129661499Y-120482003D01*
X129660489Y-120476925D01*
X129637155Y-120359615D01*
X129589400Y-120244325D01*
X129520071Y-120140567D01*
X129431833Y-120052329D01*
X128724633Y-119345129D01*
X128620875Y-119275800D01*
X128505585Y-119228045D01*
X128431886Y-119213385D01*
X128383196Y-119203700D01*
X128383194Y-119203700D01*
X127517087Y-119203700D01*
X127448966Y-119183698D01*
X127427992Y-119166795D01*
X123135405Y-114874208D01*
X123101379Y-114811896D01*
X123098500Y-114785113D01*
X123098500Y-113556500D01*
X123118502Y-113488379D01*
X123172158Y-113441886D01*
X123224500Y-113430500D01*
X123285487Y-113430500D01*
X123472288Y-113390794D01*
X123633334Y-113319091D01*
X123703700Y-113309658D01*
X123758644Y-113332264D01*
X123785862Y-113352040D01*
X123785863Y-113352040D01*
X123785864Y-113352041D01*
X123960328Y-113429717D01*
X124147129Y-113469423D01*
X124338103Y-113469423D01*
X124524904Y-113429717D01*
X124699368Y-113352041D01*
X124853869Y-113239789D01*
X124896821Y-113192084D01*
X124957267Y-113154844D01*
X125016653Y-113153148D01*
X125126513Y-113176500D01*
X125126514Y-113176500D01*
X125317487Y-113176500D01*
X125504288Y-113136794D01*
X125678752Y-113059118D01*
X125678753Y-113059116D01*
X125684784Y-113056432D01*
X125685937Y-113059022D01*
X125742802Y-113045204D01*
X125788101Y-113055956D01*
X125960011Y-113132495D01*
X126146812Y-113172201D01*
X126337786Y-113172201D01*
X126524587Y-113132495D01*
X126699051Y-113054819D01*
X126853552Y-112942567D01*
X126981339Y-112800645D01*
X127076826Y-112635257D01*
X127135841Y-112453629D01*
X127155803Y-112263701D01*
X127135841Y-112073773D01*
X127076826Y-111892145D01*
X126981339Y-111726757D01*
X126908162Y-111645485D01*
X126877445Y-111581477D01*
X126875799Y-111561175D01*
X126875799Y-111192510D01*
X126875798Y-111192506D01*
X126875399Y-111190500D01*
X126851454Y-111070118D01*
X126813518Y-110978532D01*
X126803700Y-110954828D01*
X126734371Y-110851070D01*
X119047395Y-103164095D01*
X119013370Y-103101784D01*
X119018435Y-103030969D01*
X119060982Y-102974133D01*
X119127502Y-102949322D01*
X119136491Y-102949001D01*
X119161279Y-102949001D01*
X119348080Y-102909295D01*
X119522544Y-102831619D01*
X119677045Y-102719367D01*
X119761946Y-102625075D01*
X119804826Y-102577452D01*
X119804827Y-102577450D01*
X119804832Y-102577445D01*
X119900319Y-102412057D01*
X119959334Y-102230429D01*
X119979296Y-102040501D01*
X119976368Y-102012649D01*
X119989139Y-101942815D01*
X120037640Y-101890968D01*
X120050435Y-101884372D01*
X120053252Y-101883118D01*
X120207753Y-101770866D01*
X120267865Y-101704104D01*
X120328309Y-101666866D01*
X120399293Y-101668217D01*
X120458277Y-101707731D01*
X120486536Y-101772861D01*
X120487500Y-101788416D01*
X120487500Y-102262606D01*
X120487500Y-102387394D01*
X120511845Y-102509785D01*
X120559600Y-102625075D01*
X120628929Y-102728833D01*
X123840929Y-105940833D01*
X123929167Y-106029071D01*
X124032925Y-106098400D01*
X124148215Y-106146155D01*
X124270606Y-106170500D01*
X128025557Y-106170500D01*
X128093678Y-106190502D01*
X128131040Y-106227585D01*
X128210275Y-106348865D01*
X128210279Y-106348870D01*
X128362762Y-106514508D01*
X128400080Y-106543554D01*
X128540424Y-106652789D01*
X128738426Y-106759942D01*
X128738427Y-106759942D01*
X128738428Y-106759943D01*
X128746072Y-106762567D01*
X128951365Y-106833044D01*
X129173431Y-106870100D01*
X129173435Y-106870100D01*
X129398565Y-106870100D01*
X129398569Y-106870100D01*
X129620635Y-106833044D01*
X129833574Y-106759942D01*
X130031576Y-106652789D01*
X130209240Y-106514506D01*
X130361722Y-106348868D01*
X130484860Y-106160391D01*
X130575296Y-105954216D01*
X130630564Y-105735968D01*
X130649156Y-105511600D01*
X130630564Y-105287232D01*
X130630562Y-105287224D01*
X130575297Y-105068987D01*
X130575296Y-105068986D01*
X130575296Y-105068984D01*
X130484860Y-104862809D01*
X130427492Y-104775000D01*
X130361724Y-104674334D01*
X130361720Y-104674329D01*
X130209237Y-104508691D01*
X130074016Y-104403444D01*
X130031576Y-104370411D01*
X129998319Y-104352413D01*
X129947929Y-104302402D01*
X129932576Y-104233085D01*
X129957136Y-104166472D01*
X129998320Y-104130786D01*
X130000924Y-104129377D01*
X130031576Y-104112789D01*
X130209240Y-103974506D01*
X130361722Y-103808868D01*
X130484860Y-103620391D01*
X130575296Y-103414216D01*
X130630564Y-103195968D01*
X130649156Y-102971600D01*
X130630564Y-102747232D01*
X130625905Y-102728833D01*
X130575297Y-102528987D01*
X130575296Y-102528986D01*
X130575296Y-102528984D01*
X130484860Y-102322809D01*
X130478140Y-102312524D01*
X130361724Y-102134334D01*
X130361720Y-102134329D01*
X130209237Y-101968691D01*
X130099293Y-101883118D01*
X130031576Y-101830411D01*
X129997792Y-101812128D01*
X129947402Y-101762116D01*
X129932050Y-101692799D01*
X129956610Y-101626186D01*
X129997793Y-101590501D01*
X130031300Y-101572367D01*
X130031301Y-101572367D01*
X130208902Y-101434134D01*
X130361325Y-101268558D01*
X130484419Y-101080148D01*
X130574820Y-100874056D01*
X130574823Y-100874049D01*
X130622544Y-100685600D01*
X129716703Y-100685600D01*
X129751925Y-100624593D01*
X129786000Y-100497426D01*
X129786000Y-100365774D01*
X129751925Y-100238607D01*
X129716703Y-100177600D01*
X130622544Y-100177600D01*
X130622544Y-100177599D01*
X130574823Y-99989150D01*
X130574820Y-99989143D01*
X130484419Y-99783051D01*
X130361325Y-99594641D01*
X130208902Y-99429065D01*
X130031301Y-99290832D01*
X130031300Y-99290831D01*
X129997791Y-99272697D01*
X129947401Y-99222683D01*
X129932050Y-99153366D01*
X129956612Y-99086753D01*
X129997790Y-99051072D01*
X130031576Y-99032789D01*
X130209240Y-98894506D01*
X130361722Y-98728868D01*
X130484860Y-98540391D01*
X130575296Y-98334216D01*
X130630564Y-98115968D01*
X130649156Y-97891600D01*
X130630564Y-97667232D01*
X130575296Y-97448984D01*
X130484860Y-97242809D01*
X130432982Y-97163404D01*
X130361724Y-97054334D01*
X130361719Y-97054329D01*
X130304888Y-96992595D01*
X130218524Y-96898779D01*
X130187103Y-96835114D01*
X130195090Y-96764568D01*
X130239948Y-96709539D01*
X130267183Y-96695389D01*
X130382204Y-96652489D01*
X130499261Y-96564861D01*
X130549936Y-96497167D01*
X130586887Y-96447807D01*
X130586887Y-96447806D01*
X130586889Y-96447804D01*
X130630960Y-96329645D01*
X130637988Y-96310804D01*
X130637990Y-96310796D01*
X130644499Y-96250249D01*
X130644500Y-96250232D01*
X130644500Y-94452967D01*
X130644499Y-94452950D01*
X130637990Y-94392403D01*
X130637988Y-94392395D01*
X130586889Y-94255397D01*
X130586887Y-94255392D01*
X130499261Y-94138338D01*
X130382207Y-94050712D01*
X130382202Y-94050710D01*
X130245204Y-93999611D01*
X130245196Y-93999609D01*
X130184649Y-93993100D01*
X130184638Y-93993100D01*
X128387362Y-93993100D01*
X128387350Y-93993100D01*
X128326803Y-93999609D01*
X128326795Y-93999611D01*
X128189797Y-94050710D01*
X128189792Y-94050712D01*
X128072738Y-94138338D01*
X127985112Y-94255392D01*
X127985111Y-94255395D01*
X127931702Y-94398587D01*
X127889155Y-94455422D01*
X127822634Y-94480232D01*
X127753260Y-94465140D01*
X127724552Y-94443648D01*
X126169122Y-92888218D01*
X126135096Y-92825906D01*
X126132907Y-92812293D01*
X126115542Y-92647072D01*
X126095211Y-92584500D01*
X126056527Y-92465444D01*
X125961040Y-92300056D01*
X125961038Y-92300054D01*
X125961034Y-92300048D01*
X125833255Y-92158135D01*
X125678752Y-92045882D01*
X125504288Y-91968206D01*
X125317487Y-91928500D01*
X125219500Y-91928500D01*
X125151379Y-91908498D01*
X125104886Y-91854842D01*
X125093500Y-91802500D01*
X125093500Y-91204338D01*
X125113502Y-91136217D01*
X125165093Y-91091512D01*
X125165038Y-91091417D01*
X125165535Y-91091129D01*
X125167158Y-91089724D01*
X125168253Y-91089231D01*
X125169434Y-91088704D01*
X125170752Y-91088118D01*
X125325253Y-90975866D01*
X125396929Y-90896262D01*
X125453034Y-90833951D01*
X125453035Y-90833949D01*
X125453040Y-90833944D01*
X125548527Y-90668556D01*
X125607542Y-90486928D01*
X125627504Y-90297000D01*
X125607542Y-90107072D01*
X125548527Y-89925444D01*
X125453040Y-89760056D01*
X125453038Y-89760054D01*
X125453034Y-89760048D01*
X125325255Y-89618135D01*
X125170752Y-89505882D01*
X124996288Y-89428206D01*
X124809487Y-89388500D01*
X124618513Y-89388500D01*
X124431711Y-89428206D01*
X124257247Y-89505882D01*
X124102744Y-89618135D01*
X123974965Y-89760048D01*
X123974958Y-89760058D01*
X123879476Y-89925438D01*
X123879473Y-89925445D01*
X123820457Y-90107072D01*
X123800496Y-90297000D01*
X123820457Y-90486930D01*
X123821830Y-90493385D01*
X123821429Y-90493470D01*
X123826500Y-90525480D01*
X123826500Y-95185396D01*
X123832435Y-95215231D01*
X123850845Y-95307785D01*
X123898600Y-95423075D01*
X123967929Y-95526833D01*
X123967931Y-95526835D01*
X126850161Y-98409067D01*
X126850167Y-98409072D01*
X126953925Y-98478401D01*
X127012271Y-98502568D01*
X127069215Y-98526155D01*
X127191606Y-98550500D01*
X127191607Y-98550500D01*
X127316394Y-98550500D01*
X128025557Y-98550500D01*
X128093678Y-98570502D01*
X128131040Y-98607585D01*
X128210275Y-98728865D01*
X128210279Y-98728870D01*
X128362762Y-98894508D01*
X128417331Y-98936981D01*
X128540424Y-99032789D01*
X128574205Y-99051070D01*
X128624596Y-99101082D01*
X128639949Y-99170399D01*
X128615389Y-99237012D01*
X128574209Y-99272696D01*
X128540704Y-99290828D01*
X128540698Y-99290832D01*
X128363097Y-99429065D01*
X128210674Y-99594641D01*
X128087580Y-99783051D01*
X127997179Y-99989143D01*
X127997176Y-99989150D01*
X127949455Y-100177599D01*
X127949456Y-100177600D01*
X128855297Y-100177600D01*
X128820075Y-100238607D01*
X128786000Y-100365774D01*
X128786000Y-100497426D01*
X128820075Y-100624593D01*
X128855297Y-100685600D01*
X127949455Y-100685600D01*
X127997176Y-100874049D01*
X127997179Y-100874056D01*
X128087580Y-101080148D01*
X128210674Y-101268558D01*
X128363097Y-101434134D01*
X128540698Y-101572367D01*
X128540704Y-101572371D01*
X128574207Y-101590502D01*
X128624597Y-101640515D01*
X128639949Y-101709832D01*
X128615388Y-101776445D01*
X128574207Y-101812128D01*
X128540430Y-101830407D01*
X128540424Y-101830411D01*
X128362762Y-101968691D01*
X128210279Y-102134329D01*
X128210275Y-102134334D01*
X128087142Y-102322806D01*
X128087135Y-102322818D01*
X128046651Y-102415114D01*
X128000970Y-102469462D01*
X127933158Y-102490486D01*
X127931264Y-102490500D01*
X123250595Y-102490500D01*
X123182474Y-102470498D01*
X123161500Y-102453595D01*
X122241405Y-101533500D01*
X122207379Y-101471188D01*
X122204500Y-101444405D01*
X122204500Y-101110500D01*
X122224502Y-101042379D01*
X122278158Y-100995886D01*
X122330500Y-100984500D01*
X122390987Y-100984500D01*
X122577788Y-100944794D01*
X122752252Y-100867118D01*
X122906753Y-100754866D01*
X122946251Y-100710999D01*
X123034534Y-100612951D01*
X123034535Y-100612949D01*
X123034540Y-100612944D01*
X123130027Y-100447556D01*
X123189042Y-100265928D01*
X123209004Y-100076000D01*
X123189042Y-99886072D01*
X123130027Y-99704444D01*
X123034540Y-99539056D01*
X123034538Y-99539054D01*
X123034534Y-99539048D01*
X122966864Y-99463893D01*
X122936146Y-99399886D01*
X122934500Y-99379583D01*
X122934500Y-96067302D01*
X122934499Y-96067298D01*
X122933455Y-96062048D01*
X122910155Y-95944910D01*
X122907459Y-95938401D01*
X122878741Y-95869068D01*
X122862402Y-95829622D01*
X122862401Y-95829620D01*
X122842074Y-95799199D01*
X122793072Y-95725862D01*
X117002405Y-89935195D01*
X116968379Y-89872883D01*
X116965500Y-89846100D01*
X116965500Y-88271920D01*
X116985502Y-88203799D01*
X117031527Y-88161108D01*
X117077576Y-88136189D01*
X117255240Y-87997906D01*
X117407722Y-87832268D01*
X117496518Y-87696354D01*
X117550520Y-87650268D01*
X117620868Y-87640692D01*
X117685225Y-87670669D01*
X117707480Y-87696353D01*
X117740607Y-87747058D01*
X117796275Y-87832265D01*
X117796279Y-87832270D01*
X117948762Y-87997908D01*
X118003331Y-88040381D01*
X118126424Y-88136189D01*
X118324426Y-88243342D01*
X118324427Y-88243342D01*
X118324428Y-88243343D01*
X118373281Y-88260114D01*
X118537365Y-88316444D01*
X118759431Y-88353500D01*
X118759435Y-88353500D01*
X118984565Y-88353500D01*
X118984569Y-88353500D01*
X119206635Y-88316444D01*
X119419574Y-88243342D01*
X119617576Y-88136189D01*
X119795240Y-87997906D01*
X119856626Y-87931222D01*
X119917476Y-87894654D01*
X119988441Y-87896787D01*
X120046986Y-87936949D01*
X120067380Y-87972529D01*
X120111553Y-88090961D01*
X120111555Y-88090965D01*
X120199095Y-88207904D01*
X120316034Y-88295444D01*
X120452906Y-88346494D01*
X120513402Y-88352999D01*
X120513415Y-88353000D01*
X121158000Y-88353000D01*
X121158000Y-87425702D01*
X121219007Y-87460925D01*
X121346174Y-87495000D01*
X121477826Y-87495000D01*
X121604993Y-87460925D01*
X121666000Y-87425702D01*
X121666000Y-88353000D01*
X121774906Y-88353000D01*
X121843027Y-88373002D01*
X121889520Y-88426658D01*
X121899624Y-88496932D01*
X121870130Y-88561512D01*
X121864001Y-88568095D01*
X120932501Y-89499595D01*
X120870189Y-89533621D01*
X120843406Y-89536500D01*
X119707200Y-89536500D01*
X119639079Y-89516498D01*
X119613563Y-89494810D01*
X119610252Y-89491133D01*
X119455752Y-89378882D01*
X119281288Y-89301206D01*
X119094487Y-89261500D01*
X118903513Y-89261500D01*
X118716711Y-89301206D01*
X118542247Y-89378882D01*
X118387744Y-89491135D01*
X118259965Y-89633048D01*
X118259958Y-89633058D01*
X118164476Y-89798438D01*
X118164473Y-89798445D01*
X118105457Y-89980072D01*
X118085496Y-90170000D01*
X118105457Y-90359927D01*
X118123581Y-90415704D01*
X118164473Y-90541556D01*
X118164476Y-90541561D01*
X118259958Y-90706941D01*
X118259965Y-90706951D01*
X118387744Y-90848864D01*
X118387747Y-90848866D01*
X118542248Y-90961118D01*
X118716712Y-91038794D01*
X118903513Y-91078500D01*
X119094487Y-91078500D01*
X119281288Y-91038794D01*
X119455752Y-90961118D01*
X119610253Y-90848866D01*
X119613563Y-90845190D01*
X119674009Y-90807950D01*
X119707200Y-90803500D01*
X121220393Y-90803500D01*
X121220394Y-90803500D01*
X121342785Y-90779155D01*
X121458075Y-90731400D01*
X121561833Y-90662071D01*
X122942904Y-89281000D01*
X126594496Y-89281000D01*
X126614457Y-89470927D01*
X126644526Y-89563470D01*
X126673473Y-89652556D01*
X126673476Y-89652561D01*
X126757701Y-89798444D01*
X126768960Y-89817944D01*
X126842137Y-89899215D01*
X126872853Y-89963220D01*
X126874500Y-89983524D01*
X126874500Y-91377606D01*
X126874500Y-91502394D01*
X126898845Y-91624785D01*
X126946600Y-91740075D01*
X127015929Y-91843833D01*
X127015931Y-91843835D01*
X127405452Y-92233356D01*
X127439478Y-92295668D01*
X127441667Y-92309280D01*
X127459032Y-92474502D01*
X127488274Y-92564498D01*
X127518048Y-92656131D01*
X127518051Y-92656136D01*
X127613533Y-92821516D01*
X127613540Y-92821526D01*
X127741319Y-92963439D01*
X127741322Y-92963441D01*
X127895823Y-93075693D01*
X128070287Y-93153369D01*
X128257088Y-93193075D01*
X128448062Y-93193075D01*
X128634863Y-93153369D01*
X128809327Y-93075693D01*
X128963828Y-92963441D01*
X129091615Y-92821519D01*
X129187102Y-92656131D01*
X129246117Y-92474503D01*
X129266079Y-92284575D01*
X129246117Y-92094647D01*
X129187102Y-91913019D01*
X129091615Y-91747631D01*
X129091613Y-91747629D01*
X129091609Y-91747623D01*
X128963830Y-91605710D01*
X128809327Y-91493457D01*
X128634863Y-91415781D01*
X128448062Y-91376075D01*
X128392169Y-91376075D01*
X128324048Y-91356073D01*
X128303074Y-91339170D01*
X128178405Y-91214501D01*
X128144379Y-91152189D01*
X128141500Y-91125406D01*
X128141500Y-89983524D01*
X128161502Y-89915403D01*
X128173858Y-89899220D01*
X128247040Y-89817944D01*
X128342527Y-89652556D01*
X128401542Y-89470928D01*
X128421504Y-89281000D01*
X128401542Y-89091072D01*
X128342527Y-88909444D01*
X128247040Y-88744056D01*
X128247038Y-88744054D01*
X128247034Y-88744048D01*
X128119255Y-88602135D01*
X127964752Y-88489882D01*
X127790288Y-88412206D01*
X127603487Y-88372500D01*
X127412513Y-88372500D01*
X127225711Y-88412206D01*
X127051247Y-88489882D01*
X126896744Y-88602135D01*
X126768965Y-88744048D01*
X126768958Y-88744058D01*
X126673476Y-88909438D01*
X126673473Y-88909445D01*
X126614457Y-89091072D01*
X126594496Y-89281000D01*
X122942904Y-89281000D01*
X123936071Y-88287833D01*
X124005400Y-88184075D01*
X124053155Y-88068785D01*
X124077500Y-87946394D01*
X124077500Y-87821606D01*
X124077500Y-87647004D01*
X132963500Y-87647004D01*
X132963500Y-87784995D01*
X132990420Y-87920328D01*
X132990421Y-87920331D01*
X133001216Y-87946392D01*
X133043225Y-88047811D01*
X133057241Y-88068787D01*
X133119885Y-88162541D01*
X133119890Y-88162547D01*
X133217452Y-88260109D01*
X133217458Y-88260114D01*
X133332189Y-88336775D01*
X133459672Y-88389580D01*
X133595007Y-88416500D01*
X133595008Y-88416500D01*
X133732992Y-88416500D01*
X133732993Y-88416500D01*
X133868328Y-88389580D01*
X133995811Y-88336775D01*
X134110542Y-88260114D01*
X134208114Y-88162542D01*
X134284775Y-88047811D01*
X134337580Y-87920328D01*
X134364500Y-87784993D01*
X134364500Y-87647007D01*
X134337580Y-87511672D01*
X134284775Y-87384189D01*
X134208114Y-87269458D01*
X134208109Y-87269452D01*
X134110547Y-87171890D01*
X134110541Y-87171885D01*
X134072471Y-87146447D01*
X133995811Y-87095225D01*
X133912764Y-87060826D01*
X133868331Y-87042421D01*
X133868328Y-87042420D01*
X133732995Y-87015500D01*
X133732993Y-87015500D01*
X133595007Y-87015500D01*
X133595004Y-87015500D01*
X133459671Y-87042420D01*
X133459668Y-87042421D01*
X133332189Y-87095225D01*
X133217458Y-87171885D01*
X133217452Y-87171890D01*
X133119890Y-87269452D01*
X133119885Y-87269458D01*
X133043225Y-87384189D01*
X132990421Y-87511668D01*
X132990420Y-87511671D01*
X132963500Y-87647004D01*
X124077500Y-87647004D01*
X124077500Y-83247004D01*
X132963500Y-83247004D01*
X132963500Y-83384995D01*
X132990420Y-83520328D01*
X132990421Y-83520331D01*
X133009338Y-83566000D01*
X133043225Y-83647811D01*
X133070449Y-83688554D01*
X133119885Y-83762541D01*
X133119890Y-83762547D01*
X133217452Y-83860109D01*
X133217458Y-83860114D01*
X133332189Y-83936775D01*
X133459672Y-83989580D01*
X133595007Y-84016500D01*
X133595008Y-84016500D01*
X133732992Y-84016500D01*
X133732993Y-84016500D01*
X133868328Y-83989580D01*
X133995811Y-83936775D01*
X134110542Y-83860114D01*
X134208114Y-83762542D01*
X134284775Y-83647811D01*
X134337580Y-83520328D01*
X134364500Y-83384993D01*
X134364500Y-83247007D01*
X134337580Y-83111672D01*
X134284775Y-82984189D01*
X134208114Y-82869458D01*
X134208109Y-82869452D01*
X134110547Y-82771890D01*
X134110541Y-82771885D01*
X134072471Y-82746447D01*
X133995811Y-82695225D01*
X133915421Y-82661926D01*
X133868331Y-82642421D01*
X133868328Y-82642420D01*
X133732995Y-82615500D01*
X133732993Y-82615500D01*
X133595007Y-82615500D01*
X133595004Y-82615500D01*
X133459671Y-82642420D01*
X133459668Y-82642421D01*
X133332189Y-82695225D01*
X133217458Y-82771885D01*
X133217452Y-82771890D01*
X133119890Y-82869452D01*
X133119885Y-82869458D01*
X133043225Y-82984189D01*
X132990421Y-83111668D01*
X132990420Y-83111671D01*
X132963500Y-83247004D01*
X124077500Y-83247004D01*
X124077500Y-81725604D01*
X124053155Y-81603213D01*
X124038010Y-81566649D01*
X124005401Y-81487923D01*
X123936072Y-81384165D01*
X122336405Y-79784498D01*
X122302379Y-79722186D01*
X122299500Y-79695403D01*
X122299500Y-79405024D01*
X122319502Y-79336903D01*
X122331858Y-79320720D01*
X122405040Y-79239444D01*
X122500527Y-79074056D01*
X122559542Y-78892428D01*
X122579504Y-78702500D01*
X122570768Y-78619385D01*
X122583540Y-78549547D01*
X122606980Y-78517122D01*
X123224871Y-77899233D01*
X123294200Y-77795475D01*
X123341955Y-77680185D01*
X123366300Y-77557794D01*
X123366300Y-77433006D01*
X123366300Y-76971794D01*
X123386302Y-76903673D01*
X123403200Y-76882703D01*
X123915084Y-76370818D01*
X123974761Y-76337397D01*
X124142594Y-76297105D01*
X124361963Y-76206240D01*
X124564416Y-76082176D01*
X124744969Y-75927969D01*
X124899176Y-75747416D01*
X125019134Y-75551662D01*
X125071780Y-75504034D01*
X125126565Y-75491500D01*
X128723435Y-75491500D01*
X128791556Y-75511502D01*
X128830865Y-75551662D01*
X128887985Y-75644872D01*
X128950825Y-75747417D01*
X128950826Y-75747419D01*
X129105030Y-75927969D01*
X129261265Y-76061406D01*
X129285584Y-76082176D01*
X129488037Y-76206240D01*
X129707406Y-76297105D01*
X129938289Y-76352535D01*
X130175000Y-76371165D01*
X130411711Y-76352535D01*
X130642594Y-76297105D01*
X130861963Y-76206240D01*
X131064416Y-76082176D01*
X131244969Y-75927969D01*
X131399176Y-75747416D01*
X131523240Y-75544963D01*
X131614105Y-75325594D01*
X131669535Y-75094711D01*
X131688165Y-74858000D01*
X131669535Y-74621289D01*
X131614105Y-74390406D01*
X131523240Y-74171037D01*
X131399176Y-73968584D01*
X131399173Y-73968580D01*
X131244969Y-73788030D01*
X131064419Y-73633826D01*
X131064417Y-73633825D01*
X131064416Y-73633824D01*
X130861963Y-73509760D01*
X130642594Y-73418895D01*
X130642592Y-73418894D01*
X130447116Y-73371965D01*
X130411711Y-73363465D01*
X130175000Y-73344835D01*
X129938289Y-73363465D01*
X129707407Y-73418894D01*
X129488038Y-73509759D01*
X129285582Y-73633825D01*
X129285580Y-73633826D01*
X129105030Y-73788030D01*
X128950826Y-73968580D01*
X128950825Y-73968582D01*
X128945616Y-73977082D01*
X128830865Y-74164337D01*
X128778220Y-74211966D01*
X128723435Y-74224500D01*
X125126565Y-74224500D01*
X125058444Y-74204498D01*
X125019134Y-74164337D01*
X124899176Y-73968584D01*
X124899173Y-73968580D01*
X124744969Y-73788030D01*
X124564419Y-73633826D01*
X124564417Y-73633825D01*
X124564416Y-73633824D01*
X124361963Y-73509760D01*
X124142594Y-73418895D01*
X124142592Y-73418894D01*
X123947116Y-73371965D01*
X123911711Y-73363465D01*
X123675000Y-73344835D01*
X123438289Y-73363465D01*
X123207407Y-73418894D01*
X122988038Y-73509759D01*
X122785582Y-73633825D01*
X122785580Y-73633826D01*
X122605030Y-73788030D01*
X122450826Y-73968580D01*
X122450825Y-73968582D01*
X122326759Y-74171038D01*
X122235894Y-74390407D01*
X122180465Y-74621289D01*
X122161835Y-74858000D01*
X122180465Y-75094711D01*
X122182506Y-75103211D01*
X122235894Y-75325592D01*
X122326759Y-75544961D01*
X122450825Y-75747417D01*
X122450826Y-75747419D01*
X122511466Y-75818419D01*
X122540497Y-75883208D01*
X122529892Y-75953408D01*
X122504751Y-75989344D01*
X122328967Y-76165129D01*
X122240727Y-76253369D01*
X122240726Y-76253371D01*
X122174468Y-76352534D01*
X122171400Y-76357125D01*
X122162064Y-76379664D01*
X122123646Y-76472412D01*
X122099300Y-76594803D01*
X122099300Y-77180804D01*
X122079298Y-77248925D01*
X122062395Y-77269900D01*
X121555989Y-77776305D01*
X121493677Y-77810330D01*
X121493092Y-77810455D01*
X121383715Y-77833704D01*
X121209247Y-77911382D01*
X121054744Y-78023635D01*
X120926965Y-78165548D01*
X120926958Y-78165558D01*
X120831476Y-78330938D01*
X120831473Y-78330945D01*
X120772457Y-78512572D01*
X120752496Y-78702500D01*
X120772457Y-78892427D01*
X120777655Y-78908423D01*
X120831473Y-79074056D01*
X120926960Y-79239444D01*
X121000137Y-79320715D01*
X121030853Y-79384720D01*
X121032500Y-79405024D01*
X121032500Y-79907351D01*
X121012498Y-79975472D01*
X120958842Y-80021965D01*
X120932697Y-80030597D01*
X120748716Y-80069704D01*
X120574247Y-80147382D01*
X120419744Y-80259635D01*
X120291965Y-80401548D01*
X120291958Y-80401558D01*
X120196476Y-80566938D01*
X120196473Y-80566945D01*
X120137457Y-80748572D01*
X120117496Y-80938500D01*
X120137457Y-81128428D01*
X120181334Y-81263466D01*
X120183362Y-81334434D01*
X120150597Y-81391497D01*
X119738169Y-81803927D01*
X119738163Y-81803933D01*
X119720618Y-81821476D01*
X119684588Y-81846658D01*
X119684560Y-81846671D01*
X119614351Y-81857216D01*
X119549586Y-81828128D01*
X119510829Y-81768644D01*
X119505500Y-81732388D01*
X119505500Y-78597394D01*
X119525502Y-78529273D01*
X119542405Y-78508299D01*
X120492912Y-77557792D01*
X121523071Y-76527633D01*
X121592400Y-76423875D01*
X121640155Y-76308585D01*
X121664500Y-76186194D01*
X121664500Y-76061406D01*
X121664500Y-72503606D01*
X121640155Y-72381215D01*
X121626168Y-72347447D01*
X121592401Y-72265925D01*
X121523072Y-72162167D01*
X120305861Y-70944957D01*
X120271838Y-70882647D01*
X120272438Y-70826455D01*
X120326035Y-70603211D01*
X120344665Y-70366500D01*
X120343996Y-70358000D01*
X122162337Y-70358000D01*
X122180960Y-70594632D01*
X122236371Y-70825437D01*
X122327208Y-71044738D01*
X122441896Y-71231890D01*
X122441897Y-71231890D01*
X123150016Y-70523771D01*
X123162482Y-70570292D01*
X123234890Y-70695708D01*
X123337292Y-70798110D01*
X123462708Y-70870518D01*
X123509226Y-70882982D01*
X122801107Y-71591101D01*
X122801108Y-71591102D01*
X122988261Y-71705791D01*
X123207562Y-71796628D01*
X123438367Y-71852039D01*
X123675000Y-71870662D01*
X123911632Y-71852039D01*
X124142437Y-71796628D01*
X124361738Y-71705791D01*
X124548890Y-71591102D01*
X124548891Y-71591102D01*
X123840772Y-70882982D01*
X123887292Y-70870518D01*
X124012708Y-70798110D01*
X124115110Y-70695708D01*
X124187518Y-70570292D01*
X124199983Y-70523772D01*
X124908102Y-71231891D01*
X124908102Y-71231890D01*
X125022791Y-71044738D01*
X125113628Y-70825437D01*
X125169039Y-70594632D01*
X125187662Y-70358000D01*
X128662337Y-70358000D01*
X128680960Y-70594632D01*
X128736371Y-70825437D01*
X128827208Y-71044738D01*
X128941896Y-71231890D01*
X128941897Y-71231890D01*
X129650016Y-70523771D01*
X129662482Y-70570292D01*
X129734890Y-70695708D01*
X129837292Y-70798110D01*
X129962708Y-70870518D01*
X130009226Y-70882982D01*
X129301107Y-71591101D01*
X129301108Y-71591102D01*
X129488261Y-71705791D01*
X129707562Y-71796628D01*
X129938367Y-71852039D01*
X130175000Y-71870662D01*
X130411632Y-71852039D01*
X130642437Y-71796628D01*
X130861738Y-71705791D01*
X131048890Y-71591102D01*
X131048891Y-71591102D01*
X130340772Y-70882982D01*
X130387292Y-70870518D01*
X130512708Y-70798110D01*
X130615110Y-70695708D01*
X130687518Y-70570292D01*
X130699983Y-70523772D01*
X131408102Y-71231891D01*
X131408102Y-71231890D01*
X131522791Y-71044738D01*
X131613628Y-70825437D01*
X131669039Y-70594632D01*
X131687662Y-70358000D01*
X131669039Y-70121367D01*
X131613628Y-69890562D01*
X131522791Y-69671261D01*
X131408102Y-69484108D01*
X131408101Y-69484107D01*
X130699982Y-70192226D01*
X130687518Y-70145708D01*
X130615110Y-70020292D01*
X130512708Y-69917890D01*
X130387292Y-69845482D01*
X130340771Y-69833016D01*
X131048890Y-69124897D01*
X131048890Y-69124896D01*
X130861738Y-69010208D01*
X130642437Y-68919371D01*
X130411632Y-68863960D01*
X130175000Y-68845337D01*
X129938367Y-68863960D01*
X129707562Y-68919371D01*
X129488266Y-69010206D01*
X129301108Y-69124897D01*
X129301108Y-69124898D01*
X130009227Y-69833017D01*
X129962708Y-69845482D01*
X129837292Y-69917890D01*
X129734890Y-70020292D01*
X129662482Y-70145708D01*
X129650017Y-70192227D01*
X128941898Y-69484108D01*
X128941897Y-69484108D01*
X128827206Y-69671266D01*
X128736371Y-69890562D01*
X128680960Y-70121367D01*
X128662337Y-70358000D01*
X125187662Y-70358000D01*
X125169039Y-70121367D01*
X125113628Y-69890562D01*
X125022791Y-69671261D01*
X124908102Y-69484108D01*
X124908101Y-69484107D01*
X124199982Y-70192226D01*
X124187518Y-70145708D01*
X124115110Y-70020292D01*
X124012708Y-69917890D01*
X123887292Y-69845482D01*
X123840771Y-69833016D01*
X124548890Y-69124897D01*
X124548890Y-69124896D01*
X124361738Y-69010208D01*
X124142437Y-68919371D01*
X123911632Y-68863960D01*
X123675000Y-68845337D01*
X123438367Y-68863960D01*
X123207562Y-68919371D01*
X122988266Y-69010206D01*
X122801108Y-69124897D01*
X122801108Y-69124898D01*
X123509227Y-69833017D01*
X123462708Y-69845482D01*
X123337292Y-69917890D01*
X123234890Y-70020292D01*
X123162482Y-70145708D01*
X123150017Y-70192227D01*
X122441898Y-69484108D01*
X122441897Y-69484108D01*
X122327206Y-69671266D01*
X122236371Y-69890562D01*
X122180960Y-70121367D01*
X122162337Y-70358000D01*
X120343996Y-70358000D01*
X120326035Y-70129789D01*
X120270605Y-69898906D01*
X120179740Y-69679537D01*
X120055676Y-69477084D01*
X120055673Y-69477080D01*
X119901469Y-69296530D01*
X119720919Y-69142326D01*
X119720917Y-69142325D01*
X119720916Y-69142324D01*
X119518463Y-69018260D01*
X119299094Y-68927395D01*
X119299092Y-68927394D01*
X119141151Y-68889476D01*
X119068211Y-68871965D01*
X118831500Y-68853335D01*
X118594789Y-68871965D01*
X118363907Y-68927394D01*
X118144538Y-69018259D01*
X117942082Y-69142325D01*
X117942080Y-69142326D01*
X117761530Y-69296530D01*
X117607326Y-69477080D01*
X117607325Y-69477082D01*
X117483259Y-69679538D01*
X117392394Y-69898907D01*
X117336965Y-70129789D01*
X117318335Y-70366500D01*
X117336965Y-70603210D01*
X117392394Y-70834092D01*
X117423008Y-70908000D01*
X117483260Y-71053463D01*
X117592601Y-71231891D01*
X117607325Y-71255917D01*
X117607326Y-71255919D01*
X117761530Y-71436469D01*
X117942080Y-71590673D01*
X117942084Y-71590676D01*
X118144537Y-71714740D01*
X118363906Y-71805605D01*
X118594789Y-71861035D01*
X118831500Y-71879665D01*
X119068211Y-71861035D01*
X119291453Y-71807439D01*
X119362358Y-71810986D01*
X119409959Y-71840863D01*
X120360595Y-72791499D01*
X120394621Y-72853811D01*
X120397500Y-72880594D01*
X120397500Y-74088127D01*
X120377498Y-74156248D01*
X120323842Y-74202741D01*
X120253568Y-74212845D01*
X120188988Y-74183351D01*
X120164068Y-74153964D01*
X120055676Y-73977084D01*
X120055673Y-73977080D01*
X119901469Y-73796530D01*
X119720919Y-73642326D01*
X119720917Y-73642325D01*
X119720916Y-73642324D01*
X119518463Y-73518260D01*
X119299094Y-73427395D01*
X119299092Y-73427394D01*
X119141151Y-73389476D01*
X119068211Y-73371965D01*
X118831500Y-73353335D01*
X118594789Y-73371965D01*
X118363907Y-73427394D01*
X118144538Y-73518259D01*
X117942082Y-73642325D01*
X117942080Y-73642326D01*
X117761530Y-73796530D01*
X117607326Y-73977080D01*
X117607325Y-73977082D01*
X117607324Y-73977084D01*
X117487365Y-74172837D01*
X117434720Y-74220466D01*
X117379935Y-74233000D01*
X113783065Y-74233000D01*
X113714944Y-74212998D01*
X113675634Y-74172837D01*
X113555676Y-73977084D01*
X113555673Y-73977080D01*
X113401469Y-73796530D01*
X113220919Y-73642326D01*
X113220917Y-73642325D01*
X113220916Y-73642324D01*
X113018463Y-73518260D01*
X112799094Y-73427395D01*
X112799092Y-73427394D01*
X112641151Y-73389476D01*
X112568211Y-73371965D01*
X112331500Y-73353335D01*
X112094789Y-73371965D01*
X111863907Y-73427394D01*
X111644538Y-73518259D01*
X111442082Y-73642325D01*
X111442080Y-73642326D01*
X111261530Y-73796530D01*
X111107326Y-73977080D01*
X111107325Y-73977082D01*
X110983259Y-74179538D01*
X110892394Y-74398907D01*
X110836965Y-74629789D01*
X110818335Y-74866500D01*
X110836965Y-75103210D01*
X110892394Y-75334092D01*
X110980957Y-75547902D01*
X110983260Y-75553463D01*
X111102115Y-75747416D01*
X111107325Y-75755917D01*
X111107326Y-75755919D01*
X111261530Y-75936469D01*
X111442080Y-76090673D01*
X111442084Y-76090676D01*
X111644537Y-76214740D01*
X111863906Y-76305605D01*
X112094789Y-76361035D01*
X112331500Y-76379665D01*
X112568211Y-76361035D01*
X112799094Y-76305605D01*
X113018463Y-76214740D01*
X113220916Y-76090676D01*
X113401469Y-75936469D01*
X113555676Y-75755916D01*
X113675634Y-75560162D01*
X113728280Y-75512534D01*
X113783065Y-75500000D01*
X117379935Y-75500000D01*
X117448056Y-75520002D01*
X117487365Y-75560162D01*
X117602116Y-75747417D01*
X117607325Y-75755917D01*
X117607326Y-75755919D01*
X117761530Y-75936469D01*
X117942080Y-76090673D01*
X117942084Y-76090676D01*
X118144537Y-76214740D01*
X118363906Y-76305605D01*
X118594789Y-76361035D01*
X118831500Y-76379665D01*
X119068211Y-76361035D01*
X119299094Y-76305605D01*
X119518463Y-76214740D01*
X119720916Y-76090676D01*
X119901469Y-75936469D01*
X120055676Y-75755916D01*
X120164069Y-75579034D01*
X120216715Y-75531406D01*
X120286756Y-75519799D01*
X120351954Y-75547902D01*
X120391608Y-75606792D01*
X120397500Y-75644872D01*
X120397500Y-75809206D01*
X120377498Y-75877327D01*
X120360595Y-75898301D01*
X118379931Y-77878964D01*
X118379926Y-77878971D01*
X118310601Y-77982723D01*
X118262846Y-78098012D01*
X118238500Y-78220403D01*
X118238500Y-82298500D01*
X118218498Y-82366621D01*
X118164842Y-82413114D01*
X118112500Y-82424500D01*
X115009745Y-82424500D01*
X114941624Y-82404498D01*
X114895131Y-82350842D01*
X114885027Y-82280568D01*
X114895551Y-82245248D01*
X114899284Y-82237243D01*
X114958543Y-82016087D01*
X114978498Y-81788000D01*
X114958543Y-81559913D01*
X114899284Y-81338757D01*
X114802523Y-81131251D01*
X114671198Y-80943700D01*
X114509300Y-80781802D01*
X114321749Y-80650477D01*
X114243485Y-80613982D01*
X114114246Y-80553717D01*
X114114240Y-80553715D01*
X114020771Y-80528670D01*
X113893087Y-80494457D01*
X113665000Y-80474502D01*
X113436913Y-80494457D01*
X113215759Y-80553715D01*
X113215753Y-80553717D01*
X113008250Y-80650477D01*
X112820703Y-80781799D01*
X112820697Y-80781804D01*
X112658804Y-80943697D01*
X112658797Y-80943706D01*
X112636344Y-80975772D01*
X112580887Y-81020100D01*
X112533132Y-81029500D01*
X109459371Y-81029500D01*
X109391250Y-81009498D01*
X109370276Y-80992595D01*
X108116019Y-79738338D01*
X108116015Y-79738334D01*
X107991784Y-79655326D01*
X107876226Y-79607460D01*
X107853750Y-79598150D01*
X107853747Y-79598149D01*
X107774265Y-79582339D01*
X107774263Y-79582338D01*
X107707209Y-79569000D01*
X107707206Y-79569000D01*
X86983794Y-79569000D01*
X86983790Y-79569000D01*
X86916735Y-79582339D01*
X86837252Y-79598149D01*
X86837246Y-79598151D01*
X86780076Y-79621831D01*
X86780076Y-79621832D01*
X86710763Y-79650543D01*
X86699216Y-79655326D01*
X86642824Y-79693006D01*
X86574985Y-79738334D01*
X86574979Y-79738339D01*
X84500838Y-81812480D01*
X84500833Y-81812486D01*
X84417827Y-81936714D01*
X84370736Y-82050402D01*
X84360649Y-82074753D01*
X84353396Y-82111215D01*
X84353396Y-82111216D01*
X84331500Y-82221290D01*
X84331500Y-105294132D01*
X84311498Y-105362253D01*
X84277772Y-105397344D01*
X84245706Y-105419797D01*
X84245697Y-105419804D01*
X84083804Y-105581697D01*
X84083799Y-105581703D01*
X83952477Y-105769250D01*
X83855717Y-105976753D01*
X83855715Y-105976759D01*
X83806247Y-106161377D01*
X83796457Y-106197913D01*
X83776502Y-106426000D01*
X83796343Y-106652789D01*
X83796457Y-106654086D01*
X83855715Y-106875240D01*
X83855717Y-106875246D01*
X83952477Y-107082749D01*
X84039128Y-107206500D01*
X84083802Y-107270300D01*
X84245700Y-107432198D01*
X84433251Y-107563523D01*
X84640757Y-107660284D01*
X84861913Y-107719543D01*
X85090000Y-107739498D01*
X85318087Y-107719543D01*
X85539243Y-107660284D01*
X85746749Y-107563523D01*
X85934300Y-107432198D01*
X86096198Y-107270300D01*
X86227523Y-107082749D01*
X86324284Y-106875243D01*
X86383543Y-106654087D01*
X86403498Y-106426000D01*
X86383543Y-106197913D01*
X86324284Y-105976757D01*
X86227523Y-105769251D01*
X86096198Y-105581700D01*
X85934300Y-105419802D01*
X85934293Y-105419797D01*
X85902228Y-105397344D01*
X85857900Y-105341887D01*
X85848500Y-105294132D01*
X85848500Y-82662371D01*
X85868502Y-82594250D01*
X85885405Y-82573276D01*
X87335776Y-81122905D01*
X87398088Y-81088879D01*
X87424871Y-81086000D01*
X107266129Y-81086000D01*
X107334250Y-81106002D01*
X107355224Y-81122905D01*
X108609485Y-82377166D01*
X108733716Y-82460174D01*
X108871753Y-82517351D01*
X108945022Y-82531924D01*
X108945023Y-82531925D01*
X108959598Y-82534824D01*
X109018294Y-82546500D01*
X109018295Y-82546500D01*
X109167705Y-82546500D01*
X112533132Y-82546500D01*
X112601253Y-82566502D01*
X112636344Y-82600228D01*
X112647038Y-82615500D01*
X112658802Y-82632300D01*
X112820700Y-82794198D01*
X113008251Y-82925523D01*
X113146297Y-82989894D01*
X113159371Y-82995991D01*
X113212656Y-83042908D01*
X113232117Y-83111185D01*
X113222530Y-83158403D01*
X113207555Y-83194557D01*
X113163008Y-83249838D01*
X113151116Y-83257153D01*
X113046430Y-83313807D01*
X113046424Y-83313811D01*
X112868762Y-83452091D01*
X112716279Y-83617729D01*
X112716275Y-83617734D01*
X112593141Y-83806206D01*
X112502703Y-84012386D01*
X112502702Y-84012387D01*
X112447437Y-84230624D01*
X112447436Y-84230630D01*
X112447436Y-84230632D01*
X112428844Y-84455000D01*
X112446069Y-84662875D01*
X112447437Y-84679375D01*
X112502702Y-84897612D01*
X112502703Y-84897613D01*
X112502704Y-84897616D01*
X112591233Y-85099444D01*
X112593141Y-85103793D01*
X112716275Y-85292265D01*
X112716279Y-85292270D01*
X112868762Y-85457908D01*
X112923331Y-85500381D01*
X113046424Y-85596189D01*
X113079680Y-85614186D01*
X113130071Y-85664200D01*
X113145423Y-85733516D01*
X113120862Y-85800129D01*
X113079680Y-85835813D01*
X113046426Y-85853810D01*
X113046424Y-85853811D01*
X112868762Y-85992091D01*
X112716279Y-86157729D01*
X112716275Y-86157734D01*
X112593141Y-86346206D01*
X112502703Y-86552386D01*
X112502702Y-86552387D01*
X112447437Y-86770624D01*
X112447436Y-86770630D01*
X112447436Y-86770632D01*
X112428844Y-86995000D01*
X112444836Y-87187993D01*
X112447437Y-87219375D01*
X112502702Y-87437612D01*
X112502703Y-87437613D01*
X112502704Y-87437616D01*
X112591781Y-87640692D01*
X112593141Y-87643793D01*
X112716275Y-87832265D01*
X112716279Y-87832270D01*
X112868762Y-87997908D01*
X112923331Y-88040381D01*
X113046424Y-88136189D01*
X113244426Y-88243342D01*
X113244427Y-88243342D01*
X113244428Y-88243343D01*
X113293281Y-88260114D01*
X113457365Y-88316444D01*
X113457370Y-88316444D01*
X113460083Y-88317132D01*
X113461072Y-88317716D01*
X113462294Y-88318136D01*
X113462207Y-88318387D01*
X113521210Y-88353244D01*
X113553109Y-88416670D01*
X113545654Y-88487274D01*
X113503215Y-88541213D01*
X113345246Y-88655985D01*
X113295097Y-88711681D01*
X113234650Y-88748920D01*
X113163667Y-88747568D01*
X113112366Y-88716465D01*
X107469832Y-83073931D01*
X107469830Y-83073929D01*
X107366072Y-83004600D01*
X107250782Y-82956845D01*
X107177083Y-82942185D01*
X107128393Y-82932500D01*
X107128391Y-82932500D01*
X105610200Y-82932500D01*
X105542079Y-82912498D01*
X105516563Y-82890810D01*
X105513252Y-82887133D01*
X105358752Y-82774882D01*
X105184288Y-82697206D01*
X104997487Y-82657500D01*
X104806513Y-82657500D01*
X104619711Y-82697206D01*
X104445247Y-82774882D01*
X104341061Y-82850578D01*
X104274193Y-82874437D01*
X104205041Y-82858356D01*
X104192939Y-82850578D01*
X104088752Y-82774882D01*
X103914288Y-82697206D01*
X103727487Y-82657500D01*
X103536513Y-82657500D01*
X103349711Y-82697206D01*
X103175247Y-82774882D01*
X103020744Y-82887135D01*
X102892965Y-83029048D01*
X102892958Y-83029058D01*
X102818281Y-83158403D01*
X102797473Y-83194444D01*
X102789255Y-83219737D01*
X102738457Y-83376072D01*
X102718496Y-83566000D01*
X102738457Y-83755927D01*
X102747507Y-83783778D01*
X102797473Y-83937556D01*
X102797476Y-83937561D01*
X102892958Y-84102941D01*
X102892965Y-84102951D01*
X103020744Y-84244864D01*
X103020747Y-84244866D01*
X103175248Y-84357118D01*
X103349712Y-84434794D01*
X103536513Y-84474500D01*
X103592405Y-84474500D01*
X103660526Y-84494502D01*
X103681500Y-84511405D01*
X103990167Y-84820072D01*
X104093925Y-84889401D01*
X104175447Y-84923168D01*
X104209215Y-84937155D01*
X104331606Y-84961500D01*
X106877007Y-84961500D01*
X106945128Y-84981502D01*
X106966102Y-84998405D01*
X116217768Y-94250071D01*
X116321526Y-94319400D01*
X116436816Y-94367155D01*
X116559207Y-94391500D01*
X116683995Y-94391500D01*
X116684406Y-94391500D01*
X116752527Y-94411502D01*
X116773501Y-94428405D01*
X117000501Y-94655405D01*
X117034527Y-94717717D01*
X117029462Y-94788532D01*
X116986915Y-94845368D01*
X116920395Y-94870179D01*
X116911406Y-94870500D01*
X113983603Y-94870500D01*
X113910568Y-94885028D01*
X113861215Y-94894845D01*
X113861213Y-94894845D01*
X113861212Y-94894846D01*
X113745923Y-94942601D01*
X113642171Y-95011926D01*
X113642164Y-95011931D01*
X112640501Y-96013595D01*
X112578189Y-96047621D01*
X112551406Y-96050500D01*
X111406603Y-96050500D01*
X111333568Y-96065028D01*
X111284215Y-96074845D01*
X111284213Y-96074845D01*
X111284212Y-96074846D01*
X111246701Y-96090384D01*
X111178947Y-96118449D01*
X111168923Y-96122601D01*
X111065171Y-96191926D01*
X111065164Y-96191931D01*
X110264501Y-96992595D01*
X110202189Y-97026621D01*
X110175406Y-97029500D01*
X108862143Y-97029500D01*
X108794022Y-97009498D01*
X108747529Y-96955842D01*
X108736833Y-96890330D01*
X108737005Y-96888694D01*
X108749206Y-96772608D01*
X108729244Y-96582680D01*
X108670229Y-96401052D01*
X108602536Y-96283804D01*
X108574744Y-96235667D01*
X108574743Y-96235666D01*
X108574742Y-96235664D01*
X108501565Y-96154392D01*
X108470848Y-96090384D01*
X108469202Y-96070082D01*
X108469202Y-95452913D01*
X108469201Y-95452909D01*
X108444857Y-95330521D01*
X108412445Y-95252271D01*
X108397103Y-95215231D01*
X108327774Y-95111473D01*
X103603852Y-90387551D01*
X103569826Y-90325239D01*
X103574891Y-90254424D01*
X103617438Y-90197588D01*
X103683958Y-90172777D01*
X103753331Y-90187867D01*
X103804615Y-90216061D01*
X104105553Y-90335211D01*
X104105558Y-90335212D01*
X104105560Y-90335213D01*
X104105566Y-90335215D01*
X104299460Y-90384998D01*
X104419052Y-90415704D01*
X104740166Y-90456270D01*
X104740170Y-90456270D01*
X105063830Y-90456270D01*
X105063834Y-90456270D01*
X105384948Y-90415704D01*
X105541697Y-90375457D01*
X105698433Y-90335215D01*
X105698439Y-90335213D01*
X105698438Y-90335213D01*
X105698447Y-90335211D01*
X105999385Y-90216061D01*
X106283016Y-90060134D01*
X106544869Y-89869887D01*
X106780812Y-89648322D01*
X106987125Y-89398932D01*
X107160554Y-89125651D01*
X107298365Y-88832788D01*
X107398384Y-88524962D01*
X107459033Y-88207028D01*
X107467730Y-88068787D01*
X107479356Y-87884006D01*
X107479356Y-87883993D01*
X107459034Y-87560989D01*
X107459033Y-87560972D01*
X107398384Y-87243038D01*
X107298365Y-86935212D01*
X107160554Y-86642349D01*
X107103461Y-86552384D01*
X106987128Y-86369072D01*
X106987126Y-86369069D01*
X106898648Y-86262118D01*
X106780812Y-86119678D01*
X106544869Y-85898113D01*
X106495088Y-85861945D01*
X106283018Y-85707867D01*
X106212892Y-85669315D01*
X105999385Y-85551939D01*
X105698447Y-85432789D01*
X105698445Y-85432788D01*
X105698439Y-85432786D01*
X105698433Y-85432784D01*
X105384962Y-85352299D01*
X105384954Y-85352297D01*
X105384948Y-85352296D01*
X105384938Y-85352294D01*
X105384934Y-85352294D01*
X105063848Y-85311731D01*
X105063837Y-85311730D01*
X105063834Y-85311730D01*
X104740166Y-85311730D01*
X104740163Y-85311730D01*
X104740151Y-85311731D01*
X104419065Y-85352294D01*
X104419058Y-85352295D01*
X104419052Y-85352296D01*
X104419047Y-85352297D01*
X104419037Y-85352299D01*
X104105566Y-85432784D01*
X104105560Y-85432786D01*
X103804615Y-85551939D01*
X103520981Y-85707867D01*
X103259132Y-85898112D01*
X103259131Y-85898112D01*
X103023190Y-86119676D01*
X103023180Y-86119687D01*
X102816873Y-86369069D01*
X102816871Y-86369072D01*
X102643451Y-86642339D01*
X102643443Y-86642353D01*
X102505638Y-86935205D01*
X102505634Y-86935214D01*
X102405618Y-87243029D01*
X102405615Y-87243042D01*
X102344968Y-87560965D01*
X102344965Y-87560989D01*
X102324644Y-87883993D01*
X102324644Y-87884006D01*
X102344965Y-88207010D01*
X102344968Y-88207034D01*
X102405615Y-88524957D01*
X102405618Y-88524970D01*
X102505634Y-88832785D01*
X102505638Y-88832794D01*
X102604025Y-89041878D01*
X102614931Y-89112032D01*
X102586178Y-89176945D01*
X102526894Y-89216009D01*
X102455902Y-89216820D01*
X102400922Y-89184621D01*
X101889405Y-88673104D01*
X101855379Y-88610792D01*
X101852500Y-88584009D01*
X101852500Y-87237407D01*
X101852499Y-87237403D01*
X101848913Y-87219375D01*
X101828155Y-87115015D01*
X101780400Y-86999725D01*
X101711071Y-86895967D01*
X101622833Y-86807729D01*
X98531199Y-83716095D01*
X98497173Y-83653783D01*
X98502238Y-83582968D01*
X98544785Y-83526132D01*
X98611305Y-83501321D01*
X98620294Y-83501000D01*
X99702766Y-83501000D01*
X99770887Y-83521002D01*
X99776827Y-83525064D01*
X99873248Y-83595118D01*
X100047712Y-83672794D01*
X100234513Y-83712500D01*
X100425487Y-83712500D01*
X100612288Y-83672794D01*
X100786752Y-83595118D01*
X100941253Y-83482866D01*
X101011864Y-83404445D01*
X101069034Y-83340951D01*
X101069035Y-83340949D01*
X101069040Y-83340944D01*
X101164527Y-83175556D01*
X101223542Y-82993928D01*
X101243504Y-82804000D01*
X101223542Y-82614072D01*
X101164527Y-82432444D01*
X101069040Y-82267056D01*
X101069038Y-82267054D01*
X101069034Y-82267048D01*
X100941255Y-82125135D01*
X100786752Y-82012882D01*
X100612288Y-81935206D01*
X100425487Y-81895500D01*
X100234513Y-81895500D01*
X100047711Y-81935206D01*
X99873247Y-82012882D01*
X99718747Y-82125133D01*
X99673509Y-82175375D01*
X99661573Y-82188633D01*
X99658262Y-82192310D01*
X99597816Y-82229550D01*
X99564625Y-82234000D01*
X96085200Y-82234000D01*
X96017079Y-82213998D01*
X95991563Y-82192310D01*
X95988252Y-82188633D01*
X95833752Y-82076382D01*
X95659288Y-81998706D01*
X95472487Y-81959000D01*
X95281513Y-81959000D01*
X95094711Y-81998706D01*
X94920247Y-82076382D01*
X94765744Y-82188635D01*
X94637965Y-82330548D01*
X94637958Y-82330558D01*
X94542476Y-82495938D01*
X94542473Y-82495944D01*
X94530782Y-82531924D01*
X94483457Y-82677572D01*
X94463496Y-82867500D01*
X94483457Y-83057427D01*
X94508193Y-83133555D01*
X94542473Y-83239056D01*
X94637960Y-83404444D01*
X94711137Y-83485715D01*
X94741853Y-83549720D01*
X94743500Y-83570024D01*
X94743500Y-93919405D01*
X94723498Y-93987526D01*
X94706595Y-94008500D01*
X92306167Y-96408929D01*
X92217931Y-96497164D01*
X92217926Y-96497171D01*
X92148601Y-96600923D01*
X92100846Y-96716212D01*
X92076500Y-96838603D01*
X92076500Y-98230474D01*
X92056498Y-98298595D01*
X92044137Y-98314784D01*
X91970957Y-98396059D01*
X91875476Y-98561438D01*
X91875473Y-98561445D01*
X91816457Y-98743072D01*
X91796496Y-98933000D01*
X91816457Y-99122927D01*
X91821986Y-99139942D01*
X91875473Y-99304556D01*
X91875476Y-99304561D01*
X91970958Y-99469941D01*
X91970965Y-99469951D01*
X92098744Y-99611864D01*
X92120535Y-99627696D01*
X92253248Y-99724118D01*
X92427712Y-99801794D01*
X92614513Y-99841500D01*
X92805487Y-99841500D01*
X92992288Y-99801794D01*
X93166752Y-99724118D01*
X93321253Y-99611866D01*
X93321255Y-99611864D01*
X93449034Y-99469951D01*
X93449035Y-99469949D01*
X93449040Y-99469944D01*
X93544527Y-99304556D01*
X93603542Y-99122928D01*
X93623504Y-98933000D01*
X93603542Y-98743072D01*
X93544527Y-98561444D01*
X93449040Y-98396056D01*
X93375863Y-98314784D01*
X93345146Y-98250776D01*
X93343500Y-98230474D01*
X93343500Y-97215594D01*
X93363502Y-97147473D01*
X93380405Y-97126499D01*
X94610242Y-95896663D01*
X95869072Y-94637833D01*
X95938401Y-94534075D01*
X95986155Y-94418784D01*
X95993501Y-94381856D01*
X96010500Y-94296394D01*
X96010500Y-84725875D01*
X96030502Y-84657754D01*
X96084158Y-84611261D01*
X96154432Y-84601157D01*
X96219012Y-84630651D01*
X96245619Y-84662875D01*
X96288958Y-84737941D01*
X96288965Y-84737951D01*
X96416744Y-84879864D01*
X96441178Y-84897616D01*
X96571248Y-84992118D01*
X96745712Y-85069794D01*
X96932513Y-85109500D01*
X97072781Y-85109500D01*
X97140902Y-85129502D01*
X97187395Y-85183158D01*
X97197499Y-85253432D01*
X97192613Y-85274439D01*
X97190457Y-85281071D01*
X97170496Y-85471000D01*
X97190457Y-85660927D01*
X97211276Y-85725000D01*
X97249473Y-85842556D01*
X97249476Y-85842561D01*
X97344958Y-86007941D01*
X97344965Y-86007951D01*
X97472744Y-86149864D01*
X97483576Y-86157734D01*
X97627248Y-86262118D01*
X97801712Y-86339794D01*
X97988513Y-86379500D01*
X98131406Y-86379500D01*
X98199527Y-86399502D01*
X98220501Y-86416405D01*
X100098595Y-88294499D01*
X100132621Y-88356811D01*
X100135500Y-88383594D01*
X100135500Y-88544237D01*
X100115498Y-88612358D01*
X100061842Y-88658851D01*
X99991568Y-88668955D01*
X99983303Y-88667484D01*
X99790487Y-88626500D01*
X99599513Y-88626500D01*
X99412711Y-88666206D01*
X99238247Y-88743882D01*
X99083747Y-88856133D01*
X99080437Y-88859810D01*
X99019991Y-88897050D01*
X98986800Y-88901500D01*
X98743603Y-88901500D01*
X98670568Y-88916028D01*
X98621215Y-88925845D01*
X98621213Y-88925845D01*
X98621212Y-88925846D01*
X98505923Y-88973601D01*
X98402171Y-89042926D01*
X98402164Y-89042931D01*
X97424931Y-90020164D01*
X97424926Y-90020171D01*
X97355601Y-90123923D01*
X97307846Y-90239212D01*
X97283500Y-90361603D01*
X97283500Y-95612701D01*
X97291809Y-95654472D01*
X97307845Y-95735090D01*
X97355600Y-95850380D01*
X97424929Y-95954138D01*
X97424931Y-95954140D01*
X97754595Y-96283804D01*
X97788621Y-96346116D01*
X97791500Y-96372899D01*
X97791500Y-103950606D01*
X97791500Y-104075394D01*
X97815845Y-104197785D01*
X97863600Y-104313075D01*
X97932929Y-104416833D01*
X97932931Y-104416835D01*
X98108578Y-104592482D01*
X98142604Y-104654794D01*
X98144793Y-104668406D01*
X98162158Y-104833628D01*
X98192227Y-104926171D01*
X98221174Y-105015257D01*
X98221177Y-105015262D01*
X98316659Y-105180642D01*
X98316666Y-105180652D01*
X98444445Y-105322565D01*
X98505971Y-105367266D01*
X98549325Y-105423488D01*
X98555400Y-105494224D01*
X98522269Y-105557016D01*
X98521005Y-105558297D01*
X95275709Y-108803595D01*
X95213397Y-108837620D01*
X95186614Y-108840500D01*
X94053200Y-108840500D01*
X93985079Y-108820498D01*
X93959563Y-108798810D01*
X93956252Y-108795133D01*
X93801752Y-108682882D01*
X93627288Y-108605206D01*
X93440487Y-108565500D01*
X93249513Y-108565500D01*
X93062711Y-108605206D01*
X92888247Y-108682882D01*
X92733744Y-108795135D01*
X92605965Y-108937048D01*
X92605958Y-108937058D01*
X92510476Y-109102438D01*
X92510473Y-109102445D01*
X92451457Y-109284072D01*
X92431496Y-109474001D01*
X92431496Y-109476500D01*
X92431087Y-109477892D01*
X92430806Y-109480567D01*
X92430316Y-109480515D01*
X92411494Y-109544621D01*
X92357838Y-109591114D01*
X92305496Y-109602500D01*
X90107603Y-109602500D01*
X90034568Y-109617028D01*
X89985215Y-109626845D01*
X89985213Y-109626845D01*
X89985212Y-109626846D01*
X89869923Y-109674601D01*
X89766171Y-109743926D01*
X89766164Y-109743931D01*
X80275931Y-119234164D01*
X80275926Y-119234171D01*
X80206601Y-119337923D01*
X80158846Y-119453212D01*
X80134500Y-119575603D01*
X80134500Y-121486727D01*
X80114498Y-121554848D01*
X80060842Y-121601341D01*
X80008500Y-121612727D01*
X79957350Y-121612727D01*
X79896803Y-121619236D01*
X79896795Y-121619238D01*
X79759797Y-121670337D01*
X79759792Y-121670339D01*
X79642738Y-121757965D01*
X79598556Y-121816987D01*
X79541720Y-121859534D01*
X79470905Y-121864598D01*
X79408592Y-121830573D01*
X79396820Y-121816987D01*
X79352904Y-121758322D01*
X79235965Y-121670782D01*
X79099093Y-121619732D01*
X79038597Y-121613227D01*
X78482000Y-121613227D01*
X78482000Y-121920000D01*
X77974000Y-121920000D01*
X77974000Y-121613227D01*
X77417402Y-121613227D01*
X77356906Y-121619732D01*
X77220035Y-121670782D01*
X77220034Y-121670782D01*
X77103095Y-121758322D01*
X77019862Y-121869509D01*
X76963026Y-121912056D01*
X76918994Y-121920000D01*
X76420464Y-121920000D01*
X76352343Y-121899998D01*
X76305850Y-121846342D01*
X76295746Y-121776068D01*
X76325240Y-121711488D01*
X76331369Y-121704905D01*
X76372129Y-121664145D01*
X76454506Y-121581768D01*
X76466000Y-121554019D01*
X76466000Y-121523982D01*
X76466000Y-74866500D01*
X78092835Y-74866500D01*
X78111465Y-75103210D01*
X78166894Y-75334092D01*
X78255457Y-75547902D01*
X78257760Y-75553463D01*
X78376615Y-75747416D01*
X78381825Y-75755917D01*
X78381826Y-75755919D01*
X78536030Y-75936469D01*
X78716580Y-76090673D01*
X78716584Y-76090676D01*
X78919037Y-76214740D01*
X79138406Y-76305605D01*
X79369289Y-76361035D01*
X79606000Y-76379665D01*
X79842711Y-76361035D01*
X80073594Y-76305605D01*
X80292963Y-76214740D01*
X80495416Y-76090676D01*
X80675969Y-75936469D01*
X80830176Y-75755916D01*
X80954240Y-75553463D01*
X81045105Y-75334094D01*
X81100535Y-75103211D01*
X81119165Y-74866500D01*
X84592835Y-74866500D01*
X84611465Y-75103210D01*
X84666894Y-75334092D01*
X84755457Y-75547902D01*
X84757760Y-75553463D01*
X84876615Y-75747416D01*
X84881825Y-75755917D01*
X84881826Y-75755919D01*
X85036030Y-75936469D01*
X85216580Y-76090673D01*
X85216584Y-76090676D01*
X85419037Y-76214740D01*
X85638406Y-76305605D01*
X85869289Y-76361035D01*
X86106000Y-76379665D01*
X86342711Y-76361035D01*
X86573594Y-76305605D01*
X86792963Y-76214740D01*
X86995416Y-76090676D01*
X87175969Y-75936469D01*
X87330176Y-75755916D01*
X87454240Y-75553463D01*
X87545105Y-75334094D01*
X87600535Y-75103211D01*
X87619165Y-74866500D01*
X87600535Y-74629789D01*
X87545105Y-74398906D01*
X87454240Y-74179537D01*
X87330176Y-73977084D01*
X87330173Y-73977080D01*
X87175969Y-73796530D01*
X86995419Y-73642326D01*
X86995417Y-73642325D01*
X86995416Y-73642324D01*
X86792963Y-73518260D01*
X86573594Y-73427395D01*
X86573592Y-73427394D01*
X86415651Y-73389476D01*
X86342711Y-73371965D01*
X86106000Y-73353335D01*
X85869289Y-73371965D01*
X85638407Y-73427394D01*
X85419038Y-73518259D01*
X85216582Y-73642325D01*
X85216580Y-73642326D01*
X85036030Y-73796530D01*
X84881826Y-73977080D01*
X84881825Y-73977082D01*
X84757759Y-74179538D01*
X84666894Y-74398907D01*
X84611465Y-74629789D01*
X84592835Y-74866500D01*
X81119165Y-74866500D01*
X81100535Y-74629789D01*
X81045105Y-74398906D01*
X80954240Y-74179537D01*
X80830176Y-73977084D01*
X80830173Y-73977080D01*
X80675969Y-73796530D01*
X80495419Y-73642326D01*
X80495417Y-73642325D01*
X80495416Y-73642324D01*
X80292963Y-73518260D01*
X80073594Y-73427395D01*
X80073592Y-73427394D01*
X79915651Y-73389476D01*
X79842711Y-73371965D01*
X79606000Y-73353335D01*
X79369289Y-73371965D01*
X79138407Y-73427394D01*
X78919038Y-73518259D01*
X78716582Y-73642325D01*
X78716580Y-73642326D01*
X78536030Y-73796530D01*
X78381826Y-73977080D01*
X78381825Y-73977082D01*
X78257759Y-74179538D01*
X78166894Y-74398907D01*
X78111465Y-74629789D01*
X78092835Y-74866500D01*
X76466000Y-74866500D01*
X76466000Y-70366500D01*
X78092835Y-70366500D01*
X78111465Y-70603210D01*
X78166894Y-70834092D01*
X78197508Y-70908000D01*
X78257760Y-71053463D01*
X78367101Y-71231891D01*
X78381825Y-71255917D01*
X78381826Y-71255919D01*
X78536030Y-71436469D01*
X78716580Y-71590673D01*
X78716584Y-71590676D01*
X78919037Y-71714740D01*
X79138406Y-71805605D01*
X79369289Y-71861035D01*
X79606000Y-71879665D01*
X79842711Y-71861035D01*
X80073594Y-71805605D01*
X80292963Y-71714740D01*
X80495416Y-71590676D01*
X80675969Y-71436469D01*
X80830176Y-71255916D01*
X80954240Y-71053463D01*
X81045105Y-70834094D01*
X81100535Y-70603211D01*
X81119165Y-70366500D01*
X84592835Y-70366500D01*
X84611465Y-70603210D01*
X84666894Y-70834092D01*
X84697508Y-70908000D01*
X84757760Y-71053463D01*
X84867101Y-71231891D01*
X84881825Y-71255917D01*
X84881826Y-71255919D01*
X85036030Y-71436469D01*
X85216580Y-71590673D01*
X85216584Y-71590676D01*
X85419037Y-71714740D01*
X85638406Y-71805605D01*
X85869289Y-71861035D01*
X86106000Y-71879665D01*
X86342711Y-71861035D01*
X86573594Y-71805605D01*
X86792963Y-71714740D01*
X86995416Y-71590676D01*
X87175969Y-71436469D01*
X87330176Y-71255916D01*
X87454240Y-71053463D01*
X87545105Y-70834094D01*
X87600535Y-70603211D01*
X87619165Y-70366500D01*
X87600535Y-70129789D01*
X87587281Y-70074582D01*
X95383500Y-70074582D01*
X95383500Y-70222418D01*
X95412342Y-70367413D01*
X95468916Y-70503995D01*
X95551049Y-70626916D01*
X95655584Y-70731451D01*
X95778505Y-70813584D01*
X95915087Y-70870158D01*
X96060082Y-70899000D01*
X96060087Y-70899000D01*
X96207913Y-70899000D01*
X96207918Y-70899000D01*
X96352913Y-70870158D01*
X96489495Y-70813584D01*
X96612416Y-70731451D01*
X96716951Y-70626916D01*
X96799084Y-70503995D01*
X96855658Y-70367413D01*
X96884500Y-70222418D01*
X96884500Y-70074582D01*
X103363500Y-70074582D01*
X103363500Y-70222418D01*
X103392342Y-70367413D01*
X103448916Y-70503995D01*
X103531049Y-70626916D01*
X103635584Y-70731451D01*
X103758505Y-70813584D01*
X103895087Y-70870158D01*
X104040082Y-70899000D01*
X104040087Y-70899000D01*
X104187913Y-70899000D01*
X104187918Y-70899000D01*
X104332913Y-70870158D01*
X104469495Y-70813584D01*
X104592416Y-70731451D01*
X104696951Y-70626916D01*
X104779084Y-70503995D01*
X104835658Y-70367413D01*
X104835840Y-70366500D01*
X110818335Y-70366500D01*
X110836965Y-70603210D01*
X110892394Y-70834092D01*
X110923008Y-70908000D01*
X110983260Y-71053463D01*
X111092601Y-71231891D01*
X111107325Y-71255917D01*
X111107326Y-71255919D01*
X111261530Y-71436469D01*
X111442080Y-71590673D01*
X111442084Y-71590676D01*
X111644537Y-71714740D01*
X111863906Y-71805605D01*
X112094789Y-71861035D01*
X112331500Y-71879665D01*
X112568211Y-71861035D01*
X112799094Y-71805605D01*
X113018463Y-71714740D01*
X113220916Y-71590676D01*
X113401469Y-71436469D01*
X113555676Y-71255916D01*
X113679740Y-71053463D01*
X113770605Y-70834094D01*
X113826035Y-70603211D01*
X113844665Y-70366500D01*
X113826035Y-70129789D01*
X113770605Y-69898906D01*
X113679740Y-69679537D01*
X113555676Y-69477084D01*
X113555673Y-69477080D01*
X113401469Y-69296530D01*
X113220919Y-69142326D01*
X113220917Y-69142325D01*
X113220916Y-69142324D01*
X113018463Y-69018260D01*
X112799094Y-68927395D01*
X112799092Y-68927394D01*
X112641151Y-68889476D01*
X112568211Y-68871965D01*
X112331500Y-68853335D01*
X112094789Y-68871965D01*
X111863907Y-68927394D01*
X111644538Y-69018259D01*
X111442082Y-69142325D01*
X111442080Y-69142326D01*
X111261530Y-69296530D01*
X111107326Y-69477080D01*
X111107325Y-69477082D01*
X110983259Y-69679538D01*
X110892394Y-69898907D01*
X110836965Y-70129789D01*
X110818335Y-70366500D01*
X104835840Y-70366500D01*
X104864500Y-70222418D01*
X104864500Y-70074582D01*
X104835658Y-69929587D01*
X104779084Y-69793005D01*
X104696951Y-69670084D01*
X104592416Y-69565549D01*
X104469495Y-69483416D01*
X104454199Y-69477080D01*
X104332916Y-69426843D01*
X104332913Y-69426842D01*
X104187918Y-69398000D01*
X104040082Y-69398000D01*
X103967584Y-69412421D01*
X103895086Y-69426842D01*
X103895083Y-69426843D01*
X103758504Y-69483416D01*
X103635588Y-69565546D01*
X103635581Y-69565551D01*
X103531051Y-69670081D01*
X103531046Y-69670088D01*
X103448916Y-69793004D01*
X103392343Y-69929583D01*
X103392342Y-69929586D01*
X103392342Y-69929587D01*
X103363500Y-70074582D01*
X96884500Y-70074582D01*
X96855658Y-69929587D01*
X96799084Y-69793005D01*
X96716951Y-69670084D01*
X96612416Y-69565549D01*
X96489495Y-69483416D01*
X96474199Y-69477080D01*
X96352916Y-69426843D01*
X96352913Y-69426842D01*
X96207918Y-69398000D01*
X96060082Y-69398000D01*
X95987584Y-69412421D01*
X95915086Y-69426842D01*
X95915083Y-69426843D01*
X95778504Y-69483416D01*
X95655588Y-69565546D01*
X95655581Y-69565551D01*
X95551051Y-69670081D01*
X95551046Y-69670088D01*
X95468916Y-69793004D01*
X95412343Y-69929583D01*
X95412342Y-69929586D01*
X95412342Y-69929587D01*
X95383500Y-70074582D01*
X87587281Y-70074582D01*
X87545105Y-69898906D01*
X87454240Y-69679537D01*
X87330176Y-69477084D01*
X87330173Y-69477080D01*
X87175969Y-69296530D01*
X86995419Y-69142326D01*
X86995417Y-69142325D01*
X86995416Y-69142324D01*
X86792963Y-69018260D01*
X86573594Y-68927395D01*
X86573592Y-68927394D01*
X86415651Y-68889476D01*
X86342711Y-68871965D01*
X86106000Y-68853335D01*
X85869289Y-68871965D01*
X85638407Y-68927394D01*
X85419038Y-69018259D01*
X85216582Y-69142325D01*
X85216580Y-69142326D01*
X85036030Y-69296530D01*
X84881826Y-69477080D01*
X84881825Y-69477082D01*
X84757759Y-69679538D01*
X84666894Y-69898907D01*
X84611465Y-70129789D01*
X84592835Y-70366500D01*
X81119165Y-70366500D01*
X81100535Y-70129789D01*
X81045105Y-69898906D01*
X80954240Y-69679537D01*
X80830176Y-69477084D01*
X80830173Y-69477080D01*
X80675969Y-69296530D01*
X80495419Y-69142326D01*
X80495417Y-69142325D01*
X80495416Y-69142324D01*
X80292963Y-69018260D01*
X80073594Y-68927395D01*
X80073592Y-68927394D01*
X79915651Y-68889476D01*
X79842711Y-68871965D01*
X79606000Y-68853335D01*
X79369289Y-68871965D01*
X79138407Y-68927394D01*
X78919038Y-69018259D01*
X78716582Y-69142325D01*
X78716580Y-69142326D01*
X78536030Y-69296530D01*
X78381826Y-69477080D01*
X78381825Y-69477082D01*
X78257759Y-69679538D01*
X78166894Y-69898907D01*
X78111465Y-70129789D01*
X78092835Y-70366500D01*
X76466000Y-70366500D01*
X76466000Y-68675690D01*
X76486002Y-68607569D01*
X76502905Y-68586595D01*
X76778095Y-68311405D01*
X76840407Y-68277379D01*
X76867190Y-68274500D01*
X132936810Y-68274500D01*
X133004931Y-68294502D01*
G37*
G04 #@! TD.AperFunction*
G04 #@! TA.AperFunction,Conductor*
G36*
X88036084Y-113369984D02*
G01*
X88092920Y-113412531D01*
X88117731Y-113479051D01*
X88117362Y-113501208D01*
X88113921Y-113533958D01*
X88113496Y-113538000D01*
X88115943Y-113561278D01*
X88133457Y-113727927D01*
X88157680Y-113802475D01*
X88192473Y-113909556D01*
X88203375Y-113928438D01*
X88287958Y-114074941D01*
X88287965Y-114074951D01*
X88415744Y-114216864D01*
X88415747Y-114216866D01*
X88570248Y-114329118D01*
X88744712Y-114406794D01*
X88931513Y-114446500D01*
X89122491Y-114446500D01*
X89228999Y-114423860D01*
X89299790Y-114429261D01*
X89356423Y-114472077D01*
X89380917Y-114538714D01*
X89365496Y-114608016D01*
X89344292Y-114636201D01*
X85444167Y-118536329D01*
X85355931Y-118624564D01*
X85355926Y-118624571D01*
X85286601Y-118728323D01*
X85239907Y-118841052D01*
X85238845Y-118843615D01*
X85230299Y-118886581D01*
X85214500Y-118966003D01*
X85214500Y-121486727D01*
X85194498Y-121554848D01*
X85140842Y-121601341D01*
X85088500Y-121612727D01*
X85037350Y-121612727D01*
X84976803Y-121619236D01*
X84976795Y-121619238D01*
X84839797Y-121670337D01*
X84839792Y-121670339D01*
X84722738Y-121757965D01*
X84678868Y-121816570D01*
X84622032Y-121859117D01*
X84551216Y-121864181D01*
X84488904Y-121830156D01*
X84477132Y-121816570D01*
X84433261Y-121757965D01*
X84316207Y-121670339D01*
X84316202Y-121670337D01*
X84179204Y-121619238D01*
X84179196Y-121619236D01*
X84118649Y-121612727D01*
X84118638Y-121612727D01*
X84071500Y-121612727D01*
X84003379Y-121592725D01*
X83956886Y-121539069D01*
X83945500Y-121486727D01*
X83945500Y-118876024D01*
X83965502Y-118807903D01*
X83977858Y-118791720D01*
X84051040Y-118710444D01*
X84146527Y-118545056D01*
X84205542Y-118363428D01*
X84225504Y-118173500D01*
X84205542Y-117983572D01*
X84146527Y-117801944D01*
X84051040Y-117636556D01*
X83948306Y-117522458D01*
X83917590Y-117458452D01*
X83926354Y-117387998D01*
X83952845Y-117349057D01*
X87902959Y-113398943D01*
X87965269Y-113364919D01*
X88036084Y-113369984D01*
G37*
G04 #@! TD.AperFunction*
G04 #@! TA.AperFunction,Conductor*
G36*
X87672532Y-118203938D02*
G01*
X87729368Y-118246485D01*
X87754179Y-118313005D01*
X87754500Y-118321994D01*
X87754500Y-121486727D01*
X87734498Y-121554848D01*
X87680842Y-121601341D01*
X87628500Y-121612727D01*
X87577350Y-121612727D01*
X87516803Y-121619236D01*
X87516795Y-121619238D01*
X87379797Y-121670337D01*
X87379792Y-121670339D01*
X87262738Y-121757965D01*
X87218868Y-121816570D01*
X87162032Y-121859117D01*
X87091216Y-121864181D01*
X87028904Y-121830156D01*
X87017132Y-121816570D01*
X86973261Y-121757965D01*
X86856207Y-121670339D01*
X86856202Y-121670337D01*
X86719204Y-121619238D01*
X86719196Y-121619236D01*
X86658649Y-121612727D01*
X86658638Y-121612727D01*
X86607500Y-121612727D01*
X86539379Y-121592725D01*
X86492886Y-121539069D01*
X86481500Y-121486727D01*
X86481500Y-119342994D01*
X86501502Y-119274873D01*
X86518405Y-119253899D01*
X87539405Y-118232899D01*
X87601717Y-118198873D01*
X87672532Y-118203938D01*
G37*
G04 #@! TD.AperFunction*
G04 #@! TA.AperFunction,Conductor*
G36*
X95860780Y-114445502D02*
G01*
X95907273Y-114499158D01*
X95917377Y-114569432D01*
X95887883Y-114634012D01*
X95881754Y-114640595D01*
X93521501Y-117000848D01*
X93459189Y-117034874D01*
X93432406Y-117037753D01*
X93376513Y-117037753D01*
X93189711Y-117077459D01*
X93015247Y-117155135D01*
X92860744Y-117267388D01*
X92732965Y-117409301D01*
X92732958Y-117409311D01*
X92637476Y-117574691D01*
X92637473Y-117574698D01*
X92578457Y-117756325D01*
X92558496Y-117946253D01*
X92578457Y-118136180D01*
X92598828Y-118198873D01*
X92637473Y-118317809D01*
X92637476Y-118317814D01*
X92732958Y-118483194D01*
X92732965Y-118483204D01*
X92865165Y-118630027D01*
X92863091Y-118631894D01*
X92893875Y-118681869D01*
X92892519Y-118752852D01*
X92853002Y-118811835D01*
X92787870Y-118840089D01*
X92772323Y-118841052D01*
X91537051Y-118841052D01*
X91464016Y-118855580D01*
X91414663Y-118865397D01*
X91414661Y-118865397D01*
X91414660Y-118865398D01*
X91299371Y-118913153D01*
X91195619Y-118982478D01*
X91195612Y-118982483D01*
X90435931Y-119742164D01*
X90435926Y-119742171D01*
X90372175Y-119837582D01*
X90366600Y-119845925D01*
X90350633Y-119884472D01*
X90326856Y-119941876D01*
X90318845Y-119961215D01*
X90314834Y-119981380D01*
X90294500Y-120083603D01*
X90294500Y-121486727D01*
X90274498Y-121554848D01*
X90220842Y-121601341D01*
X90168500Y-121612727D01*
X90117350Y-121612727D01*
X90056803Y-121619236D01*
X90056795Y-121619238D01*
X89919797Y-121670337D01*
X89919792Y-121670339D01*
X89802738Y-121757965D01*
X89758868Y-121816570D01*
X89702032Y-121859117D01*
X89631216Y-121864181D01*
X89568904Y-121830156D01*
X89557132Y-121816570D01*
X89513261Y-121757965D01*
X89396207Y-121670339D01*
X89396202Y-121670337D01*
X89259204Y-121619238D01*
X89259196Y-121619236D01*
X89198649Y-121612727D01*
X89198638Y-121612727D01*
X89147500Y-121612727D01*
X89079379Y-121592725D01*
X89032886Y-121539069D01*
X89021500Y-121486727D01*
X89021500Y-119996000D01*
X89041502Y-119927879D01*
X89095158Y-119881386D01*
X89147500Y-119870000D01*
X89249487Y-119870000D01*
X89436288Y-119830294D01*
X89610752Y-119752618D01*
X89765253Y-119640366D01*
X89778104Y-119626094D01*
X89893034Y-119498451D01*
X89893035Y-119498449D01*
X89893040Y-119498444D01*
X89988527Y-119333056D01*
X90047542Y-119151428D01*
X90064907Y-118986203D01*
X90091920Y-118920548D01*
X90101113Y-118910289D01*
X94548999Y-114462405D01*
X94611311Y-114428379D01*
X94638094Y-114425500D01*
X95792659Y-114425500D01*
X95860780Y-114445502D01*
G37*
G04 #@! TD.AperFunction*
G04 #@! TA.AperFunction,Conductor*
G36*
X101026027Y-116742502D02*
G01*
X101072520Y-116796158D01*
X101082624Y-116866432D01*
X101053130Y-116931012D01*
X101047001Y-116937595D01*
X98055931Y-119928664D01*
X98055926Y-119928671D01*
X97989642Y-120027873D01*
X97986600Y-120032425D01*
X97973926Y-120063022D01*
X97939864Y-120145256D01*
X97938845Y-120147715D01*
X97936342Y-120160299D01*
X97914500Y-120270103D01*
X97914500Y-121486727D01*
X97894498Y-121554848D01*
X97840842Y-121601341D01*
X97788500Y-121612727D01*
X97737350Y-121612727D01*
X97676803Y-121619236D01*
X97676795Y-121619238D01*
X97539797Y-121670337D01*
X97539792Y-121670339D01*
X97422738Y-121757965D01*
X97378868Y-121816570D01*
X97322032Y-121859117D01*
X97251216Y-121864181D01*
X97188904Y-121830156D01*
X97177132Y-121816570D01*
X97133261Y-121757965D01*
X97016207Y-121670339D01*
X97016202Y-121670337D01*
X96879204Y-121619238D01*
X96879196Y-121619236D01*
X96818649Y-121612727D01*
X96818638Y-121612727D01*
X96767500Y-121612727D01*
X96699379Y-121592725D01*
X96652886Y-121539069D01*
X96641500Y-121486727D01*
X96641500Y-119166590D01*
X96661502Y-119098469D01*
X96678405Y-119077495D01*
X98996495Y-116759405D01*
X99058807Y-116725379D01*
X99085590Y-116722500D01*
X100957906Y-116722500D01*
X101026027Y-116742502D01*
G37*
G04 #@! TD.AperFunction*
G04 #@! TA.AperFunction,Conductor*
G36*
X109550012Y-119971370D02*
G01*
X109556595Y-119977499D01*
X110581595Y-121002499D01*
X110615621Y-121064811D01*
X110618500Y-121091594D01*
X110618500Y-121486727D01*
X110598498Y-121554848D01*
X110544842Y-121601341D01*
X110492500Y-121612727D01*
X110437350Y-121612727D01*
X110376803Y-121619236D01*
X110376795Y-121619238D01*
X110239797Y-121670337D01*
X110239792Y-121670339D01*
X110122738Y-121757965D01*
X110078868Y-121816570D01*
X110022032Y-121859117D01*
X109951216Y-121864181D01*
X109888904Y-121830156D01*
X109877132Y-121816570D01*
X109833261Y-121757965D01*
X109716207Y-121670339D01*
X109716202Y-121670337D01*
X109579204Y-121619238D01*
X109579196Y-121619236D01*
X109518649Y-121612727D01*
X109518638Y-121612727D01*
X109467500Y-121612727D01*
X109399379Y-121592725D01*
X109352886Y-121539069D01*
X109341500Y-121486727D01*
X109341500Y-120066594D01*
X109361502Y-119998473D01*
X109415158Y-119951980D01*
X109485432Y-119941876D01*
X109550012Y-119971370D01*
G37*
G04 #@! TD.AperFunction*
G04 #@! TA.AperFunction,Conductor*
G36*
X113090426Y-117167713D02*
G01*
X113139921Y-117218613D01*
X113154500Y-117277446D01*
X113154500Y-121486727D01*
X113134498Y-121554848D01*
X113080842Y-121601341D01*
X113028500Y-121612727D01*
X112977350Y-121612727D01*
X112916803Y-121619236D01*
X112916795Y-121619238D01*
X112779797Y-121670337D01*
X112779792Y-121670339D01*
X112662738Y-121757965D01*
X112618868Y-121816570D01*
X112562032Y-121859117D01*
X112491216Y-121864181D01*
X112428904Y-121830156D01*
X112417132Y-121816570D01*
X112373261Y-121757965D01*
X112256207Y-121670339D01*
X112256202Y-121670337D01*
X112119204Y-121619238D01*
X112119196Y-121619236D01*
X112058649Y-121612727D01*
X112058638Y-121612727D01*
X112011500Y-121612727D01*
X111943379Y-121592725D01*
X111896886Y-121539069D01*
X111885500Y-121486727D01*
X111885500Y-120714607D01*
X111885499Y-120714603D01*
X111861155Y-120592215D01*
X111813400Y-120476925D01*
X111744071Y-120373167D01*
X111655833Y-120284929D01*
X111624957Y-120254053D01*
X111590931Y-120191741D01*
X111595996Y-120120926D01*
X111638543Y-120064090D01*
X111639991Y-120063022D01*
X111654709Y-120052329D01*
X111698153Y-120020765D01*
X111718225Y-119998473D01*
X111825934Y-119878850D01*
X111825935Y-119878848D01*
X111825940Y-119878843D01*
X111921427Y-119713455D01*
X111980442Y-119531827D01*
X112000404Y-119341899D01*
X111980442Y-119151971D01*
X111976777Y-119140691D01*
X111974749Y-119069723D01*
X112011412Y-119008925D01*
X112070411Y-118978507D01*
X112245488Y-118941294D01*
X112419952Y-118863618D01*
X112574453Y-118751366D01*
X112584761Y-118739918D01*
X112702234Y-118609451D01*
X112702235Y-118609449D01*
X112702240Y-118609444D01*
X112797727Y-118444056D01*
X112856742Y-118262428D01*
X112876704Y-118072500D01*
X112870078Y-118009463D01*
X112877413Y-117959034D01*
X112875357Y-117958411D01*
X112877150Y-117952496D01*
X112877155Y-117952485D01*
X112901500Y-117830094D01*
X112901500Y-117705307D01*
X112901500Y-117278173D01*
X112921502Y-117210052D01*
X112953409Y-117176259D01*
X112954410Y-117175531D01*
X113021269Y-117151654D01*
X113090426Y-117167713D01*
G37*
G04 #@! TD.AperFunction*
G04 #@! TA.AperFunction,Conductor*
G36*
X114630012Y-115297560D02*
G01*
X114636595Y-115303689D01*
X115763195Y-116430289D01*
X115797221Y-116492601D01*
X115800100Y-116519384D01*
X115800100Y-121486727D01*
X115780098Y-121554848D01*
X115726442Y-121601341D01*
X115674100Y-121612727D01*
X115517350Y-121612727D01*
X115456803Y-121619236D01*
X115456795Y-121619238D01*
X115319797Y-121670337D01*
X115319792Y-121670339D01*
X115202738Y-121757965D01*
X115158868Y-121816570D01*
X115102032Y-121859117D01*
X115031216Y-121864181D01*
X114968904Y-121830156D01*
X114957132Y-121816570D01*
X114913261Y-121757965D01*
X114796207Y-121670339D01*
X114796202Y-121670337D01*
X114659204Y-121619238D01*
X114659196Y-121619236D01*
X114598649Y-121612727D01*
X114598638Y-121612727D01*
X114547500Y-121612727D01*
X114479379Y-121592725D01*
X114432886Y-121539069D01*
X114421500Y-121486727D01*
X114421500Y-115392784D01*
X114441502Y-115324663D01*
X114495158Y-115278170D01*
X114565432Y-115268066D01*
X114630012Y-115297560D01*
G37*
G04 #@! TD.AperFunction*
G04 #@! TA.AperFunction,Conductor*
G36*
X115354153Y-113355147D02*
G01*
X115405456Y-113386251D01*
X118197595Y-116178390D01*
X118231621Y-116240702D01*
X118234500Y-116267485D01*
X118234500Y-121486727D01*
X118214498Y-121554848D01*
X118160842Y-121601341D01*
X118108500Y-121612727D01*
X118057350Y-121612727D01*
X117996803Y-121619236D01*
X117996795Y-121619238D01*
X117859797Y-121670337D01*
X117859792Y-121670339D01*
X117742738Y-121757965D01*
X117698868Y-121816570D01*
X117642032Y-121859117D01*
X117571216Y-121864181D01*
X117508904Y-121830156D01*
X117497132Y-121816570D01*
X117453261Y-121757965D01*
X117336207Y-121670339D01*
X117336202Y-121670337D01*
X117199204Y-121619238D01*
X117199197Y-121619237D01*
X117179629Y-121617133D01*
X117114037Y-121589963D01*
X117073547Y-121531644D01*
X117067100Y-121491855D01*
X117067100Y-116142397D01*
X117067099Y-116142393D01*
X117042755Y-116020005D01*
X116995000Y-115904715D01*
X116925671Y-115800957D01*
X116837433Y-115712719D01*
X114919715Y-113795001D01*
X114885689Y-113732689D01*
X114890754Y-113661874D01*
X114933301Y-113605038D01*
X114957557Y-113590801D01*
X115010752Y-113567118D01*
X115165253Y-113454866D01*
X115222727Y-113391034D01*
X115283169Y-113353796D01*
X115354153Y-113355147D01*
G37*
G04 #@! TD.AperFunction*
G04 #@! TA.AperFunction,Conductor*
G36*
X118412697Y-113350496D02*
G01*
X118464002Y-113381601D01*
X120436795Y-115354394D01*
X120470821Y-115416706D01*
X120473700Y-115443489D01*
X120473700Y-121555289D01*
X120453698Y-121623410D01*
X120406686Y-121664145D01*
X120407708Y-121666017D01*
X120399799Y-121670335D01*
X120282738Y-121757965D01*
X120238868Y-121816570D01*
X120182032Y-121859117D01*
X120111216Y-121864181D01*
X120048904Y-121830156D01*
X120037132Y-121816570D01*
X119993261Y-121757965D01*
X119876207Y-121670339D01*
X119876202Y-121670337D01*
X119739204Y-121619238D01*
X119739196Y-121619236D01*
X119678649Y-121612727D01*
X119678638Y-121612727D01*
X119627500Y-121612727D01*
X119559379Y-121592725D01*
X119512886Y-121539069D01*
X119501500Y-121486727D01*
X119501500Y-115890498D01*
X119501499Y-115890494D01*
X119477155Y-115768106D01*
X119429400Y-115652816D01*
X119360071Y-115549058D01*
X119271833Y-115460820D01*
X117646754Y-113835741D01*
X117612728Y-113773429D01*
X117617793Y-113702614D01*
X117660340Y-113645778D01*
X117726860Y-113620967D01*
X117735849Y-113620646D01*
X117761340Y-113620646D01*
X117948141Y-113580940D01*
X118122605Y-113503264D01*
X118277106Y-113391012D01*
X118281269Y-113386388D01*
X118341713Y-113349147D01*
X118412697Y-113350496D01*
G37*
G04 #@! TD.AperFunction*
G04 #@! TA.AperFunction,Conductor*
G36*
X121949212Y-120000770D02*
G01*
X121955795Y-120006899D01*
X123277595Y-121328699D01*
X123311621Y-121391011D01*
X123314500Y-121417794D01*
X123314500Y-121486727D01*
X123294498Y-121554848D01*
X123240842Y-121601341D01*
X123188500Y-121612727D01*
X123137350Y-121612727D01*
X123076803Y-121619236D01*
X123076795Y-121619238D01*
X122939797Y-121670337D01*
X122939792Y-121670339D01*
X122822738Y-121757965D01*
X122778868Y-121816570D01*
X122722032Y-121859117D01*
X122651216Y-121864181D01*
X122588904Y-121830156D01*
X122577132Y-121816570D01*
X122533261Y-121757965D01*
X122416207Y-121670339D01*
X122416202Y-121670337D01*
X122279204Y-121619238D01*
X122279196Y-121619236D01*
X122218649Y-121612727D01*
X122218638Y-121612727D01*
X121866700Y-121612727D01*
X121798579Y-121592725D01*
X121752086Y-121539069D01*
X121740700Y-121486727D01*
X121740700Y-120095994D01*
X121760702Y-120027873D01*
X121814358Y-119981380D01*
X121884632Y-119971276D01*
X121949212Y-120000770D01*
G37*
G04 #@! TD.AperFunction*
G04 #@! TA.AperFunction,Conductor*
G36*
X122399212Y-116742370D02*
G01*
X122405795Y-116748499D01*
X125817595Y-120160299D01*
X125851621Y-120222611D01*
X125854500Y-120249394D01*
X125854500Y-121486727D01*
X125834498Y-121554848D01*
X125780842Y-121601341D01*
X125728500Y-121612727D01*
X125677350Y-121612727D01*
X125616803Y-121619236D01*
X125616795Y-121619238D01*
X125479797Y-121670337D01*
X125479792Y-121670339D01*
X125362738Y-121757965D01*
X125318868Y-121816570D01*
X125262032Y-121859117D01*
X125191216Y-121864181D01*
X125128904Y-121830156D01*
X125117132Y-121816570D01*
X125073261Y-121757965D01*
X124956207Y-121670339D01*
X124956202Y-121670337D01*
X124819204Y-121619238D01*
X124819196Y-121619236D01*
X124758649Y-121612727D01*
X124758638Y-121612727D01*
X124707500Y-121612727D01*
X124639379Y-121592725D01*
X124592886Y-121539069D01*
X124581500Y-121486727D01*
X124581500Y-121040807D01*
X124581499Y-121040803D01*
X124573880Y-121002499D01*
X124557155Y-120918415D01*
X124509400Y-120803125D01*
X124440071Y-120699367D01*
X124351833Y-120611129D01*
X123406204Y-119665500D01*
X122439238Y-118698533D01*
X122439234Y-118698530D01*
X122439233Y-118698529D01*
X122381426Y-118659903D01*
X122362333Y-118644233D01*
X122227605Y-118509505D01*
X122193579Y-118447193D01*
X122190700Y-118420410D01*
X122190700Y-116837594D01*
X122210702Y-116769473D01*
X122264358Y-116722980D01*
X122334632Y-116712876D01*
X122399212Y-116742370D01*
G37*
G04 #@! TD.AperFunction*
G04 #@! TA.AperFunction,Conductor*
G36*
X128074327Y-120490702D02*
G01*
X128095301Y-120507605D01*
X128357595Y-120769899D01*
X128391621Y-120832211D01*
X128394500Y-120858994D01*
X128394500Y-121486727D01*
X128374498Y-121554848D01*
X128320842Y-121601341D01*
X128268500Y-121612727D01*
X128217350Y-121612727D01*
X128156803Y-121619236D01*
X128156795Y-121619238D01*
X128019797Y-121670337D01*
X128019792Y-121670339D01*
X127902738Y-121757965D01*
X127858868Y-121816570D01*
X127802032Y-121859117D01*
X127731216Y-121864181D01*
X127668904Y-121830156D01*
X127657132Y-121816570D01*
X127613261Y-121757965D01*
X127496207Y-121670339D01*
X127496202Y-121670337D01*
X127359204Y-121619238D01*
X127359196Y-121619236D01*
X127298649Y-121612727D01*
X127298638Y-121612727D01*
X127247500Y-121612727D01*
X127179379Y-121592725D01*
X127132886Y-121539069D01*
X127121500Y-121486727D01*
X127121500Y-120596700D01*
X127141502Y-120528579D01*
X127195158Y-120482086D01*
X127247500Y-120470700D01*
X127264887Y-120470700D01*
X128006206Y-120470700D01*
X128074327Y-120490702D01*
G37*
G04 #@! TD.AperFunction*
G04 #@! TA.AperFunction,Conductor*
G36*
X111084181Y-117523606D02*
G01*
X111133661Y-117574520D01*
X111147761Y-117644102D01*
X111131345Y-117696316D01*
X111128674Y-117700941D01*
X111128673Y-117700943D01*
X111128673Y-117700944D01*
X111117281Y-117736006D01*
X111069657Y-117882572D01*
X111049696Y-118072500D01*
X111069657Y-118262429D01*
X111073323Y-118273711D01*
X111075349Y-118344679D01*
X111038684Y-118405476D01*
X110979687Y-118435890D01*
X110804614Y-118473103D01*
X110804612Y-118473104D01*
X110659391Y-118537760D01*
X110589024Y-118547194D01*
X110524727Y-118517087D01*
X110519048Y-118511748D01*
X110128459Y-118121159D01*
X110094433Y-118058847D01*
X110099498Y-117988032D01*
X110123915Y-117947756D01*
X110244222Y-117814143D01*
X110261048Y-117784998D01*
X110312431Y-117736006D01*
X110370167Y-117722000D01*
X110486100Y-117722000D01*
X110672901Y-117682294D01*
X110847365Y-117604618D01*
X110948163Y-117531383D01*
X111015029Y-117507526D01*
X111084181Y-117523606D01*
G37*
G04 #@! TD.AperFunction*
G04 #@! TA.AperFunction,Conductor*
G36*
X97579730Y-114895502D02*
G01*
X97626223Y-114949158D01*
X97636327Y-115019432D01*
X97606833Y-115084012D01*
X97600704Y-115090595D01*
X94594873Y-118096425D01*
X94532561Y-118130451D01*
X94461745Y-118125386D01*
X94404910Y-118082839D01*
X94380099Y-118016319D01*
X94380467Y-117994169D01*
X94382908Y-117970952D01*
X94409922Y-117905299D01*
X94419113Y-117895042D01*
X97401752Y-114912405D01*
X97464064Y-114878379D01*
X97490847Y-114875500D01*
X97511609Y-114875500D01*
X97579730Y-114895502D01*
G37*
G04 #@! TD.AperFunction*
G04 #@! TA.AperFunction,Conductor*
G36*
X106271533Y-108596671D02*
G01*
X106282740Y-108606619D01*
X107518353Y-109842232D01*
X107606591Y-109930470D01*
X107710349Y-109999799D01*
X107825639Y-110047554D01*
X107948030Y-110071899D01*
X108615805Y-110071899D01*
X108683926Y-110091901D01*
X108704900Y-110108804D01*
X111715941Y-113119845D01*
X111749967Y-113182157D01*
X111744902Y-113252972D01*
X111702355Y-113309808D01*
X111700919Y-113310867D01*
X111697251Y-113313532D01*
X111697244Y-113313538D01*
X111569465Y-113455451D01*
X111569458Y-113455461D01*
X111474089Y-113620646D01*
X111473973Y-113620847D01*
X111463562Y-113652890D01*
X111414957Y-113802475D01*
X111397593Y-113967693D01*
X111370580Y-114033350D01*
X111361379Y-114043618D01*
X110988670Y-114416329D01*
X110886404Y-114518595D01*
X110824091Y-114552620D01*
X110797308Y-114555500D01*
X108386587Y-114555500D01*
X108318466Y-114535498D01*
X108271973Y-114481842D01*
X108261277Y-114416329D01*
X108273504Y-114300000D01*
X108253542Y-114110072D01*
X108194527Y-113928444D01*
X108099040Y-113763056D01*
X108099038Y-113763054D01*
X108099034Y-113763048D01*
X107971255Y-113621135D01*
X107816752Y-113508882D01*
X107707260Y-113460133D01*
X107653164Y-113414152D01*
X107632515Y-113346225D01*
X107649389Y-113282027D01*
X107727027Y-113147556D01*
X107786042Y-112965928D01*
X107806004Y-112776000D01*
X107786042Y-112586072D01*
X107727027Y-112404444D01*
X107631540Y-112239056D01*
X107631538Y-112239054D01*
X107631534Y-112239048D01*
X107503755Y-112097135D01*
X107349252Y-111984882D01*
X107174788Y-111907206D01*
X106987987Y-111867500D01*
X106797013Y-111867500D01*
X106610211Y-111907206D01*
X106435747Y-111984882D01*
X106281247Y-112097133D01*
X106232197Y-112151610D01*
X106171751Y-112188850D01*
X106138560Y-112193300D01*
X103003190Y-112193300D01*
X102935069Y-112173298D01*
X102888576Y-112119642D01*
X102878472Y-112049368D01*
X102907966Y-111984788D01*
X102914095Y-111978205D01*
X104195196Y-110697105D01*
X105648072Y-109244229D01*
X105717401Y-109140471D01*
X105761227Y-109034664D01*
X105761228Y-109034663D01*
X105765154Y-109025184D01*
X105765154Y-109025183D01*
X105765153Y-109025183D01*
X105765155Y-109025181D01*
X105766814Y-109016839D01*
X105799715Y-108953930D01*
X105816324Y-108939484D01*
X105894253Y-108882866D01*
X105899447Y-108877098D01*
X106022034Y-108740951D01*
X106022035Y-108740949D01*
X106022040Y-108740944D01*
X106084527Y-108632712D01*
X106135908Y-108583721D01*
X106205622Y-108570284D01*
X106271533Y-108596671D01*
G37*
G04 #@! TD.AperFunction*
G04 #@! TA.AperFunction,Conductor*
G36*
X91376326Y-112540502D02*
G01*
X91422819Y-112594158D01*
X91432923Y-112664432D01*
X91403429Y-112729012D01*
X91397300Y-112735595D01*
X91114135Y-113018759D01*
X91114123Y-113018774D01*
X91102280Y-113036497D01*
X91086614Y-113055585D01*
X90936616Y-113205583D01*
X90874304Y-113239609D01*
X90872106Y-113240066D01*
X90835020Y-113247443D01*
X90835010Y-113247446D01*
X90809158Y-113258154D01*
X90809159Y-113258155D01*
X90719723Y-113295200D01*
X90615967Y-113364527D01*
X90131698Y-113848796D01*
X90069386Y-113882821D01*
X89998570Y-113877756D01*
X89941735Y-113835209D01*
X89916924Y-113768689D01*
X89919359Y-113733492D01*
X89920542Y-113727926D01*
X89937907Y-113562704D01*
X89964920Y-113497049D01*
X89974104Y-113486799D01*
X90903502Y-112557402D01*
X90965812Y-112523379D01*
X90992595Y-112520500D01*
X91308205Y-112520500D01*
X91376326Y-112540502D01*
G37*
G04 #@! TD.AperFunction*
G04 #@! TA.AperFunction,Conductor*
G36*
X106315907Y-113480302D02*
G01*
X106321847Y-113484364D01*
X106339521Y-113497205D01*
X106435748Y-113567118D01*
X106545239Y-113615866D01*
X106599335Y-113661846D01*
X106619984Y-113729773D01*
X106603112Y-113793969D01*
X106598148Y-113802566D01*
X106589566Y-113817431D01*
X106538187Y-113866425D01*
X106480446Y-113880434D01*
X104638710Y-113880434D01*
X104570589Y-113860432D01*
X104545073Y-113838744D01*
X104512416Y-113802475D01*
X104497253Y-113785634D01*
X104480454Y-113773429D01*
X104382986Y-113702614D01*
X104363195Y-113688234D01*
X104319842Y-113632014D01*
X104313767Y-113561278D01*
X104346898Y-113498486D01*
X104408718Y-113463575D01*
X104437257Y-113460300D01*
X106247786Y-113460300D01*
X106315907Y-113480302D01*
G37*
G04 #@! TD.AperFunction*
G04 #@! TA.AperFunction,Conductor*
G36*
X95444293Y-110870229D02*
G01*
X95508136Y-110875935D01*
X95564207Y-110919484D01*
X95587834Y-110986434D01*
X95571514Y-111055529D01*
X95571134Y-111056191D01*
X95493591Y-111190500D01*
X95442209Y-111239493D01*
X95384472Y-111253500D01*
X90615603Y-111253500D01*
X90493217Y-111277844D01*
X90493215Y-111277845D01*
X90476753Y-111284664D01*
X90377924Y-111325599D01*
X90274167Y-111394927D01*
X90073008Y-111596087D01*
X89076499Y-112592596D01*
X89014189Y-112626620D01*
X88987406Y-112629500D01*
X88976593Y-112629500D01*
X88908472Y-112609498D01*
X88861979Y-112555842D01*
X88851875Y-112485568D01*
X88881369Y-112420988D01*
X88887498Y-112414405D01*
X89546077Y-111755827D01*
X90395499Y-110906405D01*
X90457811Y-110872379D01*
X90484594Y-110869500D01*
X95437997Y-110869500D01*
X95437998Y-110869500D01*
X95437998Y-110869499D01*
X95444162Y-110868893D01*
X95444293Y-110870229D01*
G37*
G04 #@! TD.AperFunction*
G04 #@! TA.AperFunction,Conductor*
G36*
X115191582Y-104295151D02*
G01*
X115231630Y-104322118D01*
X121344595Y-110435083D01*
X121378621Y-110497395D01*
X121381500Y-110524178D01*
X121381500Y-112064209D01*
X121361498Y-112132330D01*
X121307842Y-112178823D01*
X121237568Y-112188927D01*
X121181439Y-112166145D01*
X121106752Y-112111882D01*
X120932288Y-112034206D01*
X120745487Y-111994500D01*
X120554513Y-111994500D01*
X120367709Y-112034206D01*
X120317772Y-112056440D01*
X120247405Y-112065874D01*
X120183108Y-112035767D01*
X120177429Y-112030428D01*
X117093429Y-108946428D01*
X117093427Y-108946426D01*
X116989669Y-108877097D01*
X116874379Y-108829342D01*
X116800680Y-108814682D01*
X116751990Y-108804997D01*
X116751988Y-108804997D01*
X116357091Y-108804997D01*
X116288970Y-108784995D01*
X116267996Y-108768092D01*
X114515572Y-107015668D01*
X114481546Y-106953356D01*
X114479359Y-106939756D01*
X114460736Y-106762567D01*
X114401721Y-106580939D01*
X114306234Y-106415551D01*
X114306232Y-106415549D01*
X114306228Y-106415543D01*
X114178449Y-106273630D01*
X114023946Y-106161377D01*
X113849482Y-106083701D01*
X113662681Y-106043995D01*
X113471707Y-106043995D01*
X113284905Y-106083701D01*
X113110441Y-106161377D01*
X112955940Y-106273629D01*
X112901074Y-106334564D01*
X112840628Y-106371803D01*
X112769644Y-106370451D01*
X112718343Y-106339348D01*
X112325590Y-105946595D01*
X112291564Y-105884283D01*
X112296629Y-105813468D01*
X112339176Y-105756632D01*
X112405696Y-105731821D01*
X112414685Y-105731500D01*
X113912393Y-105731500D01*
X113912394Y-105731500D01*
X114034785Y-105707155D01*
X114034795Y-105707151D01*
X114068737Y-105693092D01*
X114116956Y-105683500D01*
X114268487Y-105683500D01*
X114455288Y-105643794D01*
X114629752Y-105566118D01*
X114784253Y-105453866D01*
X114801403Y-105434819D01*
X114912034Y-105311951D01*
X114912035Y-105311949D01*
X114912040Y-105311944D01*
X115007527Y-105146556D01*
X115066542Y-104964928D01*
X115086504Y-104775000D01*
X115066542Y-104585072D01*
X115022701Y-104450147D01*
X115020674Y-104379183D01*
X115057336Y-104318384D01*
X115121048Y-104287059D01*
X115191582Y-104295151D01*
G37*
G04 #@! TD.AperFunction*
G04 #@! TA.AperFunction,Conductor*
G36*
X101580486Y-105031188D02*
G01*
X101637322Y-105073735D01*
X101662133Y-105140255D01*
X101653647Y-105192630D01*
X101654144Y-105192781D01*
X101653025Y-105196467D01*
X101652866Y-105197455D01*
X101652346Y-105198708D01*
X101628000Y-105321103D01*
X101628000Y-105469474D01*
X101607998Y-105537595D01*
X101595637Y-105553784D01*
X101522457Y-105635059D01*
X101426976Y-105800438D01*
X101426973Y-105800445D01*
X101367957Y-105982072D01*
X101347996Y-106172000D01*
X101367957Y-106361927D01*
X101385381Y-106415551D01*
X101426973Y-106543556D01*
X101426976Y-106543561D01*
X101522458Y-106708941D01*
X101522465Y-106708951D01*
X101650244Y-106850864D01*
X101650247Y-106850866D01*
X101804748Y-106963118D01*
X101979212Y-107040794D01*
X102166013Y-107080500D01*
X102226500Y-107080500D01*
X102294621Y-107100502D01*
X102341114Y-107154158D01*
X102352500Y-107206500D01*
X102352500Y-107773405D01*
X102332498Y-107841526D01*
X102315595Y-107862500D01*
X99533509Y-110644585D01*
X99471197Y-110678611D01*
X99400381Y-110673546D01*
X99350778Y-110639800D01*
X99295252Y-110578132D01*
X99140749Y-110465879D01*
X98966285Y-110388203D01*
X98779484Y-110348497D01*
X98588510Y-110348497D01*
X98401708Y-110388203D01*
X98227244Y-110465879D01*
X98072741Y-110578132D01*
X97944962Y-110720045D01*
X97944955Y-110720055D01*
X97857011Y-110872379D01*
X97849470Y-110885441D01*
X97842658Y-110906405D01*
X97790454Y-111067069D01*
X97773090Y-111232287D01*
X97746077Y-111297944D01*
X97736875Y-111308213D01*
X97449000Y-111596087D01*
X97386688Y-111630112D01*
X97315872Y-111625047D01*
X97259037Y-111582500D01*
X97234596Y-111520163D01*
X97219441Y-111375971D01*
X97160426Y-111194343D01*
X97064939Y-111028955D01*
X97064937Y-111028953D01*
X97064933Y-111028947D01*
X96937154Y-110887034D01*
X96782651Y-110774781D01*
X96608187Y-110697105D01*
X96421386Y-110657399D01*
X96230412Y-110657399D01*
X96230411Y-110657399D01*
X96163525Y-110671616D01*
X96092734Y-110666214D01*
X96036101Y-110623397D01*
X96011608Y-110556759D01*
X96027029Y-110487458D01*
X96048229Y-110459278D01*
X101447360Y-105060148D01*
X101509671Y-105026123D01*
X101580486Y-105031188D01*
G37*
G04 #@! TD.AperFunction*
G04 #@! TA.AperFunction,Conductor*
G36*
X101539727Y-93422702D02*
G01*
X101560701Y-93439605D01*
X101831167Y-93710071D01*
X101934925Y-93779400D01*
X102050215Y-93827155D01*
X102172606Y-93851500D01*
X102297394Y-93851500D01*
X103133300Y-93851500D01*
X103201421Y-93871502D01*
X103226937Y-93893190D01*
X103230247Y-93896866D01*
X103384748Y-94009118D01*
X103559212Y-94086794D01*
X103746013Y-94126500D01*
X103936987Y-94126500D01*
X104123788Y-94086794D01*
X104298252Y-94009118D01*
X104452753Y-93896866D01*
X104473927Y-93873348D01*
X104534372Y-93836110D01*
X104605355Y-93837460D01*
X104656659Y-93868564D01*
X106185797Y-95397701D01*
X106219822Y-95460013D01*
X106222702Y-95486796D01*
X106222702Y-95731078D01*
X106202700Y-95799199D01*
X106190339Y-95815388D01*
X106117159Y-95896663D01*
X106021678Y-96062042D01*
X106021675Y-96062049D01*
X105962659Y-96243676D01*
X105942698Y-96433604D01*
X105962659Y-96623531D01*
X105988672Y-96703589D01*
X106021675Y-96805160D01*
X106021678Y-96805165D01*
X106117160Y-96970545D01*
X106117167Y-96970555D01*
X106244946Y-97112468D01*
X106307080Y-97157611D01*
X106350434Y-97213833D01*
X106356509Y-97284569D01*
X106352852Y-97298483D01*
X106328969Y-97371985D01*
X106309008Y-97561914D01*
X106328969Y-97751841D01*
X106359038Y-97844384D01*
X106387985Y-97933470D01*
X106387988Y-97933475D01*
X106483470Y-98098855D01*
X106483473Y-98098859D01*
X106527488Y-98147743D01*
X106558205Y-98211751D01*
X106549440Y-98282204D01*
X106522946Y-98321148D01*
X103163501Y-101680595D01*
X103101189Y-101714620D01*
X103074406Y-101717500D01*
X101925412Y-101717500D01*
X101803029Y-101741844D01*
X101803021Y-101741846D01*
X101769259Y-101755830D01*
X101769259Y-101755831D01*
X101690593Y-101788416D01*
X101687737Y-101789599D01*
X101583979Y-101858927D01*
X100743173Y-102699735D01*
X100680860Y-102733760D01*
X100654077Y-102736640D01*
X100015370Y-102736640D01*
X99947249Y-102716638D01*
X99921733Y-102694950D01*
X99918422Y-102691273D01*
X99763922Y-102579022D01*
X99589458Y-102501346D01*
X99402657Y-102461640D01*
X99211683Y-102461640D01*
X99211677Y-102461640D01*
X99210689Y-102461850D01*
X99210103Y-102461805D01*
X99205110Y-102462330D01*
X99205014Y-102461416D01*
X99139899Y-102456444D01*
X99083269Y-102413624D01*
X99058779Y-102346985D01*
X99058500Y-102338602D01*
X99058500Y-95995912D01*
X99058499Y-95995908D01*
X99050191Y-95954140D01*
X99034155Y-95873520D01*
X98986400Y-95758230D01*
X98917071Y-95654472D01*
X98828833Y-95566234D01*
X98587405Y-95324806D01*
X98553379Y-95262494D01*
X98550500Y-95235711D01*
X98550500Y-93654594D01*
X98570502Y-93586473D01*
X98624158Y-93539980D01*
X98694432Y-93529876D01*
X98759012Y-93559370D01*
X98765595Y-93565499D01*
X99278595Y-94078499D01*
X99312621Y-94140811D01*
X99315500Y-94167594D01*
X99315500Y-95568606D01*
X99315500Y-95693394D01*
X99339845Y-95815785D01*
X99387600Y-95931075D01*
X99456929Y-96034833D01*
X99456931Y-96034835D01*
X101936410Y-98514314D01*
X101970436Y-98576626D01*
X101973315Y-98603409D01*
X101973315Y-99791974D01*
X101953313Y-99860095D01*
X101940952Y-99876284D01*
X101867772Y-99957559D01*
X101772291Y-100122938D01*
X101772288Y-100122944D01*
X101757814Y-100167486D01*
X101713272Y-100304572D01*
X101693311Y-100494500D01*
X101713272Y-100684427D01*
X101724975Y-100720444D01*
X101772288Y-100866056D01*
X101785245Y-100888498D01*
X101867773Y-101031441D01*
X101867780Y-101031451D01*
X101995559Y-101173364D01*
X101995562Y-101173366D01*
X102150063Y-101285618D01*
X102324527Y-101363294D01*
X102511328Y-101403000D01*
X102702302Y-101403000D01*
X102889103Y-101363294D01*
X103063567Y-101285618D01*
X103218068Y-101173366D01*
X103282827Y-101101444D01*
X103345849Y-101031451D01*
X103345850Y-101031449D01*
X103345855Y-101031444D01*
X103441342Y-100866056D01*
X103500357Y-100684428D01*
X103520319Y-100494500D01*
X103500357Y-100304572D01*
X103441342Y-100122944D01*
X103345855Y-99957556D01*
X103272678Y-99876284D01*
X103241961Y-99812276D01*
X103240315Y-99791974D01*
X103240315Y-98226422D01*
X103240314Y-98226418D01*
X103215970Y-98104030D01*
X103168215Y-97988740D01*
X103098886Y-97884982D01*
X103010648Y-97796744D01*
X100619405Y-95405501D01*
X100585379Y-95343189D01*
X100582500Y-95316406D01*
X100582500Y-93790607D01*
X100582500Y-93790606D01*
X100559405Y-93674501D01*
X100565733Y-93603792D01*
X100608921Y-93547988D01*
X100746453Y-93448066D01*
X100749763Y-93444390D01*
X100810209Y-93407150D01*
X100843400Y-93402700D01*
X101471606Y-93402700D01*
X101539727Y-93422702D01*
G37*
G04 #@! TD.AperFunction*
G04 #@! TA.AperFunction,Conductor*
G36*
X117088921Y-96157502D02*
G01*
X117114437Y-96179190D01*
X117117747Y-96182866D01*
X117272248Y-96295118D01*
X117446712Y-96372794D01*
X117633513Y-96412500D01*
X117824487Y-96412500D01*
X118011288Y-96372794D01*
X118061251Y-96350548D01*
X118131616Y-96341114D01*
X118195914Y-96371219D01*
X118233728Y-96431307D01*
X118238500Y-96465655D01*
X118238500Y-101626720D01*
X118232333Y-101665656D01*
X118172249Y-101850571D01*
X118158169Y-101984540D01*
X118131156Y-102050197D01*
X118072934Y-102090826D01*
X118001989Y-102093529D01*
X117943764Y-102060464D01*
X113943231Y-98059931D01*
X113943229Y-98059929D01*
X113839471Y-97990600D01*
X113792074Y-97970967D01*
X113736794Y-97926420D01*
X113714373Y-97859056D01*
X113731176Y-97791555D01*
X113737527Y-97780556D01*
X113796542Y-97598928D01*
X113816504Y-97409000D01*
X113796542Y-97219072D01*
X113737527Y-97037444D01*
X113665420Y-96912552D01*
X113648683Y-96843558D01*
X113671903Y-96776466D01*
X113685438Y-96760464D01*
X114271500Y-96174404D01*
X114333812Y-96140379D01*
X114360595Y-96137500D01*
X117020800Y-96137500D01*
X117088921Y-96157502D01*
G37*
G04 #@! TD.AperFunction*
G04 #@! TA.AperFunction,Conductor*
G36*
X120438512Y-97319773D02*
G01*
X120445095Y-97325902D01*
X120450595Y-97331402D01*
X120484621Y-97393714D01*
X120487500Y-97420497D01*
X120487500Y-100395582D01*
X120467498Y-100463703D01*
X120413842Y-100510196D01*
X120343568Y-100520300D01*
X120278988Y-100490806D01*
X120267866Y-100479895D01*
X120262366Y-100473787D01*
X120231647Y-100409781D01*
X120230000Y-100389474D01*
X120230000Y-97414997D01*
X120250002Y-97346876D01*
X120303658Y-97300383D01*
X120373932Y-97290279D01*
X120438512Y-97319773D01*
G37*
G04 #@! TD.AperFunction*
G04 #@! TA.AperFunction,Conductor*
G36*
X100694871Y-89908034D02*
G01*
X100706078Y-89917982D01*
X103157501Y-92369405D01*
X103191527Y-92431717D01*
X103186462Y-92502532D01*
X103143915Y-92559368D01*
X103077395Y-92584179D01*
X103068406Y-92584500D01*
X102549594Y-92584500D01*
X102481473Y-92564498D01*
X102460499Y-92547595D01*
X102190035Y-92277131D01*
X102190033Y-92277129D01*
X102086275Y-92207800D01*
X101970985Y-92160045D01*
X101897286Y-92145385D01*
X101848596Y-92135700D01*
X101848594Y-92135700D01*
X100843400Y-92135700D01*
X100775279Y-92115698D01*
X100749763Y-92094010D01*
X100746452Y-92090333D01*
X100591952Y-91978082D01*
X100417488Y-91900406D01*
X100230687Y-91860700D01*
X100039713Y-91860700D01*
X100039712Y-91860700D01*
X99849996Y-91901025D01*
X99779205Y-91895623D01*
X99722572Y-91852806D01*
X99698079Y-91786168D01*
X99697799Y-91777778D01*
X99697799Y-91376225D01*
X99717801Y-91308104D01*
X99730157Y-91291921D01*
X99803339Y-91210645D01*
X99898826Y-91045257D01*
X99957841Y-90863629D01*
X99977803Y-90673701D01*
X99960249Y-90506683D01*
X99973021Y-90436845D01*
X100021523Y-90384998D01*
X100034305Y-90378408D01*
X100151752Y-90326118D01*
X100306253Y-90213866D01*
X100410308Y-90098301D01*
X100434034Y-90071951D01*
X100434035Y-90071949D01*
X100434040Y-90071944D01*
X100507864Y-89944076D01*
X100559247Y-89895084D01*
X100628960Y-89881648D01*
X100694871Y-89908034D01*
G37*
G04 #@! TD.AperFunction*
G04 #@! TA.AperFunction,Conductor*
G36*
X115616533Y-88520538D02*
G01*
X115673368Y-88563085D01*
X115698179Y-88629605D01*
X115698500Y-88638594D01*
X115698500Y-90223091D01*
X115704733Y-90254424D01*
X115722845Y-90345480D01*
X115770600Y-90460770D01*
X115839929Y-90564528D01*
X115839931Y-90564530D01*
X116888888Y-91613487D01*
X116922914Y-91675799D01*
X116917849Y-91746614D01*
X116875302Y-91803450D01*
X116873855Y-91804518D01*
X116736742Y-91904137D01*
X116618679Y-92035261D01*
X116558233Y-92072501D01*
X116487250Y-92071149D01*
X116435948Y-92040046D01*
X114577378Y-90181476D01*
X114543352Y-90119164D01*
X114548417Y-90048349D01*
X114572835Y-90008071D01*
X114695540Y-89871795D01*
X114791027Y-89706407D01*
X114850042Y-89524779D01*
X114870004Y-89334851D01*
X114859931Y-89239019D01*
X114872703Y-89169185D01*
X114896143Y-89136759D01*
X115483406Y-88549496D01*
X115545717Y-88515473D01*
X115616533Y-88520538D01*
G37*
G04 #@! TD.AperFunction*
M02*
